<svg width="900" height="250" xmlns="http://www.w3.org/2000/svg">
  <defs>
    <!-- Text outline effect -->
    <filter id="textEffect" x="-50%" y="-50%" width="200%" height="200%">
      <feMorphology in="SourceAlpha" result="dilated" operator="dilate" radius="3"/>
      <feFlood flood-color="#F5EBD8" result="outlineColor"/>
      <feComposite in="outlineColor" in2="dilated" operator="in" result="outline"/>
      <feMerge>
        <feMergeNode in="outline"/>
        <feMergeNode in="SourceGraphic"/>
      </feMerge>
      <feDropShadow dx="4" dy="4" stdDeviation="4" flood-color="#8B6F47" flood-opacity="0.3"/>
    </filter>
  </defs>
  
  <!-- Wavy border for "Thank You For Visiting!" -->
  <path id="wavyBorder1" d="M 20,20 Q 40,0 60,20 T 100,20 T 140,20 T 180,20 T 220,20 T 260,20 T 300,20 T 340,20 T 380,20 T 420,20 T 460,20 T 500,20 T 540,20 T 580,20 T 620,20 T 660,20 T 700,20 T 740,20 T 780,20 T 820,20 T 860,20 T 880,20 L 880,230 Q 860,250 840,230 T 800,230 T 760,230 T 720,230 T 680,230 T 640,230 T 600,230 T 560,230 T 520,230 T 480,230 T 440,230 T 400,230 T 360,230 T 320,230 T 280,230 T 240,230 T 200,230 T 160,230 T 120,230 T 80,230 T 40,230 T 20,230 Z" 
        fill="#E8DCC4" 
        stroke="#8B6F47" 
        stroke-width="4" 
        opacity="0">
    <animate attributeName="d" 
             dur="4s" 
             values="M 20,20 Q 40,0 60,20 T 100,20 T 140,20 T 180,20 T 220,20 T 260,20 T 300,20 T 340,20 T 380,20 T 420,20 T 460,20 T 500,20 T 540,20 T 580,20 T 620,20 T 660,20 T 700,20 T 740,20 T 780,20 T 820,20 T 860,20 T 880,20 L 880,230 Q 860,250 840,230 T 800,230 T 760,230 T 720,230 T 680,230 T 640,230 T 600,230 T 560,230 T 520,230 T 480,230 T 440,230 T 400,230 T 360,230 T 320,230 T 280,230 T 240,230 T 200,230 T 160,230 T 120,230 T 80,230 T 40,230 T 20,230 Z;
                     M 20,20 Q 40,40 60,20 T 100,20 T 140,20 T 180,20 T 220,20 T 260,20 T 300,20 T 340,20 T 380,20 T 420,20 T 460,20 T 500,20 T 540,20 T 580,20 T 620,20 T 660,20 T 700,20 T 740,20 T 780,20 T 820,20 T 860,20 T 880,20 L 880,230 Q 860,210 840,230 T 800,230 T 760,230 T 720,230 T 680,230 T 640,230 T 600,230 T 560,230 T 520,230 T 480,230 T 440,230 T 400,230 T 360,230 T 320,230 T 280,230 T 240,230 T 200,230 T 160,230 T 120,230 T 80,230 T 40,230 T 20,230 Z;
                     M 20,20 Q 40,0 60,20 T 100,20 T 140,20 T 180,20 T 220,20 T 260,20 T 300,20 T 340,20 T 380,20 T 420,20 T 460,20 T 500,20 T 540,20 T 580,20 T 620,20 T 660,20 T 700,20 T 740,20 T 780,20 T 820,20 T 860,20 T 880,20 L 880,230 Q 860,250 840,230 T 800,230 T 760,230 T 720,230 T 680,230 T 640,230 T 600,230 T 560,230 T 520,230 T 480,230 T 440,230 T 400,230 T 360,230 T 320,230 T 280,230 T 240,230 T 200,230 T 160,230 T 120,230 T 80,230 T 40,230 T 20,230 Z" 
             repeatCount="indefinite"/>
    <animate attributeName="opacity" 
             dur="17s" 
             values="0;1;1;1;1;1;1;1;1;1;0;0;0;0;0;0;0" 
             repeatCount="indefinite"/>
  </path>
  
  <!-- Wavy border for "Bye!" -->
  <path id="wavyBorder2" d="M 300,20 Q 320,0 340,20 T 380,20 T 420,20 T 460,20 T 500,20 T 540,20 T 580,20 T 600,20 L 600,230 Q 580,250 560,230 T 520,230 T 480,230 T 440,230 T 400,230 T 360,230 T 320,230 T 300,230 Z" 
        fill="#E8DCC4" 
        stroke="#8B6F47" 
        stroke-width="4" 
        opacity="0">
    <animate attributeName="d" 
             dur="4s" 
             values="M 300,20 Q 320,0 340,20 T 380,20 T 420,20 T 460,20 T 500,20 T 540,20 T 580,20 T 600,20 L 600,230 Q 580,250 560,230 T 520,230 T 480,230 T 440,230 T 400,230 T 360,230 T 320,230 T 300,230 Z;
                     M 300,20 Q 320,40 340,20 T 380,20 T 420,20 T 460,20 T 500,20 T 540,20 T 580,20 T 600,20 L 600,230 Q 580,210 560,230 T 520,230 T 480,230 T 440,230 T 400,230 T 360,230 T 320,230 T 300,230 Z;
                     M 300,20 Q 320,0 340,20 T 380,20 T 420,20 T 460,20 T 500,20 T 540,20 T 580,20 T 600,20 L 600,230 Q 580,250 560,230 T 520,230 T 480,230 T 440,230 T 400,230 T 360,230 T 320,230 T 300,230 Z" 
             repeatCount="indefinite"/>
    <animate attributeName="opacity" 
             dur="17s" 
             values="0;0;0;0;0;0;0;0;0;0;0;1;1;1;1;1;1" 
             repeatCount="indefinite"/>
  </path>
  
  <!-- Thank You For Visiting! text -->
  <text x="450" y="145" 
        font-family="Arial Rounded MT Bold, Arial, sans-serif" 
        font-size="72" 
        font-weight="bold"
        fill="#8B6F47" 
        text-anchor="middle"
        filter="url(#textEffect)">
    Thank You For Visiting!
    <animate attributeName="opacity" 
             dur="17s" 
             values="0;1;1;1;1;1;1;1;1;1;0;0;0;0;0;0;0" 
             repeatCount="indefinite"/>
  </text>
  
  <!-- Bye! text -->
  <text x="450" y="145" 
        font-family="Arial Rounded MT Bold, Arial, sans-serif" 
        font-size="72" 
        font-weight="bold"
        fill="#8B6F47" 
        text-anchor="middle"
        filter="url(#textEffect)">
    Bye!
    <animate attributeName="opacity" 
             dur="17s" 
             values="0;0;0;0;0;0;0;0;0;0;0;1;1;1;1;1;1" 
             repeatCount="indefinite"/>
  </text>
  
  <!-- Decorative sparkles -->
  <circle cx="200" cy="350" r="3" fill="#F5EBD8" opacity="0">
    <animate attributeName="opacity" dur="2s" values="0;1;0" repeatCount="indefinite"/>
  </circle>
  <circle cx="1000" cy="370" r="3" fill="#F5EBD8" opacity="0">
    <animate attributeName="opacity" dur="2s" values="0;1;0" repeatCount="indefinite" begin="0.5s"/>
  </circle>
  <circle cx="250" cy="450" r="3" fill="#F5EBD8" opacity="0">
    <animate attributeName="opacity" dur="2s" values="0;1;0" repeatCount="indefinite" begin="1s"/>
  </circle>
  <circle cx="950" cy="430" r="3" fill="#F5EBD8" opacity="0">
    <animate attributeName="opacity" dur="2s" values="0;1;0" repeatCount="indefinite" begin="1.5s"/>
  </circle>
</svg>