<svg xmlns="http://www.w3.org/2000/svg" width="296" height="341" viewBox="0 0 296 341">
      <style>
        .pet { transform-origin: center; }
      </style>
      <!-- Theme Background -->
      
        <rect x="0" y="0" width="296" height="341" fill="#0d0d0d" rx="12" ry="12"/>
        <g font-family="monospace" font-size="10" fill="#00ff00" opacity="0.3">
          <text x="10" y="15" opacity="0.3527342888196814">七</text><text x="10" y="30" opacity="0.35277756960659434">イ</text><text x="10" y="45" opacity="0.4020234997221839">七</text><text x="10" y="60" opacity="0.3894986167222153">エ</text><text x="10" y="75" opacity="0.3434785056718276">ア</text><text x="10" y="90" opacity="0.2056203518690786">七</text><text x="10" y="105" opacity="0.20786747143082332">エ</text><text x="10" y="120" opacity="0.4713376552272228">力</text><text x="29.733333333333334" y="15" opacity="0.11542571121486803">イ</text><text x="29.733333333333334" y="30" opacity="0.49445410249740207">ア</text><text x="29.733333333333334" y="45" opacity="0.25705279421663374">ウ</text><text x="29.733333333333334" y="60" opacity="0.164970078962737">オ</text><text x="29.733333333333334" y="75" opacity="0.25656755877517345">オ</text><text x="29.733333333333334" y="90" opacity="0.16107031252698947">1</text><text x="29.733333333333334" y="105" opacity="0.503570113329932">エ</text><text x="29.733333333333334" y="120" opacity="0.4479018147792617">オ</text><text x="49.46666666666667" y="15" opacity="0.3109279925899834">オ</text><text x="49.46666666666667" y="30" opacity="0.5416679816325738">ウ</text><text x="49.46666666666667" y="45" opacity="0.38652054815693093">イ</text><text x="49.46666666666667" y="60" opacity="0.13911887851050433">七</text><text x="49.46666666666667" y="75" opacity="0.21015718929534213">1</text><text x="49.46666666666667" y="90" opacity="0.5197702330579527">エ</text><text x="49.46666666666667" y="105" opacity="0.5910607117713789">力</text><text x="49.46666666666667" y="120" opacity="0.4377075144013788">エ</text><text x="69.2" y="15" opacity="0.5366119488836882">九</text><text x="69.2" y="30" opacity="0.46382100590000175">九</text><text x="69.2" y="45" opacity="0.5468549271554076">七</text><text x="69.2" y="60" opacity="0.1229607258643445">エ</text><text x="69.2" y="75" opacity="0.5697522766786356">ウ</text><text x="69.2" y="90" opacity="0.47000985155788144">オ</text><text x="69.2" y="105" opacity="0.39861667913267274">力</text><text x="69.2" y="120" opacity="0.2913871926997309">ア</text><text x="88.93333333333334" y="15" opacity="0.18849282930701086">イ</text><text x="88.93333333333334" y="30" opacity="0.3784952514896429">ア</text><text x="88.93333333333334" y="45" opacity="0.3472462529765511">ア</text><text x="88.93333333333334" y="60" opacity="0.40354159271452983">オ</text><text x="88.93333333333334" y="75" opacity="0.526028008588479">ア</text><text x="88.93333333333334" y="90" opacity="0.30233050075329226">オ</text><text x="88.93333333333334" y="105" opacity="0.4829125312520306">0</text><text x="88.93333333333334" y="120" opacity="0.46089655651889494">1</text><text x="108.66666666666667" y="15" opacity="0.27809486383753">力</text><text x="108.66666666666667" y="30" opacity="0.24727971948716435">1</text><text x="108.66666666666667" y="45" opacity="0.405757867969017">九</text><text x="108.66666666666667" y="60" opacity="0.1613282576315457">ウ</text><text x="108.66666666666667" y="75" opacity="0.4990410363585852">1</text><text x="108.66666666666667" y="90" opacity="0.219018122815295">九</text><text x="108.66666666666667" y="105" opacity="0.5589067214287726">七</text><text x="108.66666666666667" y="120" opacity="0.3806252085655948">イ</text><text x="128.4" y="15" opacity="0.2999272435078262">七</text><text x="128.4" y="30" opacity="0.35140346386919186">エ</text><text x="128.4" y="45" opacity="0.28564625567386814">七</text><text x="128.4" y="60" opacity="0.1789358422949088">九</text><text x="128.4" y="75" opacity="0.4026820637554085">九</text><text x="128.4" y="90" opacity="0.22398429629771513">七</text><text x="128.4" y="105" opacity="0.34809614292265545">九</text><text x="128.4" y="120" opacity="0.4363608227526785">七</text><text x="148.13333333333333" y="15" opacity="0.11384016841504832">力</text><text x="148.13333333333333" y="30" opacity="0.38100033318160553">ア</text><text x="148.13333333333333" y="45" opacity="0.24674982561818284">エ</text><text x="148.13333333333333" y="60" opacity="0.5625270474886744">エ</text><text x="148.13333333333333" y="75" opacity="0.489329651019638">オ</text><text x="148.13333333333333" y="90" opacity="0.19624453834088687">イ</text><text x="148.13333333333333" y="105" opacity="0.28108618528840323">七</text><text x="148.13333333333333" y="120" opacity="0.5066541943013602">エ</text><text x="167.86666666666667" y="15" opacity="0.5538610204333303">力</text><text x="167.86666666666667" y="30" opacity="0.11287431466864942">エ</text><text x="167.86666666666667" y="45" opacity="0.10218615099745612">力</text><text x="167.86666666666667" y="60" opacity="0.5135641101099079">1</text><text x="167.86666666666667" y="75" opacity="0.5577951474155542">オ</text><text x="167.86666666666667" y="90" opacity="0.5437150145978215">七</text><text x="167.86666666666667" y="105" opacity="0.1810780040539474">1</text><text x="167.86666666666667" y="120" opacity="0.32035267655027977">ア</text><text x="187.60000000000002" y="15" opacity="0.5205230432334031">ア</text><text x="187.60000000000002" y="30" opacity="0.1890144561209465">ウ</text><text x="187.60000000000002" y="45" opacity="0.2658743053554353">1</text><text x="187.60000000000002" y="60" opacity="0.2887063443025981">1</text><text x="187.60000000000002" y="75" opacity="0.12110673640330541">力</text><text x="187.60000000000002" y="90" opacity="0.3145487456142241">0</text><text x="187.60000000000002" y="105" opacity="0.2958679629810175">1</text><text x="187.60000000000002" y="120" opacity="0.18910336153637167">ウ</text><text x="207.33333333333334" y="15" opacity="0.21701490736863874">九</text><text x="207.33333333333334" y="30" opacity="0.3884699895909274">イ</text><text x="207.33333333333334" y="45" opacity="0.5619968646286484">1</text><text x="207.33333333333334" y="60" opacity="0.5345313959653618">ウ</text><text x="207.33333333333334" y="75" opacity="0.12644525009353239">エ</text><text x="207.33333333333334" y="90" opacity="0.27826806539343185">イ</text><text x="207.33333333333334" y="105" opacity="0.10441761266213581">エ</text><text x="207.33333333333334" y="120" opacity="0.3619377414188012">オ</text><text x="227.06666666666666" y="15" opacity="0.5138975729929601">0</text><text x="227.06666666666666" y="30" opacity="0.2181222149337624">力</text><text x="227.06666666666666" y="45" opacity="0.3599211940033312">エ</text><text x="227.06666666666666" y="60" opacity="0.5361628803560583">オ</text><text x="227.06666666666666" y="75" opacity="0.2001541795166132">エ</text><text x="227.06666666666666" y="90" opacity="0.3722095370307785">ア</text><text x="227.06666666666666" y="105" opacity="0.31311662483822056">エ</text><text x="227.06666666666666" y="120" opacity="0.3622727451836807">七</text><text x="246.8" y="15" opacity="0.4920665204576806">力</text><text x="246.8" y="30" opacity="0.19419156274091234">力</text><text x="246.8" y="45" opacity="0.16422380453295018">エ</text><text x="246.8" y="60" opacity="0.5723323183817781">オ</text><text x="246.8" y="75" opacity="0.16125231160475953">九</text><text x="246.8" y="90" opacity="0.20255329617485865">イ</text><text x="246.8" y="105" opacity="0.5308542994503207">九</text><text x="246.8" y="120" opacity="0.22069565323052256">ア</text><text x="266.53333333333336" y="15" opacity="0.16181353921139466">イ</text><text x="266.53333333333336" y="30" opacity="0.3211791394806307">0</text><text x="266.53333333333336" y="45" opacity="0.3146077771443544">ア</text><text x="266.53333333333336" y="60" opacity="0.4794215266255586">0</text><text x="266.53333333333336" y="75" opacity="0.24159963184004454">イ</text><text x="266.53333333333336" y="90" opacity="0.2600237179130802">力</text><text x="266.53333333333336" y="105" opacity="0.2870249324415788">1</text><text x="266.53333333333336" y="120" opacity="0.35292842224783116">1</text><text x="286.26666666666665" y="15" opacity="0.43223516318859867">イ</text><text x="286.26666666666665" y="30" opacity="0.10956326497686555">1</text><text x="286.26666666666665" y="45" opacity="0.400517006117062">九</text><text x="286.26666666666665" y="60" opacity="0.2682875873553041">ウ</text><text x="286.26666666666665" y="75" opacity="0.2741490005862711">イ</text><text x="286.26666666666665" y="90" opacity="0.21494362505290968">ア</text><text x="286.26666666666665" y="105" opacity="0.3681134675863036">エ</text><text x="286.26666666666665" y="120" opacity="0.23655014918747">七</text>
        </g>
        <rect x="5" y="5" width="286" height="331" fill="none" stroke="#00ff00" stroke-width="1" rx="8" ry="8" stroke-opacity="0.3"/>
      
      <!-- Weather Effects (behind pet) -->
      <g class="weather-layer" style="pointer-events: none;">
        
      </g>
      <!-- Evolution Effects (behind pet) -->
      <g class="evolution-layer" style="pointer-events: none;">
        
      <defs>
        <radialGradient id="evolutionAura">
          <stop offset="0%" stop-color="#FFD700" stop-opacity="0.6"/>
          <stop offset="70%" stop-color="#FFD700" stop-opacity="0.2"/>
          <stop offset="100%" stop-color="#FFD700" stop-opacity="0"/>
        </radialGradient>
        <filter id="evolutionGlow">
          <feGaussianBlur stdDeviation="3" result="coloredBlur"/>
          <feMerge>
            <feMergeNode in="coloredBlur"/>
            <feMergeNode in="SourceGraphic"/>
          </feMerge>
        </filter>
      </defs>
      <circle cx="148" cy="148" r="45" fill="url(#evolutionAura)">
        <animate attributeName="r" values="45;53;45" dur="2s" repeatCount="indefinite"/>
        <animate attributeName="opacity" values="0.7;1;0.7" dur="2s" repeatCount="indefinite"/>
      </circle>
    
      </g>
      <g transform="translate(20, 20)" opacity="1">
        <g class="pet">
            <rect x="64" y="16" width="16" height="16" fill="#2d333b" /><rect x="80" y="16" width="16" height="16" fill="#2d333b" /><rect x="96" y="16" width="16" height="16" fill="#2d333b" /><rect x="112" y="16" width="16" height="16" fill="#2d333b" /><rect x="128" y="16" width="16" height="16" fill="#2d333b" /><rect x="144" y="16" width="16" height="16" fill="#2d333b" /><rect x="160" y="16" width="16" height="16" fill="#2d333b" /><rect x="176" y="16" width="16" height="16" fill="#2d333b" /><rect x="32" y="32" width="16" height="16" fill="#2d333b" /><rect x="48" y="32" width="16" height="16" fill="#2d333b" /><rect x="64" y="32" width="16" height="16" fill="#00ADD8" /><rect x="80" y="32" width="16" height="16" fill="#00ADD8" /><rect x="96" y="32" width="16" height="16" fill="#00ADD8" /><rect x="112" y="32" width="16" height="16" fill="#00ADD8" /><rect x="128" y="32" width="16" height="16" fill="#00ADD8" /><rect x="144" y="32" width="16" height="16" fill="#00ADD8" /><rect x="160" y="32" width="16" height="16" fill="#00ADD8" /><rect x="176" y="32" width="16" height="16" fill="#00ADD8" /><rect x="192" y="32" width="16" height="16" fill="#2d333b" /><rect x="208" y="32" width="16" height="16" fill="#2d333b" /><rect x="16" y="48" width="16" height="16" fill="#2d333b" /><rect x="32" y="48" width="16" height="16" fill="#00ADD8" /><rect x="48" y="48" width="16" height="16" fill="#00ADD8" /><rect x="64" y="48" width="16" height="16" fill="#2d333b" /><rect x="80" y="48" width="16" height="16" fill="#2d333b" /><rect x="96" y="48" width="16" height="16" fill="#2d333b" /><rect x="112" y="48" width="16" height="16" fill="#2d333b" /><rect x="128" y="48" width="16" height="16" fill="#2d333b" /><rect x="144" y="48" width="16" height="16" fill="#2d333b" /><rect x="160" y="48" width="16" height="16" fill="#00ADD8" /><rect x="176" y="48" width="16" height="16" fill="#00ADD8" /><rect x="192" y="48" width="16" height="16" fill="#00ADD8" /><rect x="208" y="48" width="16" height="16" fill="#00ADD8" /><rect x="224" y="48" width="16" height="16" fill="#2d333b" /><rect x="16" y="64" width="16" height="16" fill="#2d333b" /><rect x="32" y="64" width="16" height="16" fill="#00ADD8" /><rect x="48" y="64" width="16" height="16" fill="#00ADD8" /><rect x="64" y="64" width="16" height="16" fill="#00ADD8" /><rect x="80" y="64" width="16" height="16" fill="#00ADD8" /><rect x="96" y="64" width="16" height="16" fill="#00ADD8" /><rect x="112" y="64" width="16" height="16" fill="#00ADD8" /><rect x="128" y="64" width="16" height="16" fill="#00ADD8" /><rect x="144" y="64" width="16" height="16" fill="#00ADD8" /><rect x="160" y="64" width="16" height="16" fill="#00ADD8" /><rect x="176" y="64" width="16" height="16" fill="#00ADD8" /><rect x="192" y="64" width="16" height="16" fill="#00ADD8" /><rect x="208" y="64" width="16" height="16" fill="#2d333b" /><rect x="0" y="80" width="16" height="16" fill="#2d333b" /><rect x="16" y="80" width="16" height="16" fill="#00ADD8" /><rect x="32" y="80" width="16" height="16" fill="#00ADD8" /><rect x="48" y="80" width="16" height="16" fill="#00ADD8" /><rect x="64" y="80" width="16" height="16" fill="#00ADD8" /><rect x="80" y="80" width="16" height="16" fill="#00ADD8" /><rect x="96" y="80" width="16" height="16" fill="#00ADD8" /><rect x="112" y="80" width="16" height="16" fill="#00ADD8" /><rect x="128" y="80" width="16" height="16" fill="#00ADD8" /><rect x="144" y="80" width="16" height="16" fill="#00ADD8" /><rect x="160" y="80" width="16" height="16" fill="#00ADD8" /><rect x="176" y="80" width="16" height="16" fill="#00ADD8" /><rect x="192" y="80" width="16" height="16" fill="#00ADD8" /><rect x="208" y="80" width="16" height="16" fill="#00ADD8" /><rect x="224" y="80" width="16" height="16" fill="#2d333b" /><rect x="0" y="96" width="16" height="16" fill="#2d333b" /><rect x="16" y="96" width="16" height="16" fill="#00ADD8" /><rect x="32" y="96" width="16" height="16" fill="#00ADD8" /><rect x="48" y="96" width="16" height="16" fill="#00ADD8" /><rect x="64" y="96" width="16" height="16" fill="#00ADD8" /><rect x="80" y="96" width="16" height="16" fill="#2d333b" /><rect x="96" y="96" width="16" height="16" fill="#00ADD8" /><rect x="112" y="96" width="16" height="16" fill="#00ADD8" /><rect x="128" y="96" width="16" height="16" fill="#00ADD8" /><rect x="144" y="96" width="16" height="16" fill="#00ADD8" /><rect x="160" y="96" width="16" height="16" fill="#00ADD8" /><rect x="176" y="96" width="16" height="16" fill="#00ADD8" /><rect x="192" y="96" width="16" height="16" fill="#00ADD8" /><rect x="208" y="96" width="16" height="16" fill="#00ADD8" /><rect x="224" y="96" width="16" height="16" fill="#2d333b" /><rect x="16" y="112" width="16" height="16" fill="#2d333b" /><rect x="32" y="112" width="16" height="16" fill="#00ADD8" /><rect x="48" y="112" width="16" height="16" fill="#00ADD8" /><rect x="64" y="112" width="16" height="16" fill="#00ADD8" /><rect x="80" y="112" width="16" height="16" fill="#2d333b" /><rect x="96" y="112" width="16" height="16" fill="#00ADD8" /><rect x="112" y="112" width="16" height="16" fill="#00ADD8" /><rect x="128" y="112" width="16" height="16" fill="#00ADD8" /><rect x="144" y="112" width="16" height="16" fill="#00ADD8" /><rect x="160" y="112" width="16" height="16" fill="#00ADD8" /><rect x="176" y="112" width="16" height="16" fill="#00ADD8" /><rect x="192" y="112" width="16" height="16" fill="#2d333b" /><rect x="32" y="128" width="16" height="16" fill="#2d333b" /><rect x="48" y="128" width="16" height="16" fill="#00ADD8" /><rect x="64" y="128" width="16" height="16" fill="#00ADD8" /><rect x="80" y="128" width="16" height="16" fill="#2d333b" /><rect x="96" y="128" width="16" height="16" fill="#00ADD8" /><rect x="112" y="128" width="16" height="16" fill="#00ADD8" /><rect x="128" y="128" width="16" height="16" fill="#00ADD8" /><rect x="144" y="128" width="16" height="16" fill="#00ADD8" /><rect x="160" y="128" width="16" height="16" fill="#00ADD8" /><rect x="176" y="128" width="16" height="16" fill="#2d333b" /><rect x="32" y="144" width="16" height="16" fill="#2d333b" /><rect x="48" y="144" width="16" height="16" fill="#00ADD8" /><rect x="64" y="144" width="16" height="16" fill="#2d333b" /><rect x="80" y="144" width="16" height="16" fill="#00ADD8" /><rect x="96" y="144" width="16" height="16" fill="#00ADD8" /><rect x="112" y="144" width="16" height="16" fill="#00ADD8" /><rect x="128" y="144" width="16" height="16" fill="#00ADD8" /><rect x="144" y="144" width="16" height="16" fill="#00ADD8" /><rect x="160" y="144" width="16" height="16" fill="#00ADD8" /><rect x="176" y="144" width="16" height="16" fill="#2d333b" /><rect x="48" y="160" width="16" height="16" fill="#2d333b" /><rect x="64" y="160" width="16" height="16" fill="#2d333b" /><rect x="80" y="160" width="16" height="16" fill="#00ADD8" /><rect x="96" y="160" width="16" height="16" fill="#00ADD8" /><rect x="112" y="160" width="16" height="16" fill="#00ADD8" /><rect x="128" y="160" width="16" height="16" fill="#00ADD8" /><rect x="144" y="160" width="16" height="16" fill="#00ADD8" /><rect x="160" y="160" width="16" height="16" fill="#2d333b" /><rect x="64" y="176" width="16" height="16" fill="#2d333b" /><rect x="80" y="176" width="16" height="16" fill="#2d333b" /><rect x="96" y="176" width="16" height="16" fill="#2d333b" /><rect x="112" y="176" width="16" height="16" fill="#2d333b" /><rect x="128" y="176" width="16" height="16" fill="#2d333b" /><rect x="144" y="176" width="16" height="16" fill="#2d333b" />
            
        <animateTransform 
            attributeName="transform" 
            type="scale" 
            values="1 1; 1.02 0.98; 1 1" 
            dur="2s" 
            repeatCount="indefinite" 
        />
        </g>
        <!-- Speech Bubble -->
        
    <g transform="translate(226, -25)">
      <!-- Speech bubble -->
      <rect x="0" y="0" width="139" height="24" rx="10" ry="10" 
            fill="#FFFFFF" stroke="#2d333b" stroke-width="1.5"/>
      <!-- Bubble tail -->
      <polygon points="15,24 20,32 25,24" 
               fill="#FFFFFF" stroke="#2d333b" stroke-width="1.5"/>
      <line x1="16" y1="24" x2="24" y2="24" stroke="#FFFFFF" stroke-width="2"/>
      <!-- Text -->
      <text x="69.5" y="16" 
            font-family="'Segoe UI', Arial, sans-serif" font-size="10" 
            fill="#2d333b" text-anchor="middle">Do not disturb...</text>
    </g>
  
        <!-- Seasonal Accessory (z-index: above pet) -->
        
      </g>
      
      <!-- Level & Mood Text -->
      <text x="20" y="299" font-family="monospace" font-size="11" fill="#00ff00">
        ⭐ Lv.33 Adult
      </text>
      <text x="276" y="299" text-anchor="end" font-family="monospace" font-size="11" fill="#00ff00">
        💤 SLEEPING 🔥5
      </text>
      
      <!-- XP Progress Bar -->
      <rect x="20" y="306" width="256" height="8" rx="4" fill="#e0e0e0" stroke="#0288d1" stroke-width="1"/>
      <rect x="20" y="306" width="135.68" height="8" rx="4" fill="#4fc3f7">
        <animate attributeName="width" from="0" to="135.68" dur="0.5s" fill="freeze"/>
      </rect>
      
      <!-- XP Text -->
      <text x="50%" y="329" text-anchor="middle" font-family="monospace" font-size="9" fill="#00ff00">
        XP: 10590 / 10890 (53%)
      </text>
    
      
      <!-- Achievement Badges -->
      <g transform="translate(15, 311)">
    <g class="achievements">
      
      <g transform="translate(5, 0)">
        <title>Spark: 3 day streak</title>
        <circle cx="10" cy="10" r="10" fill="rgba(255,255,255,0.9)" stroke="#ddd" stroke-width="1"/>
        <text x="10" y="14" text-anchor="middle" font-size="11">⚡</text>
      </g>
    
      <g transform="translate(30, 0)">
        <title>Rising Star: Level 5</title>
        <circle cx="10" cy="10" r="10" fill="rgba(255,255,255,0.9)" stroke="#ddd" stroke-width="1"/>
        <text x="10" y="14" text-anchor="middle" font-size="11">🌟</text>
      </g>
    
      <g transform="translate(55, 0)">
        <title>Shining: Level 10</title>
        <circle cx="10" cy="10" r="10" fill="rgba(255,255,255,0.9)" stroke="#ddd" stroke-width="1"/>
        <text x="10" y="14" text-anchor="middle" font-size="11">✨</text>
      </g>
    
      <g transform="translate(80, 0)">
        <title>Rainbow: Level 25</title>
        <circle cx="10" cy="10" r="10" fill="rgba(255,255,255,0.9)" stroke="#ddd" stroke-width="1"/>
        <text x="10" y="14" text-anchor="middle" font-size="11">🌈</text>
      </g>
    
      
    </g>
  </g>
    </svg>