<svg xmlns="http://www.w3.org/2000/svg" width="296" height="341" viewBox="0 0 296 341">
      <style>
        .pet { transform-origin: center; }
      </style>
      <!-- Theme Background -->
      
        <rect x="0" y="0" width="296" height="341" fill="#0d0d0d" rx="12" ry="12"/>
        <g font-family="monospace" font-size="10" fill="#00ff00" opacity="0.3">
          <text x="10" y="15" opacity="0.17736009244807696">九</text><text x="10" y="30" opacity="0.35232739766804033">イ</text><text x="10" y="45" opacity="0.23675877914446922">九</text><text x="10" y="60" opacity="0.3689642990109052">0</text><text x="10" y="75" opacity="0.15160519917547635">七</text><text x="10" y="90" opacity="0.31515480700409393">0</text><text x="10" y="105" opacity="0.4499886859556085">七</text><text x="10" y="120" opacity="0.20385294644607946">オ</text><text x="29.733333333333334" y="15" opacity="0.30755588884827434">ウ</text><text x="29.733333333333334" y="30" opacity="0.28947842006035507">七</text><text x="29.733333333333334" y="45" opacity="0.4811375055215169">七</text><text x="29.733333333333334" y="60" opacity="0.43750596927940666">1</text><text x="29.733333333333334" y="75" opacity="0.24727203766790087">七</text><text x="29.733333333333334" y="90" opacity="0.34457644418511035">イ</text><text x="29.733333333333334" y="105" opacity="0.18639019954019345">1</text><text x="29.733333333333334" y="120" opacity="0.26957428158776975">ウ</text><text x="49.46666666666667" y="15" opacity="0.2575965571324199">力</text><text x="49.46666666666667" y="30" opacity="0.3057669463686088">エ</text><text x="49.46666666666667" y="45" opacity="0.5609999671068457">エ</text><text x="49.46666666666667" y="60" opacity="0.2260198430206282">エ</text><text x="49.46666666666667" y="75" opacity="0.4810356273915627">0</text><text x="49.46666666666667" y="90" opacity="0.4435071393296631">七</text><text x="49.46666666666667" y="105" opacity="0.44677974966528977">力</text><text x="49.46666666666667" y="120" opacity="0.3132660993126287">九</text><text x="69.2" y="15" opacity="0.32724437238523807">オ</text><text x="69.2" y="30" opacity="0.5140169621167344">エ</text><text x="69.2" y="45" opacity="0.11324834497238992">1</text><text x="69.2" y="60" opacity="0.5257879708402469">イ</text><text x="69.2" y="75" opacity="0.21751642827906684">ウ</text><text x="69.2" y="90" opacity="0.14643466107844763">七</text><text x="69.2" y="105" opacity="0.14086827300836482">ア</text><text x="69.2" y="120" opacity="0.3783875385521972">エ</text><text x="88.93333333333334" y="15" opacity="0.13719991751905938">ウ</text><text x="88.93333333333334" y="30" opacity="0.42158230628208937">七</text><text x="88.93333333333334" y="45" opacity="0.5097507974809504">オ</text><text x="88.93333333333334" y="60" opacity="0.12140518935701697">0</text><text x="88.93333333333334" y="75" opacity="0.11311194996850685">ウ</text><text x="88.93333333333334" y="90" opacity="0.5268541134326623">エ</text><text x="88.93333333333334" y="105" opacity="0.4007877380107092">ウ</text><text x="88.93333333333334" y="120" opacity="0.3057372084540747">1</text><text x="108.66666666666667" y="15" opacity="0.3114138117768821">九</text><text x="108.66666666666667" y="30" opacity="0.16044921303637075">力</text><text x="108.66666666666667" y="45" opacity="0.17898185006759607">オ</text><text x="108.66666666666667" y="60" opacity="0.2514701130629806">九</text><text x="108.66666666666667" y="75" opacity="0.4541371261419951">ア</text><text x="108.66666666666667" y="90" opacity="0.32088432014707857">九</text><text x="108.66666666666667" y="105" opacity="0.4743690939937163">エ</text><text x="108.66666666666667" y="120" opacity="0.4736825317289849">オ</text><text x="128.4" y="15" opacity="0.13225404292945034">イ</text><text x="128.4" y="30" opacity="0.5686168827785251">ウ</text><text x="128.4" y="45" opacity="0.4250754006736356">オ</text><text x="128.4" y="60" opacity="0.5409332821047822">ア</text><text x="128.4" y="75" opacity="0.5120387134740886">ウ</text><text x="128.4" y="90" opacity="0.31905576239158784">オ</text><text x="128.4" y="105" opacity="0.4043568294122418">エ</text><text x="128.4" y="120" opacity="0.1489206359638975">0</text><text x="148.13333333333333" y="15" opacity="0.12620185116041985">エ</text><text x="148.13333333333333" y="30" opacity="0.5921945618118315">九</text><text x="148.13333333333333" y="45" opacity="0.2107337020381024">ウ</text><text x="148.13333333333333" y="60" opacity="0.37292953600172873">力</text><text x="148.13333333333333" y="75" opacity="0.5659083892102433">七</text><text x="148.13333333333333" y="90" opacity="0.2949213951900753">0</text><text x="148.13333333333333" y="105" opacity="0.4080086677594861">エ</text><text x="148.13333333333333" y="120" opacity="0.5019934458473782">0</text><text x="167.86666666666667" y="15" opacity="0.4369175435650835">0</text><text x="167.86666666666667" y="30" opacity="0.358289406544141">1</text><text x="167.86666666666667" y="45" opacity="0.30500330905795403">力</text><text x="167.86666666666667" y="60" opacity="0.19312832272076677">イ</text><text x="167.86666666666667" y="75" opacity="0.3193797263951589">エ</text><text x="167.86666666666667" y="90" opacity="0.16966238262699632">ア</text><text x="167.86666666666667" y="105" opacity="0.47924753850300605">エ</text><text x="167.86666666666667" y="120" opacity="0.10242872865482869">エ</text><text x="187.60000000000002" y="15" opacity="0.5385215292529788">0</text><text x="187.60000000000002" y="30" opacity="0.12270870974610107">九</text><text x="187.60000000000002" y="45" opacity="0.5941921866419013">イ</text><text x="187.60000000000002" y="60" opacity="0.4195763245911328">1</text><text x="187.60000000000002" y="75" opacity="0.18179471409420492">エ</text><text x="187.60000000000002" y="90" opacity="0.357462092702837">エ</text><text x="187.60000000000002" y="105" opacity="0.26911830475001663">イ</text><text x="187.60000000000002" y="120" opacity="0.1671321828235919">オ</text><text x="207.33333333333334" y="15" opacity="0.1173547566960316">力</text><text x="207.33333333333334" y="30" opacity="0.36204635568380616">七</text><text x="207.33333333333334" y="45" opacity="0.2882872683177298">ア</text><text x="207.33333333333334" y="60" opacity="0.47736210745534735">ウ</text><text x="207.33333333333334" y="75" opacity="0.5590948375051531">オ</text><text x="207.33333333333334" y="90" opacity="0.5405675903437235">ウ</text><text x="207.33333333333334" y="105" opacity="0.13847816753620626">エ</text><text x="207.33333333333334" y="120" opacity="0.2464012136266759">0</text><text x="227.06666666666666" y="15" opacity="0.3978749170783257">オ</text><text x="227.06666666666666" y="30" opacity="0.5013292763478615">力</text><text x="227.06666666666666" y="45" opacity="0.3713965491193081">エ</text><text x="227.06666666666666" y="60" opacity="0.1947134602811266">力</text><text x="227.06666666666666" y="75" opacity="0.4055018421347175">ア</text><text x="227.06666666666666" y="90" opacity="0.46678441683932426">ア</text><text x="227.06666666666666" y="105" opacity="0.5226089218083643">力</text><text x="227.06666666666666" y="120" opacity="0.3979171591648688">エ</text><text x="246.8" y="15" opacity="0.15977365753184472">七</text><text x="246.8" y="30" opacity="0.47509442854864403">力</text><text x="246.8" y="45" opacity="0.1996993300480702">イ</text><text x="246.8" y="60" opacity="0.34917787822889246">七</text><text x="246.8" y="75" opacity="0.5522231976697831">ウ</text><text x="246.8" y="90" opacity="0.2277938363865051">エ</text><text x="246.8" y="105" opacity="0.5998797916549189">0</text><text x="246.8" y="120" opacity="0.31276781014079225">オ</text><text x="266.53333333333336" y="15" opacity="0.24386890688466892">力</text><text x="266.53333333333336" y="30" opacity="0.469693893486949">イ</text><text x="266.53333333333336" y="45" opacity="0.2644843643616752">エ</text><text x="266.53333333333336" y="60" opacity="0.5104341875872604">0</text><text x="266.53333333333336" y="75" opacity="0.5214673661979387">力</text><text x="266.53333333333336" y="90" opacity="0.5768017890080677">七</text><text x="266.53333333333336" y="105" opacity="0.4067548718916363">力</text><text x="266.53333333333336" y="120" opacity="0.44891120273488483">オ</text><text x="286.26666666666665" y="15" opacity="0.3585245171046547">七</text><text x="286.26666666666665" y="30" opacity="0.39279404566005505">力</text><text x="286.26666666666665" y="45" opacity="0.26962456829604153">オ</text><text x="286.26666666666665" y="60" opacity="0.4631661707710062">九</text><text x="286.26666666666665" y="75" opacity="0.31710629364181175">九</text><text x="286.26666666666665" y="90" opacity="0.251647380966584">1</text><text x="286.26666666666665" y="105" opacity="0.18771302253038005">イ</text><text x="286.26666666666665" y="120" opacity="0.42359432629954574">九</text>
        </g>
        <rect x="5" y="5" width="286" height="331" fill="none" stroke="#00ff00" stroke-width="1" rx="8" ry="8" stroke-opacity="0.3"/>
      
      <!-- Weather Effects (behind pet) -->
      <g class="weather-layer" style="pointer-events: none;">
        
      </g>
      <!-- Evolution Effects (behind pet) -->
      <g class="evolution-layer" style="pointer-events: none;">
        
      <defs>
        <radialGradient id="evolutionAura">
          <stop offset="0%" stop-color="#FFD700" stop-opacity="0.6"/>
          <stop offset="70%" stop-color="#FFD700" stop-opacity="0.2"/>
          <stop offset="100%" stop-color="#FFD700" stop-opacity="0"/>
        </radialGradient>
        <filter id="evolutionGlow">
          <feGaussianBlur stdDeviation="3" result="coloredBlur"/>
          <feMerge>
            <feMergeNode in="coloredBlur"/>
            <feMergeNode in="SourceGraphic"/>
          </feMerge>
        </filter>
      </defs>
      <circle cx="148" cy="148" r="45" fill="url(#evolutionAura)">
        <animate attributeName="r" values="45;53;45" dur="2s" repeatCount="indefinite"/>
        <animate attributeName="opacity" values="0.7;1;0.7" dur="2s" repeatCount="indefinite"/>
      </circle>
    
      </g>
      <g transform="translate(20, 20)" opacity="1">
        <g class="pet">
            <rect x="64" y="16" width="16" height="16" fill="#2d333b" /><rect x="80" y="16" width="16" height="16" fill="#2d333b" /><rect x="96" y="16" width="16" height="16" fill="#2d333b" /><rect x="112" y="16" width="16" height="16" fill="#2d333b" /><rect x="128" y="16" width="16" height="16" fill="#2d333b" /><rect x="144" y="16" width="16" height="16" fill="#2d333b" /><rect x="160" y="16" width="16" height="16" fill="#2d333b" /><rect x="176" y="16" width="16" height="16" fill="#2d333b" /><rect x="32" y="32" width="16" height="16" fill="#2d333b" /><rect x="48" y="32" width="16" height="16" fill="#2d333b" /><rect x="64" y="32" width="16" height="16" fill="#00ADD8" /><rect x="80" y="32" width="16" height="16" fill="#00ADD8" /><rect x="96" y="32" width="16" height="16" fill="#00ADD8" /><rect x="112" y="32" width="16" height="16" fill="#00ADD8" /><rect x="128" y="32" width="16" height="16" fill="#00ADD8" /><rect x="144" y="32" width="16" height="16" fill="#00ADD8" /><rect x="160" y="32" width="16" height="16" fill="#00ADD8" /><rect x="176" y="32" width="16" height="16" fill="#00ADD8" /><rect x="192" y="32" width="16" height="16" fill="#2d333b" /><rect x="208" y="32" width="16" height="16" fill="#2d333b" /><rect x="16" y="48" width="16" height="16" fill="#2d333b" /><rect x="32" y="48" width="16" height="16" fill="#00ADD8" /><rect x="48" y="48" width="16" height="16" fill="#00ADD8" /><rect x="64" y="48" width="16" height="16" fill="#2d333b" /><rect x="80" y="48" width="16" height="16" fill="#2d333b" /><rect x="96" y="48" width="16" height="16" fill="#2d333b" /><rect x="112" y="48" width="16" height="16" fill="#2d333b" /><rect x="128" y="48" width="16" height="16" fill="#2d333b" /><rect x="144" y="48" width="16" height="16" fill="#2d333b" /><rect x="160" y="48" width="16" height="16" fill="#00ADD8" /><rect x="176" y="48" width="16" height="16" fill="#00ADD8" /><rect x="192" y="48" width="16" height="16" fill="#00ADD8" /><rect x="208" y="48" width="16" height="16" fill="#00ADD8" /><rect x="224" y="48" width="16" height="16" fill="#2d333b" /><rect x="16" y="64" width="16" height="16" fill="#2d333b" /><rect x="32" y="64" width="16" height="16" fill="#00ADD8" /><rect x="48" y="64" width="16" height="16" fill="#00ADD8" /><rect x="64" y="64" width="16" height="16" fill="#00ADD8" /><rect x="80" y="64" width="16" height="16" fill="#00ADD8" /><rect x="96" y="64" width="16" height="16" fill="#00ADD8" /><rect x="112" y="64" width="16" height="16" fill="#00ADD8" /><rect x="128" y="64" width="16" height="16" fill="#00ADD8" /><rect x="144" y="64" width="16" height="16" fill="#00ADD8" /><rect x="160" y="64" width="16" height="16" fill="#00ADD8" /><rect x="176" y="64" width="16" height="16" fill="#00ADD8" /><rect x="192" y="64" width="16" height="16" fill="#00ADD8" /><rect x="208" y="64" width="16" height="16" fill="#2d333b" /><rect x="0" y="80" width="16" height="16" fill="#2d333b" /><rect x="16" y="80" width="16" height="16" fill="#00ADD8" /><rect x="32" y="80" width="16" height="16" fill="#00ADD8" /><rect x="48" y="80" width="16" height="16" fill="#00ADD8" /><rect x="64" y="80" width="16" height="16" fill="#00ADD8" /><rect x="80" y="80" width="16" height="16" fill="#00ADD8" /><rect x="96" y="80" width="16" height="16" fill="#00ADD8" /><rect x="112" y="80" width="16" height="16" fill="#00ADD8" /><rect x="128" y="80" width="16" height="16" fill="#00ADD8" /><rect x="144" y="80" width="16" height="16" fill="#00ADD8" /><rect x="160" y="80" width="16" height="16" fill="#00ADD8" /><rect x="176" y="80" width="16" height="16" fill="#00ADD8" /><rect x="192" y="80" width="16" height="16" fill="#00ADD8" /><rect x="208" y="80" width="16" height="16" fill="#00ADD8" /><rect x="224" y="80" width="16" height="16" fill="#2d333b" /><rect x="0" y="96" width="16" height="16" fill="#2d333b" /><rect x="16" y="96" width="16" height="16" fill="#00ADD8" /><rect x="32" y="96" width="16" height="16" fill="#00ADD8" /><rect x="48" y="96" width="16" height="16" fill="#00ADD8" /><rect x="64" y="96" width="16" height="16" fill="#00ADD8" /><rect x="80" y="96" width="16" height="16" fill="#2d333b" /><rect x="96" y="96" width="16" height="16" fill="#00ADD8" /><rect x="112" y="96" width="16" height="16" fill="#00ADD8" /><rect x="128" y="96" width="16" height="16" fill="#00ADD8" /><rect x="144" y="96" width="16" height="16" fill="#00ADD8" /><rect x="160" y="96" width="16" height="16" fill="#00ADD8" /><rect x="176" y="96" width="16" height="16" fill="#00ADD8" /><rect x="192" y="96" width="16" height="16" fill="#00ADD8" /><rect x="208" y="96" width="16" height="16" fill="#00ADD8" /><rect x="224" y="96" width="16" height="16" fill="#2d333b" /><rect x="16" y="112" width="16" height="16" fill="#2d333b" /><rect x="32" y="112" width="16" height="16" fill="#00ADD8" /><rect x="48" y="112" width="16" height="16" fill="#00ADD8" /><rect x="64" y="112" width="16" height="16" fill="#00ADD8" /><rect x="80" y="112" width="16" height="16" fill="#2d333b" /><rect x="96" y="112" width="16" height="16" fill="#00ADD8" /><rect x="112" y="112" width="16" height="16" fill="#00ADD8" /><rect x="128" y="112" width="16" height="16" fill="#00ADD8" /><rect x="144" y="112" width="16" height="16" fill="#00ADD8" /><rect x="160" y="112" width="16" height="16" fill="#00ADD8" /><rect x="176" y="112" width="16" height="16" fill="#00ADD8" /><rect x="192" y="112" width="16" height="16" fill="#2d333b" /><rect x="32" y="128" width="16" height="16" fill="#2d333b" /><rect x="48" y="128" width="16" height="16" fill="#00ADD8" /><rect x="64" y="128" width="16" height="16" fill="#00ADD8" /><rect x="80" y="128" width="16" height="16" fill="#2d333b" /><rect x="96" y="128" width="16" height="16" fill="#00ADD8" /><rect x="112" y="128" width="16" height="16" fill="#00ADD8" /><rect x="128" y="128" width="16" height="16" fill="#00ADD8" /><rect x="144" y="128" width="16" height="16" fill="#00ADD8" /><rect x="160" y="128" width="16" height="16" fill="#00ADD8" /><rect x="176" y="128" width="16" height="16" fill="#2d333b" /><rect x="32" y="144" width="16" height="16" fill="#2d333b" /><rect x="48" y="144" width="16" height="16" fill="#00ADD8" /><rect x="64" y="144" width="16" height="16" fill="#2d333b" /><rect x="80" y="144" width="16" height="16" fill="#00ADD8" /><rect x="96" y="144" width="16" height="16" fill="#00ADD8" /><rect x="112" y="144" width="16" height="16" fill="#00ADD8" /><rect x="128" y="144" width="16" height="16" fill="#00ADD8" /><rect x="144" y="144" width="16" height="16" fill="#00ADD8" /><rect x="160" y="144" width="16" height="16" fill="#00ADD8" /><rect x="176" y="144" width="16" height="16" fill="#2d333b" /><rect x="48" y="160" width="16" height="16" fill="#2d333b" /><rect x="64" y="160" width="16" height="16" fill="#2d333b" /><rect x="80" y="160" width="16" height="16" fill="#00ADD8" /><rect x="96" y="160" width="16" height="16" fill="#00ADD8" /><rect x="112" y="160" width="16" height="16" fill="#00ADD8" /><rect x="128" y="160" width="16" height="16" fill="#00ADD8" /><rect x="144" y="160" width="16" height="16" fill="#00ADD8" /><rect x="160" y="160" width="16" height="16" fill="#2d333b" /><rect x="64" y="176" width="16" height="16" fill="#2d333b" /><rect x="80" y="176" width="16" height="16" fill="#2d333b" /><rect x="96" y="176" width="16" height="16" fill="#2d333b" /><rect x="112" y="176" width="16" height="16" fill="#2d333b" /><rect x="128" y="176" width="16" height="16" fill="#2d333b" /><rect x="144" y="176" width="16" height="16" fill="#2d333b" />
            
        <animateTransform 
            attributeName="transform" 
            type="scale" 
            values="1 1; 1.02 0.98; 1 1" 
            dur="2s" 
            repeatCount="indefinite" 
        />
        </g>
        <!-- Speech Bubble -->
        
    <g transform="translate(226, -25)">
      <!-- Speech bubble -->
      <rect x="0" y="0" width="167" height="24" rx="10" ry="10" 
            fill="#FFFFFF" stroke="#2d333b" stroke-width="1.5"/>
      <!-- Bubble tail -->
      <polygon points="15,24 20,32 25,24" 
               fill="#FFFFFF" stroke="#2d333b" stroke-width="1.5"/>
      <line x1="16" y1="24" x2="24" y2="24" stroke="#FFFFFF" stroke-width="2"/>
      <!-- Text -->
      <text x="83.5" y="16" 
            font-family="'Segoe UI', Arial, sans-serif" font-size="10" 
            fill="#2d333b" text-anchor="middle">404: Energy not found</text>
    </g>
  
        <!-- Seasonal Accessory (z-index: above pet) -->
        
      </g>
      
      <!-- Level & Mood Text -->
      <text x="20" y="299" font-family="monospace" font-size="11" fill="#00ff00">
        ⭐ Lv.34 Adult
      </text>
      <text x="276" y="299" text-anchor="end" font-family="monospace" font-size="11" fill="#00ff00">
        💤 SLEEPING 🔥12
      </text>
      
      <!-- XP Progress Bar -->
      <rect x="20" y="306" width="256" height="8" rx="4" fill="#e0e0e0" stroke="#0288d1" stroke-width="1"/>
      <rect x="20" y="306" width="66.56" height="8" rx="4" fill="#4fc3f7">
        <animate attributeName="width" from="0" to="66.56" dur="0.5s" fill="freeze"/>
      </rect>
      
      <!-- XP Text -->
      <text x="50%" y="329" text-anchor="middle" font-family="monospace" font-size="9" fill="#00ff00">
        XP: 11070 / 11560 (26%)
      </text>
    
      
      <!-- Achievement Badges -->
      <g transform="translate(15, 311)">
    <g class="achievements">
      
      <g transform="translate(5, 0)">
        <title>Spark: 3 day streak</title>
        <circle cx="10" cy="10" r="10" fill="rgba(255,255,255,0.9)" stroke="#ddd" stroke-width="1"/>
        <text x="10" y="14" text-anchor="middle" font-size="11">⚡</text>
      </g>
    
      <g transform="translate(30, 0)">
        <title>Weekly Warrior: 7 day streak</title>
        <circle cx="10" cy="10" r="10" fill="rgba(255,255,255,0.9)" stroke="#ddd" stroke-width="1"/>
        <text x="10" y="14" text-anchor="middle" font-size="11">🔥</text>
      </g>
    
      <g transform="translate(55, 0)">
        <title>Rising Star: Level 5</title>
        <circle cx="10" cy="10" r="10" fill="rgba(255,255,255,0.9)" stroke="#ddd" stroke-width="1"/>
        <text x="10" y="14" text-anchor="middle" font-size="11">🌟</text>
      </g>
    
      <g transform="translate(80, 0)">
        <title>Shining: Level 10</title>
        <circle cx="10" cy="10" r="10" fill="rgba(255,255,255,0.9)" stroke="#ddd" stroke-width="1"/>
        <text x="10" y="14" text-anchor="middle" font-size="11">✨</text>
      </g>
    
      <g transform="translate(105, 0)">
        <title>Rainbow: Level 25</title>
        <circle cx="10" cy="10" r="10" fill="rgba(255,255,255,0.9)" stroke="#ddd" stroke-width="1"/>
        <text x="10" y="14" text-anchor="middle" font-size="11">🌈</text>
      </g>
    
      
    </g>
  </g>
    </svg>