<svg xmlns="http://www.w3.org/2000/svg" width="296" height="341" viewBox="0 0 296 341">
      <style>
        .pet { transform-origin: center; }
      </style>
      <!-- Theme Background -->
      
        <rect x="0" y="0" width="296" height="341" fill="#0d0d0d" rx="12" ry="12"/>
        <g font-family="monospace" font-size="10" fill="#00ff00" opacity="0.3">
          <text x="10" y="15" opacity="0.18040369803915715">ア</text><text x="10" y="30" opacity="0.2614992758030096">七</text><text x="10" y="45" opacity="0.3688551556550018">ア</text><text x="10" y="60" opacity="0.46844694926185226">力</text><text x="10" y="75" opacity="0.14423040884881325">0</text><text x="10" y="90" opacity="0.20888154537856077">九</text><text x="10" y="105" opacity="0.4803389684498264">ア</text><text x="10" y="120" opacity="0.5669659181324125">七</text><text x="29.733333333333334" y="15" opacity="0.5038868513508634">イ</text><text x="29.733333333333334" y="30" opacity="0.2190301530592316">1</text><text x="29.733333333333334" y="45" opacity="0.158848563043718">力</text><text x="29.733333333333334" y="60" opacity="0.20748127728416857">力</text><text x="29.733333333333334" y="75" opacity="0.42815194962552416">ア</text><text x="29.733333333333334" y="90" opacity="0.2827993266422665">七</text><text x="29.733333333333334" y="105" opacity="0.31307849855560654">力</text><text x="29.733333333333334" y="120" opacity="0.18730053861086662">オ</text><text x="49.46666666666667" y="15" opacity="0.30028221429117474">ア</text><text x="49.46666666666667" y="30" opacity="0.45102728702451755">エ</text><text x="49.46666666666667" y="45" opacity="0.2743183956091112">九</text><text x="49.46666666666667" y="60" opacity="0.49350249837733895">ウ</text><text x="49.46666666666667" y="75" opacity="0.3041738511192116">ア</text><text x="49.46666666666667" y="90" opacity="0.43007246066487825">九</text><text x="49.46666666666667" y="105" opacity="0.16584360959367708">七</text><text x="49.46666666666667" y="120" opacity="0.40049064178827">力</text><text x="69.2" y="15" opacity="0.3841201279439006">力</text><text x="69.2" y="30" opacity="0.360482768705664">1</text><text x="69.2" y="45" opacity="0.12457580730821763">七</text><text x="69.2" y="60" opacity="0.41009049924964647">七</text><text x="69.2" y="75" opacity="0.4411225610405026">ウ</text><text x="69.2" y="90" opacity="0.5486446466633789">ア</text><text x="69.2" y="105" opacity="0.2614604561575563">オ</text><text x="69.2" y="120" opacity="0.5142562235002277">七</text><text x="88.93333333333334" y="15" opacity="0.5464092586896103">力</text><text x="88.93333333333334" y="30" opacity="0.31846558474546616">1</text><text x="88.93333333333334" y="45" opacity="0.4517392856095124">エ</text><text x="88.93333333333334" y="60" opacity="0.46323514936071075">ウ</text><text x="88.93333333333334" y="75" opacity="0.3256948731644025">七</text><text x="88.93333333333334" y="90" opacity="0.40172574759530766">オ</text><text x="88.93333333333334" y="105" opacity="0.12610183932503818">オ</text><text x="88.93333333333334" y="120" opacity="0.4061296374382499">エ</text><text x="108.66666666666667" y="15" opacity="0.5007551539929892">エ</text><text x="108.66666666666667" y="30" opacity="0.23603377667828243">1</text><text x="108.66666666666667" y="45" opacity="0.36500552125424646">オ</text><text x="108.66666666666667" y="60" opacity="0.5708095059891577">ア</text><text x="108.66666666666667" y="75" opacity="0.12689729757037418">七</text><text x="108.66666666666667" y="90" opacity="0.3815871414112554">イ</text><text x="108.66666666666667" y="105" opacity="0.3332377266040294">1</text><text x="108.66666666666667" y="120" opacity="0.32740251524142217">ア</text><text x="128.4" y="15" opacity="0.34297769162682434">0</text><text x="128.4" y="30" opacity="0.25507853865215113">1</text><text x="128.4" y="45" opacity="0.26032601512834097">イ</text><text x="128.4" y="60" opacity="0.20562467682456512">1</text><text x="128.4" y="75" opacity="0.41562326491207346">1</text><text x="128.4" y="90" opacity="0.27190300452787997">七</text><text x="128.4" y="105" opacity="0.44258605046615374">1</text><text x="128.4" y="120" opacity="0.5594997999981889">七</text><text x="148.13333333333333" y="15" opacity="0.35650046581490247">0</text><text x="148.13333333333333" y="30" opacity="0.3791690829553632">ウ</text><text x="148.13333333333333" y="45" opacity="0.19970329749744478">エ</text><text x="148.13333333333333" y="60" opacity="0.3109686045353952">ア</text><text x="148.13333333333333" y="75" opacity="0.4284375058518618">イ</text><text x="148.13333333333333" y="90" opacity="0.35729825929059733">イ</text><text x="148.13333333333333" y="105" opacity="0.58037381034824">オ</text><text x="148.13333333333333" y="120" opacity="0.5348697965027128">力</text><text x="167.86666666666667" y="15" opacity="0.17366951625728946">ウ</text><text x="167.86666666666667" y="30" opacity="0.4634906961257417">ウ</text><text x="167.86666666666667" y="45" opacity="0.48867807608087743">ア</text><text x="167.86666666666667" y="60" opacity="0.30437977191670007">力</text><text x="167.86666666666667" y="75" opacity="0.5694711775714625">七</text><text x="167.86666666666667" y="90" opacity="0.5149887540366774">七</text><text x="167.86666666666667" y="105" opacity="0.5920066473860399">九</text><text x="167.86666666666667" y="120" opacity="0.35393548888698945">オ</text><text x="187.60000000000002" y="15" opacity="0.5111545670883019">エ</text><text x="187.60000000000002" y="30" opacity="0.47001144316954">0</text><text x="187.60000000000002" y="45" opacity="0.281716735573896">1</text><text x="187.60000000000002" y="60" opacity="0.24905941731601824">1</text><text x="187.60000000000002" y="75" opacity="0.5862246910975073">ウ</text><text x="187.60000000000002" y="90" opacity="0.1407999483367646">0</text><text x="187.60000000000002" y="105" opacity="0.2772821164307958">0</text><text x="187.60000000000002" y="120" opacity="0.32831381464367526">エ</text><text x="207.33333333333334" y="15" opacity="0.23918207090845425">1</text><text x="207.33333333333334" y="30" opacity="0.5433610143134042">ア</text><text x="207.33333333333334" y="45" opacity="0.11414344623890885">1</text><text x="207.33333333333334" y="60" opacity="0.2217708640344517">九</text><text x="207.33333333333334" y="75" opacity="0.2393968787265819">イ</text><text x="207.33333333333334" y="90" opacity="0.367206944366145">九</text><text x="207.33333333333334" y="105" opacity="0.5903147547798936">0</text><text x="207.33333333333334" y="120" opacity="0.40493142584222375">ア</text><text x="227.06666666666666" y="15" opacity="0.22324684349783944">ウ</text><text x="227.06666666666666" y="30" opacity="0.4197542989302333">ウ</text><text x="227.06666666666666" y="45" opacity="0.36127453433176415">力</text><text x="227.06666666666666" y="60" opacity="0.4446819780322936">九</text><text x="227.06666666666666" y="75" opacity="0.5342651738247532">ア</text><text x="227.06666666666666" y="90" opacity="0.4876675474370351">ウ</text><text x="227.06666666666666" y="105" opacity="0.1984392471620441">力</text><text x="227.06666666666666" y="120" opacity="0.5661772894334299">エ</text><text x="246.8" y="15" opacity="0.4851074260491407">九</text><text x="246.8" y="30" opacity="0.4356759313469829">九</text><text x="246.8" y="45" opacity="0.45886531583317003">ウ</text><text x="246.8" y="60" opacity="0.4511973861819535">1</text><text x="246.8" y="75" opacity="0.42223875667927446">七</text><text x="246.8" y="90" opacity="0.16100507965456615">オ</text><text x="246.8" y="105" opacity="0.48850572698449235">ウ</text><text x="246.8" y="120" opacity="0.1919592743014719">ウ</text><text x="266.53333333333336" y="15" opacity="0.26908782956262456">七</text><text x="266.53333333333336" y="30" opacity="0.5081325169159603">九</text><text x="266.53333333333336" y="45" opacity="0.47388375880399025">力</text><text x="266.53333333333336" y="60" opacity="0.4678397394308569">オ</text><text x="266.53333333333336" y="75" opacity="0.10942069785944289">ア</text><text x="266.53333333333336" y="90" opacity="0.49353242664939845">ウ</text><text x="266.53333333333336" y="105" opacity="0.22630545524140258">ア</text><text x="266.53333333333336" y="120" opacity="0.22433828241512002">1</text><text x="286.26666666666665" y="15" opacity="0.14717576618657882">ウ</text><text x="286.26666666666665" y="30" opacity="0.4639734856428045">九</text><text x="286.26666666666665" y="45" opacity="0.2174966981463359">ア</text><text x="286.26666666666665" y="60" opacity="0.5164747987188097">イ</text><text x="286.26666666666665" y="75" opacity="0.1709354132342751">0</text><text x="286.26666666666665" y="90" opacity="0.39421005565688316">オ</text><text x="286.26666666666665" y="105" opacity="0.16903524233817616">イ</text><text x="286.26666666666665" y="120" opacity="0.3912213764468596">力</text>
        </g>
        <rect x="5" y="5" width="286" height="331" fill="none" stroke="#00ff00" stroke-width="1" rx="8" ry="8" stroke-opacity="0.3"/>
      
      <!-- Weather Effects (behind pet) -->
      <g class="weather-layer" style="pointer-events: none;">
        
      </g>
      <!-- Evolution Effects (behind pet) -->
      <g class="evolution-layer" style="pointer-events: none;">
        
      <defs>
        <radialGradient id="evolutionAura">
          <stop offset="0%" stop-color="#FFD700" stop-opacity="0.6"/>
          <stop offset="70%" stop-color="#FFD700" stop-opacity="0.2"/>
          <stop offset="100%" stop-color="#FFD700" stop-opacity="0"/>
        </radialGradient>
        <filter id="evolutionGlow">
          <feGaussianBlur stdDeviation="3" result="coloredBlur"/>
          <feMerge>
            <feMergeNode in="coloredBlur"/>
            <feMergeNode in="SourceGraphic"/>
          </feMerge>
        </filter>
      </defs>
      <circle cx="148" cy="148" r="45" fill="url(#evolutionAura)">
        <animate attributeName="r" values="45;53;45" dur="2s" repeatCount="indefinite"/>
        <animate attributeName="opacity" values="0.7;1;0.7" dur="2s" repeatCount="indefinite"/>
      </circle>
    
      </g>
      <g transform="translate(20, 20)" opacity="1">
        <g class="pet">
            <rect x="64" y="16" width="16" height="16" fill="#2d333b" /><rect x="80" y="16" width="16" height="16" fill="#2d333b" /><rect x="96" y="16" width="16" height="16" fill="#2d333b" /><rect x="112" y="16" width="16" height="16" fill="#2d333b" /><rect x="128" y="16" width="16" height="16" fill="#2d333b" /><rect x="144" y="16" width="16" height="16" fill="#2d333b" /><rect x="160" y="16" width="16" height="16" fill="#2d333b" /><rect x="176" y="16" width="16" height="16" fill="#2d333b" /><rect x="32" y="32" width="16" height="16" fill="#2d333b" /><rect x="48" y="32" width="16" height="16" fill="#2d333b" /><rect x="64" y="32" width="16" height="16" fill="#00ADD8" /><rect x="80" y="32" width="16" height="16" fill="#00ADD8" /><rect x="96" y="32" width="16" height="16" fill="#00ADD8" /><rect x="112" y="32" width="16" height="16" fill="#00ADD8" /><rect x="128" y="32" width="16" height="16" fill="#00ADD8" /><rect x="144" y="32" width="16" height="16" fill="#00ADD8" /><rect x="160" y="32" width="16" height="16" fill="#00ADD8" /><rect x="176" y="32" width="16" height="16" fill="#00ADD8" /><rect x="192" y="32" width="16" height="16" fill="#2d333b" /><rect x="208" y="32" width="16" height="16" fill="#2d333b" /><rect x="16" y="48" width="16" height="16" fill="#2d333b" /><rect x="32" y="48" width="16" height="16" fill="#00ADD8" /><rect x="48" y="48" width="16" height="16" fill="#00ADD8" /><rect x="64" y="48" width="16" height="16" fill="#2d333b" /><rect x="80" y="48" width="16" height="16" fill="#2d333b" /><rect x="96" y="48" width="16" height="16" fill="#2d333b" /><rect x="112" y="48" width="16" height="16" fill="#2d333b" /><rect x="128" y="48" width="16" height="16" fill="#2d333b" /><rect x="144" y="48" width="16" height="16" fill="#2d333b" /><rect x="160" y="48" width="16" height="16" fill="#00ADD8" /><rect x="176" y="48" width="16" height="16" fill="#00ADD8" /><rect x="192" y="48" width="16" height="16" fill="#00ADD8" /><rect x="208" y="48" width="16" height="16" fill="#00ADD8" /><rect x="224" y="48" width="16" height="16" fill="#2d333b" /><rect x="16" y="64" width="16" height="16" fill="#2d333b" /><rect x="32" y="64" width="16" height="16" fill="#00ADD8" /><rect x="48" y="64" width="16" height="16" fill="#00ADD8" /><rect x="64" y="64" width="16" height="16" fill="#00ADD8" /><rect x="80" y="64" width="16" height="16" fill="#00ADD8" /><rect x="96" y="64" width="16" height="16" fill="#00ADD8" /><rect x="112" y="64" width="16" height="16" fill="#00ADD8" /><rect x="128" y="64" width="16" height="16" fill="#00ADD8" /><rect x="144" y="64" width="16" height="16" fill="#00ADD8" /><rect x="160" y="64" width="16" height="16" fill="#00ADD8" /><rect x="176" y="64" width="16" height="16" fill="#00ADD8" /><rect x="192" y="64" width="16" height="16" fill="#00ADD8" /><rect x="208" y="64" width="16" height="16" fill="#2d333b" /><rect x="0" y="80" width="16" height="16" fill="#2d333b" /><rect x="16" y="80" width="16" height="16" fill="#00ADD8" /><rect x="32" y="80" width="16" height="16" fill="#00ADD8" /><rect x="48" y="80" width="16" height="16" fill="#00ADD8" /><rect x="64" y="80" width="16" height="16" fill="#00ADD8" /><rect x="80" y="80" width="16" height="16" fill="#00ADD8" /><rect x="96" y="80" width="16" height="16" fill="#00ADD8" /><rect x="112" y="80" width="16" height="16" fill="#00ADD8" /><rect x="128" y="80" width="16" height="16" fill="#00ADD8" /><rect x="144" y="80" width="16" height="16" fill="#00ADD8" /><rect x="160" y="80" width="16" height="16" fill="#00ADD8" /><rect x="176" y="80" width="16" height="16" fill="#00ADD8" /><rect x="192" y="80" width="16" height="16" fill="#00ADD8" /><rect x="208" y="80" width="16" height="16" fill="#00ADD8" /><rect x="224" y="80" width="16" height="16" fill="#2d333b" /><rect x="0" y="96" width="16" height="16" fill="#2d333b" /><rect x="16" y="96" width="16" height="16" fill="#00ADD8" /><rect x="32" y="96" width="16" height="16" fill="#00ADD8" /><rect x="48" y="96" width="16" height="16" fill="#00ADD8" /><rect x="64" y="96" width="16" height="16" fill="#00ADD8" /><rect x="80" y="96" width="16" height="16" fill="#2d333b" /><rect x="96" y="96" width="16" height="16" fill="#00ADD8" /><rect x="112" y="96" width="16" height="16" fill="#00ADD8" /><rect x="128" y="96" width="16" height="16" fill="#00ADD8" /><rect x="144" y="96" width="16" height="16" fill="#00ADD8" /><rect x="160" y="96" width="16" height="16" fill="#00ADD8" /><rect x="176" y="96" width="16" height="16" fill="#00ADD8" /><rect x="192" y="96" width="16" height="16" fill="#00ADD8" /><rect x="208" y="96" width="16" height="16" fill="#00ADD8" /><rect x="224" y="96" width="16" height="16" fill="#2d333b" /><rect x="16" y="112" width="16" height="16" fill="#2d333b" /><rect x="32" y="112" width="16" height="16" fill="#00ADD8" /><rect x="48" y="112" width="16" height="16" fill="#00ADD8" /><rect x="64" y="112" width="16" height="16" fill="#00ADD8" /><rect x="80" y="112" width="16" height="16" fill="#2d333b" /><rect x="96" y="112" width="16" height="16" fill="#00ADD8" /><rect x="112" y="112" width="16" height="16" fill="#00ADD8" /><rect x="128" y="112" width="16" height="16" fill="#00ADD8" /><rect x="144" y="112" width="16" height="16" fill="#00ADD8" /><rect x="160" y="112" width="16" height="16" fill="#00ADD8" /><rect x="176" y="112" width="16" height="16" fill="#00ADD8" /><rect x="192" y="112" width="16" height="16" fill="#2d333b" /><rect x="32" y="128" width="16" height="16" fill="#2d333b" /><rect x="48" y="128" width="16" height="16" fill="#00ADD8" /><rect x="64" y="128" width="16" height="16" fill="#00ADD8" /><rect x="80" y="128" width="16" height="16" fill="#2d333b" /><rect x="96" y="128" width="16" height="16" fill="#00ADD8" /><rect x="112" y="128" width="16" height="16" fill="#00ADD8" /><rect x="128" y="128" width="16" height="16" fill="#00ADD8" /><rect x="144" y="128" width="16" height="16" fill="#00ADD8" /><rect x="160" y="128" width="16" height="16" fill="#00ADD8" /><rect x="176" y="128" width="16" height="16" fill="#2d333b" /><rect x="32" y="144" width="16" height="16" fill="#2d333b" /><rect x="48" y="144" width="16" height="16" fill="#00ADD8" /><rect x="64" y="144" width="16" height="16" fill="#2d333b" /><rect x="80" y="144" width="16" height="16" fill="#00ADD8" /><rect x="96" y="144" width="16" height="16" fill="#00ADD8" /><rect x="112" y="144" width="16" height="16" fill="#00ADD8" /><rect x="128" y="144" width="16" height="16" fill="#00ADD8" /><rect x="144" y="144" width="16" height="16" fill="#00ADD8" /><rect x="160" y="144" width="16" height="16" fill="#00ADD8" /><rect x="176" y="144" width="16" height="16" fill="#2d333b" /><rect x="48" y="160" width="16" height="16" fill="#2d333b" /><rect x="64" y="160" width="16" height="16" fill="#2d333b" /><rect x="80" y="160" width="16" height="16" fill="#00ADD8" /><rect x="96" y="160" width="16" height="16" fill="#00ADD8" /><rect x="112" y="160" width="16" height="16" fill="#00ADD8" /><rect x="128" y="160" width="16" height="16" fill="#00ADD8" /><rect x="144" y="160" width="16" height="16" fill="#00ADD8" /><rect x="160" y="160" width="16" height="16" fill="#2d333b" /><rect x="64" y="176" width="16" height="16" fill="#2d333b" /><rect x="80" y="176" width="16" height="16" fill="#2d333b" /><rect x="96" y="176" width="16" height="16" fill="#2d333b" /><rect x="112" y="176" width="16" height="16" fill="#2d333b" /><rect x="128" y="176" width="16" height="16" fill="#2d333b" /><rect x="144" y="176" width="16" height="16" fill="#2d333b" />
            
        <animateTransform 
            attributeName="transform" 
            type="scale" 
            values="1 1; 1.02 0.98; 1 1" 
            dur="2s" 
            repeatCount="indefinite" 
        />
        </g>
        <!-- Speech Bubble -->
        
    <g transform="translate(226, -25)">
      <!-- Speech bubble -->
      <rect x="0" y="0" width="167" height="24" rx="10" ry="10" 
            fill="#FFFFFF" stroke="#2d333b" stroke-width="1.5"/>
      <!-- Bubble tail -->
      <polygon points="15,24 20,32 25,24" 
               fill="#FFFFFF" stroke="#2d333b" stroke-width="1.5"/>
      <line x1="16" y1="24" x2="24" y2="24" stroke="#FFFFFF" stroke-width="2"/>
      <!-- Text -->
      <text x="83.5" y="16" 
            font-family="'Segoe UI', Arial, sans-serif" font-size="10" 
            fill="#2d333b" text-anchor="middle">404: Energy not found</text>
    </g>
  
        <!-- Seasonal Accessory (z-index: above pet) -->
        
      </g>
      
      <!-- Level & Mood Text -->
      <text x="20" y="299" font-family="monospace" font-size="11" fill="#00ff00">
        ⭐ Lv.36 Adult
      </text>
      <text x="276" y="299" text-anchor="end" font-family="monospace" font-size="11" fill="#00ff00">
        💤 SLEEPING 🔥3
      </text>
      
      <!-- XP Progress Bar -->
      <rect x="20" y="306" width="256" height="8" rx="4" fill="#e0e0e0" stroke="#0288d1" stroke-width="1"/>
      <rect x="20" y="306" width="151.04" height="8" rx="4" fill="#4fc3f7">
        <animate attributeName="width" from="0" to="151.04" dur="0.5s" fill="freeze"/>
      </rect>
      
      <!-- XP Text -->
      <text x="50%" y="329" text-anchor="middle" font-family="monospace" font-size="9" fill="#00ff00">
        XP: 12670 / 12960 (59%)
      </text>
    
      
      <!-- Achievement Badges -->
      <g transform="translate(15, 311)">
    <g class="achievements">
      
      <g transform="translate(5, 0)">
        <title>Spark: 3 day streak</title>
        <circle cx="10" cy="10" r="10" fill="rgba(255,255,255,0.9)" stroke="#ddd" stroke-width="1"/>
        <text x="10" y="14" text-anchor="middle" font-size="11">⚡</text>
      </g>
    
      <g transform="translate(30, 0)">
        <title>Rising Star: Level 5</title>
        <circle cx="10" cy="10" r="10" fill="rgba(255,255,255,0.9)" stroke="#ddd" stroke-width="1"/>
        <text x="10" y="14" text-anchor="middle" font-size="11">🌟</text>
      </g>
    
      <g transform="translate(55, 0)">
        <title>Shining: Level 10</title>
        <circle cx="10" cy="10" r="10" fill="rgba(255,255,255,0.9)" stroke="#ddd" stroke-width="1"/>
        <text x="10" y="14" text-anchor="middle" font-size="11">✨</text>
      </g>
    
      <g transform="translate(80, 0)">
        <title>Rainbow: Level 25</title>
        <circle cx="10" cy="10" r="10" fill="rgba(255,255,255,0.9)" stroke="#ddd" stroke-width="1"/>
        <text x="10" y="14" text-anchor="middle" font-size="11">🌈</text>
      </g>
    
      
    </g>
  </g>
    </svg>