<svg xmlns="http://www.w3.org/2000/svg" width="296" height="341" viewBox="0 0 296 341">
      <style>
        .pet { transform-origin: center; }
      </style>
      <!-- Theme Background -->
      
        <rect x="0" y="0" width="296" height="341" fill="#0d0d0d" rx="12" ry="12"/>
        <g font-family="monospace" font-size="10" fill="#00ff00" opacity="0.3">
          <text x="10" y="15" opacity="0.3435345479155194">オ</text><text x="10" y="30" opacity="0.41879952364015083">ウ</text><text x="10" y="45" opacity="0.37114834360393933">エ</text><text x="10" y="60" opacity="0.33439165671220683">イ</text><text x="10" y="75" opacity="0.5690032551523275">イ</text><text x="10" y="90" opacity="0.30454620113659314">1</text><text x="10" y="105" opacity="0.39458909373454676">九</text><text x="10" y="120" opacity="0.4034620225222769">力</text><text x="29.733333333333334" y="15" opacity="0.32218670636859814">ア</text><text x="29.733333333333334" y="30" opacity="0.38520577364811126">力</text><text x="29.733333333333334" y="45" opacity="0.3838771229986172">エ</text><text x="29.733333333333334" y="60" opacity="0.41435767955168146">イ</text><text x="29.733333333333334" y="75" opacity="0.3787841146723112">0</text><text x="29.733333333333334" y="90" opacity="0.28501662261166294">ウ</text><text x="29.733333333333334" y="105" opacity="0.2903295080235734">イ</text><text x="29.733333333333334" y="120" opacity="0.43000931722282854">七</text><text x="49.46666666666667" y="15" opacity="0.5081970851050125">イ</text><text x="49.46666666666667" y="30" opacity="0.5201914885132618">イ</text><text x="49.46666666666667" y="45" opacity="0.5556005241100211">力</text><text x="49.46666666666667" y="60" opacity="0.25057296174463417">七</text><text x="49.46666666666667" y="75" opacity="0.5049588627086057">エ</text><text x="49.46666666666667" y="90" opacity="0.2944619525712503">オ</text><text x="49.46666666666667" y="105" opacity="0.516935450705327">ア</text><text x="49.46666666666667" y="120" opacity="0.35874045020215306">ア</text><text x="69.2" y="15" opacity="0.14388659415655716">1</text><text x="69.2" y="30" opacity="0.5092605075666339">オ</text><text x="69.2" y="45" opacity="0.12233031330977531">エ</text><text x="69.2" y="60" opacity="0.2660640140103422">九</text><text x="69.2" y="75" opacity="0.3179002616700147">九</text><text x="69.2" y="90" opacity="0.4824004745009681">七</text><text x="69.2" y="105" opacity="0.2927142395402613">ウ</text><text x="69.2" y="120" opacity="0.3630353323288972">九</text><text x="88.93333333333334" y="15" opacity="0.2730787235342619">0</text><text x="88.93333333333334" y="30" opacity="0.5513960273224814">0</text><text x="88.93333333333334" y="45" opacity="0.26454783975061413">イ</text><text x="88.93333333333334" y="60" opacity="0.100456037137202">ア</text><text x="88.93333333333334" y="75" opacity="0.35934366997906597">オ</text><text x="88.93333333333334" y="90" opacity="0.41139454276189946">オ</text><text x="88.93333333333334" y="105" opacity="0.45777161753549267">七</text><text x="88.93333333333334" y="120" opacity="0.2569391587719403">力</text><text x="108.66666666666667" y="15" opacity="0.2947671760853252">0</text><text x="108.66666666666667" y="30" opacity="0.3114568949135763">エ</text><text x="108.66666666666667" y="45" opacity="0.5436827362451814">力</text><text x="108.66666666666667" y="60" opacity="0.5977038404884171">ウ</text><text x="108.66666666666667" y="75" opacity="0.3455280986135366">ア</text><text x="108.66666666666667" y="90" opacity="0.4006276410642726">七</text><text x="108.66666666666667" y="105" opacity="0.4423467207240509">エ</text><text x="108.66666666666667" y="120" opacity="0.19353399603786584">ウ</text><text x="128.4" y="15" opacity="0.2758955166533532">七</text><text x="128.4" y="30" opacity="0.5169681916785513">ウ</text><text x="128.4" y="45" opacity="0.3303403528226091">ウ</text><text x="128.4" y="60" opacity="0.49588056591274166">九</text><text x="128.4" y="75" opacity="0.5177288962072366">エ</text><text x="128.4" y="90" opacity="0.30494480083022">九</text><text x="128.4" y="105" opacity="0.5893623819299677">ア</text><text x="128.4" y="120" opacity="0.22250778387370265">エ</text><text x="148.13333333333333" y="15" opacity="0.31788322042144757">ウ</text><text x="148.13333333333333" y="30" opacity="0.5318069089253794">ア</text><text x="148.13333333333333" y="45" opacity="0.33161134561035244">九</text><text x="148.13333333333333" y="60" opacity="0.4394341580436345">イ</text><text x="148.13333333333333" y="75" opacity="0.41472988842149117">0</text><text x="148.13333333333333" y="90" opacity="0.5251998939711473">エ</text><text x="148.13333333333333" y="105" opacity="0.2806448121690792">イ</text><text x="148.13333333333333" y="120" opacity="0.5354477425280104">0</text><text x="167.86666666666667" y="15" opacity="0.47398831903197713">九</text><text x="167.86666666666667" y="30" opacity="0.42861912073615105">力</text><text x="167.86666666666667" y="45" opacity="0.5698728848187818">力</text><text x="167.86666666666667" y="60" opacity="0.5761975856803707">オ</text><text x="167.86666666666667" y="75" opacity="0.291066577291879">イ</text><text x="167.86666666666667" y="90" opacity="0.4591635585270626">ウ</text><text x="167.86666666666667" y="105" opacity="0.26121152499569145">ウ</text><text x="167.86666666666667" y="120" opacity="0.3647888466334125">九</text><text x="187.60000000000002" y="15" opacity="0.306400100458329">0</text><text x="187.60000000000002" y="30" opacity="0.15034234916571967">ア</text><text x="187.60000000000002" y="45" opacity="0.5428268504891129">ウ</text><text x="187.60000000000002" y="60" opacity="0.4465957736305127">オ</text><text x="187.60000000000002" y="75" opacity="0.17236625231097716">ウ</text><text x="187.60000000000002" y="90" opacity="0.2643526030688991">オ</text><text x="187.60000000000002" y="105" opacity="0.2521329682798049">0</text><text x="187.60000000000002" y="120" opacity="0.3938213255807873">ア</text><text x="207.33333333333334" y="15" opacity="0.5332509898638678">イ</text><text x="207.33333333333334" y="30" opacity="0.5577734155790411">オ</text><text x="207.33333333333334" y="45" opacity="0.3246316687158948">ア</text><text x="207.33333333333334" y="60" opacity="0.312624927450297">イ</text><text x="207.33333333333334" y="75" opacity="0.5326614088936363">力</text><text x="207.33333333333334" y="90" opacity="0.5070929169172378">1</text><text x="207.33333333333334" y="105" opacity="0.5755569128089182">エ</text><text x="207.33333333333334" y="120" opacity="0.3793542102514069">エ</text><text x="227.06666666666666" y="15" opacity="0.5052141188408699">七</text><text x="227.06666666666666" y="30" opacity="0.3150327236856615">力</text><text x="227.06666666666666" y="45" opacity="0.4179755839881304">イ</text><text x="227.06666666666666" y="60" opacity="0.20762148234533664">オ</text><text x="227.06666666666666" y="75" opacity="0.1929224799083127">ウ</text><text x="227.06666666666666" y="90" opacity="0.4159137907842304">エ</text><text x="227.06666666666666" y="105" opacity="0.5091426112622374">力</text><text x="227.06666666666666" y="120" opacity="0.505159701953935">力</text><text x="246.8" y="15" opacity="0.27595898030732113">ア</text><text x="246.8" y="30" opacity="0.5789032887305674">力</text><text x="246.8" y="45" opacity="0.5701229797441518">0</text><text x="246.8" y="60" opacity="0.3998554958086926">力</text><text x="246.8" y="75" opacity="0.33455912867005433">エ</text><text x="246.8" y="90" opacity="0.4638016746922552">七</text><text x="246.8" y="105" opacity="0.2457096972498715">ウ</text><text x="246.8" y="120" opacity="0.392484742575268">0</text><text x="266.53333333333336" y="15" opacity="0.17464234274956428">ウ</text><text x="266.53333333333336" y="30" opacity="0.45408520305285127">1</text><text x="266.53333333333336" y="45" opacity="0.28524408144420055">ア</text><text x="266.53333333333336" y="60" opacity="0.14039796898478588">七</text><text x="266.53333333333336" y="75" opacity="0.19509527321381706">イ</text><text x="266.53333333333336" y="90" opacity="0.3300232736575528">七</text><text x="266.53333333333336" y="105" opacity="0.1491222563730186">七</text><text x="266.53333333333336" y="120" opacity="0.3521234918693247">力</text><text x="286.26666666666665" y="15" opacity="0.3684804045319432">エ</text><text x="286.26666666666665" y="30" opacity="0.4241230634127173">力</text><text x="286.26666666666665" y="45" opacity="0.515200340729391">ウ</text><text x="286.26666666666665" y="60" opacity="0.1339385086475097">イ</text><text x="286.26666666666665" y="75" opacity="0.21549963287532883">力</text><text x="286.26666666666665" y="90" opacity="0.49417542774255485">オ</text><text x="286.26666666666665" y="105" opacity="0.22329193511960557">エ</text><text x="286.26666666666665" y="120" opacity="0.5524136962635589">力</text>
        </g>
        <rect x="5" y="5" width="286" height="331" fill="none" stroke="#00ff00" stroke-width="1" rx="8" ry="8" stroke-opacity="0.3"/>
      
      <!-- Weather Effects (behind pet) -->
      <g class="weather-layer" style="pointer-events: none;">
        
      </g>
      <!-- Evolution Effects (behind pet) -->
      <g class="evolution-layer" style="pointer-events: none;">
        
      <defs>
        <radialGradient id="evolutionAura">
          <stop offset="0%" stop-color="#FFD700" stop-opacity="0.6"/>
          <stop offset="70%" stop-color="#FFD700" stop-opacity="0.2"/>
          <stop offset="100%" stop-color="#FFD700" stop-opacity="0"/>
        </radialGradient>
        <filter id="evolutionGlow">
          <feGaussianBlur stdDeviation="3" result="coloredBlur"/>
          <feMerge>
            <feMergeNode in="coloredBlur"/>
            <feMergeNode in="SourceGraphic"/>
          </feMerge>
        </filter>
      </defs>
      <circle cx="148" cy="148" r="45" fill="url(#evolutionAura)">
        <animate attributeName="r" values="45;53;45" dur="2s" repeatCount="indefinite"/>
        <animate attributeName="opacity" values="0.7;1;0.7" dur="2s" repeatCount="indefinite"/>
      </circle>
    
      </g>
      <g transform="translate(20, 20)" opacity="1">
        <g class="pet">
            <rect x="64" y="16" width="16" height="16" fill="#2d333b" /><rect x="80" y="16" width="16" height="16" fill="#2d333b" /><rect x="96" y="16" width="16" height="16" fill="#2d333b" /><rect x="112" y="16" width="16" height="16" fill="#2d333b" /><rect x="128" y="16" width="16" height="16" fill="#2d333b" /><rect x="144" y="16" width="16" height="16" fill="#2d333b" /><rect x="160" y="16" width="16" height="16" fill="#2d333b" /><rect x="176" y="16" width="16" height="16" fill="#2d333b" /><rect x="32" y="32" width="16" height="16" fill="#2d333b" /><rect x="48" y="32" width="16" height="16" fill="#2d333b" /><rect x="64" y="32" width="16" height="16" fill="#00ADD8" /><rect x="80" y="32" width="16" height="16" fill="#00ADD8" /><rect x="96" y="32" width="16" height="16" fill="#00ADD8" /><rect x="112" y="32" width="16" height="16" fill="#00ADD8" /><rect x="128" y="32" width="16" height="16" fill="#00ADD8" /><rect x="144" y="32" width="16" height="16" fill="#00ADD8" /><rect x="160" y="32" width="16" height="16" fill="#00ADD8" /><rect x="176" y="32" width="16" height="16" fill="#00ADD8" /><rect x="192" y="32" width="16" height="16" fill="#2d333b" /><rect x="208" y="32" width="16" height="16" fill="#2d333b" /><rect x="16" y="48" width="16" height="16" fill="#2d333b" /><rect x="32" y="48" width="16" height="16" fill="#00ADD8" /><rect x="48" y="48" width="16" height="16" fill="#00ADD8" /><rect x="64" y="48" width="16" height="16" fill="#2d333b" /><rect x="80" y="48" width="16" height="16" fill="#2d333b" /><rect x="96" y="48" width="16" height="16" fill="#2d333b" /><rect x="112" y="48" width="16" height="16" fill="#2d333b" /><rect x="128" y="48" width="16" height="16" fill="#2d333b" /><rect x="144" y="48" width="16" height="16" fill="#2d333b" /><rect x="160" y="48" width="16" height="16" fill="#00ADD8" /><rect x="176" y="48" width="16" height="16" fill="#00ADD8" /><rect x="192" y="48" width="16" height="16" fill="#00ADD8" /><rect x="208" y="48" width="16" height="16" fill="#00ADD8" /><rect x="224" y="48" width="16" height="16" fill="#2d333b" /><rect x="16" y="64" width="16" height="16" fill="#2d333b" /><rect x="32" y="64" width="16" height="16" fill="#00ADD8" /><rect x="48" y="64" width="16" height="16" fill="#00ADD8" /><rect x="64" y="64" width="16" height="16" fill="#00ADD8" /><rect x="80" y="64" width="16" height="16" fill="#00ADD8" /><rect x="96" y="64" width="16" height="16" fill="#00ADD8" /><rect x="112" y="64" width="16" height="16" fill="#00ADD8" /><rect x="128" y="64" width="16" height="16" fill="#00ADD8" /><rect x="144" y="64" width="16" height="16" fill="#00ADD8" /><rect x="160" y="64" width="16" height="16" fill="#00ADD8" /><rect x="176" y="64" width="16" height="16" fill="#00ADD8" /><rect x="192" y="64" width="16" height="16" fill="#00ADD8" /><rect x="208" y="64" width="16" height="16" fill="#2d333b" /><rect x="0" y="80" width="16" height="16" fill="#2d333b" /><rect x="16" y="80" width="16" height="16" fill="#00ADD8" /><rect x="32" y="80" width="16" height="16" fill="#00ADD8" /><rect x="48" y="80" width="16" height="16" fill="#00ADD8" /><rect x="64" y="80" width="16" height="16" fill="#00ADD8" /><rect x="80" y="80" width="16" height="16" fill="#00ADD8" /><rect x="96" y="80" width="16" height="16" fill="#00ADD8" /><rect x="112" y="80" width="16" height="16" fill="#00ADD8" /><rect x="128" y="80" width="16" height="16" fill="#00ADD8" /><rect x="144" y="80" width="16" height="16" fill="#00ADD8" /><rect x="160" y="80" width="16" height="16" fill="#00ADD8" /><rect x="176" y="80" width="16" height="16" fill="#00ADD8" /><rect x="192" y="80" width="16" height="16" fill="#00ADD8" /><rect x="208" y="80" width="16" height="16" fill="#00ADD8" /><rect x="224" y="80" width="16" height="16" fill="#2d333b" /><rect x="0" y="96" width="16" height="16" fill="#2d333b" /><rect x="16" y="96" width="16" height="16" fill="#00ADD8" /><rect x="32" y="96" width="16" height="16" fill="#00ADD8" /><rect x="48" y="96" width="16" height="16" fill="#00ADD8" /><rect x="64" y="96" width="16" height="16" fill="#00ADD8" /><rect x="80" y="96" width="16" height="16" fill="#2d333b" /><rect x="96" y="96" width="16" height="16" fill="#00ADD8" /><rect x="112" y="96" width="16" height="16" fill="#00ADD8" /><rect x="128" y="96" width="16" height="16" fill="#00ADD8" /><rect x="144" y="96" width="16" height="16" fill="#00ADD8" /><rect x="160" y="96" width="16" height="16" fill="#00ADD8" /><rect x="176" y="96" width="16" height="16" fill="#00ADD8" /><rect x="192" y="96" width="16" height="16" fill="#00ADD8" /><rect x="208" y="96" width="16" height="16" fill="#00ADD8" /><rect x="224" y="96" width="16" height="16" fill="#2d333b" /><rect x="16" y="112" width="16" height="16" fill="#2d333b" /><rect x="32" y="112" width="16" height="16" fill="#00ADD8" /><rect x="48" y="112" width="16" height="16" fill="#00ADD8" /><rect x="64" y="112" width="16" height="16" fill="#00ADD8" /><rect x="80" y="112" width="16" height="16" fill="#2d333b" /><rect x="96" y="112" width="16" height="16" fill="#00ADD8" /><rect x="112" y="112" width="16" height="16" fill="#00ADD8" /><rect x="128" y="112" width="16" height="16" fill="#00ADD8" /><rect x="144" y="112" width="16" height="16" fill="#00ADD8" /><rect x="160" y="112" width="16" height="16" fill="#00ADD8" /><rect x="176" y="112" width="16" height="16" fill="#00ADD8" /><rect x="192" y="112" width="16" height="16" fill="#2d333b" /><rect x="32" y="128" width="16" height="16" fill="#2d333b" /><rect x="48" y="128" width="16" height="16" fill="#00ADD8" /><rect x="64" y="128" width="16" height="16" fill="#00ADD8" /><rect x="80" y="128" width="16" height="16" fill="#2d333b" /><rect x="96" y="128" width="16" height="16" fill="#00ADD8" /><rect x="112" y="128" width="16" height="16" fill="#00ADD8" /><rect x="128" y="128" width="16" height="16" fill="#00ADD8" /><rect x="144" y="128" width="16" height="16" fill="#00ADD8" /><rect x="160" y="128" width="16" height="16" fill="#00ADD8" /><rect x="176" y="128" width="16" height="16" fill="#2d333b" /><rect x="32" y="144" width="16" height="16" fill="#2d333b" /><rect x="48" y="144" width="16" height="16" fill="#00ADD8" /><rect x="64" y="144" width="16" height="16" fill="#2d333b" /><rect x="80" y="144" width="16" height="16" fill="#00ADD8" /><rect x="96" y="144" width="16" height="16" fill="#00ADD8" /><rect x="112" y="144" width="16" height="16" fill="#00ADD8" /><rect x="128" y="144" width="16" height="16" fill="#00ADD8" /><rect x="144" y="144" width="16" height="16" fill="#00ADD8" /><rect x="160" y="144" width="16" height="16" fill="#00ADD8" /><rect x="176" y="144" width="16" height="16" fill="#2d333b" /><rect x="48" y="160" width="16" height="16" fill="#2d333b" /><rect x="64" y="160" width="16" height="16" fill="#2d333b" /><rect x="80" y="160" width="16" height="16" fill="#00ADD8" /><rect x="96" y="160" width="16" height="16" fill="#00ADD8" /><rect x="112" y="160" width="16" height="16" fill="#00ADD8" /><rect x="128" y="160" width="16" height="16" fill="#00ADD8" /><rect x="144" y="160" width="16" height="16" fill="#00ADD8" /><rect x="160" y="160" width="16" height="16" fill="#2d333b" /><rect x="64" y="176" width="16" height="16" fill="#2d333b" /><rect x="80" y="176" width="16" height="16" fill="#2d333b" /><rect x="96" y="176" width="16" height="16" fill="#2d333b" /><rect x="112" y="176" width="16" height="16" fill="#2d333b" /><rect x="128" y="176" width="16" height="16" fill="#2d333b" /><rect x="144" y="176" width="16" height="16" fill="#2d333b" />
            
        <animateTransform 
            attributeName="transform" 
            type="scale" 
            values="1 1; 1.02 0.98; 1 1" 
            dur="2s" 
            repeatCount="indefinite" 
        />
        </g>
        <!-- Speech Bubble -->
        
    <g transform="translate(226, -25)">
      <!-- Speech bubble -->
      <rect x="0" y="0" width="139" height="24" rx="10" ry="10" 
            fill="#FFFFFF" stroke="#2d333b" stroke-width="1.5"/>
      <!-- Bubble tail -->
      <polygon points="15,24 20,32 25,24" 
               fill="#FFFFFF" stroke="#2d333b" stroke-width="1.5"/>
      <line x1="16" y1="24" x2="24" y2="24" stroke="#FFFFFF" stroke-width="2"/>
      <!-- Text -->
      <text x="69.5" y="16" 
            font-family="'Segoe UI', Arial, sans-serif" font-size="10" 
            fill="#2d333b" text-anchor="middle">💤 BRB napping...</text>
    </g>
  
        <!-- Seasonal Accessory (z-index: above pet) -->
        
      </g>
      
      <!-- Level & Mood Text -->
      <text x="20" y="299" font-family="monospace" font-size="11" fill="#00ff00">
        ⭐ Lv.33 Adult
      </text>
      <text x="276" y="299" text-anchor="end" font-family="monospace" font-size="11" fill="#00ff00">
        💤 SLEEPING 🔥4
      </text>
      
      <!-- XP Progress Bar -->
      <rect x="20" y="306" width="256" height="8" rx="4" fill="#e0e0e0" stroke="#0288d1" stroke-width="1"/>
      <rect x="20" y="306" width="102.4" height="8" rx="4" fill="#4fc3f7">
        <animate attributeName="width" from="0" to="102.4" dur="0.5s" fill="freeze"/>
      </rect>
      
      <!-- XP Text -->
      <text x="50%" y="329" text-anchor="middle" font-family="monospace" font-size="9" fill="#00ff00">
        XP: 10500 / 10890 (40%)
      </text>
    
      
      <!-- Achievement Badges -->
      <g transform="translate(15, 311)">
    <g class="achievements">
      
      <g transform="translate(5, 0)">
        <title>Spark: 3 day streak</title>
        <circle cx="10" cy="10" r="10" fill="rgba(255,255,255,0.9)" stroke="#ddd" stroke-width="1"/>
        <text x="10" y="14" text-anchor="middle" font-size="11">⚡</text>
      </g>
    
      <g transform="translate(30, 0)">
        <title>Rising Star: Level 5</title>
        <circle cx="10" cy="10" r="10" fill="rgba(255,255,255,0.9)" stroke="#ddd" stroke-width="1"/>
        <text x="10" y="14" text-anchor="middle" font-size="11">🌟</text>
      </g>
    
      <g transform="translate(55, 0)">
        <title>Shining: Level 10</title>
        <circle cx="10" cy="10" r="10" fill="rgba(255,255,255,0.9)" stroke="#ddd" stroke-width="1"/>
        <text x="10" y="14" text-anchor="middle" font-size="11">✨</text>
      </g>
    
      <g transform="translate(80, 0)">
        <title>Rainbow: Level 25</title>
        <circle cx="10" cy="10" r="10" fill="rgba(255,255,255,0.9)" stroke="#ddd" stroke-width="1"/>
        <text x="10" y="14" text-anchor="middle" font-size="11">🌈</text>
      </g>
    
      
    </g>
  </g>
    </svg>