<svg xmlns="http://www.w3.org/2000/svg" width="296" height="341" viewBox="0 0 296 341">
      <style>
        .pet { transform-origin: center; }
      </style>
      <!-- Theme Background -->
      
        <rect x="0" y="0" width="296" height="341" fill="#0d0d0d" rx="12" ry="12"/>
        <g font-family="monospace" font-size="10" fill="#00ff00" opacity="0.3">
          <text x="10" y="15" opacity="0.19289510133764745">イ</text><text x="10" y="30" opacity="0.2337432950262959">エ</text><text x="10" y="45" opacity="0.15876593997883684">ウ</text><text x="10" y="60" opacity="0.534970181308884">オ</text><text x="10" y="75" opacity="0.2320330504428079">ウ</text><text x="10" y="90" opacity="0.5753661008942736">オ</text><text x="10" y="105" opacity="0.4159852503880558">ア</text><text x="10" y="120" opacity="0.48494033395997127">ウ</text><text x="29.733333333333334" y="15" opacity="0.2526621518169829">イ</text><text x="29.733333333333334" y="30" opacity="0.5868810756821305">ウ</text><text x="29.733333333333334" y="45" opacity="0.5236942109331886">0</text><text x="29.733333333333334" y="60" opacity="0.18361732696428404">七</text><text x="29.733333333333334" y="75" opacity="0.11657289198533874">七</text><text x="29.733333333333334" y="90" opacity="0.12512650678596784">0</text><text x="29.733333333333334" y="105" opacity="0.3182151916399304">1</text><text x="29.733333333333334" y="120" opacity="0.5302395936165955">オ</text><text x="49.46666666666667" y="15" opacity="0.5077805083618142">0</text><text x="49.46666666666667" y="30" opacity="0.2669820849933039">エ</text><text x="49.46666666666667" y="45" opacity="0.38723730628595177">エ</text><text x="49.46666666666667" y="60" opacity="0.5750299384808829">0</text><text x="49.46666666666667" y="75" opacity="0.42139499592387286">イ</text><text x="49.46666666666667" y="90" opacity="0.42581867790810857">ウ</text><text x="49.46666666666667" y="105" opacity="0.12933960298676697">1</text><text x="49.46666666666667" y="120" opacity="0.19007097729105196">九</text><text x="69.2" y="15" opacity="0.1256327284516894">七</text><text x="69.2" y="30" opacity="0.12004747293736054">ア</text><text x="69.2" y="45" opacity="0.16711471604025233">オ</text><text x="69.2" y="60" opacity="0.5113881215297875">七</text><text x="69.2" y="75" opacity="0.5266739441110989">七</text><text x="69.2" y="90" opacity="0.22431240233955077">オ</text><text x="69.2" y="105" opacity="0.1386363602370492">九</text><text x="69.2" y="120" opacity="0.31137777464817806">ウ</text><text x="88.93333333333334" y="15" opacity="0.34794212563516935">七</text><text x="88.93333333333334" y="30" opacity="0.2069029283790215">七</text><text x="88.93333333333334" y="45" opacity="0.3203904155005082">オ</text><text x="88.93333333333334" y="60" opacity="0.5641605158934903">九</text><text x="88.93333333333334" y="75" opacity="0.12636432877779283">イ</text><text x="88.93333333333334" y="90" opacity="0.5438898382683707">0</text><text x="88.93333333333334" y="105" opacity="0.300301385804554">エ</text><text x="88.93333333333334" y="120" opacity="0.3429954743395096">1</text><text x="108.66666666666667" y="15" opacity="0.4021454096477528">ア</text><text x="108.66666666666667" y="30" opacity="0.45712177070953">七</text><text x="108.66666666666667" y="45" opacity="0.5532373289874878">オ</text><text x="108.66666666666667" y="60" opacity="0.126707201319213">イ</text><text x="108.66666666666667" y="75" opacity="0.5599103146845205">0</text><text x="108.66666666666667" y="90" opacity="0.22793377920727279">七</text><text x="108.66666666666667" y="105" opacity="0.4817199084776447">力</text><text x="108.66666666666667" y="120" opacity="0.12031350456838844">力</text><text x="128.4" y="15" opacity="0.22790844034431193">力</text><text x="128.4" y="30" opacity="0.42875050174439866">七</text><text x="128.4" y="45" opacity="0.1997391624833045">ア</text><text x="128.4" y="60" opacity="0.256096232819334">1</text><text x="128.4" y="75" opacity="0.5633530118700603">力</text><text x="128.4" y="90" opacity="0.33712321134532686">ウ</text><text x="128.4" y="105" opacity="0.31664038210583856">七</text><text x="128.4" y="120" opacity="0.5219234271993073">ア</text><text x="148.13333333333333" y="15" opacity="0.18762089984614697">1</text><text x="148.13333333333333" y="30" opacity="0.10909400304447206">九</text><text x="148.13333333333333" y="45" opacity="0.197047374188463">0</text><text x="148.13333333333333" y="60" opacity="0.27976536722455536">0</text><text x="148.13333333333333" y="75" opacity="0.5432893840673485">イ</text><text x="148.13333333333333" y="90" opacity="0.30428108243007834">ア</text><text x="148.13333333333333" y="105" opacity="0.1435998601562937">イ</text><text x="148.13333333333333" y="120" opacity="0.33304963155892475">ウ</text><text x="167.86666666666667" y="15" opacity="0.5794405178801696">七</text><text x="167.86666666666667" y="30" opacity="0.5532129633554762">エ</text><text x="167.86666666666667" y="45" opacity="0.45476850372021993">九</text><text x="167.86666666666667" y="60" opacity="0.5433588190747886">九</text><text x="167.86666666666667" y="75" opacity="0.3648228133424093">エ</text><text x="167.86666666666667" y="90" opacity="0.5745621637497198">七</text><text x="167.86666666666667" y="105" opacity="0.23059617969748183">七</text><text x="167.86666666666667" y="120" opacity="0.2899578562860039">1</text><text x="187.60000000000002" y="15" opacity="0.4826780033698276">1</text><text x="187.60000000000002" y="30" opacity="0.16243169102021218">ウ</text><text x="187.60000000000002" y="45" opacity="0.23011217962764577">1</text><text x="187.60000000000002" y="60" opacity="0.5886168598674945">0</text><text x="187.60000000000002" y="75" opacity="0.40175861019479564">力</text><text x="187.60000000000002" y="90" opacity="0.5958434029933233">0</text><text x="187.60000000000002" y="105" opacity="0.5147791368046419">ア</text><text x="187.60000000000002" y="120" opacity="0.15945056382781977">エ</text><text x="207.33333333333334" y="15" opacity="0.26189055160137464">エ</text><text x="207.33333333333334" y="30" opacity="0.1241774826642861">エ</text><text x="207.33333333333334" y="45" opacity="0.29732141491517017">力</text><text x="207.33333333333334" y="60" opacity="0.2717052177898098">力</text><text x="207.33333333333334" y="75" opacity="0.12830055768751428">イ</text><text x="207.33333333333334" y="90" opacity="0.49864668947853863">オ</text><text x="207.33333333333334" y="105" opacity="0.49179531988376446">ウ</text><text x="207.33333333333334" y="120" opacity="0.3940586302991348">エ</text><text x="227.06666666666666" y="15" opacity="0.10542003046123508">エ</text><text x="227.06666666666666" y="30" opacity="0.4544324164058221">エ</text><text x="227.06666666666666" y="45" opacity="0.3080196326387782">オ</text><text x="227.06666666666666" y="60" opacity="0.2764181656858099">力</text><text x="227.06666666666666" y="75" opacity="0.18573280137299467">ア</text><text x="227.06666666666666" y="90" opacity="0.459743276063708">九</text><text x="227.06666666666666" y="105" opacity="0.4413739168129093">七</text><text x="227.06666666666666" y="120" opacity="0.44394072216209457">イ</text><text x="246.8" y="15" opacity="0.11054352187227681">イ</text><text x="246.8" y="30" opacity="0.1982932085699041">九</text><text x="246.8" y="45" opacity="0.44433438949869786">七</text><text x="246.8" y="60" opacity="0.5253737160168321">オ</text><text x="246.8" y="75" opacity="0.4891768898939528">エ</text><text x="246.8" y="90" opacity="0.1471752463695767">九</text><text x="246.8" y="105" opacity="0.4495502097467452">0</text><text x="246.8" y="120" opacity="0.2708896715869027">七</text><text x="266.53333333333336" y="15" opacity="0.5824011609561065">エ</text><text x="266.53333333333336" y="30" opacity="0.553292584285827">七</text><text x="266.53333333333336" y="45" opacity="0.24735963835760869">九</text><text x="266.53333333333336" y="60" opacity="0.4080384233069949">1</text><text x="266.53333333333336" y="75" opacity="0.5751470262377099">1</text><text x="266.53333333333336" y="90" opacity="0.24120164988288165">エ</text><text x="266.53333333333336" y="105" opacity="0.38409417471840634">九</text><text x="266.53333333333336" y="120" opacity="0.19693791696905652">ウ</text><text x="286.26666666666665" y="15" opacity="0.4060194746470157">力</text><text x="286.26666666666665" y="30" opacity="0.2525353853675396">イ</text><text x="286.26666666666665" y="45" opacity="0.3767891618622736">イ</text><text x="286.26666666666665" y="60" opacity="0.5868247546811688">1</text><text x="286.26666666666665" y="75" opacity="0.4307144224911247">0</text><text x="286.26666666666665" y="90" opacity="0.181786545555549">ア</text><text x="286.26666666666665" y="105" opacity="0.21941630631330103">0</text><text x="286.26666666666665" y="120" opacity="0.43892754422712776">オ</text>
        </g>
        <rect x="5" y="5" width="286" height="331" fill="none" stroke="#00ff00" stroke-width="1" rx="8" ry="8" stroke-opacity="0.3"/>
      
      <!-- Weather Effects (behind pet) -->
      <g class="weather-layer" style="pointer-events: none;">
        
      </g>
      <!-- Evolution Effects (behind pet) -->
      <g class="evolution-layer" style="pointer-events: none;">
        
      <defs>
        <radialGradient id="evolutionAura">
          <stop offset="0%" stop-color="#FFD700" stop-opacity="0.6"/>
          <stop offset="70%" stop-color="#FFD700" stop-opacity="0.2"/>
          <stop offset="100%" stop-color="#FFD700" stop-opacity="0"/>
        </radialGradient>
        <filter id="evolutionGlow">
          <feGaussianBlur stdDeviation="3" result="coloredBlur"/>
          <feMerge>
            <feMergeNode in="coloredBlur"/>
            <feMergeNode in="SourceGraphic"/>
          </feMerge>
        </filter>
      </defs>
      <circle cx="148" cy="148" r="45" fill="url(#evolutionAura)">
        <animate attributeName="r" values="45;53;45" dur="2s" repeatCount="indefinite"/>
        <animate attributeName="opacity" values="0.7;1;0.7" dur="2s" repeatCount="indefinite"/>
      </circle>
    
      </g>
      <g transform="translate(20, 20)" opacity="1">
        <g class="pet">
            <rect x="80" y="0" width="16" height="16" fill="#2d333b" /><rect x="96" y="0" width="16" height="16" fill="#2d333b" /><rect x="112" y="0" width="16" height="16" fill="#2d333b" /><rect x="128" y="0" width="16" height="16" fill="#2d333b" /><rect x="144" y="0" width="16" height="16" fill="#2d333b" /><rect x="208" y="0" width="16" height="16" fill="#FFD700" /><rect x="48" y="16" width="16" height="16" fill="#2d333b" /><rect x="64" y="16" width="16" height="16" fill="#2d333b" /><rect x="80" y="16" width="16" height="16" fill="#00ADD8" /><rect x="96" y="16" width="16" height="16" fill="#FFD700" /><rect x="112" y="16" width="16" height="16" fill="#00ADD8" /><rect x="128" y="16" width="16" height="16" fill="#FFD700" /><rect x="144" y="16" width="16" height="16" fill="#00ADD8" /><rect x="160" y="16" width="16" height="16" fill="#2d333b" /><rect x="176" y="16" width="16" height="16" fill="#2d333b" /><rect x="32" y="32" width="16" height="16" fill="#2d333b" /><rect x="48" y="32" width="16" height="16" fill="#00ADD8" /><rect x="64" y="32" width="16" height="16" fill="#00ADD8" /><rect x="80" y="32" width="16" height="16" fill="#00ADD8" /><rect x="96" y="32" width="16" height="16" fill="#00ADD8" /><rect x="112" y="32" width="16" height="16" fill="#00ADD8" /><rect x="128" y="32" width="16" height="16" fill="#00ADD8" /><rect x="144" y="32" width="16" height="16" fill="#00ADD8" /><rect x="160" y="32" width="16" height="16" fill="#FFD700" /><rect x="176" y="32" width="16" height="16" fill="#00ADD8" /><rect x="192" y="32" width="16" height="16" fill="#2d333b" /><rect x="208" y="32" width="16" height="16" fill="#FFD700" /><rect x="16" y="48" width="16" height="16" fill="#2d333b" /><rect x="32" y="48" width="16" height="16" fill="#00ADD8" /><rect x="48" y="48" width="16" height="16" fill="#00ADD8" /><rect x="64" y="48" width="16" height="16" fill="#FFD700" /><rect x="80" y="48" width="16" height="16" fill="#2d333b" /><rect x="96" y="48" width="16" height="16" fill="#2d333b" /><rect x="112" y="48" width="16" height="16" fill="#FFD700" /><rect x="128" y="48" width="16" height="16" fill="#00ADD8" /><rect x="144" y="48" width="16" height="16" fill="#00ADD8" /><rect x="160" y="48" width="16" height="16" fill="#00ADD8" /><rect x="176" y="48" width="16" height="16" fill="#2d333b" /><rect x="16" y="64" width="16" height="16" fill="#2d333b" /><rect x="32" y="64" width="16" height="16" fill="#00ADD8" /><rect x="48" y="64" width="16" height="16" fill="#00ADD8" /><rect x="64" y="64" width="16" height="16" fill="#2d333b" /><rect x="80" y="64" width="16" height="16" fill="#2d333b" /><rect x="96" y="64" width="16" height="16" fill="#2d333b" /><rect x="112" y="64" width="16" height="16" fill="#2d333b" /><rect x="128" y="64" width="16" height="16" fill="#FFD700" /><rect x="144" y="64" width="16" height="16" fill="#00ADD8" /><rect x="160" y="64" width="16" height="16" fill="#00ADD8" /><rect x="176" y="64" width="16" height="16" fill="#2d333b" /><rect x="208" y="64" width="16" height="16" fill="#2d333b" /><rect x="0" y="80" width="16" height="16" fill="#2d333b" /><rect x="16" y="80" width="16" height="16" fill="#FFD700" /><rect x="32" y="80" width="16" height="16" fill="#00ADD8" /><rect x="48" y="80" width="16" height="16" fill="#00ADD8" /><rect x="64" y="80" width="16" height="16" fill="#00ADD8" /><rect x="80" y="80" width="16" height="16" fill="#00ADD8" /><rect x="96" y="80" width="16" height="16" fill="#FFD700" /><rect x="112" y="80" width="16" height="16" fill="#00ADD8" /><rect x="128" y="80" width="16" height="16" fill="#00ADD8" /><rect x="144" y="80" width="16" height="16" fill="#00ADD8" /><rect x="160" y="80" width="16" height="16" fill="#2d333b" /><rect x="192" y="80" width="16" height="16" fill="#2d333b" /><rect x="208" y="80" width="16" height="16" fill="#00ADD8" /><rect x="224" y="80" width="16" height="16" fill="#2d333b" /><rect x="0" y="96" width="16" height="16" fill="#2d333b" /><rect x="16" y="96" width="16" height="16" fill="#00ADD8" /><rect x="32" y="96" width="16" height="16" fill="#00ADD8" /><rect x="48" y="96" width="16" height="16" fill="#FFD700" /><rect x="64" y="96" width="16" height="16" fill="#00ADD8" /><rect x="80" y="96" width="16" height="16" fill="#2d333b" /><rect x="96" y="96" width="16" height="16" fill="#00ADD8" /><rect x="112" y="96" width="16" height="16" fill="#00ADD8" /><rect x="128" y="96" width="16" height="16" fill="#FFD700" /><rect x="144" y="96" width="16" height="16" fill="#00ADD8" /><rect x="160" y="96" width="16" height="16" fill="#2d333b" /><rect x="176" y="96" width="16" height="16" fill="#2d333b" /><rect x="192" y="96" width="16" height="16" fill="#00ADD8" /><rect x="208" y="96" width="16" height="16" fill="#00ADD8" /><rect x="224" y="96" width="16" height="16" fill="#2d333b" /><rect x="240" y="96" width="16" height="16" fill="#FFD700" /><rect x="16" y="112" width="16" height="16" fill="#2d333b" /><rect x="32" y="112" width="16" height="16" fill="#00ADD8" /><rect x="48" y="112" width="16" height="16" fill="#FFD700" /><rect x="64" y="112" width="16" height="16" fill="#00ADD8" /><rect x="80" y="112" width="16" height="16" fill="#2d333b" /><rect x="96" y="112" width="16" height="16" fill="#00ADD8" /><rect x="112" y="112" width="16" height="16" fill="#FFD700" /><rect x="128" y="112" width="16" height="16" fill="#00ADD8" /><rect x="144" y="112" width="16" height="16" fill="#FFD700" /><rect x="160" y="112" width="16" height="16" fill="#2d333b" /><rect x="176" y="112" width="16" height="16" fill="#00ADD8" /><rect x="192" y="112" width="16" height="16" fill="#00ADD8" /><rect x="208" y="112" width="16" height="16" fill="#00ADD8" /><rect x="224" y="112" width="16" height="16" fill="#2d333b" /><rect x="32" y="128" width="16" height="16" fill="#2d333b" /><rect x="48" y="128" width="16" height="16" fill="#00ADD8" /><rect x="64" y="128" width="16" height="16" fill="#00ADD8" /><rect x="80" y="128" width="16" height="16" fill="#2d333b" /><rect x="96" y="128" width="16" height="16" fill="#00ADD8" /><rect x="112" y="128" width="16" height="16" fill="#00ADD8" /><rect x="128" y="128" width="16" height="16" fill="#00ADD8" /><rect x="144" y="128" width="16" height="16" fill="#2d333b" /><rect x="160" y="128" width="16" height="16" fill="#00ADD8" /><rect x="176" y="128" width="16" height="16" fill="#FFD700" /><rect x="192" y="128" width="16" height="16" fill="#00ADD8" /><rect x="208" y="128" width="16" height="16" fill="#FFD700" /><rect x="224" y="128" width="16" height="16" fill="#2d333b" /><rect x="32" y="144" width="16" height="16" fill="#2d333b" /><rect x="48" y="144" width="16" height="16" fill="#00ADD8" /><rect x="64" y="144" width="16" height="16" fill="#2d333b" /><rect x="80" y="144" width="16" height="16" fill="#00ADD8" /><rect x="96" y="144" width="16" height="16" fill="#FFD700" /><rect x="112" y="144" width="16" height="16" fill="#00ADD8" /><rect x="128" y="144" width="16" height="16" fill="#FFD700" /><rect x="144" y="144" width="16" height="16" fill="#2d333b" /><rect x="160" y="144" width="16" height="16" fill="#00ADD8" /><rect x="176" y="144" width="16" height="16" fill="#00ADD8" /><rect x="192" y="144" width="16" height="16" fill="#00ADD8" /><rect x="208" y="144" width="16" height="16" fill="#00ADD8" /><rect x="224" y="144" width="16" height="16" fill="#2d333b" /><rect x="16" y="160" width="16" height="16" fill="#2d333b" /><rect x="32" y="160" width="16" height="16" fill="#00ADD8" /><rect x="48" y="160" width="16" height="16" fill="#2d333b" /><rect x="64" y="160" width="16" height="16" fill="#00ADD8" /><rect x="80" y="160" width="16" height="16" fill="#00ADD8" /><rect x="96" y="160" width="16" height="16" fill="#00ADD8" /><rect x="112" y="160" width="16" height="16" fill="#00ADD8" /><rect x="128" y="160" width="16" height="16" fill="#00ADD8" /><rect x="144" y="160" width="16" height="16" fill="#2d333b" /><rect x="160" y="160" width="16" height="16" fill="#00ADD8" /><rect x="176" y="160" width="16" height="16" fill="#FFD700" /><rect x="192" y="160" width="16" height="16" fill="#FFD700" /><rect x="208" y="160" width="16" height="16" fill="#2d333b" /><rect x="0" y="176" width="16" height="16" fill="#2d333b" /><rect x="16" y="176" width="16" height="16" fill="#00ADD8" /><rect x="32" y="176" width="16" height="16" fill="#2d333b" /><rect x="48" y="176" width="16" height="16" fill="#00ADD8" /><rect x="64" y="176" width="16" height="16" fill="#00ADD8" /><rect x="80" y="176" width="16" height="16" fill="#00ADD8" /><rect x="96" y="176" width="16" height="16" fill="#FFD700" /><rect x="112" y="176" width="16" height="16" fill="#00ADD8" /><rect x="128" y="176" width="16" height="16" fill="#00ADD8" /><rect x="144" y="176" width="16" height="16" fill="#2d333b" /><rect x="160" y="176" width="16" height="16" fill="#00ADD8" /><rect x="176" y="176" width="16" height="16" fill="#00ADD8" /><rect x="192" y="176" width="16" height="16" fill="#2d333b" /><rect x="224" y="176" width="16" height="16" fill="#FFD700" /><rect x="16" y="192" width="16" height="16" fill="#2d333b" /><rect x="32" y="192" width="16" height="16" fill="#2d333b" /><rect x="48" y="192" width="16" height="16" fill="#00ADD8" /><rect x="64" y="192" width="16" height="16" fill="#00ADD8" /><rect x="80" y="192" width="16" height="16" fill="#00ADD8" /><rect x="96" y="192" width="16" height="16" fill="#00ADD8" /><rect x="112" y="192" width="16" height="16" fill="#00ADD8" /><rect x="128" y="192" width="16" height="16" fill="#00ADD8" /><rect x="144" y="192" width="16" height="16" fill="#00ADD8" /><rect x="160" y="192" width="16" height="16" fill="#2d333b" /><rect x="176" y="192" width="16" height="16" fill="#2d333b" /><rect x="32" y="208" width="16" height="16" fill="#2d333b" /><rect x="48" y="208" width="16" height="16" fill="#2d333b" /><rect x="64" y="208" width="16" height="16" fill="#2d333b" /><rect x="80" y="208" width="16" height="16" fill="#2d333b" /><rect x="96" y="208" width="16" height="16" fill="#2d333b" /><rect x="112" y="208" width="16" height="16" fill="#2d333b" /><rect x="128" y="208" width="16" height="16" fill="#2d333b" /><rect x="144" y="208" width="16" height="16" fill="#2d333b" /><rect x="160" y="208" width="16" height="16" fill="#2d333b" /><rect x="176" y="208" width="16" height="16" fill="#2d333b" /><rect x="192" y="208" width="16" height="16" fill="#2d333b" />
            
        <animateTransform 
            attributeName="transform" 
            type="translate" 
            values="0 0; -2 -2; 2 -4; -2 -2; 0 0" 
            dur="0.3s" 
            repeatCount="indefinite" 
        />
        </g>
        <!-- Speech Bubble -->
        
    <g transform="translate(226, -25)">
      <!-- Speech bubble -->
      <rect x="0" y="0" width="160" height="24" rx="10" ry="10" 
            fill="#FFFFFF" stroke="#2d333b" stroke-width="1.5"/>
      <!-- Bubble tail -->
      <polygon points="15,24 20,32 25,24" 
               fill="#FFFFFF" stroke="#2d333b" stroke-width="1.5"/>
      <line x1="16" y1="24" x2="24" y2="24" stroke="#FFFFFF" stroke-width="2"/>
      <!-- Text -->
      <text x="80" y="16" 
            font-family="'Segoe UI', Arial, sans-serif" font-size="10" 
            fill="#2d333b" text-anchor="middle">COFFEE COFFEE COFFEE</text>
    </g>
  
        <!-- Seasonal Accessory (z-index: above pet) -->
        
      </g>
      
      <!-- Level & Mood Text -->
      <text x="20" y="299" font-family="monospace" font-size="11" fill="#00ff00">
        ⭐ Lv.34 Adult
      </text>
      <text x="276" y="299" text-anchor="end" font-family="monospace" font-size="11" fill="#00ff00">
        ☕ CAFFEINATED 🔥11
      </text>
      
      <!-- XP Progress Bar -->
      <rect x="20" y="306" width="256" height="8" rx="4" fill="#e0e0e0" stroke="#0288d1" stroke-width="1"/>
      <rect x="20" y="306" width="56.32" height="8" rx="4" fill="#4fc3f7">
        <animate attributeName="width" from="0" to="56.32" dur="0.5s" fill="freeze"/>
      </rect>
      
      <!-- XP Text -->
      <text x="50%" y="329" text-anchor="middle" font-family="monospace" font-size="9" fill="#00ff00">
        XP: 11040 / 11560 (22%)
      </text>
    
      
      <!-- Achievement Badges -->
      <g transform="translate(15, 311)">
    <g class="achievements">
      
      <g transform="translate(5, 0)">
        <title>Spark: 3 day streak</title>
        <circle cx="10" cy="10" r="10" fill="rgba(255,255,255,0.9)" stroke="#ddd" stroke-width="1"/>
        <text x="10" y="14" text-anchor="middle" font-size="11">⚡</text>
      </g>
    
      <g transform="translate(30, 0)">
        <title>Weekly Warrior: 7 day streak</title>
        <circle cx="10" cy="10" r="10" fill="rgba(255,255,255,0.9)" stroke="#ddd" stroke-width="1"/>
        <text x="10" y="14" text-anchor="middle" font-size="11">🔥</text>
      </g>
    
      <g transform="translate(55, 0)">
        <title>Rising Star: Level 5</title>
        <circle cx="10" cy="10" r="10" fill="rgba(255,255,255,0.9)" stroke="#ddd" stroke-width="1"/>
        <text x="10" y="14" text-anchor="middle" font-size="11">🌟</text>
      </g>
    
      <g transform="translate(80, 0)">
        <title>Shining: Level 10</title>
        <circle cx="10" cy="10" r="10" fill="rgba(255,255,255,0.9)" stroke="#ddd" stroke-width="1"/>
        <text x="10" y="14" text-anchor="middle" font-size="11">✨</text>
      </g>
    
      <g transform="translate(105, 0)">
        <title>Rainbow: Level 25</title>
        <circle cx="10" cy="10" r="10" fill="rgba(255,255,255,0.9)" stroke="#ddd" stroke-width="1"/>
        <text x="10" y="14" text-anchor="middle" font-size="11">🌈</text>
      </g>
    
      
    </g>
  </g>
    </svg>