<svg xmlns="http://www.w3.org/2000/svg" width="296" height="341" viewBox="0 0 296 341">
      <style>
        .pet { transform-origin: center; }
      </style>
      <!-- Theme Background -->
      
        <rect x="0" y="0" width="296" height="341" fill="#0d0d0d" rx="12" ry="12"/>
        <g font-family="monospace" font-size="10" fill="#00ff00" opacity="0.3">
          <text x="10" y="15" opacity="0.13356031058203646">力</text><text x="10" y="30" opacity="0.443095270837222">オ</text><text x="10" y="45" opacity="0.26742809964889847">エ</text><text x="10" y="60" opacity="0.3270973110408466">0</text><text x="10" y="75" opacity="0.10621720407907057">力</text><text x="10" y="90" opacity="0.26099815947408833">七</text><text x="10" y="105" opacity="0.43575613182817274">七</text><text x="10" y="120" opacity="0.5894635982817976">イ</text><text x="29.733333333333334" y="15" opacity="0.21361823139470262">ウ</text><text x="29.733333333333334" y="30" opacity="0.5037635638458295">イ</text><text x="29.733333333333334" y="45" opacity="0.22257126360912707">イ</text><text x="29.733333333333334" y="60" opacity="0.5903858056913228">七</text><text x="29.733333333333334" y="75" opacity="0.3144210612298042">九</text><text x="29.733333333333334" y="90" opacity="0.5499209206435354">1</text><text x="29.733333333333334" y="105" opacity="0.488059916741001">イ</text><text x="29.733333333333334" y="120" opacity="0.32699116923331717">ウ</text><text x="49.46666666666667" y="15" opacity="0.4796855690983377">1</text><text x="49.46666666666667" y="30" opacity="0.20685812638118842">ア</text><text x="49.46666666666667" y="45" opacity="0.47512252930061094">オ</text><text x="49.46666666666667" y="60" opacity="0.4277542446546405">エ</text><text x="49.46666666666667" y="75" opacity="0.4553244842473717">イ</text><text x="49.46666666666667" y="90" opacity="0.5166108502637787">九</text><text x="49.46666666666667" y="105" opacity="0.5033120816529568">ウ</text><text x="49.46666666666667" y="120" opacity="0.41062842862764304">イ</text><text x="69.2" y="15" opacity="0.5908976079107149">イ</text><text x="69.2" y="30" opacity="0.3053297639843663">力</text><text x="69.2" y="45" opacity="0.2789195255687268">力</text><text x="69.2" y="60" opacity="0.5826976321635634">1</text><text x="69.2" y="75" opacity="0.26754243092106555">力</text><text x="69.2" y="90" opacity="0.37065237668868045">ウ</text><text x="69.2" y="105" opacity="0.47964994995118104">七</text><text x="69.2" y="120" opacity="0.5964270552021232">1</text><text x="88.93333333333334" y="15" opacity="0.45540490069363704">七</text><text x="88.93333333333334" y="30" opacity="0.29303620443949463">九</text><text x="88.93333333333334" y="45" opacity="0.2644290549106896">1</text><text x="88.93333333333334" y="60" opacity="0.58835095784808">1</text><text x="88.93333333333334" y="75" opacity="0.3651916934900984">ウ</text><text x="88.93333333333334" y="90" opacity="0.25010652717584525">0</text><text x="88.93333333333334" y="105" opacity="0.3031909316962642">エ</text><text x="88.93333333333334" y="120" opacity="0.45823692863051413">エ</text><text x="108.66666666666667" y="15" opacity="0.23266709324791582">ア</text><text x="108.66666666666667" y="30" opacity="0.5373751661170605">イ</text><text x="108.66666666666667" y="45" opacity="0.1391151675594078">1</text><text x="108.66666666666667" y="60" opacity="0.3712667424729825">イ</text><text x="108.66666666666667" y="75" opacity="0.45109218309916743">七</text><text x="108.66666666666667" y="90" opacity="0.2752915506157063">1</text><text x="108.66666666666667" y="105" opacity="0.18723862905697833">イ</text><text x="108.66666666666667" y="120" opacity="0.5071134726298461">七</text><text x="128.4" y="15" opacity="0.37414581325866236">力</text><text x="128.4" y="30" opacity="0.4020267382000461">0</text><text x="128.4" y="45" opacity="0.39086613775586965">エ</text><text x="128.4" y="60" opacity="0.5509238571059314">0</text><text x="128.4" y="75" opacity="0.364072442025584">イ</text><text x="128.4" y="90" opacity="0.22049769908790642">オ</text><text x="128.4" y="105" opacity="0.23707463825717148">イ</text><text x="128.4" y="120" opacity="0.23902070242365306">ア</text><text x="148.13333333333333" y="15" opacity="0.32401428456559345">1</text><text x="148.13333333333333" y="30" opacity="0.46780255420710226">エ</text><text x="148.13333333333333" y="45" opacity="0.3634607949916687">イ</text><text x="148.13333333333333" y="60" opacity="0.3544084962431293">エ</text><text x="148.13333333333333" y="75" opacity="0.3214373617571079">0</text><text x="148.13333333333333" y="90" opacity="0.5900906981830424">ウ</text><text x="148.13333333333333" y="105" opacity="0.5318799526934087">七</text><text x="148.13333333333333" y="120" opacity="0.10581497324567316">エ</text><text x="167.86666666666667" y="15" opacity="0.21994304566175651">力</text><text x="167.86666666666667" y="30" opacity="0.11393103460149304">イ</text><text x="167.86666666666667" y="45" opacity="0.12064861409615338">ア</text><text x="167.86666666666667" y="60" opacity="0.23072622042191018">ウ</text><text x="167.86666666666667" y="75" opacity="0.3367217743596066">七</text><text x="167.86666666666667" y="90" opacity="0.23884317186564644">七</text><text x="167.86666666666667" y="105" opacity="0.2806209681570413">ア</text><text x="167.86666666666667" y="120" opacity="0.12846116325161264">エ</text><text x="187.60000000000002" y="15" opacity="0.2880816161033303">0</text><text x="187.60000000000002" y="30" opacity="0.49008532449026176">ウ</text><text x="187.60000000000002" y="45" opacity="0.596897716369557">エ</text><text x="187.60000000000002" y="60" opacity="0.3427575027869335">0</text><text x="187.60000000000002" y="75" opacity="0.4523667913038728">ウ</text><text x="187.60000000000002" y="90" opacity="0.5018779999313637">七</text><text x="187.60000000000002" y="105" opacity="0.428298727151355">1</text><text x="187.60000000000002" y="120" opacity="0.20604158051567104">九</text><text x="207.33333333333334" y="15" opacity="0.12024279672822183">イ</text><text x="207.33333333333334" y="30" opacity="0.2980007968202293">力</text><text x="207.33333333333334" y="45" opacity="0.21751162595963527">力</text><text x="207.33333333333334" y="60" opacity="0.5817545082431526">ア</text><text x="207.33333333333334" y="75" opacity="0.11999913334775006">イ</text><text x="207.33333333333334" y="90" opacity="0.4002869372140657">エ</text><text x="207.33333333333334" y="105" opacity="0.2238032069795887">イ</text><text x="207.33333333333334" y="120" opacity="0.16847544167486964">力</text><text x="227.06666666666666" y="15" opacity="0.5938821429801534">ア</text><text x="227.06666666666666" y="30" opacity="0.3976479039329196">0</text><text x="227.06666666666666" y="45" opacity="0.2597318508425587">ア</text><text x="227.06666666666666" y="60" opacity="0.23207121776400144">オ</text><text x="227.06666666666666" y="75" opacity="0.5290687448484328">イ</text><text x="227.06666666666666" y="90" opacity="0.1646712586719913">力</text><text x="227.06666666666666" y="105" opacity="0.5797256839422459">0</text><text x="227.06666666666666" y="120" opacity="0.16905113640343797">イ</text><text x="246.8" y="15" opacity="0.4229907124672164">ウ</text><text x="246.8" y="30" opacity="0.5166435652699947">七</text><text x="246.8" y="45" opacity="0.22962211923492362">エ</text><text x="246.8" y="60" opacity="0.28028531150520863">七</text><text x="246.8" y="75" opacity="0.5560696679722342">七</text><text x="246.8" y="90" opacity="0.339024416319506">オ</text><text x="246.8" y="105" opacity="0.14308813515532784">九</text><text x="246.8" y="120" opacity="0.2351822440701238">九</text><text x="266.53333333333336" y="15" opacity="0.3427241091800851">ウ</text><text x="266.53333333333336" y="30" opacity="0.5071456657504572">1</text><text x="266.53333333333336" y="45" opacity="0.17967847024412079">九</text><text x="266.53333333333336" y="60" opacity="0.42762869606291">オ</text><text x="266.53333333333336" y="75" opacity="0.3784267425016645">オ</text><text x="266.53333333333336" y="90" opacity="0.31851845091347597">エ</text><text x="266.53333333333336" y="105" opacity="0.47034287055099555">ウ</text><text x="266.53333333333336" y="120" opacity="0.47171503606192233">0</text><text x="286.26666666666665" y="15" opacity="0.42029146309913556">七</text><text x="286.26666666666665" y="30" opacity="0.3491403959294921">ウ</text><text x="286.26666666666665" y="45" opacity="0.10530571257095858">イ</text><text x="286.26666666666665" y="60" opacity="0.5531884611324788">エ</text><text x="286.26666666666665" y="75" opacity="0.1356702467846235">ウ</text><text x="286.26666666666665" y="90" opacity="0.26834140984323185">オ</text><text x="286.26666666666665" y="105" opacity="0.17715630139802233">イ</text><text x="286.26666666666665" y="120" opacity="0.5566529764657545">力</text>
        </g>
        <rect x="5" y="5" width="286" height="331" fill="none" stroke="#00ff00" stroke-width="1" rx="8" ry="8" stroke-opacity="0.3"/>
      
      <!-- Weather Effects (behind pet) -->
      <g class="weather-layer" style="pointer-events: none;">
        
        <g opacity="0.6">
          <line x1="10" y1="-10" x2="5" y2="10" stroke="#4FC3F7" stroke-width="2" stroke-linecap="round">
          <animate attributeName="y1" values="-10;351" dur="0.7s" begin="0s" repeatCount="indefinite"/>
          <animate attributeName="y2" values="10;371" dur="0.7s" begin="0s" repeatCount="indefinite"/>
        </line><line x1="24.8" y1="-10" x2="19.8" y2="10" stroke="#4FC3F7" stroke-width="2" stroke-linecap="round">
          <animate attributeName="y1" values="-10;351" dur="0.7s" begin="0.1s" repeatCount="indefinite"/>
          <animate attributeName="y2" values="10;371" dur="0.7s" begin="0.1s" repeatCount="indefinite"/>
        </line><line x1="39.6" y1="-10" x2="34.6" y2="10" stroke="#4FC3F7" stroke-width="2" stroke-linecap="round">
          <animate attributeName="y1" values="-10;351" dur="0.7s" begin="0.2s" repeatCount="indefinite"/>
          <animate attributeName="y2" values="10;371" dur="0.7s" begin="0.2s" repeatCount="indefinite"/>
        </line><line x1="54.400000000000006" y1="-10" x2="49.400000000000006" y2="10" stroke="#4FC3F7" stroke-width="2" stroke-linecap="round">
          <animate attributeName="y1" values="-10;351" dur="0.7s" begin="0.30000000000000004s" repeatCount="indefinite"/>
          <animate attributeName="y2" values="10;371" dur="0.7s" begin="0.30000000000000004s" repeatCount="indefinite"/>
        </line><line x1="69.2" y1="-10" x2="64.2" y2="10" stroke="#4FC3F7" stroke-width="2" stroke-linecap="round">
          <animate attributeName="y1" values="-10;351" dur="0.7s" begin="0.4s" repeatCount="indefinite"/>
          <animate attributeName="y2" values="10;371" dur="0.7s" begin="0.4s" repeatCount="indefinite"/>
        </line><line x1="84" y1="-10" x2="79" y2="10" stroke="#4FC3F7" stroke-width="2" stroke-linecap="round">
          <animate attributeName="y1" values="-10;351" dur="0.7s" begin="0.5s" repeatCount="indefinite"/>
          <animate attributeName="y2" values="10;371" dur="0.7s" begin="0.5s" repeatCount="indefinite"/>
        </line><line x1="98.80000000000001" y1="-10" x2="93.80000000000001" y2="10" stroke="#4FC3F7" stroke-width="2" stroke-linecap="round">
          <animate attributeName="y1" values="-10;351" dur="0.7s" begin="0.6000000000000001s" repeatCount="indefinite"/>
          <animate attributeName="y2" values="10;371" dur="0.7s" begin="0.6000000000000001s" repeatCount="indefinite"/>
        </line><line x1="113.60000000000001" y1="-10" x2="108.60000000000001" y2="10" stroke="#4FC3F7" stroke-width="2" stroke-linecap="round">
          <animate attributeName="y1" values="-10;351" dur="0.7s" begin="0.7000000000000001s" repeatCount="indefinite"/>
          <animate attributeName="y2" values="10;371" dur="0.7s" begin="0.7000000000000001s" repeatCount="indefinite"/>
        </line><line x1="128.4" y1="-10" x2="123.4" y2="10" stroke="#4FC3F7" stroke-width="2" stroke-linecap="round">
          <animate attributeName="y1" values="-10;351" dur="0.7s" begin="0.8s" repeatCount="indefinite"/>
          <animate attributeName="y2" values="10;371" dur="0.7s" begin="0.8s" repeatCount="indefinite"/>
        </line><line x1="143.20000000000002" y1="-10" x2="138.20000000000002" y2="10" stroke="#4FC3F7" stroke-width="2" stroke-linecap="round">
          <animate attributeName="y1" values="-10;351" dur="0.7s" begin="0.9s" repeatCount="indefinite"/>
          <animate attributeName="y2" values="10;371" dur="0.7s" begin="0.9s" repeatCount="indefinite"/>
        </line><line x1="158" y1="-10" x2="153" y2="10" stroke="#4FC3F7" stroke-width="2" stroke-linecap="round">
          <animate attributeName="y1" values="-10;351" dur="0.7s" begin="0s" repeatCount="indefinite"/>
          <animate attributeName="y2" values="10;371" dur="0.7s" begin="0s" repeatCount="indefinite"/>
        </line><line x1="172.8" y1="-10" x2="167.8" y2="10" stroke="#4FC3F7" stroke-width="2" stroke-linecap="round">
          <animate attributeName="y1" values="-10;351" dur="0.7s" begin="0.10000000000000009s" repeatCount="indefinite"/>
          <animate attributeName="y2" values="10;371" dur="0.7s" begin="0.10000000000000009s" repeatCount="indefinite"/>
        </line><line x1="187.60000000000002" y1="-10" x2="182.60000000000002" y2="10" stroke="#4FC3F7" stroke-width="2" stroke-linecap="round">
          <animate attributeName="y1" values="-10;351" dur="0.7s" begin="0.20000000000000018s" repeatCount="indefinite"/>
          <animate attributeName="y2" values="10;371" dur="0.7s" begin="0.20000000000000018s" repeatCount="indefinite"/>
        </line><line x1="202.4" y1="-10" x2="197.4" y2="10" stroke="#4FC3F7" stroke-width="2" stroke-linecap="round">
          <animate attributeName="y1" values="-10;351" dur="0.7s" begin="0.30000000000000004s" repeatCount="indefinite"/>
          <animate attributeName="y2" values="10;371" dur="0.7s" begin="0.30000000000000004s" repeatCount="indefinite"/>
        </line><line x1="217.20000000000002" y1="-10" x2="212.20000000000002" y2="10" stroke="#4FC3F7" stroke-width="2" stroke-linecap="round">
          <animate attributeName="y1" values="-10;351" dur="0.7s" begin="0.40000000000000013s" repeatCount="indefinite"/>
          <animate attributeName="y2" values="10;371" dur="0.7s" begin="0.40000000000000013s" repeatCount="indefinite"/>
        </line><line x1="232" y1="-10" x2="227" y2="10" stroke="#4FC3F7" stroke-width="2" stroke-linecap="round">
          <animate attributeName="y1" values="-10;351" dur="0.7s" begin="0.5s" repeatCount="indefinite"/>
          <animate attributeName="y2" values="10;371" dur="0.7s" begin="0.5s" repeatCount="indefinite"/>
        </line><line x1="246.8" y1="-10" x2="241.8" y2="10" stroke="#4FC3F7" stroke-width="2" stroke-linecap="round">
          <animate attributeName="y1" values="-10;351" dur="0.7s" begin="0.6000000000000001s" repeatCount="indefinite"/>
          <animate attributeName="y2" values="10;371" dur="0.7s" begin="0.6000000000000001s" repeatCount="indefinite"/>
        </line><line x1="261.6" y1="-10" x2="256.6" y2="10" stroke="#4FC3F7" stroke-width="2" stroke-linecap="round">
          <animate attributeName="y1" values="-10;351" dur="0.7s" begin="0.7000000000000002s" repeatCount="indefinite"/>
          <animate attributeName="y2" values="10;371" dur="0.7s" begin="0.7000000000000002s" repeatCount="indefinite"/>
        </line><line x1="276.40000000000003" y1="-10" x2="271.40000000000003" y2="10" stroke="#4FC3F7" stroke-width="2" stroke-linecap="round">
          <animate attributeName="y1" values="-10;351" dur="0.7s" begin="0.8s" repeatCount="indefinite"/>
          <animate attributeName="y2" values="10;371" dur="0.7s" begin="0.8s" repeatCount="indefinite"/>
        </line><line x1="291.2" y1="-10" x2="286.2" y2="10" stroke="#4FC3F7" stroke-width="2" stroke-linecap="round">
          <animate attributeName="y1" values="-10;351" dur="0.7s" begin="0.9000000000000001s" repeatCount="indefinite"/>
          <animate attributeName="y2" values="10;371" dur="0.7s" begin="0.9000000000000001s" repeatCount="indefinite"/>
        </line>
        </g>
      
      </g>
      <!-- Evolution Effects (behind pet) -->
      <g class="evolution-layer" style="pointer-events: none;">
        
      <defs>
        <radialGradient id="evolutionAura">
          <stop offset="0%" stop-color="#FFD700" stop-opacity="0.6"/>
          <stop offset="70%" stop-color="#FFD700" stop-opacity="0.2"/>
          <stop offset="100%" stop-color="#FFD700" stop-opacity="0"/>
        </radialGradient>
        <filter id="evolutionGlow">
          <feGaussianBlur stdDeviation="3" result="coloredBlur"/>
          <feMerge>
            <feMergeNode in="coloredBlur"/>
            <feMergeNode in="SourceGraphic"/>
          </feMerge>
        </filter>
      </defs>
      <circle cx="148" cy="148" r="45" fill="url(#evolutionAura)">
        <animate attributeName="r" values="45;53;45" dur="2s" repeatCount="indefinite"/>
        <animate attributeName="opacity" values="0.7;1;0.7" dur="2s" repeatCount="indefinite"/>
      </circle>
    
      </g>
      <g transform="translate(20, 20)" opacity="1">
        <g class="pet">
            <rect x="64" y="16" width="16" height="16" fill="#2d333b" /><rect x="80" y="16" width="16" height="16" fill="#2d333b" /><rect x="96" y="16" width="16" height="16" fill="#2d333b" /><rect x="112" y="16" width="16" height="16" fill="#2d333b" /><rect x="128" y="16" width="16" height="16" fill="#2d333b" /><rect x="144" y="16" width="16" height="16" fill="#2d333b" /><rect x="160" y="16" width="16" height="16" fill="#2d333b" /><rect x="176" y="16" width="16" height="16" fill="#2d333b" /><rect x="32" y="32" width="16" height="16" fill="#2d333b" /><rect x="48" y="32" width="16" height="16" fill="#2d333b" /><rect x="64" y="32" width="16" height="16" fill="#00ADD8" /><rect x="80" y="32" width="16" height="16" fill="#00ADD8" /><rect x="96" y="32" width="16" height="16" fill="#00ADD8" /><rect x="112" y="32" width="16" height="16" fill="#00ADD8" /><rect x="128" y="32" width="16" height="16" fill="#00ADD8" /><rect x="144" y="32" width="16" height="16" fill="#00ADD8" /><rect x="160" y="32" width="16" height="16" fill="#00ADD8" /><rect x="176" y="32" width="16" height="16" fill="#00ADD8" /><rect x="192" y="32" width="16" height="16" fill="#2d333b" /><rect x="208" y="32" width="16" height="16" fill="#2d333b" /><rect x="16" y="48" width="16" height="16" fill="#2d333b" /><rect x="32" y="48" width="16" height="16" fill="#00ADD8" /><rect x="48" y="48" width="16" height="16" fill="#00ADD8" /><rect x="64" y="48" width="16" height="16" fill="#2d333b" /><rect x="80" y="48" width="16" height="16" fill="#2d333b" /><rect x="96" y="48" width="16" height="16" fill="#2d333b" /><rect x="112" y="48" width="16" height="16" fill="#2d333b" /><rect x="128" y="48" width="16" height="16" fill="#2d333b" /><rect x="144" y="48" width="16" height="16" fill="#2d333b" /><rect x="160" y="48" width="16" height="16" fill="#00ADD8" /><rect x="176" y="48" width="16" height="16" fill="#00ADD8" /><rect x="192" y="48" width="16" height="16" fill="#00ADD8" /><rect x="208" y="48" width="16" height="16" fill="#00ADD8" /><rect x="224" y="48" width="16" height="16" fill="#2d333b" /><rect x="16" y="64" width="16" height="16" fill="#2d333b" /><rect x="32" y="64" width="16" height="16" fill="#00ADD8" /><rect x="48" y="64" width="16" height="16" fill="#00ADD8" /><rect x="64" y="64" width="16" height="16" fill="#00ADD8" /><rect x="80" y="64" width="16" height="16" fill="#00ADD8" /><rect x="96" y="64" width="16" height="16" fill="#00ADD8" /><rect x="112" y="64" width="16" height="16" fill="#00ADD8" /><rect x="128" y="64" width="16" height="16" fill="#00ADD8" /><rect x="144" y="64" width="16" height="16" fill="#00ADD8" /><rect x="160" y="64" width="16" height="16" fill="#00ADD8" /><rect x="176" y="64" width="16" height="16" fill="#00ADD8" /><rect x="192" y="64" width="16" height="16" fill="#00ADD8" /><rect x="208" y="64" width="16" height="16" fill="#2d333b" /><rect x="0" y="80" width="16" height="16" fill="#2d333b" /><rect x="16" y="80" width="16" height="16" fill="#00ADD8" /><rect x="32" y="80" width="16" height="16" fill="#00ADD8" /><rect x="48" y="80" width="16" height="16" fill="#00ADD8" /><rect x="64" y="80" width="16" height="16" fill="#00ADD8" /><rect x="80" y="80" width="16" height="16" fill="#00ADD8" /><rect x="96" y="80" width="16" height="16" fill="#00ADD8" /><rect x="112" y="80" width="16" height="16" fill="#00ADD8" /><rect x="128" y="80" width="16" height="16" fill="#00ADD8" /><rect x="144" y="80" width="16" height="16" fill="#00ADD8" /><rect x="160" y="80" width="16" height="16" fill="#00ADD8" /><rect x="176" y="80" width="16" height="16" fill="#00ADD8" /><rect x="192" y="80" width="16" height="16" fill="#00ADD8" /><rect x="208" y="80" width="16" height="16" fill="#00ADD8" /><rect x="224" y="80" width="16" height="16" fill="#2d333b" /><rect x="0" y="96" width="16" height="16" fill="#2d333b" /><rect x="16" y="96" width="16" height="16" fill="#00ADD8" /><rect x="32" y="96" width="16" height="16" fill="#00ADD8" /><rect x="48" y="96" width="16" height="16" fill="#00ADD8" /><rect x="64" y="96" width="16" height="16" fill="#00ADD8" /><rect x="80" y="96" width="16" height="16" fill="#2d333b" /><rect x="96" y="96" width="16" height="16" fill="#00ADD8" /><rect x="112" y="96" width="16" height="16" fill="#00ADD8" /><rect x="128" y="96" width="16" height="16" fill="#00ADD8" /><rect x="144" y="96" width="16" height="16" fill="#00ADD8" /><rect x="160" y="96" width="16" height="16" fill="#00ADD8" /><rect x="176" y="96" width="16" height="16" fill="#00ADD8" /><rect x="192" y="96" width="16" height="16" fill="#00ADD8" /><rect x="208" y="96" width="16" height="16" fill="#00ADD8" /><rect x="224" y="96" width="16" height="16" fill="#2d333b" /><rect x="16" y="112" width="16" height="16" fill="#2d333b" /><rect x="32" y="112" width="16" height="16" fill="#00ADD8" /><rect x="48" y="112" width="16" height="16" fill="#00ADD8" /><rect x="64" y="112" width="16" height="16" fill="#00ADD8" /><rect x="80" y="112" width="16" height="16" fill="#2d333b" /><rect x="96" y="112" width="16" height="16" fill="#00ADD8" /><rect x="112" y="112" width="16" height="16" fill="#00ADD8" /><rect x="128" y="112" width="16" height="16" fill="#00ADD8" /><rect x="144" y="112" width="16" height="16" fill="#00ADD8" /><rect x="160" y="112" width="16" height="16" fill="#00ADD8" /><rect x="176" y="112" width="16" height="16" fill="#00ADD8" /><rect x="192" y="112" width="16" height="16" fill="#2d333b" /><rect x="32" y="128" width="16" height="16" fill="#2d333b" /><rect x="48" y="128" width="16" height="16" fill="#00ADD8" /><rect x="64" y="128" width="16" height="16" fill="#00ADD8" /><rect x="80" y="128" width="16" height="16" fill="#2d333b" /><rect x="96" y="128" width="16" height="16" fill="#00ADD8" /><rect x="112" y="128" width="16" height="16" fill="#00ADD8" /><rect x="128" y="128" width="16" height="16" fill="#00ADD8" /><rect x="144" y="128" width="16" height="16" fill="#00ADD8" /><rect x="160" y="128" width="16" height="16" fill="#00ADD8" /><rect x="176" y="128" width="16" height="16" fill="#2d333b" /><rect x="32" y="144" width="16" height="16" fill="#2d333b" /><rect x="48" y="144" width="16" height="16" fill="#00ADD8" /><rect x="64" y="144" width="16" height="16" fill="#2d333b" /><rect x="80" y="144" width="16" height="16" fill="#00ADD8" /><rect x="96" y="144" width="16" height="16" fill="#00ADD8" /><rect x="112" y="144" width="16" height="16" fill="#00ADD8" /><rect x="128" y="144" width="16" height="16" fill="#00ADD8" /><rect x="144" y="144" width="16" height="16" fill="#00ADD8" /><rect x="160" y="144" width="16" height="16" fill="#00ADD8" /><rect x="176" y="144" width="16" height="16" fill="#2d333b" /><rect x="48" y="160" width="16" height="16" fill="#2d333b" /><rect x="64" y="160" width="16" height="16" fill="#2d333b" /><rect x="80" y="160" width="16" height="16" fill="#00ADD8" /><rect x="96" y="160" width="16" height="16" fill="#00ADD8" /><rect x="112" y="160" width="16" height="16" fill="#00ADD8" /><rect x="128" y="160" width="16" height="16" fill="#00ADD8" /><rect x="144" y="160" width="16" height="16" fill="#00ADD8" /><rect x="160" y="160" width="16" height="16" fill="#2d333b" /><rect x="64" y="176" width="16" height="16" fill="#2d333b" /><rect x="80" y="176" width="16" height="16" fill="#2d333b" /><rect x="96" y="176" width="16" height="16" fill="#2d333b" /><rect x="112" y="176" width="16" height="16" fill="#2d333b" /><rect x="128" y="176" width="16" height="16" fill="#2d333b" /><rect x="144" y="176" width="16" height="16" fill="#2d333b" />
            
        <animateTransform 
            attributeName="transform" 
            type="scale" 
            values="1 1; 1.02 0.98; 1 1" 
            dur="2s" 
            repeatCount="indefinite" 
        />
        </g>
        <!-- Speech Bubble -->
        
    <g transform="translate(226, -25)">
      <!-- Speech bubble -->
      <rect x="0" y="0" width="62" height="24" rx="10" ry="10" 
            fill="#FFFFFF" stroke="#2d333b" stroke-width="1.5"/>
      <!-- Bubble tail -->
      <polygon points="15,24 20,32 25,24" 
               fill="#FFFFFF" stroke="#2d333b" stroke-width="1.5"/>
      <line x1="16" y1="24" x2="24" y2="24" stroke="#FFFFFF" stroke-width="2"/>
      <!-- Text -->
      <text x="31" y="16" 
            font-family="'Segoe UI', Arial, sans-serif" font-size="10" 
            fill="#2d333b" text-anchor="middle">zzZ...</text>
    </g>
  
        <!-- Seasonal Accessory (z-index: above pet) -->
        
      </g>
      
      <!-- Level & Mood Text -->
      <text x="20" y="299" font-family="monospace" font-size="11" fill="#00ff00">
        ⭐ Lv.33 Adult
      </text>
      <text x="276" y="299" text-anchor="end" font-family="monospace" font-size="11" fill="#00ff00">
        💤 SLEEPING 🔥5
      </text>
      
      <!-- XP Progress Bar -->
      <rect x="20" y="306" width="256" height="8" rx="4" fill="#e0e0e0" stroke="#0288d1" stroke-width="1"/>
      <rect x="20" y="306" width="58.88" height="8" rx="4" fill="#4fc3f7">
        <animate attributeName="width" from="0" to="58.88" dur="0.5s" fill="freeze"/>
      </rect>
      
      <!-- XP Text -->
      <text x="50%" y="329" text-anchor="middle" font-family="monospace" font-size="9" fill="#00ff00">
        XP: 10390 / 10890 (23%)
      </text>
    
      
      <!-- Achievement Badges -->
      <g transform="translate(15, 311)">
    <g class="achievements">
      
      <g transform="translate(5, 0)">
        <title>Spark: 3 day streak</title>
        <circle cx="10" cy="10" r="10" fill="rgba(255,255,255,0.9)" stroke="#ddd" stroke-width="1"/>
        <text x="10" y="14" text-anchor="middle" font-size="11">⚡</text>
      </g>
    
      <g transform="translate(30, 0)">
        <title>Rising Star: Level 5</title>
        <circle cx="10" cy="10" r="10" fill="rgba(255,255,255,0.9)" stroke="#ddd" stroke-width="1"/>
        <text x="10" y="14" text-anchor="middle" font-size="11">🌟</text>
      </g>
    
      <g transform="translate(55, 0)">
        <title>Shining: Level 10</title>
        <circle cx="10" cy="10" r="10" fill="rgba(255,255,255,0.9)" stroke="#ddd" stroke-width="1"/>
        <text x="10" y="14" text-anchor="middle" font-size="11">✨</text>
      </g>
    
      <g transform="translate(80, 0)">
        <title>Rainbow: Level 25</title>
        <circle cx="10" cy="10" r="10" fill="rgba(255,255,255,0.9)" stroke="#ddd" stroke-width="1"/>
        <text x="10" y="14" text-anchor="middle" font-size="11">🌈</text>
      </g>
    
      
    </g>
  </g>
    </svg>