<svg xmlns="http://www.w3.org/2000/svg" width="296" height="341" viewBox="0 0 296 341">
      <style>
        .pet { transform-origin: center; }
      </style>
      <!-- Theme Background -->
      
        <rect x="0" y="0" width="296" height="341" fill="#0d0d0d" rx="12" ry="12"/>
        <g font-family="monospace" font-size="10" fill="#00ff00" opacity="0.3">
          <text x="10" y="15" opacity="0.27224219779282144">力</text><text x="10" y="30" opacity="0.27860917772192506">1</text><text x="10" y="45" opacity="0.3107010523220911">0</text><text x="10" y="60" opacity="0.5203310458438589">力</text><text x="10" y="75" opacity="0.548271688576175">ア</text><text x="10" y="90" opacity="0.44623128897066655">1</text><text x="10" y="105" opacity="0.10834116756132797">ウ</text><text x="10" y="120" opacity="0.14657748181783506">1</text><text x="29.733333333333334" y="15" opacity="0.5071353055505984">ア</text><text x="29.733333333333334" y="30" opacity="0.5878861558309608">力</text><text x="29.733333333333334" y="45" opacity="0.4654387315297811">九</text><text x="29.733333333333334" y="60" opacity="0.2705597112402065">イ</text><text x="29.733333333333334" y="75" opacity="0.4691046028531054">力</text><text x="29.733333333333334" y="90" opacity="0.36704633180338664">0</text><text x="29.733333333333334" y="105" opacity="0.10647059209654611">0</text><text x="29.733333333333334" y="120" opacity="0.28436398126281814">九</text><text x="49.46666666666667" y="15" opacity="0.36559312208000827">エ</text><text x="49.46666666666667" y="30" opacity="0.4704076252352324">0</text><text x="49.46666666666667" y="45" opacity="0.48557526249794447">エ</text><text x="49.46666666666667" y="60" opacity="0.3901731598616035">力</text><text x="49.46666666666667" y="75" opacity="0.49454964327896833">七</text><text x="49.46666666666667" y="90" opacity="0.35421110349308926">力</text><text x="49.46666666666667" y="105" opacity="0.11064272190331395">エ</text><text x="49.46666666666667" y="120" opacity="0.5875107685468113">七</text><text x="69.2" y="15" opacity="0.26491868978886535">力</text><text x="69.2" y="30" opacity="0.36392609340916826">力</text><text x="69.2" y="45" opacity="0.4277130470414735">力</text><text x="69.2" y="60" opacity="0.4532090697412432">イ</text><text x="69.2" y="75" opacity="0.5457896364479955">力</text><text x="69.2" y="90" opacity="0.31684284339214175">七</text><text x="69.2" y="105" opacity="0.21202147974753274">ア</text><text x="69.2" y="120" opacity="0.5393848122957086">力</text><text x="88.93333333333334" y="15" opacity="0.5433911055057248">ウ</text><text x="88.93333333333334" y="30" opacity="0.5565295244762617">エ</text><text x="88.93333333333334" y="45" opacity="0.3524282265862655">エ</text><text x="88.93333333333334" y="60" opacity="0.5719495114648256">七</text><text x="88.93333333333334" y="75" opacity="0.5519515006536421">0</text><text x="88.93333333333334" y="90" opacity="0.38204008569484216">エ</text><text x="88.93333333333334" y="105" opacity="0.28153687459564947">力</text><text x="88.93333333333334" y="120" opacity="0.42915969253049546">オ</text><text x="108.66666666666667" y="15" opacity="0.18663398894574626">0</text><text x="108.66666666666667" y="30" opacity="0.3427748012570704">オ</text><text x="108.66666666666667" y="45" opacity="0.46501231371989993">0</text><text x="108.66666666666667" y="60" opacity="0.43231341894231634">七</text><text x="108.66666666666667" y="75" opacity="0.3841867763474498">力</text><text x="108.66666666666667" y="90" opacity="0.14446335498300436">力</text><text x="108.66666666666667" y="105" opacity="0.45392612852777203">ア</text><text x="108.66666666666667" y="120" opacity="0.5913374473153122">1</text><text x="128.4" y="15" opacity="0.45043891268925196">エ</text><text x="128.4" y="30" opacity="0.33370929099373414">九</text><text x="128.4" y="45" opacity="0.22715236895658888">オ</text><text x="128.4" y="60" opacity="0.5464702046247879">1</text><text x="128.4" y="75" opacity="0.18181935491054704">オ</text><text x="128.4" y="90" opacity="0.5918531953507411">エ</text><text x="128.4" y="105" opacity="0.38163664842514733">0</text><text x="128.4" y="120" opacity="0.14843899952894016">七</text><text x="148.13333333333333" y="15" opacity="0.540693207670497">力</text><text x="148.13333333333333" y="30" opacity="0.11788844647777333">力</text><text x="148.13333333333333" y="45" opacity="0.1976917132279247">1</text><text x="148.13333333333333" y="60" opacity="0.30205697239343976">0</text><text x="148.13333333333333" y="75" opacity="0.44362434022297226">エ</text><text x="148.13333333333333" y="90" opacity="0.15850006359423977">イ</text><text x="148.13333333333333" y="105" opacity="0.12544774181574106">エ</text><text x="148.13333333333333" y="120" opacity="0.42379557097166276">ウ</text><text x="167.86666666666667" y="15" opacity="0.15154362641058153">力</text><text x="167.86666666666667" y="30" opacity="0.24607659512252403">七</text><text x="167.86666666666667" y="45" opacity="0.47531837038085367">エ</text><text x="167.86666666666667" y="60" opacity="0.47054204730883065">七</text><text x="167.86666666666667" y="75" opacity="0.5027425444219197">七</text><text x="167.86666666666667" y="90" opacity="0.5863634051353789">1</text><text x="167.86666666666667" y="105" opacity="0.1546759962087876">七</text><text x="167.86666666666667" y="120" opacity="0.18533757416012622">イ</text><text x="187.60000000000002" y="15" opacity="0.19259076846604808">1</text><text x="187.60000000000002" y="30" opacity="0.5636517681345858">0</text><text x="187.60000000000002" y="45" opacity="0.38604748453002324">1</text><text x="187.60000000000002" y="60" opacity="0.4474780331200523">0</text><text x="187.60000000000002" y="75" opacity="0.1870727630452155">イ</text><text x="187.60000000000002" y="90" opacity="0.12222582651363159">イ</text><text x="187.60000000000002" y="105" opacity="0.519157181047213">オ</text><text x="187.60000000000002" y="120" opacity="0.5291181415003253">0</text><text x="207.33333333333334" y="15" opacity="0.12186243920216358">オ</text><text x="207.33333333333334" y="30" opacity="0.37272052428478286">力</text><text x="207.33333333333334" y="45" opacity="0.42063185494027344">九</text><text x="207.33333333333334" y="60" opacity="0.2445638547495628">ア</text><text x="207.33333333333334" y="75" opacity="0.37045595631828787">力</text><text x="207.33333333333334" y="90" opacity="0.49707598360092886">九</text><text x="207.33333333333334" y="105" opacity="0.5432767552043704">0</text><text x="207.33333333333334" y="120" opacity="0.398189902797217">ア</text><text x="227.06666666666666" y="15" opacity="0.106803623065608">エ</text><text x="227.06666666666666" y="30" opacity="0.22685023561794151">七</text><text x="227.06666666666666" y="45" opacity="0.5062462671565934">ア</text><text x="227.06666666666666" y="60" opacity="0.5387119052997132">エ</text><text x="227.06666666666666" y="75" opacity="0.17120140385485896">九</text><text x="227.06666666666666" y="90" opacity="0.32031793777059336">ア</text><text x="227.06666666666666" y="105" opacity="0.585795541717881">オ</text><text x="227.06666666666666" y="120" opacity="0.30814372583418015">七</text><text x="246.8" y="15" opacity="0.514819847174329">九</text><text x="246.8" y="30" opacity="0.1324919925273508">0</text><text x="246.8" y="45" opacity="0.31929260545374905">0</text><text x="246.8" y="60" opacity="0.4211672818721127">0</text><text x="246.8" y="75" opacity="0.1589733557108314">九</text><text x="246.8" y="90" opacity="0.2232129800688544">ア</text><text x="246.8" y="105" opacity="0.2585142717055492">九</text><text x="246.8" y="120" opacity="0.5707244218353889">力</text><text x="266.53333333333336" y="15" opacity="0.495662933962141">オ</text><text x="266.53333333333336" y="30" opacity="0.488275841389447">エ</text><text x="266.53333333333336" y="45" opacity="0.5381848961957739">七</text><text x="266.53333333333336" y="60" opacity="0.4352642465279837">イ</text><text x="266.53333333333336" y="75" opacity="0.21051379347986357">イ</text><text x="266.53333333333336" y="90" opacity="0.3863272314348256">九</text><text x="266.53333333333336" y="105" opacity="0.3732977198385097">0</text><text x="266.53333333333336" y="120" opacity="0.21826847234430594">ア</text><text x="286.26666666666665" y="15" opacity="0.26819633112182817">オ</text><text x="286.26666666666665" y="30" opacity="0.11221048709266104">0</text><text x="286.26666666666665" y="45" opacity="0.1121440928792087">1</text><text x="286.26666666666665" y="60" opacity="0.3184673755796693">ア</text><text x="286.26666666666665" y="75" opacity="0.22455078496472283">1</text><text x="286.26666666666665" y="90" opacity="0.10827873380457245">力</text><text x="286.26666666666665" y="105" opacity="0.580561744719978">九</text><text x="286.26666666666665" y="120" opacity="0.5529559000280778">七</text>
        </g>
        <rect x="5" y="5" width="286" height="331" fill="none" stroke="#00ff00" stroke-width="1" rx="8" ry="8" stroke-opacity="0.3"/>
      
      <!-- Weather Effects (behind pet) -->
      <g class="weather-layer" style="pointer-events: none;">
        
      </g>
      <!-- Evolution Effects (behind pet) -->
      <g class="evolution-layer" style="pointer-events: none;">
        
      <defs>
        <radialGradient id="evolutionAura">
          <stop offset="0%" stop-color="#FFD700" stop-opacity="0.6"/>
          <stop offset="70%" stop-color="#FFD700" stop-opacity="0.2"/>
          <stop offset="100%" stop-color="#FFD700" stop-opacity="0"/>
        </radialGradient>
        <filter id="evolutionGlow">
          <feGaussianBlur stdDeviation="3" result="coloredBlur"/>
          <feMerge>
            <feMergeNode in="coloredBlur"/>
            <feMergeNode in="SourceGraphic"/>
          </feMerge>
        </filter>
      </defs>
      <circle cx="148" cy="148" r="45" fill="url(#evolutionAura)">
        <animate attributeName="r" values="45;53;45" dur="2s" repeatCount="indefinite"/>
        <animate attributeName="opacity" values="0.7;1;0.7" dur="2s" repeatCount="indefinite"/>
      </circle>
    
      </g>
      <g transform="translate(20, 20)" opacity="1">
        <g class="pet">
            <rect x="64" y="16" width="16" height="16" fill="#2d333b" /><rect x="80" y="16" width="16" height="16" fill="#2d333b" /><rect x="96" y="16" width="16" height="16" fill="#2d333b" /><rect x="112" y="16" width="16" height="16" fill="#2d333b" /><rect x="128" y="16" width="16" height="16" fill="#2d333b" /><rect x="144" y="16" width="16" height="16" fill="#2d333b" /><rect x="160" y="16" width="16" height="16" fill="#2d333b" /><rect x="176" y="16" width="16" height="16" fill="#2d333b" /><rect x="32" y="32" width="16" height="16" fill="#2d333b" /><rect x="48" y="32" width="16" height="16" fill="#2d333b" /><rect x="64" y="32" width="16" height="16" fill="#00ADD8" /><rect x="80" y="32" width="16" height="16" fill="#00ADD8" /><rect x="96" y="32" width="16" height="16" fill="#00ADD8" /><rect x="112" y="32" width="16" height="16" fill="#00ADD8" /><rect x="128" y="32" width="16" height="16" fill="#00ADD8" /><rect x="144" y="32" width="16" height="16" fill="#00ADD8" /><rect x="160" y="32" width="16" height="16" fill="#00ADD8" /><rect x="176" y="32" width="16" height="16" fill="#00ADD8" /><rect x="192" y="32" width="16" height="16" fill="#2d333b" /><rect x="208" y="32" width="16" height="16" fill="#2d333b" /><rect x="16" y="48" width="16" height="16" fill="#2d333b" /><rect x="32" y="48" width="16" height="16" fill="#00ADD8" /><rect x="48" y="48" width="16" height="16" fill="#00ADD8" /><rect x="64" y="48" width="16" height="16" fill="#2d333b" /><rect x="80" y="48" width="16" height="16" fill="#2d333b" /><rect x="96" y="48" width="16" height="16" fill="#2d333b" /><rect x="112" y="48" width="16" height="16" fill="#2d333b" /><rect x="128" y="48" width="16" height="16" fill="#2d333b" /><rect x="144" y="48" width="16" height="16" fill="#2d333b" /><rect x="160" y="48" width="16" height="16" fill="#00ADD8" /><rect x="176" y="48" width="16" height="16" fill="#00ADD8" /><rect x="192" y="48" width="16" height="16" fill="#00ADD8" /><rect x="208" y="48" width="16" height="16" fill="#00ADD8" /><rect x="224" y="48" width="16" height="16" fill="#2d333b" /><rect x="16" y="64" width="16" height="16" fill="#2d333b" /><rect x="32" y="64" width="16" height="16" fill="#00ADD8" /><rect x="48" y="64" width="16" height="16" fill="#00ADD8" /><rect x="64" y="64" width="16" height="16" fill="#00ADD8" /><rect x="80" y="64" width="16" height="16" fill="#00ADD8" /><rect x="96" y="64" width="16" height="16" fill="#00ADD8" /><rect x="112" y="64" width="16" height="16" fill="#00ADD8" /><rect x="128" y="64" width="16" height="16" fill="#00ADD8" /><rect x="144" y="64" width="16" height="16" fill="#00ADD8" /><rect x="160" y="64" width="16" height="16" fill="#00ADD8" /><rect x="176" y="64" width="16" height="16" fill="#00ADD8" /><rect x="192" y="64" width="16" height="16" fill="#00ADD8" /><rect x="208" y="64" width="16" height="16" fill="#2d333b" /><rect x="0" y="80" width="16" height="16" fill="#2d333b" /><rect x="16" y="80" width="16" height="16" fill="#00ADD8" /><rect x="32" y="80" width="16" height="16" fill="#00ADD8" /><rect x="48" y="80" width="16" height="16" fill="#00ADD8" /><rect x="64" y="80" width="16" height="16" fill="#00ADD8" /><rect x="80" y="80" width="16" height="16" fill="#00ADD8" /><rect x="96" y="80" width="16" height="16" fill="#00ADD8" /><rect x="112" y="80" width="16" height="16" fill="#00ADD8" /><rect x="128" y="80" width="16" height="16" fill="#00ADD8" /><rect x="144" y="80" width="16" height="16" fill="#00ADD8" /><rect x="160" y="80" width="16" height="16" fill="#00ADD8" /><rect x="176" y="80" width="16" height="16" fill="#00ADD8" /><rect x="192" y="80" width="16" height="16" fill="#00ADD8" /><rect x="208" y="80" width="16" height="16" fill="#00ADD8" /><rect x="224" y="80" width="16" height="16" fill="#2d333b" /><rect x="0" y="96" width="16" height="16" fill="#2d333b" /><rect x="16" y="96" width="16" height="16" fill="#00ADD8" /><rect x="32" y="96" width="16" height="16" fill="#00ADD8" /><rect x="48" y="96" width="16" height="16" fill="#00ADD8" /><rect x="64" y="96" width="16" height="16" fill="#00ADD8" /><rect x="80" y="96" width="16" height="16" fill="#2d333b" /><rect x="96" y="96" width="16" height="16" fill="#00ADD8" /><rect x="112" y="96" width="16" height="16" fill="#00ADD8" /><rect x="128" y="96" width="16" height="16" fill="#00ADD8" /><rect x="144" y="96" width="16" height="16" fill="#00ADD8" /><rect x="160" y="96" width="16" height="16" fill="#00ADD8" /><rect x="176" y="96" width="16" height="16" fill="#00ADD8" /><rect x="192" y="96" width="16" height="16" fill="#00ADD8" /><rect x="208" y="96" width="16" height="16" fill="#00ADD8" /><rect x="224" y="96" width="16" height="16" fill="#2d333b" /><rect x="16" y="112" width="16" height="16" fill="#2d333b" /><rect x="32" y="112" width="16" height="16" fill="#00ADD8" /><rect x="48" y="112" width="16" height="16" fill="#00ADD8" /><rect x="64" y="112" width="16" height="16" fill="#00ADD8" /><rect x="80" y="112" width="16" height="16" fill="#2d333b" /><rect x="96" y="112" width="16" height="16" fill="#00ADD8" /><rect x="112" y="112" width="16" height="16" fill="#00ADD8" /><rect x="128" y="112" width="16" height="16" fill="#00ADD8" /><rect x="144" y="112" width="16" height="16" fill="#00ADD8" /><rect x="160" y="112" width="16" height="16" fill="#00ADD8" /><rect x="176" y="112" width="16" height="16" fill="#00ADD8" /><rect x="192" y="112" width="16" height="16" fill="#2d333b" /><rect x="32" y="128" width="16" height="16" fill="#2d333b" /><rect x="48" y="128" width="16" height="16" fill="#00ADD8" /><rect x="64" y="128" width="16" height="16" fill="#00ADD8" /><rect x="80" y="128" width="16" height="16" fill="#2d333b" /><rect x="96" y="128" width="16" height="16" fill="#00ADD8" /><rect x="112" y="128" width="16" height="16" fill="#00ADD8" /><rect x="128" y="128" width="16" height="16" fill="#00ADD8" /><rect x="144" y="128" width="16" height="16" fill="#00ADD8" /><rect x="160" y="128" width="16" height="16" fill="#00ADD8" /><rect x="176" y="128" width="16" height="16" fill="#2d333b" /><rect x="32" y="144" width="16" height="16" fill="#2d333b" /><rect x="48" y="144" width="16" height="16" fill="#00ADD8" /><rect x="64" y="144" width="16" height="16" fill="#2d333b" /><rect x="80" y="144" width="16" height="16" fill="#00ADD8" /><rect x="96" y="144" width="16" height="16" fill="#00ADD8" /><rect x="112" y="144" width="16" height="16" fill="#00ADD8" /><rect x="128" y="144" width="16" height="16" fill="#00ADD8" /><rect x="144" y="144" width="16" height="16" fill="#00ADD8" /><rect x="160" y="144" width="16" height="16" fill="#00ADD8" /><rect x="176" y="144" width="16" height="16" fill="#2d333b" /><rect x="48" y="160" width="16" height="16" fill="#2d333b" /><rect x="64" y="160" width="16" height="16" fill="#2d333b" /><rect x="80" y="160" width="16" height="16" fill="#00ADD8" /><rect x="96" y="160" width="16" height="16" fill="#00ADD8" /><rect x="112" y="160" width="16" height="16" fill="#00ADD8" /><rect x="128" y="160" width="16" height="16" fill="#00ADD8" /><rect x="144" y="160" width="16" height="16" fill="#00ADD8" /><rect x="160" y="160" width="16" height="16" fill="#2d333b" /><rect x="64" y="176" width="16" height="16" fill="#2d333b" /><rect x="80" y="176" width="16" height="16" fill="#2d333b" /><rect x="96" y="176" width="16" height="16" fill="#2d333b" /><rect x="112" y="176" width="16" height="16" fill="#2d333b" /><rect x="128" y="176" width="16" height="16" fill="#2d333b" /><rect x="144" y="176" width="16" height="16" fill="#2d333b" />
            
        <animateTransform 
            attributeName="transform" 
            type="scale" 
            values="1 1; 1.02 0.98; 1 1" 
            dur="2s" 
            repeatCount="indefinite" 
        />
        </g>
        <!-- Speech Bubble -->
        
    <g transform="translate(226, -25)">
      <!-- Speech bubble -->
      <rect x="0" y="0" width="139" height="24" rx="10" ry="10" 
            fill="#FFFFFF" stroke="#2d333b" stroke-width="1.5"/>
      <!-- Bubble tail -->
      <polygon points="15,24 20,32 25,24" 
               fill="#FFFFFF" stroke="#2d333b" stroke-width="1.5"/>
      <line x1="16" y1="24" x2="24" y2="24" stroke="#FFFFFF" stroke-width="2"/>
      <!-- Text -->
      <text x="69.5" y="16" 
            font-family="'Segoe UI', Arial, sans-serif" font-size="10" 
            fill="#2d333b" text-anchor="middle">Do not disturb...</text>
    </g>
  
        <!-- Seasonal Accessory (z-index: above pet) -->
        
      </g>
      
      <!-- Level & Mood Text -->
      <text x="20" y="299" font-family="monospace" font-size="11" fill="#00ff00">
        ⭐ Lv.33 Adult
      </text>
      <text x="276" y="299" text-anchor="end" font-family="monospace" font-size="11" fill="#00ff00">
        💤 SLEEPING 🔥8
      </text>
      
      <!-- XP Progress Bar -->
      <rect x="20" y="306" width="256" height="8" rx="4" fill="#e0e0e0" stroke="#0288d1" stroke-width="1"/>
      <rect x="20" y="306" width="212.48" height="8" rx="4" fill="#4fc3f7">
        <animate attributeName="width" from="0" to="212.48" dur="0.5s" fill="freeze"/>
      </rect>
      
      <!-- XP Text -->
      <text x="50%" y="329" text-anchor="middle" font-family="monospace" font-size="9" fill="#00ff00">
        XP: 10780 / 10890 (83%)
      </text>
    
      
      <!-- Achievement Badges -->
      <g transform="translate(15, 311)">
    <g class="achievements">
      
      <g transform="translate(5, 0)">
        <title>Spark: 3 day streak</title>
        <circle cx="10" cy="10" r="10" fill="rgba(255,255,255,0.9)" stroke="#ddd" stroke-width="1"/>
        <text x="10" y="14" text-anchor="middle" font-size="11">⚡</text>
      </g>
    
      <g transform="translate(30, 0)">
        <title>Weekly Warrior: 7 day streak</title>
        <circle cx="10" cy="10" r="10" fill="rgba(255,255,255,0.9)" stroke="#ddd" stroke-width="1"/>
        <text x="10" y="14" text-anchor="middle" font-size="11">🔥</text>
      </g>
    
      <g transform="translate(55, 0)">
        <title>Rising Star: Level 5</title>
        <circle cx="10" cy="10" r="10" fill="rgba(255,255,255,0.9)" stroke="#ddd" stroke-width="1"/>
        <text x="10" y="14" text-anchor="middle" font-size="11">🌟</text>
      </g>
    
      <g transform="translate(80, 0)">
        <title>Shining: Level 10</title>
        <circle cx="10" cy="10" r="10" fill="rgba(255,255,255,0.9)" stroke="#ddd" stroke-width="1"/>
        <text x="10" y="14" text-anchor="middle" font-size="11">✨</text>
      </g>
    
      <g transform="translate(105, 0)">
        <title>Rainbow: Level 25</title>
        <circle cx="10" cy="10" r="10" fill="rgba(255,255,255,0.9)" stroke="#ddd" stroke-width="1"/>
        <text x="10" y="14" text-anchor="middle" font-size="11">🌈</text>
      </g>
    
      
    </g>
  </g>
    </svg>