<svg xmlns="http://www.w3.org/2000/svg" width="296" height="341" viewBox="0 0 296 341">
      <style>
        .pet { transform-origin: center; }
      </style>
      <!-- Theme Background -->
      
        <rect x="0" y="0" width="296" height="341" fill="#0d0d0d" rx="12" ry="12"/>
        <g font-family="monospace" font-size="10" fill="#00ff00" opacity="0.3">
          <text x="10" y="15" opacity="0.4745203480571477">七</text><text x="10" y="30" opacity="0.1172986636024275">0</text><text x="10" y="45" opacity="0.5749996065294821">力</text><text x="10" y="60" opacity="0.3072532879108194">エ</text><text x="10" y="75" opacity="0.3213055262631994">イ</text><text x="10" y="90" opacity="0.39377696093685277">1</text><text x="10" y="105" opacity="0.45980743188906936">ア</text><text x="10" y="120" opacity="0.23429759427248567">エ</text><text x="29.733333333333334" y="15" opacity="0.4260937584672302">九</text><text x="29.733333333333334" y="30" opacity="0.10660534704697303">ア</text><text x="29.733333333333334" y="45" opacity="0.31760894885831115">力</text><text x="29.733333333333334" y="60" opacity="0.4777512357676402">イ</text><text x="29.733333333333334" y="75" opacity="0.32310226119499885">ア</text><text x="29.733333333333334" y="90" opacity="0.346846811637998">七</text><text x="29.733333333333334" y="105" opacity="0.4685641924322931">オ</text><text x="29.733333333333334" y="120" opacity="0.49237373292310116">ウ</text><text x="49.46666666666667" y="15" opacity="0.40583263830950456">イ</text><text x="49.46666666666667" y="30" opacity="0.5664288811623694">イ</text><text x="49.46666666666667" y="45" opacity="0.38081710173850636">七</text><text x="49.46666666666667" y="60" opacity="0.1332732387749547">0</text><text x="49.46666666666667" y="75" opacity="0.5666291472955454">0</text><text x="49.46666666666667" y="90" opacity="0.4024019824451748">オ</text><text x="49.46666666666667" y="105" opacity="0.28867053358611916">1</text><text x="49.46666666666667" y="120" opacity="0.3716552582341677">エ</text><text x="69.2" y="15" opacity="0.12967697567321726">1</text><text x="69.2" y="30" opacity="0.49711725451573197">1</text><text x="69.2" y="45" opacity="0.3394559190528533">0</text><text x="69.2" y="60" opacity="0.5907141040527536">ア</text><text x="69.2" y="75" opacity="0.39620010748741763">イ</text><text x="69.2" y="90" opacity="0.1680729079529503">ウ</text><text x="69.2" y="105" opacity="0.4150762877481956">力</text><text x="69.2" y="120" opacity="0.30772463421429963">オ</text><text x="88.93333333333334" y="15" opacity="0.10186059486010604">ア</text><text x="88.93333333333334" y="30" opacity="0.5412574689951716">ウ</text><text x="88.93333333333334" y="45" opacity="0.4637495117839975">ウ</text><text x="88.93333333333334" y="60" opacity="0.46459257694862977">イ</text><text x="88.93333333333334" y="75" opacity="0.23613925107828973">イ</text><text x="88.93333333333334" y="90" opacity="0.2624866299309463">ア</text><text x="88.93333333333334" y="105" opacity="0.2251976115522493">ア</text><text x="88.93333333333334" y="120" opacity="0.30012891669833885">0</text><text x="108.66666666666667" y="15" opacity="0.4993561668824268">ア</text><text x="108.66666666666667" y="30" opacity="0.23263355562017377">ア</text><text x="108.66666666666667" y="45" opacity="0.34968189101493063">イ</text><text x="108.66666666666667" y="60" opacity="0.1691869997881338">七</text><text x="108.66666666666667" y="75" opacity="0.5059229012302845">オ</text><text x="108.66666666666667" y="90" opacity="0.2057879535510895">ア</text><text x="108.66666666666667" y="105" opacity="0.18268583645523787">オ</text><text x="108.66666666666667" y="120" opacity="0.4666868354410073">九</text><text x="128.4" y="15" opacity="0.45254358877297474">1</text><text x="128.4" y="30" opacity="0.3739455170372885">七</text><text x="128.4" y="45" opacity="0.19649296911869155">力</text><text x="128.4" y="60" opacity="0.5820182613791512">0</text><text x="128.4" y="75" opacity="0.22244086063685245">ウ</text><text x="128.4" y="90" opacity="0.19732052552070115">イ</text><text x="128.4" y="105" opacity="0.5922850495477745">ア</text><text x="128.4" y="120" opacity="0.23017064160092696">エ</text><text x="148.13333333333333" y="15" opacity="0.5948157177947248">九</text><text x="148.13333333333333" y="30" opacity="0.5189181830007485">1</text><text x="148.13333333333333" y="45" opacity="0.2093127715087141">ア</text><text x="148.13333333333333" y="60" opacity="0.48071523627990187">エ</text><text x="148.13333333333333" y="75" opacity="0.17309290161848093">エ</text><text x="148.13333333333333" y="90" opacity="0.32016309712497293">エ</text><text x="148.13333333333333" y="105" opacity="0.4448232566467577">オ</text><text x="148.13333333333333" y="120" opacity="0.290392214595634">0</text><text x="167.86666666666667" y="15" opacity="0.5262170290951811">0</text><text x="167.86666666666667" y="30" opacity="0.3957456269101246">エ</text><text x="167.86666666666667" y="45" opacity="0.3042804643510255">1</text><text x="167.86666666666667" y="60" opacity="0.1399898467772527">力</text><text x="167.86666666666667" y="75" opacity="0.3846396711096247">1</text><text x="167.86666666666667" y="90" opacity="0.2525570118012235">0</text><text x="167.86666666666667" y="105" opacity="0.5409820226043521">1</text><text x="167.86666666666667" y="120" opacity="0.29034657886840276">オ</text><text x="187.60000000000002" y="15" opacity="0.31512631067651886">エ</text><text x="187.60000000000002" y="30" opacity="0.37772202778586805">イ</text><text x="187.60000000000002" y="45" opacity="0.34818991047673564">1</text><text x="187.60000000000002" y="60" opacity="0.20806043986085612">九</text><text x="187.60000000000002" y="75" opacity="0.11715795741028404">オ</text><text x="187.60000000000002" y="90" opacity="0.26973066151989833">1</text><text x="187.60000000000002" y="105" opacity="0.4788380943637901">イ</text><text x="187.60000000000002" y="120" opacity="0.16661717230824227">エ</text><text x="207.33333333333334" y="15" opacity="0.461478986494932">オ</text><text x="207.33333333333334" y="30" opacity="0.54471680869612">七</text><text x="207.33333333333334" y="45" opacity="0.12015859190371495">ウ</text><text x="207.33333333333334" y="60" opacity="0.23122738789301092">エ</text><text x="207.33333333333334" y="75" opacity="0.48606441283364843">七</text><text x="207.33333333333334" y="90" opacity="0.5241313818465819">ウ</text><text x="207.33333333333334" y="105" opacity="0.28139815005145685">イ</text><text x="207.33333333333334" y="120" opacity="0.3469905908021067">力</text><text x="227.06666666666666" y="15" opacity="0.169434815984458">力</text><text x="227.06666666666666" y="30" opacity="0.30364979215701915">0</text><text x="227.06666666666666" y="45" opacity="0.41198459838173773">オ</text><text x="227.06666666666666" y="60" opacity="0.2960985270853165">七</text><text x="227.06666666666666" y="75" opacity="0.5506994683471145">0</text><text x="227.06666666666666" y="90" opacity="0.3362747512565991">九</text><text x="227.06666666666666" y="105" opacity="0.5818894558552711">0</text><text x="227.06666666666666" y="120" opacity="0.3388382283601413">七</text><text x="246.8" y="15" opacity="0.5791578882352807">七</text><text x="246.8" y="30" opacity="0.13262299318897688">イ</text><text x="246.8" y="45" opacity="0.442841975517441">九</text><text x="246.8" y="60" opacity="0.33243934820225307">九</text><text x="246.8" y="75" opacity="0.538587038581295">オ</text><text x="246.8" y="90" opacity="0.15092700730396638">ア</text><text x="246.8" y="105" opacity="0.5550610020326465">1</text><text x="246.8" y="120" opacity="0.413623570787346">力</text><text x="266.53333333333336" y="15" opacity="0.3260590835598781">ア</text><text x="266.53333333333336" y="30" opacity="0.3894458694851677">オ</text><text x="266.53333333333336" y="45" opacity="0.13357101361412008">0</text><text x="266.53333333333336" y="60" opacity="0.5396761595507402">ウ</text><text x="266.53333333333336" y="75" opacity="0.1876844308891418">七</text><text x="266.53333333333336" y="90" opacity="0.46184813164010774">イ</text><text x="266.53333333333336" y="105" opacity="0.4509766674703617">九</text><text x="266.53333333333336" y="120" opacity="0.23980705108289538">イ</text><text x="286.26666666666665" y="15" opacity="0.4050122568263772">力</text><text x="286.26666666666665" y="30" opacity="0.5829153311461767">ア</text><text x="286.26666666666665" y="45" opacity="0.5132653540319873">0</text><text x="286.26666666666665" y="60" opacity="0.3457240027408204">1</text><text x="286.26666666666665" y="75" opacity="0.3220588429664518">九</text><text x="286.26666666666665" y="90" opacity="0.4066219758965339">七</text><text x="286.26666666666665" y="105" opacity="0.24403468508117823">1</text><text x="286.26666666666665" y="120" opacity="0.1199767593354091">力</text>
        </g>
        <rect x="5" y="5" width="286" height="331" fill="none" stroke="#00ff00" stroke-width="1" rx="8" ry="8" stroke-opacity="0.3"/>
      
      <!-- Weather Effects (behind pet) -->
      <g class="weather-layer" style="pointer-events: none;">
        
      </g>
      <!-- Evolution Effects (behind pet) -->
      <g class="evolution-layer" style="pointer-events: none;">
        
      <defs>
        <radialGradient id="evolutionAura">
          <stop offset="0%" stop-color="#FFD700" stop-opacity="0.6"/>
          <stop offset="70%" stop-color="#FFD700" stop-opacity="0.2"/>
          <stop offset="100%" stop-color="#FFD700" stop-opacity="0"/>
        </radialGradient>
        <filter id="evolutionGlow">
          <feGaussianBlur stdDeviation="3" result="coloredBlur"/>
          <feMerge>
            <feMergeNode in="coloredBlur"/>
            <feMergeNode in="SourceGraphic"/>
          </feMerge>
        </filter>
      </defs>
      <circle cx="148" cy="148" r="45" fill="url(#evolutionAura)">
        <animate attributeName="r" values="45;53;45" dur="2s" repeatCount="indefinite"/>
        <animate attributeName="opacity" values="0.7;1;0.7" dur="2s" repeatCount="indefinite"/>
      </circle>
    
      </g>
      <g transform="translate(20, 20)" opacity="1">
        <g class="pet">
            <rect x="64" y="16" width="16" height="16" fill="#2d333b" /><rect x="80" y="16" width="16" height="16" fill="#2d333b" /><rect x="96" y="16" width="16" height="16" fill="#2d333b" /><rect x="112" y="16" width="16" height="16" fill="#2d333b" /><rect x="128" y="16" width="16" height="16" fill="#2d333b" /><rect x="144" y="16" width="16" height="16" fill="#2d333b" /><rect x="160" y="16" width="16" height="16" fill="#2d333b" /><rect x="176" y="16" width="16" height="16" fill="#2d333b" /><rect x="32" y="32" width="16" height="16" fill="#2d333b" /><rect x="48" y="32" width="16" height="16" fill="#2d333b" /><rect x="64" y="32" width="16" height="16" fill="#00ADD8" /><rect x="80" y="32" width="16" height="16" fill="#00ADD8" /><rect x="96" y="32" width="16" height="16" fill="#00ADD8" /><rect x="112" y="32" width="16" height="16" fill="#00ADD8" /><rect x="128" y="32" width="16" height="16" fill="#00ADD8" /><rect x="144" y="32" width="16" height="16" fill="#00ADD8" /><rect x="160" y="32" width="16" height="16" fill="#00ADD8" /><rect x="176" y="32" width="16" height="16" fill="#00ADD8" /><rect x="192" y="32" width="16" height="16" fill="#2d333b" /><rect x="208" y="32" width="16" height="16" fill="#2d333b" /><rect x="16" y="48" width="16" height="16" fill="#2d333b" /><rect x="32" y="48" width="16" height="16" fill="#00ADD8" /><rect x="48" y="48" width="16" height="16" fill="#00ADD8" /><rect x="64" y="48" width="16" height="16" fill="#2d333b" /><rect x="80" y="48" width="16" height="16" fill="#2d333b" /><rect x="96" y="48" width="16" height="16" fill="#2d333b" /><rect x="112" y="48" width="16" height="16" fill="#2d333b" /><rect x="128" y="48" width="16" height="16" fill="#2d333b" /><rect x="144" y="48" width="16" height="16" fill="#2d333b" /><rect x="160" y="48" width="16" height="16" fill="#00ADD8" /><rect x="176" y="48" width="16" height="16" fill="#00ADD8" /><rect x="192" y="48" width="16" height="16" fill="#00ADD8" /><rect x="208" y="48" width="16" height="16" fill="#00ADD8" /><rect x="224" y="48" width="16" height="16" fill="#2d333b" /><rect x="16" y="64" width="16" height="16" fill="#2d333b" /><rect x="32" y="64" width="16" height="16" fill="#00ADD8" /><rect x="48" y="64" width="16" height="16" fill="#00ADD8" /><rect x="64" y="64" width="16" height="16" fill="#00ADD8" /><rect x="80" y="64" width="16" height="16" fill="#00ADD8" /><rect x="96" y="64" width="16" height="16" fill="#00ADD8" /><rect x="112" y="64" width="16" height="16" fill="#00ADD8" /><rect x="128" y="64" width="16" height="16" fill="#00ADD8" /><rect x="144" y="64" width="16" height="16" fill="#00ADD8" /><rect x="160" y="64" width="16" height="16" fill="#00ADD8" /><rect x="176" y="64" width="16" height="16" fill="#00ADD8" /><rect x="192" y="64" width="16" height="16" fill="#00ADD8" /><rect x="208" y="64" width="16" height="16" fill="#2d333b" /><rect x="0" y="80" width="16" height="16" fill="#2d333b" /><rect x="16" y="80" width="16" height="16" fill="#00ADD8" /><rect x="32" y="80" width="16" height="16" fill="#00ADD8" /><rect x="48" y="80" width="16" height="16" fill="#00ADD8" /><rect x="64" y="80" width="16" height="16" fill="#00ADD8" /><rect x="80" y="80" width="16" height="16" fill="#00ADD8" /><rect x="96" y="80" width="16" height="16" fill="#00ADD8" /><rect x="112" y="80" width="16" height="16" fill="#00ADD8" /><rect x="128" y="80" width="16" height="16" fill="#00ADD8" /><rect x="144" y="80" width="16" height="16" fill="#00ADD8" /><rect x="160" y="80" width="16" height="16" fill="#00ADD8" /><rect x="176" y="80" width="16" height="16" fill="#00ADD8" /><rect x="192" y="80" width="16" height="16" fill="#00ADD8" /><rect x="208" y="80" width="16" height="16" fill="#00ADD8" /><rect x="224" y="80" width="16" height="16" fill="#2d333b" /><rect x="0" y="96" width="16" height="16" fill="#2d333b" /><rect x="16" y="96" width="16" height="16" fill="#00ADD8" /><rect x="32" y="96" width="16" height="16" fill="#00ADD8" /><rect x="48" y="96" width="16" height="16" fill="#00ADD8" /><rect x="64" y="96" width="16" height="16" fill="#00ADD8" /><rect x="80" y="96" width="16" height="16" fill="#2d333b" /><rect x="96" y="96" width="16" height="16" fill="#00ADD8" /><rect x="112" y="96" width="16" height="16" fill="#00ADD8" /><rect x="128" y="96" width="16" height="16" fill="#00ADD8" /><rect x="144" y="96" width="16" height="16" fill="#00ADD8" /><rect x="160" y="96" width="16" height="16" fill="#00ADD8" /><rect x="176" y="96" width="16" height="16" fill="#00ADD8" /><rect x="192" y="96" width="16" height="16" fill="#00ADD8" /><rect x="208" y="96" width="16" height="16" fill="#00ADD8" /><rect x="224" y="96" width="16" height="16" fill="#2d333b" /><rect x="16" y="112" width="16" height="16" fill="#2d333b" /><rect x="32" y="112" width="16" height="16" fill="#00ADD8" /><rect x="48" y="112" width="16" height="16" fill="#00ADD8" /><rect x="64" y="112" width="16" height="16" fill="#00ADD8" /><rect x="80" y="112" width="16" height="16" fill="#2d333b" /><rect x="96" y="112" width="16" height="16" fill="#00ADD8" /><rect x="112" y="112" width="16" height="16" fill="#00ADD8" /><rect x="128" y="112" width="16" height="16" fill="#00ADD8" /><rect x="144" y="112" width="16" height="16" fill="#00ADD8" /><rect x="160" y="112" width="16" height="16" fill="#00ADD8" /><rect x="176" y="112" width="16" height="16" fill="#00ADD8" /><rect x="192" y="112" width="16" height="16" fill="#2d333b" /><rect x="32" y="128" width="16" height="16" fill="#2d333b" /><rect x="48" y="128" width="16" height="16" fill="#00ADD8" /><rect x="64" y="128" width="16" height="16" fill="#00ADD8" /><rect x="80" y="128" width="16" height="16" fill="#2d333b" /><rect x="96" y="128" width="16" height="16" fill="#00ADD8" /><rect x="112" y="128" width="16" height="16" fill="#00ADD8" /><rect x="128" y="128" width="16" height="16" fill="#00ADD8" /><rect x="144" y="128" width="16" height="16" fill="#00ADD8" /><rect x="160" y="128" width="16" height="16" fill="#00ADD8" /><rect x="176" y="128" width="16" height="16" fill="#2d333b" /><rect x="32" y="144" width="16" height="16" fill="#2d333b" /><rect x="48" y="144" width="16" height="16" fill="#00ADD8" /><rect x="64" y="144" width="16" height="16" fill="#2d333b" /><rect x="80" y="144" width="16" height="16" fill="#00ADD8" /><rect x="96" y="144" width="16" height="16" fill="#00ADD8" /><rect x="112" y="144" width="16" height="16" fill="#00ADD8" /><rect x="128" y="144" width="16" height="16" fill="#00ADD8" /><rect x="144" y="144" width="16" height="16" fill="#00ADD8" /><rect x="160" y="144" width="16" height="16" fill="#00ADD8" /><rect x="176" y="144" width="16" height="16" fill="#2d333b" /><rect x="48" y="160" width="16" height="16" fill="#2d333b" /><rect x="64" y="160" width="16" height="16" fill="#2d333b" /><rect x="80" y="160" width="16" height="16" fill="#00ADD8" /><rect x="96" y="160" width="16" height="16" fill="#00ADD8" /><rect x="112" y="160" width="16" height="16" fill="#00ADD8" /><rect x="128" y="160" width="16" height="16" fill="#00ADD8" /><rect x="144" y="160" width="16" height="16" fill="#00ADD8" /><rect x="160" y="160" width="16" height="16" fill="#2d333b" /><rect x="64" y="176" width="16" height="16" fill="#2d333b" /><rect x="80" y="176" width="16" height="16" fill="#2d333b" /><rect x="96" y="176" width="16" height="16" fill="#2d333b" /><rect x="112" y="176" width="16" height="16" fill="#2d333b" /><rect x="128" y="176" width="16" height="16" fill="#2d333b" /><rect x="144" y="176" width="16" height="16" fill="#2d333b" />
            
        <animateTransform 
            attributeName="transform" 
            type="rotate" 
            values="0; 2; 0; -2; 0" 
            dur="2s" 
            repeatCount="indefinite" 
        />
        </g>
        <!-- Speech Bubble -->
        
    <g transform="translate(226, -25)">
      <!-- Speech bubble -->
      <rect x="0" y="0" width="125" height="24" rx="10" ry="10" 
            fill="#FFFFFF" stroke="#2d333b" stroke-width="1.5"/>
      <!-- Bubble tail -->
      <polygon points="15,24 20,32 25,24" 
               fill="#FFFFFF" stroke="#2d333b" stroke-width="1.5"/>
      <line x1="16" y1="24" x2="24" y2="24" stroke="#FFFFFF" stroke-width="2"/>
      <!-- Text -->
      <text x="62.5" y="16" 
            font-family="'Segoe UI', Arial, sans-serif" font-size="10" 
            fill="#2d333b" text-anchor="middle">Balance in code</text>
    </g>
  
        <!-- Seasonal Accessory (z-index: above pet) -->
        <!-- Seasonal: LUNAR_NEW_YEAR -->

    <g transform="translate(148, 16)">
      <!-- Envelope Body -->
      <rect x="0" y="0" width="35" height="50" rx="3" fill="#D32F2F"/>
      <rect x="2" y="2" width="31" height="46" rx="2" fill="#E53935"/>
      <!-- Gold Decorative Border -->
      <rect x="5" y="5" width="25" height="40" rx="1" stroke="#FFD700" stroke-width="2" fill="none"/>
      <!-- Coin Symbol with shine -->
      <circle cx="17.5" cy="25" r="10" fill="#FFD700"/>
      <circle cx="17.5" cy="25" r="7" fill="#FFC107"/>
      <!-- Chinese Character 福 (Fortune) stylized -->
      <rect x="14" y="20" width="7" height="2" fill="#D32F2F"/>
      <rect x="16" y="22" width="3" height="6" fill="#D32F2F"/>
      <rect x="14" y="25" width="7" height="2" fill="#D32F2F"/>
      <!-- Animated Sparkles -->
      <circle cx="10" cy="10" r="2" fill="#FFD700">
        <animate attributeName="opacity" values="0.3;1;0.3" dur="1s" repeatCount="indefinite"/>
        <animate attributeName="r" values="1.5;2.5;1.5" dur="1s" repeatCount="indefinite"/>
      </circle>
      <circle cx="28" cy="8" r="1.5" fill="#FFFFFF">
        <animate attributeName="opacity" values="0.5;1;0.5" dur="1.5s" repeatCount="indefinite"/>
      </circle>
      <circle cx="28" cy="40" r="1.5" fill="#FFD700">
        <animate attributeName="opacity" values="0.5;1;0.5" dur="1.2s" repeatCount="indefinite"/>
        <animate attributeName="r" values="1;2;1" dur="1.2s" repeatCount="indefinite"/>
      </circle>
    </g>
  
      </g>
      
      <!-- Level & Mood Text -->
      <text x="20" y="299" font-family="monospace" font-size="11" fill="#00ff00">
        ⭐ Lv.37 Adult
      </text>
      <text x="276" y="299" text-anchor="end" font-family="monospace" font-size="11" fill="#00ff00">
        🧘 ZEN 🔥7
      </text>
      
      <!-- XP Progress Bar -->
      <rect x="20" y="306" width="256" height="8" rx="4" fill="#e0e0e0" stroke="#0288d1" stroke-width="1"/>
      <rect x="20" y="306" width="61.44" height="8" rx="4" fill="#4fc3f7">
        <animate attributeName="width" from="0" to="61.44" dur="0.5s" fill="freeze"/>
      </rect>
      
      <!-- XP Text -->
      <text x="50%" y="329" text-anchor="middle" font-family="monospace" font-size="9" fill="#00ff00">
        XP: 13140 / 13690 (24%)
      </text>
    
      
      <!-- Achievement Badges -->
      <g transform="translate(15, 311)">
    <g class="achievements">
      
      <g transform="translate(5, 0)">
        <title>Spark: 3 day streak</title>
        <circle cx="10" cy="10" r="10" fill="rgba(255,255,255,0.9)" stroke="#ddd" stroke-width="1"/>
        <text x="10" y="14" text-anchor="middle" font-size="11">⚡</text>
      </g>
    
      <g transform="translate(30, 0)">
        <title>Weekly Warrior: 7 day streak</title>
        <circle cx="10" cy="10" r="10" fill="rgba(255,255,255,0.9)" stroke="#ddd" stroke-width="1"/>
        <text x="10" y="14" text-anchor="middle" font-size="11">🔥</text>
      </g>
    
      <g transform="translate(55, 0)">
        <title>Rising Star: Level 5</title>
        <circle cx="10" cy="10" r="10" fill="rgba(255,255,255,0.9)" stroke="#ddd" stroke-width="1"/>
        <text x="10" y="14" text-anchor="middle" font-size="11">🌟</text>
      </g>
    
      <g transform="translate(80, 0)">
        <title>Shining: Level 10</title>
        <circle cx="10" cy="10" r="10" fill="rgba(255,255,255,0.9)" stroke="#ddd" stroke-width="1"/>
        <text x="10" y="14" text-anchor="middle" font-size="11">✨</text>
      </g>
    
      <g transform="translate(105, 0)">
        <title>Rainbow: Level 25</title>
        <circle cx="10" cy="10" r="10" fill="rgba(255,255,255,0.9)" stroke="#ddd" stroke-width="1"/>
        <text x="10" y="14" text-anchor="middle" font-size="11">🌈</text>
      </g>
    
      <g transform="translate(130, 0)">
        <title>Weekend Warrior: Weekend commit</title>
        <circle cx="10" cy="10" r="10" fill="rgba(255,255,255,0.9)" stroke="#ddd" stroke-width="1"/>
        <text x="10" y="14" text-anchor="middle" font-size="11">🏖️</text>
      </g>
    
      
    </g>
  </g>
    </svg>