<svg xmlns="http://www.w3.org/2000/svg" width="296" height="341" viewBox="0 0 296 341">
      <style>
        .pet { transform-origin: center; }
      </style>
      <!-- Theme Background -->
      
        <rect x="0" y="0" width="296" height="341" fill="#0d0d0d" rx="12" ry="12"/>
        <g font-family="monospace" font-size="10" fill="#00ff00" opacity="0.3">
          <text x="10" y="15" opacity="0.40525463846489995">1</text><text x="10" y="30" opacity="0.23398980570252007">力</text><text x="10" y="45" opacity="0.2694121153589446">ウ</text><text x="10" y="60" opacity="0.34940158771683383">ウ</text><text x="10" y="75" opacity="0.13052973872396748">エ</text><text x="10" y="90" opacity="0.5474030364682426">七</text><text x="10" y="105" opacity="0.17372421533777485">エ</text><text x="10" y="120" opacity="0.4953174629566278">1</text><text x="29.733333333333334" y="15" opacity="0.49242083535552716">0</text><text x="29.733333333333334" y="30" opacity="0.4473704725985208">1</text><text x="29.733333333333334" y="45" opacity="0.2599973925846387">イ</text><text x="29.733333333333334" y="60" opacity="0.5324412239644599">イ</text><text x="29.733333333333334" y="75" opacity="0.5509130923271336">エ</text><text x="29.733333333333334" y="90" opacity="0.34640650164884434">ア</text><text x="29.733333333333334" y="105" opacity="0.15182624680967452">力</text><text x="29.733333333333334" y="120" opacity="0.5713982422686529">1</text><text x="49.46666666666667" y="15" opacity="0.25088943062864155">九</text><text x="49.46666666666667" y="30" opacity="0.5685760342320726">オ</text><text x="49.46666666666667" y="45" opacity="0.541190760301862">ア</text><text x="49.46666666666667" y="60" opacity="0.20950854991207205">1</text><text x="49.46666666666667" y="75" opacity="0.587244541369605">九</text><text x="49.46666666666667" y="90" opacity="0.2513136787610323">エ</text><text x="49.46666666666667" y="105" opacity="0.522949076206328">イ</text><text x="49.46666666666667" y="120" opacity="0.13806547001427696">1</text><text x="69.2" y="15" opacity="0.4282625996815931">九</text><text x="69.2" y="30" opacity="0.2852972536615057">七</text><text x="69.2" y="45" opacity="0.19140883008182855">0</text><text x="69.2" y="60" opacity="0.36597122363001244">1</text><text x="69.2" y="75" opacity="0.22736868420960601">九</text><text x="69.2" y="90" opacity="0.24585953337449354">イ</text><text x="69.2" y="105" opacity="0.3289146446639529">イ</text><text x="69.2" y="120" opacity="0.39114453139916083">オ</text><text x="88.93333333333334" y="15" opacity="0.4694449848252972">エ</text><text x="88.93333333333334" y="30" opacity="0.1808873243928877">力</text><text x="88.93333333333334" y="45" opacity="0.4019263182735304">1</text><text x="88.93333333333334" y="60" opacity="0.5638884231109348">ア</text><text x="88.93333333333334" y="75" opacity="0.20037371998875045">0</text><text x="88.93333333333334" y="90" opacity="0.18674121536007907">オ</text><text x="88.93333333333334" y="105" opacity="0.11567833025576638">0</text><text x="88.93333333333334" y="120" opacity="0.2637937629637157">オ</text><text x="108.66666666666667" y="15" opacity="0.46934062515109787">エ</text><text x="108.66666666666667" y="30" opacity="0.5997441030727585">0</text><text x="108.66666666666667" y="45" opacity="0.479749964928451">九</text><text x="108.66666666666667" y="60" opacity="0.3545873327985868">0</text><text x="108.66666666666667" y="75" opacity="0.25671717319933596">イ</text><text x="108.66666666666667" y="90" opacity="0.23081022769810147">ウ</text><text x="108.66666666666667" y="105" opacity="0.23369944690364633">九</text><text x="108.66666666666667" y="120" opacity="0.1776769886591402">イ</text><text x="128.4" y="15" opacity="0.5583178469091447">エ</text><text x="128.4" y="30" opacity="0.22698090853262679">ウ</text><text x="128.4" y="45" opacity="0.32491421307617874">イ</text><text x="128.4" y="60" opacity="0.43302794222887453">ウ</text><text x="128.4" y="75" opacity="0.45852065255342267">イ</text><text x="128.4" y="90" opacity="0.39150739129713685">オ</text><text x="128.4" y="105" opacity="0.10460368597434902">七</text><text x="128.4" y="120" opacity="0.5068323387281739">力</text><text x="148.13333333333333" y="15" opacity="0.5973986111559823">ア</text><text x="148.13333333333333" y="30" opacity="0.5721268544102585">七</text><text x="148.13333333333333" y="45" opacity="0.18630104338448442">ウ</text><text x="148.13333333333333" y="60" opacity="0.11762672102050578">オ</text><text x="148.13333333333333" y="75" opacity="0.44537995597968316">七</text><text x="148.13333333333333" y="90" opacity="0.4019500962878163">オ</text><text x="148.13333333333333" y="105" opacity="0.497173225579689">ウ</text><text x="148.13333333333333" y="120" opacity="0.4473435687403464">1</text><text x="167.86666666666667" y="15" opacity="0.20951637589334285">九</text><text x="167.86666666666667" y="30" opacity="0.23541665887970822">力</text><text x="167.86666666666667" y="45" opacity="0.3876269856527931">ウ</text><text x="167.86666666666667" y="60" opacity="0.17628237399045446">ウ</text><text x="167.86666666666667" y="75" opacity="0.3264994522691467">イ</text><text x="167.86666666666667" y="90" opacity="0.45095665388198447">力</text><text x="167.86666666666667" y="105" opacity="0.5699899266286499">エ</text><text x="167.86666666666667" y="120" opacity="0.39565298119750136">ウ</text><text x="187.60000000000002" y="15" opacity="0.3563568026683772">九</text><text x="187.60000000000002" y="30" opacity="0.4977283670515801">0</text><text x="187.60000000000002" y="45" opacity="0.41590368836099734">エ</text><text x="187.60000000000002" y="60" opacity="0.2662436369670287">力</text><text x="187.60000000000002" y="75" opacity="0.22034564354823663">九</text><text x="187.60000000000002" y="90" opacity="0.23472632096085547">ア</text><text x="187.60000000000002" y="105" opacity="0.3447729116570937">力</text><text x="187.60000000000002" y="120" opacity="0.20020479742512268">エ</text><text x="207.33333333333334" y="15" opacity="0.37281005467364514">0</text><text x="207.33333333333334" y="30" opacity="0.3881408931501986">イ</text><text x="207.33333333333334" y="45" opacity="0.2715814844364277">イ</text><text x="207.33333333333334" y="60" opacity="0.5836894135551545">ウ</text><text x="207.33333333333334" y="75" opacity="0.5786284214749963">力</text><text x="207.33333333333334" y="90" opacity="0.4526316601616589">イ</text><text x="207.33333333333334" y="105" opacity="0.1745935406334476">1</text><text x="207.33333333333334" y="120" opacity="0.3064970964097652">ウ</text><text x="227.06666666666666" y="15" opacity="0.1160314466188466">ウ</text><text x="227.06666666666666" y="30" opacity="0.5840050083012748">ア</text><text x="227.06666666666666" y="45" opacity="0.41078613876106096">力</text><text x="227.06666666666666" y="60" opacity="0.10003648582614447">エ</text><text x="227.06666666666666" y="75" opacity="0.3902945286483209">ウ</text><text x="227.06666666666666" y="90" opacity="0.3462994166821739">ア</text><text x="227.06666666666666" y="105" opacity="0.5672931810205394">エ</text><text x="227.06666666666666" y="120" opacity="0.2415864334283058">力</text><text x="246.8" y="15" opacity="0.4559576250042172">ア</text><text x="246.8" y="30" opacity="0.4778141910593574">0</text><text x="246.8" y="45" opacity="0.16780778679869093">1</text><text x="246.8" y="60" opacity="0.44060506490969165">力</text><text x="246.8" y="75" opacity="0.1243192557089279">0</text><text x="246.8" y="90" opacity="0.4369601196732267">ア</text><text x="246.8" y="105" opacity="0.367072742980575">九</text><text x="246.8" y="120" opacity="0.11386871668543577">エ</text><text x="266.53333333333336" y="15" opacity="0.5171779958233018">1</text><text x="266.53333333333336" y="30" opacity="0.42577480449185023">0</text><text x="266.53333333333336" y="45" opacity="0.502034068469996">1</text><text x="266.53333333333336" y="60" opacity="0.3453381186249752">力</text><text x="266.53333333333336" y="75" opacity="0.43543642671973315">九</text><text x="266.53333333333336" y="90" opacity="0.268857515190832">力</text><text x="266.53333333333336" y="105" opacity="0.5943881284277907">0</text><text x="266.53333333333336" y="120" opacity="0.21852322939315652">イ</text><text x="286.26666666666665" y="15" opacity="0.5523089829578351">イ</text><text x="286.26666666666665" y="30" opacity="0.17063511488176678">力</text><text x="286.26666666666665" y="45" opacity="0.5960392783536977">0</text><text x="286.26666666666665" y="60" opacity="0.23848183550894433">エ</text><text x="286.26666666666665" y="75" opacity="0.12508126207888862">力</text><text x="286.26666666666665" y="90" opacity="0.5391519634584695">七</text><text x="286.26666666666665" y="105" opacity="0.2826888554076199">0</text><text x="286.26666666666665" y="120" opacity="0.36918422108541604">九</text>
        </g>
        <rect x="5" y="5" width="286" height="331" fill="none" stroke="#00ff00" stroke-width="1" rx="8" ry="8" stroke-opacity="0.3"/>
      
      <!-- Weather Effects (behind pet) -->
      <g class="weather-layer" style="pointer-events: none;">
        
        <g opacity="0.6">
          <line x1="10" y1="-10" x2="5" y2="10" stroke="#4FC3F7" stroke-width="2" stroke-linecap="round">
          <animate attributeName="y1" values="-10;351" dur="0.7s" begin="0s" repeatCount="indefinite"/>
          <animate attributeName="y2" values="10;371" dur="0.7s" begin="0s" repeatCount="indefinite"/>
        </line><line x1="24.8" y1="-10" x2="19.8" y2="10" stroke="#4FC3F7" stroke-width="2" stroke-linecap="round">
          <animate attributeName="y1" values="-10;351" dur="0.7s" begin="0.1s" repeatCount="indefinite"/>
          <animate attributeName="y2" values="10;371" dur="0.7s" begin="0.1s" repeatCount="indefinite"/>
        </line><line x1="39.6" y1="-10" x2="34.6" y2="10" stroke="#4FC3F7" stroke-width="2" stroke-linecap="round">
          <animate attributeName="y1" values="-10;351" dur="0.7s" begin="0.2s" repeatCount="indefinite"/>
          <animate attributeName="y2" values="10;371" dur="0.7s" begin="0.2s" repeatCount="indefinite"/>
        </line><line x1="54.400000000000006" y1="-10" x2="49.400000000000006" y2="10" stroke="#4FC3F7" stroke-width="2" stroke-linecap="round">
          <animate attributeName="y1" values="-10;351" dur="0.7s" begin="0.30000000000000004s" repeatCount="indefinite"/>
          <animate attributeName="y2" values="10;371" dur="0.7s" begin="0.30000000000000004s" repeatCount="indefinite"/>
        </line><line x1="69.2" y1="-10" x2="64.2" y2="10" stroke="#4FC3F7" stroke-width="2" stroke-linecap="round">
          <animate attributeName="y1" values="-10;351" dur="0.7s" begin="0.4s" repeatCount="indefinite"/>
          <animate attributeName="y2" values="10;371" dur="0.7s" begin="0.4s" repeatCount="indefinite"/>
        </line><line x1="84" y1="-10" x2="79" y2="10" stroke="#4FC3F7" stroke-width="2" stroke-linecap="round">
          <animate attributeName="y1" values="-10;351" dur="0.7s" begin="0.5s" repeatCount="indefinite"/>
          <animate attributeName="y2" values="10;371" dur="0.7s" begin="0.5s" repeatCount="indefinite"/>
        </line><line x1="98.80000000000001" y1="-10" x2="93.80000000000001" y2="10" stroke="#4FC3F7" stroke-width="2" stroke-linecap="round">
          <animate attributeName="y1" values="-10;351" dur="0.7s" begin="0.6000000000000001s" repeatCount="indefinite"/>
          <animate attributeName="y2" values="10;371" dur="0.7s" begin="0.6000000000000001s" repeatCount="indefinite"/>
        </line><line x1="113.60000000000001" y1="-10" x2="108.60000000000001" y2="10" stroke="#4FC3F7" stroke-width="2" stroke-linecap="round">
          <animate attributeName="y1" values="-10;351" dur="0.7s" begin="0.7000000000000001s" repeatCount="indefinite"/>
          <animate attributeName="y2" values="10;371" dur="0.7s" begin="0.7000000000000001s" repeatCount="indefinite"/>
        </line><line x1="128.4" y1="-10" x2="123.4" y2="10" stroke="#4FC3F7" stroke-width="2" stroke-linecap="round">
          <animate attributeName="y1" values="-10;351" dur="0.7s" begin="0.8s" repeatCount="indefinite"/>
          <animate attributeName="y2" values="10;371" dur="0.7s" begin="0.8s" repeatCount="indefinite"/>
        </line><line x1="143.20000000000002" y1="-10" x2="138.20000000000002" y2="10" stroke="#4FC3F7" stroke-width="2" stroke-linecap="round">
          <animate attributeName="y1" values="-10;351" dur="0.7s" begin="0.9s" repeatCount="indefinite"/>
          <animate attributeName="y2" values="10;371" dur="0.7s" begin="0.9s" repeatCount="indefinite"/>
        </line><line x1="158" y1="-10" x2="153" y2="10" stroke="#4FC3F7" stroke-width="2" stroke-linecap="round">
          <animate attributeName="y1" values="-10;351" dur="0.7s" begin="0s" repeatCount="indefinite"/>
          <animate attributeName="y2" values="10;371" dur="0.7s" begin="0s" repeatCount="indefinite"/>
        </line><line x1="172.8" y1="-10" x2="167.8" y2="10" stroke="#4FC3F7" stroke-width="2" stroke-linecap="round">
          <animate attributeName="y1" values="-10;351" dur="0.7s" begin="0.10000000000000009s" repeatCount="indefinite"/>
          <animate attributeName="y2" values="10;371" dur="0.7s" begin="0.10000000000000009s" repeatCount="indefinite"/>
        </line><line x1="187.60000000000002" y1="-10" x2="182.60000000000002" y2="10" stroke="#4FC3F7" stroke-width="2" stroke-linecap="round">
          <animate attributeName="y1" values="-10;351" dur="0.7s" begin="0.20000000000000018s" repeatCount="indefinite"/>
          <animate attributeName="y2" values="10;371" dur="0.7s" begin="0.20000000000000018s" repeatCount="indefinite"/>
        </line><line x1="202.4" y1="-10" x2="197.4" y2="10" stroke="#4FC3F7" stroke-width="2" stroke-linecap="round">
          <animate attributeName="y1" values="-10;351" dur="0.7s" begin="0.30000000000000004s" repeatCount="indefinite"/>
          <animate attributeName="y2" values="10;371" dur="0.7s" begin="0.30000000000000004s" repeatCount="indefinite"/>
        </line><line x1="217.20000000000002" y1="-10" x2="212.20000000000002" y2="10" stroke="#4FC3F7" stroke-width="2" stroke-linecap="round">
          <animate attributeName="y1" values="-10;351" dur="0.7s" begin="0.40000000000000013s" repeatCount="indefinite"/>
          <animate attributeName="y2" values="10;371" dur="0.7s" begin="0.40000000000000013s" repeatCount="indefinite"/>
        </line><line x1="232" y1="-10" x2="227" y2="10" stroke="#4FC3F7" stroke-width="2" stroke-linecap="round">
          <animate attributeName="y1" values="-10;351" dur="0.7s" begin="0.5s" repeatCount="indefinite"/>
          <animate attributeName="y2" values="10;371" dur="0.7s" begin="0.5s" repeatCount="indefinite"/>
        </line><line x1="246.8" y1="-10" x2="241.8" y2="10" stroke="#4FC3F7" stroke-width="2" stroke-linecap="round">
          <animate attributeName="y1" values="-10;351" dur="0.7s" begin="0.6000000000000001s" repeatCount="indefinite"/>
          <animate attributeName="y2" values="10;371" dur="0.7s" begin="0.6000000000000001s" repeatCount="indefinite"/>
        </line><line x1="261.6" y1="-10" x2="256.6" y2="10" stroke="#4FC3F7" stroke-width="2" stroke-linecap="round">
          <animate attributeName="y1" values="-10;351" dur="0.7s" begin="0.7000000000000002s" repeatCount="indefinite"/>
          <animate attributeName="y2" values="10;371" dur="0.7s" begin="0.7000000000000002s" repeatCount="indefinite"/>
        </line><line x1="276.40000000000003" y1="-10" x2="271.40000000000003" y2="10" stroke="#4FC3F7" stroke-width="2" stroke-linecap="round">
          <animate attributeName="y1" values="-10;351" dur="0.7s" begin="0.8s" repeatCount="indefinite"/>
          <animate attributeName="y2" values="10;371" dur="0.7s" begin="0.8s" repeatCount="indefinite"/>
        </line><line x1="291.2" y1="-10" x2="286.2" y2="10" stroke="#4FC3F7" stroke-width="2" stroke-linecap="round">
          <animate attributeName="y1" values="-10;351" dur="0.7s" begin="0.9000000000000001s" repeatCount="indefinite"/>
          <animate attributeName="y2" values="10;371" dur="0.7s" begin="0.9000000000000001s" repeatCount="indefinite"/>
        </line>
        </g>
      
      </g>
      <!-- Evolution Effects (behind pet) -->
      <g class="evolution-layer" style="pointer-events: none;">
        
      <defs>
        <radialGradient id="evolutionAura">
          <stop offset="0%" stop-color="#FFD700" stop-opacity="0.6"/>
          <stop offset="70%" stop-color="#FFD700" stop-opacity="0.2"/>
          <stop offset="100%" stop-color="#FFD700" stop-opacity="0"/>
        </radialGradient>
        <filter id="evolutionGlow">
          <feGaussianBlur stdDeviation="3" result="coloredBlur"/>
          <feMerge>
            <feMergeNode in="coloredBlur"/>
            <feMergeNode in="SourceGraphic"/>
          </feMerge>
        </filter>
      </defs>
      <circle cx="148" cy="148" r="45" fill="url(#evolutionAura)">
        <animate attributeName="r" values="45;53;45" dur="2s" repeatCount="indefinite"/>
        <animate attributeName="opacity" values="0.7;1;0.7" dur="2s" repeatCount="indefinite"/>
      </circle>
    
      </g>
      <g transform="translate(20, 20)" opacity="1">
        <g class="pet">
            <rect x="64" y="16" width="16" height="16" fill="#2d333b" /><rect x="80" y="16" width="16" height="16" fill="#2d333b" /><rect x="96" y="16" width="16" height="16" fill="#2d333b" /><rect x="112" y="16" width="16" height="16" fill="#2d333b" /><rect x="128" y="16" width="16" height="16" fill="#2d333b" /><rect x="144" y="16" width="16" height="16" fill="#2d333b" /><rect x="160" y="16" width="16" height="16" fill="#2d333b" /><rect x="176" y="16" width="16" height="16" fill="#2d333b" /><rect x="32" y="32" width="16" height="16" fill="#2d333b" /><rect x="48" y="32" width="16" height="16" fill="#2d333b" /><rect x="64" y="32" width="16" height="16" fill="#00ADD8" /><rect x="80" y="32" width="16" height="16" fill="#00ADD8" /><rect x="96" y="32" width="16" height="16" fill="#00ADD8" /><rect x="112" y="32" width="16" height="16" fill="#00ADD8" /><rect x="128" y="32" width="16" height="16" fill="#00ADD8" /><rect x="144" y="32" width="16" height="16" fill="#00ADD8" /><rect x="160" y="32" width="16" height="16" fill="#00ADD8" /><rect x="176" y="32" width="16" height="16" fill="#00ADD8" /><rect x="192" y="32" width="16" height="16" fill="#2d333b" /><rect x="208" y="32" width="16" height="16" fill="#2d333b" /><rect x="16" y="48" width="16" height="16" fill="#2d333b" /><rect x="32" y="48" width="16" height="16" fill="#00ADD8" /><rect x="48" y="48" width="16" height="16" fill="#00ADD8" /><rect x="64" y="48" width="16" height="16" fill="#2d333b" /><rect x="80" y="48" width="16" height="16" fill="#2d333b" /><rect x="96" y="48" width="16" height="16" fill="#2d333b" /><rect x="112" y="48" width="16" height="16" fill="#2d333b" /><rect x="128" y="48" width="16" height="16" fill="#2d333b" /><rect x="144" y="48" width="16" height="16" fill="#2d333b" /><rect x="160" y="48" width="16" height="16" fill="#00ADD8" /><rect x="176" y="48" width="16" height="16" fill="#00ADD8" /><rect x="192" y="48" width="16" height="16" fill="#00ADD8" /><rect x="208" y="48" width="16" height="16" fill="#00ADD8" /><rect x="224" y="48" width="16" height="16" fill="#2d333b" /><rect x="16" y="64" width="16" height="16" fill="#2d333b" /><rect x="32" y="64" width="16" height="16" fill="#00ADD8" /><rect x="48" y="64" width="16" height="16" fill="#00ADD8" /><rect x="64" y="64" width="16" height="16" fill="#00ADD8" /><rect x="80" y="64" width="16" height="16" fill="#00ADD8" /><rect x="96" y="64" width="16" height="16" fill="#00ADD8" /><rect x="112" y="64" width="16" height="16" fill="#00ADD8" /><rect x="128" y="64" width="16" height="16" fill="#00ADD8" /><rect x="144" y="64" width="16" height="16" fill="#00ADD8" /><rect x="160" y="64" width="16" height="16" fill="#00ADD8" /><rect x="176" y="64" width="16" height="16" fill="#00ADD8" /><rect x="192" y="64" width="16" height="16" fill="#00ADD8" /><rect x="208" y="64" width="16" height="16" fill="#2d333b" /><rect x="0" y="80" width="16" height="16" fill="#2d333b" /><rect x="16" y="80" width="16" height="16" fill="#00ADD8" /><rect x="32" y="80" width="16" height="16" fill="#00ADD8" /><rect x="48" y="80" width="16" height="16" fill="#00ADD8" /><rect x="64" y="80" width="16" height="16" fill="#00ADD8" /><rect x="80" y="80" width="16" height="16" fill="#00ADD8" /><rect x="96" y="80" width="16" height="16" fill="#00ADD8" /><rect x="112" y="80" width="16" height="16" fill="#00ADD8" /><rect x="128" y="80" width="16" height="16" fill="#00ADD8" /><rect x="144" y="80" width="16" height="16" fill="#00ADD8" /><rect x="160" y="80" width="16" height="16" fill="#00ADD8" /><rect x="176" y="80" width="16" height="16" fill="#00ADD8" /><rect x="192" y="80" width="16" height="16" fill="#00ADD8" /><rect x="208" y="80" width="16" height="16" fill="#00ADD8" /><rect x="224" y="80" width="16" height="16" fill="#2d333b" /><rect x="0" y="96" width="16" height="16" fill="#2d333b" /><rect x="16" y="96" width="16" height="16" fill="#00ADD8" /><rect x="32" y="96" width="16" height="16" fill="#00ADD8" /><rect x="48" y="96" width="16" height="16" fill="#00ADD8" /><rect x="64" y="96" width="16" height="16" fill="#00ADD8" /><rect x="80" y="96" width="16" height="16" fill="#2d333b" /><rect x="96" y="96" width="16" height="16" fill="#00ADD8" /><rect x="112" y="96" width="16" height="16" fill="#00ADD8" /><rect x="128" y="96" width="16" height="16" fill="#00ADD8" /><rect x="144" y="96" width="16" height="16" fill="#00ADD8" /><rect x="160" y="96" width="16" height="16" fill="#00ADD8" /><rect x="176" y="96" width="16" height="16" fill="#00ADD8" /><rect x="192" y="96" width="16" height="16" fill="#00ADD8" /><rect x="208" y="96" width="16" height="16" fill="#00ADD8" /><rect x="224" y="96" width="16" height="16" fill="#2d333b" /><rect x="16" y="112" width="16" height="16" fill="#2d333b" /><rect x="32" y="112" width="16" height="16" fill="#00ADD8" /><rect x="48" y="112" width="16" height="16" fill="#00ADD8" /><rect x="64" y="112" width="16" height="16" fill="#00ADD8" /><rect x="80" y="112" width="16" height="16" fill="#2d333b" /><rect x="96" y="112" width="16" height="16" fill="#00ADD8" /><rect x="112" y="112" width="16" height="16" fill="#00ADD8" /><rect x="128" y="112" width="16" height="16" fill="#00ADD8" /><rect x="144" y="112" width="16" height="16" fill="#00ADD8" /><rect x="160" y="112" width="16" height="16" fill="#00ADD8" /><rect x="176" y="112" width="16" height="16" fill="#00ADD8" /><rect x="192" y="112" width="16" height="16" fill="#2d333b" /><rect x="32" y="128" width="16" height="16" fill="#2d333b" /><rect x="48" y="128" width="16" height="16" fill="#00ADD8" /><rect x="64" y="128" width="16" height="16" fill="#00ADD8" /><rect x="80" y="128" width="16" height="16" fill="#2d333b" /><rect x="96" y="128" width="16" height="16" fill="#00ADD8" /><rect x="112" y="128" width="16" height="16" fill="#00ADD8" /><rect x="128" y="128" width="16" height="16" fill="#00ADD8" /><rect x="144" y="128" width="16" height="16" fill="#00ADD8" /><rect x="160" y="128" width="16" height="16" fill="#00ADD8" /><rect x="176" y="128" width="16" height="16" fill="#2d333b" /><rect x="32" y="144" width="16" height="16" fill="#2d333b" /><rect x="48" y="144" width="16" height="16" fill="#00ADD8" /><rect x="64" y="144" width="16" height="16" fill="#2d333b" /><rect x="80" y="144" width="16" height="16" fill="#00ADD8" /><rect x="96" y="144" width="16" height="16" fill="#00ADD8" /><rect x="112" y="144" width="16" height="16" fill="#00ADD8" /><rect x="128" y="144" width="16" height="16" fill="#00ADD8" /><rect x="144" y="144" width="16" height="16" fill="#00ADD8" /><rect x="160" y="144" width="16" height="16" fill="#00ADD8" /><rect x="176" y="144" width="16" height="16" fill="#2d333b" /><rect x="48" y="160" width="16" height="16" fill="#2d333b" /><rect x="64" y="160" width="16" height="16" fill="#2d333b" /><rect x="80" y="160" width="16" height="16" fill="#00ADD8" /><rect x="96" y="160" width="16" height="16" fill="#00ADD8" /><rect x="112" y="160" width="16" height="16" fill="#00ADD8" /><rect x="128" y="160" width="16" height="16" fill="#00ADD8" /><rect x="144" y="160" width="16" height="16" fill="#00ADD8" /><rect x="160" y="160" width="16" height="16" fill="#2d333b" /><rect x="64" y="176" width="16" height="16" fill="#2d333b" /><rect x="80" y="176" width="16" height="16" fill="#2d333b" /><rect x="96" y="176" width="16" height="16" fill="#2d333b" /><rect x="112" y="176" width="16" height="16" fill="#2d333b" /><rect x="128" y="176" width="16" height="16" fill="#2d333b" /><rect x="144" y="176" width="16" height="16" fill="#2d333b" />
            
        <animateTransform 
            attributeName="transform" 
            type="scale" 
            values="1 1; 1.02 0.98; 1 1" 
            dur="2s" 
            repeatCount="indefinite" 
        />
        </g>
        <!-- Speech Bubble -->
        
    <g transform="translate(226, -25)">
      <!-- Speech bubble -->
      <rect x="0" y="0" width="139" height="24" rx="10" ry="10" 
            fill="#FFFFFF" stroke="#2d333b" stroke-width="1.5"/>
      <!-- Bubble tail -->
      <polygon points="15,24 20,32 25,24" 
               fill="#FFFFFF" stroke="#2d333b" stroke-width="1.5"/>
      <line x1="16" y1="24" x2="24" y2="24" stroke="#FFFFFF" stroke-width="2"/>
      <!-- Text -->
      <text x="69.5" y="16" 
            font-family="'Segoe UI', Arial, sans-serif" font-size="10" 
            fill="#2d333b" text-anchor="middle">Do not disturb...</text>
    </g>
  
        <!-- Seasonal Accessory (z-index: above pet) -->
        <!-- Seasonal: VALENTINE -->

    <g transform="translate(128, -19)">
      <g>
        <!-- Pixel Heart -->
        <rect x="4" y="0" width="8" height="4" fill="#FF6B9D"/>
        <rect x="16" y="0" width="8" height="4" fill="#FF6B9D"/>
        <rect x="0" y="4" width="28" height="4" fill="#FF6B9D"/>
        <rect x="0" y="8" width="28" height="4" fill="#FF8FAB"/>
        <rect x="4" y="12" width="20" height="4" fill="#FF8FAB"/>
        <rect x="8" y="16" width="12" height="4" fill="#FFB3C6"/>
        <rect x="12" y="20" width="4" height="4" fill="#FFB3C6"/>
        <!-- Sparkle -->
        <circle cx="8" cy="6" r="2" fill="#FFFFFF" opacity="0.7"/>
        <!-- Pulse animation -->
        <animateTransform 
          attributeName="transform" 
          type="scale" 
          values="1;1.1;1" 
          dur="1s" 
          repeatCount="indefinite"
          additive="sum"
        />
      </g>
    </g>
  
      </g>
      
      <!-- Level & Mood Text -->
      <text x="20" y="299" font-family="monospace" font-size="11" fill="#00ff00">
        ⭐ Lv.36 Adult
      </text>
      <text x="276" y="299" text-anchor="end" font-family="monospace" font-size="11" fill="#00ff00">
        💤 SLEEPING 🔥5
      </text>
      
      <!-- XP Progress Bar -->
      <rect x="20" y="306" width="256" height="8" rx="4" fill="#e0e0e0" stroke="#0288d1" stroke-width="1"/>
      <rect x="20" y="306" width="222.72" height="8" rx="4" fill="#4fc3f7">
        <animate attributeName="width" from="0" to="222.72" dur="0.5s" fill="freeze"/>
      </rect>
      
      <!-- XP Text -->
      <text x="50%" y="329" text-anchor="middle" font-family="monospace" font-size="9" fill="#00ff00">
        XP: 12870 / 12960 (87%)
      </text>
    
      
      <!-- Achievement Badges -->
      <g transform="translate(15, 311)">
    <g class="achievements">
      
      <g transform="translate(5, 0)">
        <title>Spark: 3 day streak</title>
        <circle cx="10" cy="10" r="10" fill="rgba(255,255,255,0.9)" stroke="#ddd" stroke-width="1"/>
        <text x="10" y="14" text-anchor="middle" font-size="11">⚡</text>
      </g>
    
      <g transform="translate(30, 0)">
        <title>Rising Star: Level 5</title>
        <circle cx="10" cy="10" r="10" fill="rgba(255,255,255,0.9)" stroke="#ddd" stroke-width="1"/>
        <text x="10" y="14" text-anchor="middle" font-size="11">🌟</text>
      </g>
    
      <g transform="translate(55, 0)">
        <title>Shining: Level 10</title>
        <circle cx="10" cy="10" r="10" fill="rgba(255,255,255,0.9)" stroke="#ddd" stroke-width="1"/>
        <text x="10" y="14" text-anchor="middle" font-size="11">✨</text>
      </g>
    
      <g transform="translate(80, 0)">
        <title>Rainbow: Level 25</title>
        <circle cx="10" cy="10" r="10" fill="rgba(255,255,255,0.9)" stroke="#ddd" stroke-width="1"/>
        <text x="10" y="14" text-anchor="middle" font-size="11">🌈</text>
      </g>
    
      <g transform="translate(105, 0)">
        <title>Weekend Warrior: Weekend commit</title>
        <circle cx="10" cy="10" r="10" fill="rgba(255,255,255,0.9)" stroke="#ddd" stroke-width="1"/>
        <text x="10" y="14" text-anchor="middle" font-size="11">🏖️</text>
      </g>
    
      
    </g>
  </g>
    </svg>