<svg xmlns="http://www.w3.org/2000/svg" width="296" height="341" viewBox="0 0 296 341">
      <style>
        .pet { transform-origin: center; }
      </style>
      <!-- Theme Background -->
      
        <rect x="0" y="0" width="296" height="341" fill="#0d0d0d" rx="12" ry="12"/>
        <g font-family="monospace" font-size="10" fill="#00ff00" opacity="0.3">
          <text x="10" y="15" opacity="0.45772137525716494">イ</text><text x="10" y="30" opacity="0.1822308537386931">オ</text><text x="10" y="45" opacity="0.45000546257275453">エ</text><text x="10" y="60" opacity="0.12347434761266476">ウ</text><text x="10" y="75" opacity="0.25104819482543206">1</text><text x="10" y="90" opacity="0.3526043615437705">0</text><text x="10" y="105" opacity="0.4276730258644912">力</text><text x="10" y="120" opacity="0.3455952396688994">力</text><text x="29.733333333333334" y="15" opacity="0.28981114896661675">ア</text><text x="29.733333333333334" y="30" opacity="0.39591410156509754">九</text><text x="29.733333333333334" y="45" opacity="0.1226838814771373">七</text><text x="29.733333333333334" y="60" opacity="0.35749893657282383">七</text><text x="29.733333333333334" y="75" opacity="0.5514752449800291">オ</text><text x="29.733333333333334" y="90" opacity="0.5550676721237032">力</text><text x="29.733333333333334" y="105" opacity="0.21456110456597136">七</text><text x="29.733333333333334" y="120" opacity="0.1272511227605603">イ</text><text x="49.46666666666667" y="15" opacity="0.5550868695236956">ア</text><text x="49.46666666666667" y="30" opacity="0.34776863200048624">ウ</text><text x="49.46666666666667" y="45" opacity="0.2623614028244504">0</text><text x="49.46666666666667" y="60" opacity="0.32603405590085954">イ</text><text x="49.46666666666667" y="75" opacity="0.551218891831111">オ</text><text x="49.46666666666667" y="90" opacity="0.16269886376968248">九</text><text x="49.46666666666667" y="105" opacity="0.2741775621689677">0</text><text x="49.46666666666667" y="120" opacity="0.2851033601657762">七</text><text x="69.2" y="15" opacity="0.4157677722163923">七</text><text x="69.2" y="30" opacity="0.3090030373279019">イ</text><text x="69.2" y="45" opacity="0.5346373070532535">九</text><text x="69.2" y="60" opacity="0.560072447211502">オ</text><text x="69.2" y="75" opacity="0.21900385073265774">エ</text><text x="69.2" y="90" opacity="0.36350171860703884">九</text><text x="69.2" y="105" opacity="0.19239055831722532">0</text><text x="69.2" y="120" opacity="0.21404431377869496">七</text><text x="88.93333333333334" y="15" opacity="0.18785477372496065">七</text><text x="88.93333333333334" y="30" opacity="0.3163192957900849">イ</text><text x="88.93333333333334" y="45" opacity="0.27735525314764276">ア</text><text x="88.93333333333334" y="60" opacity="0.14892197175350977">力</text><text x="88.93333333333334" y="75" opacity="0.28042740301491587">七</text><text x="88.93333333333334" y="90" opacity="0.20406331119510993">七</text><text x="88.93333333333334" y="105" opacity="0.13214102678644626">ア</text><text x="88.93333333333334" y="120" opacity="0.407700919272304">力</text><text x="108.66666666666667" y="15" opacity="0.4716065819766613">七</text><text x="108.66666666666667" y="30" opacity="0.538518081038316">エ</text><text x="108.66666666666667" y="45" opacity="0.10239768107135375">1</text><text x="108.66666666666667" y="60" opacity="0.15233746787956362">力</text><text x="108.66666666666667" y="75" opacity="0.34507933084065723">0</text><text x="108.66666666666667" y="90" opacity="0.4423787221036003">ア</text><text x="108.66666666666667" y="105" opacity="0.5185783996724962">ア</text><text x="108.66666666666667" y="120" opacity="0.32792307059047554">0</text><text x="128.4" y="15" opacity="0.11586898819632388">0</text><text x="128.4" y="30" opacity="0.4656713184240089">九</text><text x="128.4" y="45" opacity="0.2359059270631884">ア</text><text x="128.4" y="60" opacity="0.4306711807337005">イ</text><text x="128.4" y="75" opacity="0.4259362767747523">オ</text><text x="128.4" y="90" opacity="0.31781053126994496">エ</text><text x="128.4" y="105" opacity="0.4104042078031862">エ</text><text x="128.4" y="120" opacity="0.3609798042340402">九</text><text x="148.13333333333333" y="15" opacity="0.32636968060728644">0</text><text x="148.13333333333333" y="30" opacity="0.5940797442704358">ア</text><text x="148.13333333333333" y="45" opacity="0.14899791977016855">九</text><text x="148.13333333333333" y="60" opacity="0.25701965333576793">力</text><text x="148.13333333333333" y="75" opacity="0.21068091564805005">九</text><text x="148.13333333333333" y="90" opacity="0.49807898537474216">0</text><text x="148.13333333333333" y="105" opacity="0.22507042409372083">0</text><text x="148.13333333333333" y="120" opacity="0.5698565381916924">エ</text><text x="167.86666666666667" y="15" opacity="0.3104927441203804">ア</text><text x="167.86666666666667" y="30" opacity="0.45617665141647057">1</text><text x="167.86666666666667" y="45" opacity="0.3129979701757559">イ</text><text x="167.86666666666667" y="60" opacity="0.5397768300371172">エ</text><text x="167.86666666666667" y="75" opacity="0.2418708700850514">オ</text><text x="167.86666666666667" y="90" opacity="0.23771883025887888">九</text><text x="167.86666666666667" y="105" opacity="0.543248587876322">1</text><text x="167.86666666666667" y="120" opacity="0.4783687377002821">1</text><text x="187.60000000000002" y="15" opacity="0.25102461965811396">七</text><text x="187.60000000000002" y="30" opacity="0.3969227464260153">エ</text><text x="187.60000000000002" y="45" opacity="0.5268960806364105">エ</text><text x="187.60000000000002" y="60" opacity="0.2385625070075538">オ</text><text x="187.60000000000002" y="75" opacity="0.33113319832920785">1</text><text x="187.60000000000002" y="90" opacity="0.3927477815826348">エ</text><text x="187.60000000000002" y="105" opacity="0.13032732706222697">エ</text><text x="187.60000000000002" y="120" opacity="0.17309637528125735">ア</text><text x="207.33333333333334" y="15" opacity="0.5114114464853008">力</text><text x="207.33333333333334" y="30" opacity="0.5208821535726246">オ</text><text x="207.33333333333334" y="45" opacity="0.5171303283604659">七</text><text x="207.33333333333334" y="60" opacity="0.5672562987606933">ウ</text><text x="207.33333333333334" y="75" opacity="0.1963350938742893">力</text><text x="207.33333333333334" y="90" opacity="0.4198519535731322">0</text><text x="207.33333333333334" y="105" opacity="0.37232838655849354">オ</text><text x="207.33333333333334" y="120" opacity="0.4505747678043813">九</text><text x="227.06666666666666" y="15" opacity="0.3072372540443501">力</text><text x="227.06666666666666" y="30" opacity="0.5728941517288357">1</text><text x="227.06666666666666" y="45" opacity="0.5812278804307572">1</text><text x="227.06666666666666" y="60" opacity="0.490126590248284">イ</text><text x="227.06666666666666" y="75" opacity="0.4745179834192016">ウ</text><text x="227.06666666666666" y="90" opacity="0.4609429244443869">ウ</text><text x="227.06666666666666" y="105" opacity="0.28172791892922777">1</text><text x="227.06666666666666" y="120" opacity="0.11359060216279795">オ</text><text x="246.8" y="15" opacity="0.1850470307839466">1</text><text x="246.8" y="30" opacity="0.28375100332107395">力</text><text x="246.8" y="45" opacity="0.35219542395171266">0</text><text x="246.8" y="60" opacity="0.20051314512089927">1</text><text x="246.8" y="75" opacity="0.11806587174198793">イ</text><text x="246.8" y="90" opacity="0.4929382904300248">九</text><text x="246.8" y="105" opacity="0.3971026146365154">オ</text><text x="246.8" y="120" opacity="0.502011630818821">力</text><text x="266.53333333333336" y="15" opacity="0.2132871096514465">ウ</text><text x="266.53333333333336" y="30" opacity="0.5675788079093469">イ</text><text x="266.53333333333336" y="45" opacity="0.3703670971535725">ア</text><text x="266.53333333333336" y="60" opacity="0.4871794627896444">力</text><text x="266.53333333333336" y="75" opacity="0.38918776363338614">1</text><text x="266.53333333333336" y="90" opacity="0.4984640404803343">エ</text><text x="266.53333333333336" y="105" opacity="0.24124357787814923">九</text><text x="266.53333333333336" y="120" opacity="0.23726001722575665">ウ</text><text x="286.26666666666665" y="15" opacity="0.43472225560091704">力</text><text x="286.26666666666665" y="30" opacity="0.3578531259315165">イ</text><text x="286.26666666666665" y="45" opacity="0.39490609736945503">力</text><text x="286.26666666666665" y="60" opacity="0.4811854073211941">エ</text><text x="286.26666666666665" y="75" opacity="0.35873439224001946">0</text><text x="286.26666666666665" y="90" opacity="0.5484499367396337">0</text><text x="286.26666666666665" y="105" opacity="0.10872081249084567">オ</text><text x="286.26666666666665" y="120" opacity="0.2827895008803455">1</text>
        </g>
        <rect x="5" y="5" width="286" height="331" fill="none" stroke="#00ff00" stroke-width="1" rx="8" ry="8" stroke-opacity="0.3"/>
      
      <!-- Weather Effects (behind pet) -->
      <g class="weather-layer" style="pointer-events: none;">
        
        <g opacity="0.6">
          <line x1="10" y1="-10" x2="5" y2="10" stroke="#4FC3F7" stroke-width="2" stroke-linecap="round">
          <animate attributeName="y1" values="-10;351" dur="0.7s" begin="0s" repeatCount="indefinite"/>
          <animate attributeName="y2" values="10;371" dur="0.7s" begin="0s" repeatCount="indefinite"/>
        </line><line x1="24.8" y1="-10" x2="19.8" y2="10" stroke="#4FC3F7" stroke-width="2" stroke-linecap="round">
          <animate attributeName="y1" values="-10;351" dur="0.7s" begin="0.1s" repeatCount="indefinite"/>
          <animate attributeName="y2" values="10;371" dur="0.7s" begin="0.1s" repeatCount="indefinite"/>
        </line><line x1="39.6" y1="-10" x2="34.6" y2="10" stroke="#4FC3F7" stroke-width="2" stroke-linecap="round">
          <animate attributeName="y1" values="-10;351" dur="0.7s" begin="0.2s" repeatCount="indefinite"/>
          <animate attributeName="y2" values="10;371" dur="0.7s" begin="0.2s" repeatCount="indefinite"/>
        </line><line x1="54.400000000000006" y1="-10" x2="49.400000000000006" y2="10" stroke="#4FC3F7" stroke-width="2" stroke-linecap="round">
          <animate attributeName="y1" values="-10;351" dur="0.7s" begin="0.30000000000000004s" repeatCount="indefinite"/>
          <animate attributeName="y2" values="10;371" dur="0.7s" begin="0.30000000000000004s" repeatCount="indefinite"/>
        </line><line x1="69.2" y1="-10" x2="64.2" y2="10" stroke="#4FC3F7" stroke-width="2" stroke-linecap="round">
          <animate attributeName="y1" values="-10;351" dur="0.7s" begin="0.4s" repeatCount="indefinite"/>
          <animate attributeName="y2" values="10;371" dur="0.7s" begin="0.4s" repeatCount="indefinite"/>
        </line><line x1="84" y1="-10" x2="79" y2="10" stroke="#4FC3F7" stroke-width="2" stroke-linecap="round">
          <animate attributeName="y1" values="-10;351" dur="0.7s" begin="0.5s" repeatCount="indefinite"/>
          <animate attributeName="y2" values="10;371" dur="0.7s" begin="0.5s" repeatCount="indefinite"/>
        </line><line x1="98.80000000000001" y1="-10" x2="93.80000000000001" y2="10" stroke="#4FC3F7" stroke-width="2" stroke-linecap="round">
          <animate attributeName="y1" values="-10;351" dur="0.7s" begin="0.6000000000000001s" repeatCount="indefinite"/>
          <animate attributeName="y2" values="10;371" dur="0.7s" begin="0.6000000000000001s" repeatCount="indefinite"/>
        </line><line x1="113.60000000000001" y1="-10" x2="108.60000000000001" y2="10" stroke="#4FC3F7" stroke-width="2" stroke-linecap="round">
          <animate attributeName="y1" values="-10;351" dur="0.7s" begin="0.7000000000000001s" repeatCount="indefinite"/>
          <animate attributeName="y2" values="10;371" dur="0.7s" begin="0.7000000000000001s" repeatCount="indefinite"/>
        </line><line x1="128.4" y1="-10" x2="123.4" y2="10" stroke="#4FC3F7" stroke-width="2" stroke-linecap="round">
          <animate attributeName="y1" values="-10;351" dur="0.7s" begin="0.8s" repeatCount="indefinite"/>
          <animate attributeName="y2" values="10;371" dur="0.7s" begin="0.8s" repeatCount="indefinite"/>
        </line><line x1="143.20000000000002" y1="-10" x2="138.20000000000002" y2="10" stroke="#4FC3F7" stroke-width="2" stroke-linecap="round">
          <animate attributeName="y1" values="-10;351" dur="0.7s" begin="0.9s" repeatCount="indefinite"/>
          <animate attributeName="y2" values="10;371" dur="0.7s" begin="0.9s" repeatCount="indefinite"/>
        </line><line x1="158" y1="-10" x2="153" y2="10" stroke="#4FC3F7" stroke-width="2" stroke-linecap="round">
          <animate attributeName="y1" values="-10;351" dur="0.7s" begin="0s" repeatCount="indefinite"/>
          <animate attributeName="y2" values="10;371" dur="0.7s" begin="0s" repeatCount="indefinite"/>
        </line><line x1="172.8" y1="-10" x2="167.8" y2="10" stroke="#4FC3F7" stroke-width="2" stroke-linecap="round">
          <animate attributeName="y1" values="-10;351" dur="0.7s" begin="0.10000000000000009s" repeatCount="indefinite"/>
          <animate attributeName="y2" values="10;371" dur="0.7s" begin="0.10000000000000009s" repeatCount="indefinite"/>
        </line><line x1="187.60000000000002" y1="-10" x2="182.60000000000002" y2="10" stroke="#4FC3F7" stroke-width="2" stroke-linecap="round">
          <animate attributeName="y1" values="-10;351" dur="0.7s" begin="0.20000000000000018s" repeatCount="indefinite"/>
          <animate attributeName="y2" values="10;371" dur="0.7s" begin="0.20000000000000018s" repeatCount="indefinite"/>
        </line><line x1="202.4" y1="-10" x2="197.4" y2="10" stroke="#4FC3F7" stroke-width="2" stroke-linecap="round">
          <animate attributeName="y1" values="-10;351" dur="0.7s" begin="0.30000000000000004s" repeatCount="indefinite"/>
          <animate attributeName="y2" values="10;371" dur="0.7s" begin="0.30000000000000004s" repeatCount="indefinite"/>
        </line><line x1="217.20000000000002" y1="-10" x2="212.20000000000002" y2="10" stroke="#4FC3F7" stroke-width="2" stroke-linecap="round">
          <animate attributeName="y1" values="-10;351" dur="0.7s" begin="0.40000000000000013s" repeatCount="indefinite"/>
          <animate attributeName="y2" values="10;371" dur="0.7s" begin="0.40000000000000013s" repeatCount="indefinite"/>
        </line><line x1="232" y1="-10" x2="227" y2="10" stroke="#4FC3F7" stroke-width="2" stroke-linecap="round">
          <animate attributeName="y1" values="-10;351" dur="0.7s" begin="0.5s" repeatCount="indefinite"/>
          <animate attributeName="y2" values="10;371" dur="0.7s" begin="0.5s" repeatCount="indefinite"/>
        </line><line x1="246.8" y1="-10" x2="241.8" y2="10" stroke="#4FC3F7" stroke-width="2" stroke-linecap="round">
          <animate attributeName="y1" values="-10;351" dur="0.7s" begin="0.6000000000000001s" repeatCount="indefinite"/>
          <animate attributeName="y2" values="10;371" dur="0.7s" begin="0.6000000000000001s" repeatCount="indefinite"/>
        </line><line x1="261.6" y1="-10" x2="256.6" y2="10" stroke="#4FC3F7" stroke-width="2" stroke-linecap="round">
          <animate attributeName="y1" values="-10;351" dur="0.7s" begin="0.7000000000000002s" repeatCount="indefinite"/>
          <animate attributeName="y2" values="10;371" dur="0.7s" begin="0.7000000000000002s" repeatCount="indefinite"/>
        </line><line x1="276.40000000000003" y1="-10" x2="271.40000000000003" y2="10" stroke="#4FC3F7" stroke-width="2" stroke-linecap="round">
          <animate attributeName="y1" values="-10;351" dur="0.7s" begin="0.8s" repeatCount="indefinite"/>
          <animate attributeName="y2" values="10;371" dur="0.7s" begin="0.8s" repeatCount="indefinite"/>
        </line><line x1="291.2" y1="-10" x2="286.2" y2="10" stroke="#4FC3F7" stroke-width="2" stroke-linecap="round">
          <animate attributeName="y1" values="-10;351" dur="0.7s" begin="0.9000000000000001s" repeatCount="indefinite"/>
          <animate attributeName="y2" values="10;371" dur="0.7s" begin="0.9000000000000001s" repeatCount="indefinite"/>
        </line>
        </g>
      
      </g>
      <!-- Evolution Effects (behind pet) -->
      <g class="evolution-layer" style="pointer-events: none;">
        
      <defs>
        <radialGradient id="evolutionAura">
          <stop offset="0%" stop-color="#FFD700" stop-opacity="0.6"/>
          <stop offset="70%" stop-color="#FFD700" stop-opacity="0.2"/>
          <stop offset="100%" stop-color="#FFD700" stop-opacity="0"/>
        </radialGradient>
        <filter id="evolutionGlow">
          <feGaussianBlur stdDeviation="3" result="coloredBlur"/>
          <feMerge>
            <feMergeNode in="coloredBlur"/>
            <feMergeNode in="SourceGraphic"/>
          </feMerge>
        </filter>
      </defs>
      <circle cx="148" cy="148" r="45" fill="url(#evolutionAura)">
        <animate attributeName="r" values="45;53;45" dur="2s" repeatCount="indefinite"/>
        <animate attributeName="opacity" values="0.7;1;0.7" dur="2s" repeatCount="indefinite"/>
      </circle>
    
      </g>
      <g transform="translate(20, 20)" opacity="1">
        <g class="pet">
            <rect x="64" y="16" width="16" height="16" fill="#2d333b" /><rect x="80" y="16" width="16" height="16" fill="#2d333b" /><rect x="96" y="16" width="16" height="16" fill="#2d333b" /><rect x="112" y="16" width="16" height="16" fill="#2d333b" /><rect x="128" y="16" width="16" height="16" fill="#2d333b" /><rect x="144" y="16" width="16" height="16" fill="#2d333b" /><rect x="160" y="16" width="16" height="16" fill="#2d333b" /><rect x="176" y="16" width="16" height="16" fill="#2d333b" /><rect x="32" y="32" width="16" height="16" fill="#2d333b" /><rect x="48" y="32" width="16" height="16" fill="#2d333b" /><rect x="64" y="32" width="16" height="16" fill="#00ADD8" /><rect x="80" y="32" width="16" height="16" fill="#00ADD8" /><rect x="96" y="32" width="16" height="16" fill="#00ADD8" /><rect x="112" y="32" width="16" height="16" fill="#00ADD8" /><rect x="128" y="32" width="16" height="16" fill="#00ADD8" /><rect x="144" y="32" width="16" height="16" fill="#00ADD8" /><rect x="160" y="32" width="16" height="16" fill="#00ADD8" /><rect x="176" y="32" width="16" height="16" fill="#00ADD8" /><rect x="192" y="32" width="16" height="16" fill="#2d333b" /><rect x="208" y="32" width="16" height="16" fill="#2d333b" /><rect x="16" y="48" width="16" height="16" fill="#2d333b" /><rect x="32" y="48" width="16" height="16" fill="#00ADD8" /><rect x="48" y="48" width="16" height="16" fill="#00ADD8" /><rect x="64" y="48" width="16" height="16" fill="#2d333b" /><rect x="80" y="48" width="16" height="16" fill="#2d333b" /><rect x="96" y="48" width="16" height="16" fill="#2d333b" /><rect x="112" y="48" width="16" height="16" fill="#2d333b" /><rect x="128" y="48" width="16" height="16" fill="#2d333b" /><rect x="144" y="48" width="16" height="16" fill="#2d333b" /><rect x="160" y="48" width="16" height="16" fill="#00ADD8" /><rect x="176" y="48" width="16" height="16" fill="#00ADD8" /><rect x="192" y="48" width="16" height="16" fill="#00ADD8" /><rect x="208" y="48" width="16" height="16" fill="#00ADD8" /><rect x="224" y="48" width="16" height="16" fill="#2d333b" /><rect x="16" y="64" width="16" height="16" fill="#2d333b" /><rect x="32" y="64" width="16" height="16" fill="#00ADD8" /><rect x="48" y="64" width="16" height="16" fill="#00ADD8" /><rect x="64" y="64" width="16" height="16" fill="#00ADD8" /><rect x="80" y="64" width="16" height="16" fill="#00ADD8" /><rect x="96" y="64" width="16" height="16" fill="#00ADD8" /><rect x="112" y="64" width="16" height="16" fill="#00ADD8" /><rect x="128" y="64" width="16" height="16" fill="#00ADD8" /><rect x="144" y="64" width="16" height="16" fill="#00ADD8" /><rect x="160" y="64" width="16" height="16" fill="#00ADD8" /><rect x="176" y="64" width="16" height="16" fill="#00ADD8" /><rect x="192" y="64" width="16" height="16" fill="#00ADD8" /><rect x="208" y="64" width="16" height="16" fill="#2d333b" /><rect x="0" y="80" width="16" height="16" fill="#2d333b" /><rect x="16" y="80" width="16" height="16" fill="#00ADD8" /><rect x="32" y="80" width="16" height="16" fill="#00ADD8" /><rect x="48" y="80" width="16" height="16" fill="#00ADD8" /><rect x="64" y="80" width="16" height="16" fill="#00ADD8" /><rect x="80" y="80" width="16" height="16" fill="#00ADD8" /><rect x="96" y="80" width="16" height="16" fill="#00ADD8" /><rect x="112" y="80" width="16" height="16" fill="#00ADD8" /><rect x="128" y="80" width="16" height="16" fill="#00ADD8" /><rect x="144" y="80" width="16" height="16" fill="#00ADD8" /><rect x="160" y="80" width="16" height="16" fill="#00ADD8" /><rect x="176" y="80" width="16" height="16" fill="#00ADD8" /><rect x="192" y="80" width="16" height="16" fill="#00ADD8" /><rect x="208" y="80" width="16" height="16" fill="#00ADD8" /><rect x="224" y="80" width="16" height="16" fill="#2d333b" /><rect x="0" y="96" width="16" height="16" fill="#2d333b" /><rect x="16" y="96" width="16" height="16" fill="#00ADD8" /><rect x="32" y="96" width="16" height="16" fill="#00ADD8" /><rect x="48" y="96" width="16" height="16" fill="#00ADD8" /><rect x="64" y="96" width="16" height="16" fill="#00ADD8" /><rect x="80" y="96" width="16" height="16" fill="#2d333b" /><rect x="96" y="96" width="16" height="16" fill="#00ADD8" /><rect x="112" y="96" width="16" height="16" fill="#00ADD8" /><rect x="128" y="96" width="16" height="16" fill="#00ADD8" /><rect x="144" y="96" width="16" height="16" fill="#00ADD8" /><rect x="160" y="96" width="16" height="16" fill="#00ADD8" /><rect x="176" y="96" width="16" height="16" fill="#00ADD8" /><rect x="192" y="96" width="16" height="16" fill="#00ADD8" /><rect x="208" y="96" width="16" height="16" fill="#00ADD8" /><rect x="224" y="96" width="16" height="16" fill="#2d333b" /><rect x="16" y="112" width="16" height="16" fill="#2d333b" /><rect x="32" y="112" width="16" height="16" fill="#00ADD8" /><rect x="48" y="112" width="16" height="16" fill="#00ADD8" /><rect x="64" y="112" width="16" height="16" fill="#00ADD8" /><rect x="80" y="112" width="16" height="16" fill="#2d333b" /><rect x="96" y="112" width="16" height="16" fill="#00ADD8" /><rect x="112" y="112" width="16" height="16" fill="#00ADD8" /><rect x="128" y="112" width="16" height="16" fill="#00ADD8" /><rect x="144" y="112" width="16" height="16" fill="#00ADD8" /><rect x="160" y="112" width="16" height="16" fill="#00ADD8" /><rect x="176" y="112" width="16" height="16" fill="#00ADD8" /><rect x="192" y="112" width="16" height="16" fill="#2d333b" /><rect x="32" y="128" width="16" height="16" fill="#2d333b" /><rect x="48" y="128" width="16" height="16" fill="#00ADD8" /><rect x="64" y="128" width="16" height="16" fill="#00ADD8" /><rect x="80" y="128" width="16" height="16" fill="#2d333b" /><rect x="96" y="128" width="16" height="16" fill="#00ADD8" /><rect x="112" y="128" width="16" height="16" fill="#00ADD8" /><rect x="128" y="128" width="16" height="16" fill="#00ADD8" /><rect x="144" y="128" width="16" height="16" fill="#00ADD8" /><rect x="160" y="128" width="16" height="16" fill="#00ADD8" /><rect x="176" y="128" width="16" height="16" fill="#2d333b" /><rect x="32" y="144" width="16" height="16" fill="#2d333b" /><rect x="48" y="144" width="16" height="16" fill="#00ADD8" /><rect x="64" y="144" width="16" height="16" fill="#2d333b" /><rect x="80" y="144" width="16" height="16" fill="#00ADD8" /><rect x="96" y="144" width="16" height="16" fill="#00ADD8" /><rect x="112" y="144" width="16" height="16" fill="#00ADD8" /><rect x="128" y="144" width="16" height="16" fill="#00ADD8" /><rect x="144" y="144" width="16" height="16" fill="#00ADD8" /><rect x="160" y="144" width="16" height="16" fill="#00ADD8" /><rect x="176" y="144" width="16" height="16" fill="#2d333b" /><rect x="48" y="160" width="16" height="16" fill="#2d333b" /><rect x="64" y="160" width="16" height="16" fill="#2d333b" /><rect x="80" y="160" width="16" height="16" fill="#00ADD8" /><rect x="96" y="160" width="16" height="16" fill="#00ADD8" /><rect x="112" y="160" width="16" height="16" fill="#00ADD8" /><rect x="128" y="160" width="16" height="16" fill="#00ADD8" /><rect x="144" y="160" width="16" height="16" fill="#00ADD8" /><rect x="160" y="160" width="16" height="16" fill="#2d333b" /><rect x="64" y="176" width="16" height="16" fill="#2d333b" /><rect x="80" y="176" width="16" height="16" fill="#2d333b" /><rect x="96" y="176" width="16" height="16" fill="#2d333b" /><rect x="112" y="176" width="16" height="16" fill="#2d333b" /><rect x="128" y="176" width="16" height="16" fill="#2d333b" /><rect x="144" y="176" width="16" height="16" fill="#2d333b" />
            
        <animateTransform 
            attributeName="transform" 
            type="scale" 
            values="1 1; 1.02 0.98; 1 1" 
            dur="2s" 
            repeatCount="indefinite" 
        />
        </g>
        <!-- Speech Bubble -->
        
    <g transform="translate(226, -25)">
      <!-- Speech bubble -->
      <rect x="0" y="0" width="69" height="24" rx="10" ry="10" 
            fill="#FFFFFF" stroke="#2d333b" stroke-width="1.5"/>
      <!-- Bubble tail -->
      <polygon points="15,24 20,32 25,24" 
               fill="#FFFFFF" stroke="#2d333b" stroke-width="1.5"/>
      <line x1="16" y1="24" x2="24" y2="24" stroke="#FFFFFF" stroke-width="2"/>
      <!-- Text -->
      <text x="34.5" y="16" 
            font-family="'Segoe UI', Arial, sans-serif" font-size="10" 
            fill="#2d333b" text-anchor="middle">*snore*</text>
    </g>
  
        <!-- Seasonal Accessory (z-index: above pet) -->
        
      </g>
      
      <!-- Level & Mood Text -->
      <text x="20" y="299" font-family="monospace" font-size="11" fill="#00ff00">
        ⭐ Lv.33 Adult
      </text>
      <text x="276" y="299" text-anchor="end" font-family="monospace" font-size="11" fill="#00ff00">
        💤 SLEEPING 🔥7
      </text>
      
      <!-- XP Progress Bar -->
      <rect x="20" y="306" width="256" height="8" rx="4" fill="#e0e0e0" stroke="#0288d1" stroke-width="1"/>
      <rect x="20" y="306" width="179.2" height="8" rx="4" fill="#4fc3f7">
        <animate attributeName="width" from="0" to="179.2" dur="0.5s" fill="freeze"/>
      </rect>
      
      <!-- XP Text -->
      <text x="50%" y="329" text-anchor="middle" font-family="monospace" font-size="9" fill="#00ff00">
        XP: 10700 / 10890 (70%)
      </text>
    
      
      <!-- Achievement Badges -->
      <g transform="translate(15, 311)">
    <g class="achievements">
      
      <g transform="translate(5, 0)">
        <title>Spark: 3 day streak</title>
        <circle cx="10" cy="10" r="10" fill="rgba(255,255,255,0.9)" stroke="#ddd" stroke-width="1"/>
        <text x="10" y="14" text-anchor="middle" font-size="11">⚡</text>
      </g>
    
      <g transform="translate(30, 0)">
        <title>Weekly Warrior: 7 day streak</title>
        <circle cx="10" cy="10" r="10" fill="rgba(255,255,255,0.9)" stroke="#ddd" stroke-width="1"/>
        <text x="10" y="14" text-anchor="middle" font-size="11">🔥</text>
      </g>
    
      <g transform="translate(55, 0)">
        <title>Rising Star: Level 5</title>
        <circle cx="10" cy="10" r="10" fill="rgba(255,255,255,0.9)" stroke="#ddd" stroke-width="1"/>
        <text x="10" y="14" text-anchor="middle" font-size="11">🌟</text>
      </g>
    
      <g transform="translate(80, 0)">
        <title>Shining: Level 10</title>
        <circle cx="10" cy="10" r="10" fill="rgba(255,255,255,0.9)" stroke="#ddd" stroke-width="1"/>
        <text x="10" y="14" text-anchor="middle" font-size="11">✨</text>
      </g>
    
      <g transform="translate(105, 0)">
        <title>Rainbow: Level 25</title>
        <circle cx="10" cy="10" r="10" fill="rgba(255,255,255,0.9)" stroke="#ddd" stroke-width="1"/>
        <text x="10" y="14" text-anchor="middle" font-size="11">🌈</text>
      </g>
    
      <g transform="translate(130, 0)">
        <title>Weekend Warrior: Weekend commit</title>
        <circle cx="10" cy="10" r="10" fill="rgba(255,255,255,0.9)" stroke="#ddd" stroke-width="1"/>
        <text x="10" y="14" text-anchor="middle" font-size="11">🏖️</text>
      </g>
    
      
    </g>
  </g>
    </svg>