<svg xmlns="http://www.w3.org/2000/svg" width="296" height="341" viewBox="0 0 296 341">
      <style>
        .pet { transform-origin: center; }
      </style>
      <!-- Theme Background -->
      
        <rect x="0" y="0" width="296" height="341" fill="#0d0d0d" rx="12" ry="12"/>
        <g font-family="monospace" font-size="10" fill="#00ff00" opacity="0.3">
          <text x="10" y="15" opacity="0.12686351927286613">力</text><text x="10" y="30" opacity="0.5549682346124115">力</text><text x="10" y="45" opacity="0.26116112796420254">1</text><text x="10" y="60" opacity="0.3207191726823978">1</text><text x="10" y="75" opacity="0.5854316552189892">七</text><text x="10" y="90" opacity="0.16337070665804512">九</text><text x="10" y="105" opacity="0.17293510433195572">ア</text><text x="10" y="120" opacity="0.10190069578068897">七</text><text x="29.733333333333334" y="15" opacity="0.5846389991621097">エ</text><text x="29.733333333333334" y="30" opacity="0.20442038476316562">0</text><text x="29.733333333333334" y="45" opacity="0.2886168282086915">1</text><text x="29.733333333333334" y="60" opacity="0.27612970289596983">0</text><text x="29.733333333333334" y="75" opacity="0.289459993305745">エ</text><text x="29.733333333333334" y="90" opacity="0.3691911722669112">ア</text><text x="29.733333333333334" y="105" opacity="0.23917660371449026">七</text><text x="29.733333333333334" y="120" opacity="0.3195692559062431">力</text><text x="49.46666666666667" y="15" opacity="0.2523295964429654">1</text><text x="49.46666666666667" y="30" opacity="0.5440242361339928">力</text><text x="49.46666666666667" y="45" opacity="0.281173862028663">1</text><text x="49.46666666666667" y="60" opacity="0.27296660909879755">ウ</text><text x="49.46666666666667" y="75" opacity="0.1495407106537531">力</text><text x="49.46666666666667" y="90" opacity="0.4671042389797081">九</text><text x="49.46666666666667" y="105" opacity="0.2078532617202348">0</text><text x="49.46666666666667" y="120" opacity="0.26082724337031293">0</text><text x="69.2" y="15" opacity="0.23291508026312183">オ</text><text x="69.2" y="30" opacity="0.3456059225568927">九</text><text x="69.2" y="45" opacity="0.20509268376413117">九</text><text x="69.2" y="60" opacity="0.49107543323199365">1</text><text x="69.2" y="75" opacity="0.47006302855402393">0</text><text x="69.2" y="90" opacity="0.5331211683740757">1</text><text x="69.2" y="105" opacity="0.20342852974040718">九</text><text x="69.2" y="120" opacity="0.24484826274836793">イ</text><text x="88.93333333333334" y="15" opacity="0.41993408882474226">エ</text><text x="88.93333333333334" y="30" opacity="0.15351932074330601">ウ</text><text x="88.93333333333334" y="45" opacity="0.5738099282408289">イ</text><text x="88.93333333333334" y="60" opacity="0.5620388323144178">イ</text><text x="88.93333333333334" y="75" opacity="0.28798648794238946">七</text><text x="88.93333333333334" y="90" opacity="0.1173448649186715">九</text><text x="88.93333333333334" y="105" opacity="0.3971816351961388">ウ</text><text x="88.93333333333334" y="120" opacity="0.45421009775311094">力</text><text x="108.66666666666667" y="15" opacity="0.562871723890096">1</text><text x="108.66666666666667" y="30" opacity="0.3126417546762873">ウ</text><text x="108.66666666666667" y="45" opacity="0.45765640366917315">ウ</text><text x="108.66666666666667" y="60" opacity="0.1306997202751771">力</text><text x="108.66666666666667" y="75" opacity="0.26087845630593354">エ</text><text x="108.66666666666667" y="90" opacity="0.330244440931896">力</text><text x="108.66666666666667" y="105" opacity="0.10412450803048925">七</text><text x="108.66666666666667" y="120" opacity="0.4471488606382449">ウ</text><text x="128.4" y="15" opacity="0.13383260039657865">エ</text><text x="128.4" y="30" opacity="0.5624014751664672">オ</text><text x="128.4" y="45" opacity="0.38521763648153895">ア</text><text x="128.4" y="60" opacity="0.10125209518092818">0</text><text x="128.4" y="75" opacity="0.3446014569531425">0</text><text x="128.4" y="90" opacity="0.448048083476696">ウ</text><text x="128.4" y="105" opacity="0.4525867158351815">イ</text><text x="128.4" y="120" opacity="0.36165237994551136">エ</text><text x="148.13333333333333" y="15" opacity="0.42527152650496336">九</text><text x="148.13333333333333" y="30" opacity="0.15669423107638816">九</text><text x="148.13333333333333" y="45" opacity="0.3075530030430478">ア</text><text x="148.13333333333333" y="60" opacity="0.3727033870030142">オ</text><text x="148.13333333333333" y="75" opacity="0.4945757067265467">力</text><text x="148.13333333333333" y="90" opacity="0.14227014665125817">ウ</text><text x="148.13333333333333" y="105" opacity="0.5242637535898544">1</text><text x="148.13333333333333" y="120" opacity="0.4739677841698643">オ</text><text x="167.86666666666667" y="15" opacity="0.17801309974251991">エ</text><text x="167.86666666666667" y="30" opacity="0.14264519881810359">九</text><text x="167.86666666666667" y="45" opacity="0.45302593244532086">イ</text><text x="167.86666666666667" y="60" opacity="0.25392968967837515">七</text><text x="167.86666666666667" y="75" opacity="0.46437893800756513">七</text><text x="167.86666666666667" y="90" opacity="0.42377058204612594">イ</text><text x="167.86666666666667" y="105" opacity="0.11239232904273624">ウ</text><text x="167.86666666666667" y="120" opacity="0.4487144576398324">エ</text><text x="187.60000000000002" y="15" opacity="0.12219845127457599">イ</text><text x="187.60000000000002" y="30" opacity="0.20277625175143357">七</text><text x="187.60000000000002" y="45" opacity="0.3689248551556157">イ</text><text x="187.60000000000002" y="60" opacity="0.48027728037952666">ア</text><text x="187.60000000000002" y="75" opacity="0.4635506188539984">エ</text><text x="187.60000000000002" y="90" opacity="0.5910276437010061">力</text><text x="187.60000000000002" y="105" opacity="0.3263774397595439">0</text><text x="187.60000000000002" y="120" opacity="0.58514691632114">ア</text><text x="207.33333333333334" y="15" opacity="0.5370988648348427">七</text><text x="207.33333333333334" y="30" opacity="0.31516254108600583">エ</text><text x="207.33333333333334" y="45" opacity="0.4553002101482636">0</text><text x="207.33333333333334" y="60" opacity="0.12081910804605125">0</text><text x="207.33333333333334" y="75" opacity="0.1623675059468013">エ</text><text x="207.33333333333334" y="90" opacity="0.3407677723790352">0</text><text x="207.33333333333334" y="105" opacity="0.25002746839699586">ア</text><text x="207.33333333333334" y="120" opacity="0.14751982795661647">七</text><text x="227.06666666666666" y="15" opacity="0.5622600131664444">七</text><text x="227.06666666666666" y="30" opacity="0.3297432581435429">ウ</text><text x="227.06666666666666" y="45" opacity="0.5150696315637046">0</text><text x="227.06666666666666" y="60" opacity="0.3711155008627055">七</text><text x="227.06666666666666" y="75" opacity="0.22341061095976036">0</text><text x="227.06666666666666" y="90" opacity="0.5342217393260525">ウ</text><text x="227.06666666666666" y="105" opacity="0.3628334281047365">0</text><text x="227.06666666666666" y="120" opacity="0.3345926133132936">エ</text><text x="246.8" y="15" opacity="0.5765947619305225">1</text><text x="246.8" y="30" opacity="0.10642173366432797">イ</text><text x="246.8" y="45" opacity="0.5452727250924503">七</text><text x="246.8" y="60" opacity="0.3125290186425168">エ</text><text x="246.8" y="75" opacity="0.15276309856179718">0</text><text x="246.8" y="90" opacity="0.48517628851254246">九</text><text x="246.8" y="105" opacity="0.17948071183123573">九</text><text x="246.8" y="120" opacity="0.33413906309038033">0</text><text x="266.53333333333336" y="15" opacity="0.13438415600484946">ア</text><text x="266.53333333333336" y="30" opacity="0.37194022371082813">七</text><text x="266.53333333333336" y="45" opacity="0.546019742383163">力</text><text x="266.53333333333336" y="60" opacity="0.41334179273330995">1</text><text x="266.53333333333336" y="75" opacity="0.36269984276106715">イ</text><text x="266.53333333333336" y="90" opacity="0.3445523523444688">力</text><text x="266.53333333333336" y="105" opacity="0.30307021446296145">イ</text><text x="266.53333333333336" y="120" opacity="0.20533875377317337">ウ</text><text x="286.26666666666665" y="15" opacity="0.4786666140764084">ウ</text><text x="286.26666666666665" y="30" opacity="0.5293397936156309">イ</text><text x="286.26666666666665" y="45" opacity="0.4755983864819706">エ</text><text x="286.26666666666665" y="60" opacity="0.5943514265089407">七</text><text x="286.26666666666665" y="75" opacity="0.13377765626570806">イ</text><text x="286.26666666666665" y="90" opacity="0.3588647467832965">エ</text><text x="286.26666666666665" y="105" opacity="0.511808894530718">0</text><text x="286.26666666666665" y="120" opacity="0.1831547939634446">エ</text>
        </g>
        <rect x="5" y="5" width="286" height="331" fill="none" stroke="#00ff00" stroke-width="1" rx="8" ry="8" stroke-opacity="0.3"/>
      
      <!-- Weather Effects (behind pet) -->
      <g class="weather-layer" style="pointer-events: none;">
        
      </g>
      <!-- Evolution Effects (behind pet) -->
      <g class="evolution-layer" style="pointer-events: none;">
        
      <defs>
        <radialGradient id="evolutionAura">
          <stop offset="0%" stop-color="#FFD700" stop-opacity="0.6"/>
          <stop offset="70%" stop-color="#FFD700" stop-opacity="0.2"/>
          <stop offset="100%" stop-color="#FFD700" stop-opacity="0"/>
        </radialGradient>
        <filter id="evolutionGlow">
          <feGaussianBlur stdDeviation="3" result="coloredBlur"/>
          <feMerge>
            <feMergeNode in="coloredBlur"/>
            <feMergeNode in="SourceGraphic"/>
          </feMerge>
        </filter>
      </defs>
      <circle cx="148" cy="148" r="45" fill="url(#evolutionAura)">
        <animate attributeName="r" values="45;53;45" dur="2s" repeatCount="indefinite"/>
        <animate attributeName="opacity" values="0.7;1;0.7" dur="2s" repeatCount="indefinite"/>
      </circle>
    
      </g>
      <g transform="translate(20, 20)" opacity="1">
        <g class="pet">
            <rect x="64" y="16" width="16" height="16" fill="#2d333b" /><rect x="80" y="16" width="16" height="16" fill="#2d333b" /><rect x="96" y="16" width="16" height="16" fill="#2d333b" /><rect x="112" y="16" width="16" height="16" fill="#2d333b" /><rect x="128" y="16" width="16" height="16" fill="#2d333b" /><rect x="144" y="16" width="16" height="16" fill="#2d333b" /><rect x="160" y="16" width="16" height="16" fill="#2d333b" /><rect x="176" y="16" width="16" height="16" fill="#2d333b" /><rect x="32" y="32" width="16" height="16" fill="#2d333b" /><rect x="48" y="32" width="16" height="16" fill="#2d333b" /><rect x="64" y="32" width="16" height="16" fill="#00ADD8" /><rect x="80" y="32" width="16" height="16" fill="#00ADD8" /><rect x="96" y="32" width="16" height="16" fill="#00ADD8" /><rect x="112" y="32" width="16" height="16" fill="#00ADD8" /><rect x="128" y="32" width="16" height="16" fill="#00ADD8" /><rect x="144" y="32" width="16" height="16" fill="#00ADD8" /><rect x="160" y="32" width="16" height="16" fill="#00ADD8" /><rect x="176" y="32" width="16" height="16" fill="#00ADD8" /><rect x="192" y="32" width="16" height="16" fill="#2d333b" /><rect x="208" y="32" width="16" height="16" fill="#2d333b" /><rect x="16" y="48" width="16" height="16" fill="#2d333b" /><rect x="32" y="48" width="16" height="16" fill="#00ADD8" /><rect x="48" y="48" width="16" height="16" fill="#00ADD8" /><rect x="64" y="48" width="16" height="16" fill="#2d333b" /><rect x="80" y="48" width="16" height="16" fill="#2d333b" /><rect x="96" y="48" width="16" height="16" fill="#2d333b" /><rect x="112" y="48" width="16" height="16" fill="#2d333b" /><rect x="128" y="48" width="16" height="16" fill="#2d333b" /><rect x="144" y="48" width="16" height="16" fill="#2d333b" /><rect x="160" y="48" width="16" height="16" fill="#00ADD8" /><rect x="176" y="48" width="16" height="16" fill="#00ADD8" /><rect x="192" y="48" width="16" height="16" fill="#00ADD8" /><rect x="208" y="48" width="16" height="16" fill="#00ADD8" /><rect x="224" y="48" width="16" height="16" fill="#2d333b" /><rect x="16" y="64" width="16" height="16" fill="#2d333b" /><rect x="32" y="64" width="16" height="16" fill="#00ADD8" /><rect x="48" y="64" width="16" height="16" fill="#00ADD8" /><rect x="64" y="64" width="16" height="16" fill="#00ADD8" /><rect x="80" y="64" width="16" height="16" fill="#00ADD8" /><rect x="96" y="64" width="16" height="16" fill="#00ADD8" /><rect x="112" y="64" width="16" height="16" fill="#00ADD8" /><rect x="128" y="64" width="16" height="16" fill="#00ADD8" /><rect x="144" y="64" width="16" height="16" fill="#00ADD8" /><rect x="160" y="64" width="16" height="16" fill="#00ADD8" /><rect x="176" y="64" width="16" height="16" fill="#00ADD8" /><rect x="192" y="64" width="16" height="16" fill="#00ADD8" /><rect x="208" y="64" width="16" height="16" fill="#2d333b" /><rect x="0" y="80" width="16" height="16" fill="#2d333b" /><rect x="16" y="80" width="16" height="16" fill="#00ADD8" /><rect x="32" y="80" width="16" height="16" fill="#00ADD8" /><rect x="48" y="80" width="16" height="16" fill="#00ADD8" /><rect x="64" y="80" width="16" height="16" fill="#00ADD8" /><rect x="80" y="80" width="16" height="16" fill="#00ADD8" /><rect x="96" y="80" width="16" height="16" fill="#00ADD8" /><rect x="112" y="80" width="16" height="16" fill="#00ADD8" /><rect x="128" y="80" width="16" height="16" fill="#00ADD8" /><rect x="144" y="80" width="16" height="16" fill="#00ADD8" /><rect x="160" y="80" width="16" height="16" fill="#00ADD8" /><rect x="176" y="80" width="16" height="16" fill="#00ADD8" /><rect x="192" y="80" width="16" height="16" fill="#00ADD8" /><rect x="208" y="80" width="16" height="16" fill="#00ADD8" /><rect x="224" y="80" width="16" height="16" fill="#2d333b" /><rect x="0" y="96" width="16" height="16" fill="#2d333b" /><rect x="16" y="96" width="16" height="16" fill="#00ADD8" /><rect x="32" y="96" width="16" height="16" fill="#00ADD8" /><rect x="48" y="96" width="16" height="16" fill="#00ADD8" /><rect x="64" y="96" width="16" height="16" fill="#00ADD8" /><rect x="80" y="96" width="16" height="16" fill="#2d333b" /><rect x="96" y="96" width="16" height="16" fill="#00ADD8" /><rect x="112" y="96" width="16" height="16" fill="#00ADD8" /><rect x="128" y="96" width="16" height="16" fill="#00ADD8" /><rect x="144" y="96" width="16" height="16" fill="#00ADD8" /><rect x="160" y="96" width="16" height="16" fill="#00ADD8" /><rect x="176" y="96" width="16" height="16" fill="#00ADD8" /><rect x="192" y="96" width="16" height="16" fill="#00ADD8" /><rect x="208" y="96" width="16" height="16" fill="#00ADD8" /><rect x="224" y="96" width="16" height="16" fill="#2d333b" /><rect x="16" y="112" width="16" height="16" fill="#2d333b" /><rect x="32" y="112" width="16" height="16" fill="#00ADD8" /><rect x="48" y="112" width="16" height="16" fill="#00ADD8" /><rect x="64" y="112" width="16" height="16" fill="#00ADD8" /><rect x="80" y="112" width="16" height="16" fill="#2d333b" /><rect x="96" y="112" width="16" height="16" fill="#00ADD8" /><rect x="112" y="112" width="16" height="16" fill="#00ADD8" /><rect x="128" y="112" width="16" height="16" fill="#00ADD8" /><rect x="144" y="112" width="16" height="16" fill="#00ADD8" /><rect x="160" y="112" width="16" height="16" fill="#00ADD8" /><rect x="176" y="112" width="16" height="16" fill="#00ADD8" /><rect x="192" y="112" width="16" height="16" fill="#2d333b" /><rect x="32" y="128" width="16" height="16" fill="#2d333b" /><rect x="48" y="128" width="16" height="16" fill="#00ADD8" /><rect x="64" y="128" width="16" height="16" fill="#00ADD8" /><rect x="80" y="128" width="16" height="16" fill="#2d333b" /><rect x="96" y="128" width="16" height="16" fill="#00ADD8" /><rect x="112" y="128" width="16" height="16" fill="#00ADD8" /><rect x="128" y="128" width="16" height="16" fill="#00ADD8" /><rect x="144" y="128" width="16" height="16" fill="#00ADD8" /><rect x="160" y="128" width="16" height="16" fill="#00ADD8" /><rect x="176" y="128" width="16" height="16" fill="#2d333b" /><rect x="32" y="144" width="16" height="16" fill="#2d333b" /><rect x="48" y="144" width="16" height="16" fill="#00ADD8" /><rect x="64" y="144" width="16" height="16" fill="#2d333b" /><rect x="80" y="144" width="16" height="16" fill="#00ADD8" /><rect x="96" y="144" width="16" height="16" fill="#00ADD8" /><rect x="112" y="144" width="16" height="16" fill="#00ADD8" /><rect x="128" y="144" width="16" height="16" fill="#00ADD8" /><rect x="144" y="144" width="16" height="16" fill="#00ADD8" /><rect x="160" y="144" width="16" height="16" fill="#00ADD8" /><rect x="176" y="144" width="16" height="16" fill="#2d333b" /><rect x="48" y="160" width="16" height="16" fill="#2d333b" /><rect x="64" y="160" width="16" height="16" fill="#2d333b" /><rect x="80" y="160" width="16" height="16" fill="#00ADD8" /><rect x="96" y="160" width="16" height="16" fill="#00ADD8" /><rect x="112" y="160" width="16" height="16" fill="#00ADD8" /><rect x="128" y="160" width="16" height="16" fill="#00ADD8" /><rect x="144" y="160" width="16" height="16" fill="#00ADD8" /><rect x="160" y="160" width="16" height="16" fill="#2d333b" /><rect x="64" y="176" width="16" height="16" fill="#2d333b" /><rect x="80" y="176" width="16" height="16" fill="#2d333b" /><rect x="96" y="176" width="16" height="16" fill="#2d333b" /><rect x="112" y="176" width="16" height="16" fill="#2d333b" /><rect x="128" y="176" width="16" height="16" fill="#2d333b" /><rect x="144" y="176" width="16" height="16" fill="#2d333b" />
            
        <animateTransform 
            attributeName="transform" 
            type="scale" 
            values="1 1; 1.02 0.98; 1 1" 
            dur="2s" 
            repeatCount="indefinite" 
        />
        </g>
        <!-- Speech Bubble -->
        
    <g transform="translate(226, -25)">
      <!-- Speech bubble -->
      <rect x="0" y="0" width="167" height="24" rx="10" ry="10" 
            fill="#FFFFFF" stroke="#2d333b" stroke-width="1.5"/>
      <!-- Bubble tail -->
      <polygon points="15,24 20,32 25,24" 
               fill="#FFFFFF" stroke="#2d333b" stroke-width="1.5"/>
      <line x1="16" y1="24" x2="24" y2="24" stroke="#FFFFFF" stroke-width="2"/>
      <!-- Text -->
      <text x="83.5" y="16" 
            font-family="'Segoe UI', Arial, sans-serif" font-size="10" 
            fill="#2d333b" text-anchor="middle">404: Energy not found</text>
    </g>
  
        <!-- Seasonal Accessory (z-index: above pet) -->
        
      </g>
      
      <!-- Level & Mood Text -->
      <text x="20" y="299" font-family="monospace" font-size="11" fill="#00ff00">
        ⭐ Lv.34 Adult
      </text>
      <text x="276" y="299" text-anchor="end" font-family="monospace" font-size="11" fill="#00ff00">
        💤 SLEEPING 🔥11
      </text>
      
      <!-- XP Progress Bar -->
      <rect x="20" y="306" width="256" height="8" rx="4" fill="#e0e0e0" stroke="#0288d1" stroke-width="1"/>
      <rect x="20" y="306" width="135.68" height="8" rx="4" fill="#4fc3f7">
        <animate attributeName="width" from="0" to="135.68" dur="0.5s" fill="freeze"/>
      </rect>
      
      <!-- XP Text -->
      <text x="50%" y="329" text-anchor="middle" font-family="monospace" font-size="9" fill="#00ff00">
        XP: 11250 / 11560 (53%)
      </text>
    
      
      <!-- Achievement Badges -->
      <g transform="translate(15, 311)">
    <g class="achievements">
      
      <g transform="translate(5, 0)">
        <title>Spark: 3 day streak</title>
        <circle cx="10" cy="10" r="10" fill="rgba(255,255,255,0.9)" stroke="#ddd" stroke-width="1"/>
        <text x="10" y="14" text-anchor="middle" font-size="11">⚡</text>
      </g>
    
      <g transform="translate(30, 0)">
        <title>Weekly Warrior: 7 day streak</title>
        <circle cx="10" cy="10" r="10" fill="rgba(255,255,255,0.9)" stroke="#ddd" stroke-width="1"/>
        <text x="10" y="14" text-anchor="middle" font-size="11">🔥</text>
      </g>
    
      <g transform="translate(55, 0)">
        <title>Rising Star: Level 5</title>
        <circle cx="10" cy="10" r="10" fill="rgba(255,255,255,0.9)" stroke="#ddd" stroke-width="1"/>
        <text x="10" y="14" text-anchor="middle" font-size="11">🌟</text>
      </g>
    
      <g transform="translate(80, 0)">
        <title>Shining: Level 10</title>
        <circle cx="10" cy="10" r="10" fill="rgba(255,255,255,0.9)" stroke="#ddd" stroke-width="1"/>
        <text x="10" y="14" text-anchor="middle" font-size="11">✨</text>
      </g>
    
      <g transform="translate(105, 0)">
        <title>Rainbow: Level 25</title>
        <circle cx="10" cy="10" r="10" fill="rgba(255,255,255,0.9)" stroke="#ddd" stroke-width="1"/>
        <text x="10" y="14" text-anchor="middle" font-size="11">🌈</text>
      </g>
    
      <g transform="translate(130, 0)">
        <title>Weekend Warrior: Weekend commit</title>
        <circle cx="10" cy="10" r="10" fill="rgba(255,255,255,0.9)" stroke="#ddd" stroke-width="1"/>
        <text x="10" y="14" text-anchor="middle" font-size="11">🏖️</text>
      </g>
    
      
    </g>
  </g>
    </svg>