<svg xmlns="http://www.w3.org/2000/svg" width="296" height="341" viewBox="0 0 296 341">
      <style>
        .pet { transform-origin: center; }
      </style>
      <!-- Theme Background -->
      
        <rect x="0" y="0" width="296" height="341" fill="#0d0d0d" rx="12" ry="12"/>
        <g font-family="monospace" font-size="10" fill="#00ff00" opacity="0.3">
          <text x="10" y="15" opacity="0.10043492524803346">エ</text><text x="10" y="30" opacity="0.37155632449736686">1</text><text x="10" y="45" opacity="0.47673451801588684">イ</text><text x="10" y="60" opacity="0.4677911268539058">七</text><text x="10" y="75" opacity="0.20285993469207433">九</text><text x="10" y="90" opacity="0.3614105500189344">七</text><text x="10" y="105" opacity="0.4548867007533195">1</text><text x="10" y="120" opacity="0.15440120144334493">ア</text><text x="29.733333333333334" y="15" opacity="0.2163336276744993">七</text><text x="29.733333333333334" y="30" opacity="0.10367062723544165">1</text><text x="29.733333333333334" y="45" opacity="0.3350218532091549">イ</text><text x="29.733333333333334" y="60" opacity="0.31741076127520085">0</text><text x="29.733333333333334" y="75" opacity="0.5532562200847146">0</text><text x="29.733333333333334" y="90" opacity="0.23560394253774178">1</text><text x="29.733333333333334" y="105" opacity="0.12892478708235092">イ</text><text x="29.733333333333334" y="120" opacity="0.4244366627725087">ウ</text><text x="49.46666666666667" y="15" opacity="0.506262040554367">力</text><text x="49.46666666666667" y="30" opacity="0.2529655662548539">オ</text><text x="49.46666666666667" y="45" opacity="0.20232489310016025">イ</text><text x="49.46666666666667" y="60" opacity="0.5498910680339064">七</text><text x="49.46666666666667" y="75" opacity="0.5992477792314729">九</text><text x="49.46666666666667" y="90" opacity="0.5959579689315183">力</text><text x="49.46666666666667" y="105" opacity="0.2729595699374645">オ</text><text x="49.46666666666667" y="120" opacity="0.19662322952969338">イ</text><text x="69.2" y="15" opacity="0.2752578166453338">ア</text><text x="69.2" y="30" opacity="0.12106446491850367">オ</text><text x="69.2" y="45" opacity="0.5574458187358836">七</text><text x="69.2" y="60" opacity="0.15434395343531918">イ</text><text x="69.2" y="75" opacity="0.4026988994744618">力</text><text x="69.2" y="90" opacity="0.3133568669570903">ウ</text><text x="69.2" y="105" opacity="0.22206841843517747">イ</text><text x="69.2" y="120" opacity="0.14361178227549423">ア</text><text x="88.93333333333334" y="15" opacity="0.32140263612022646">オ</text><text x="88.93333333333334" y="30" opacity="0.5350633733023621">七</text><text x="88.93333333333334" y="45" opacity="0.46366817389802606">1</text><text x="88.93333333333334" y="60" opacity="0.4800906142858369">ア</text><text x="88.93333333333334" y="75" opacity="0.5672684122173748">エ</text><text x="88.93333333333334" y="90" opacity="0.4246527776675857">イ</text><text x="88.93333333333334" y="105" opacity="0.19604452783577755">オ</text><text x="88.93333333333334" y="120" opacity="0.12954916087167193">オ</text><text x="108.66666666666667" y="15" opacity="0.1578469412665783">七</text><text x="108.66666666666667" y="30" opacity="0.518634300621191">オ</text><text x="108.66666666666667" y="45" opacity="0.3413563748069859">0</text><text x="108.66666666666667" y="60" opacity="0.2689635011087099">1</text><text x="108.66666666666667" y="75" opacity="0.1937947202609457">1</text><text x="108.66666666666667" y="90" opacity="0.18167357248094865">力</text><text x="108.66666666666667" y="105" opacity="0.529230706844153">ウ</text><text x="108.66666666666667" y="120" opacity="0.4685537635333711">エ</text><text x="128.4" y="15" opacity="0.1052295475847839">ア</text><text x="128.4" y="30" opacity="0.1269888803682109">1</text><text x="128.4" y="45" opacity="0.43769789650780355">ア</text><text x="128.4" y="60" opacity="0.1299853629542798">力</text><text x="128.4" y="75" opacity="0.2279605944487553">九</text><text x="128.4" y="90" opacity="0.2336145993622443">イ</text><text x="128.4" y="105" opacity="0.1242567130201743">1</text><text x="128.4" y="120" opacity="0.17569265418292504">1</text><text x="148.13333333333333" y="15" opacity="0.12895540215554438">ア</text><text x="148.13333333333333" y="30" opacity="0.2090344795361844">力</text><text x="148.13333333333333" y="45" opacity="0.16771848496524203">七</text><text x="148.13333333333333" y="60" opacity="0.2633971113376298">エ</text><text x="148.13333333333333" y="75" opacity="0.5035317329180754">0</text><text x="148.13333333333333" y="90" opacity="0.3869383273990403">九</text><text x="148.13333333333333" y="105" opacity="0.251204478815918">九</text><text x="148.13333333333333" y="120" opacity="0.43604842724843795">ウ</text><text x="167.86666666666667" y="15" opacity="0.537069992163321">力</text><text x="167.86666666666667" y="30" opacity="0.2539759835201383">ア</text><text x="167.86666666666667" y="45" opacity="0.1430365460773421">ア</text><text x="167.86666666666667" y="60" opacity="0.11317805947453655">ア</text><text x="167.86666666666667" y="75" opacity="0.4080627710681818">イ</text><text x="167.86666666666667" y="90" opacity="0.45503275900564133">オ</text><text x="167.86666666666667" y="105" opacity="0.23749374523927694">1</text><text x="167.86666666666667" y="120" opacity="0.47117772602554564">0</text><text x="187.60000000000002" y="15" opacity="0.4009738436307727">七</text><text x="187.60000000000002" y="30" opacity="0.1557648134622647">ウ</text><text x="187.60000000000002" y="45" opacity="0.3882029987606629">オ</text><text x="187.60000000000002" y="60" opacity="0.5048973913120192">七</text><text x="187.60000000000002" y="75" opacity="0.3902550532618635">ア</text><text x="187.60000000000002" y="90" opacity="0.32721432851512233">ウ</text><text x="187.60000000000002" y="105" opacity="0.4860480648184109">オ</text><text x="187.60000000000002" y="120" opacity="0.5254597727965322">0</text><text x="207.33333333333334" y="15" opacity="0.5035943758233615">イ</text><text x="207.33333333333334" y="30" opacity="0.23928406946041073">九</text><text x="207.33333333333334" y="45" opacity="0.5271731029034974">ア</text><text x="207.33333333333334" y="60" opacity="0.48461842135279853">イ</text><text x="207.33333333333334" y="75" opacity="0.5615169442515382">イ</text><text x="207.33333333333334" y="90" opacity="0.3817799566285701">エ</text><text x="207.33333333333334" y="105" opacity="0.34206551619993664">七</text><text x="207.33333333333334" y="120" opacity="0.5858420126114633">0</text><text x="227.06666666666666" y="15" opacity="0.15308323973225949">エ</text><text x="227.06666666666666" y="30" opacity="0.3601851296812647">オ</text><text x="227.06666666666666" y="45" opacity="0.265096241721125">七</text><text x="227.06666666666666" y="60" opacity="0.15644801655798427">ウ</text><text x="227.06666666666666" y="75" opacity="0.4026467560395838">1</text><text x="227.06666666666666" y="90" opacity="0.3728455141896685">オ</text><text x="227.06666666666666" y="105" opacity="0.5298266150636923">オ</text><text x="227.06666666666666" y="120" opacity="0.5516896330327924">イ</text><text x="246.8" y="15" opacity="0.32446854708120854">九</text><text x="246.8" y="30" opacity="0.34381380671519013">七</text><text x="246.8" y="45" opacity="0.5721910614014752">ウ</text><text x="246.8" y="60" opacity="0.46167461954180067">1</text><text x="246.8" y="75" opacity="0.15931328113961898">1</text><text x="246.8" y="90" opacity="0.12892417009130977">エ</text><text x="246.8" y="105" opacity="0.25487699741028513">1</text><text x="246.8" y="120" opacity="0.3470463522408115">イ</text><text x="266.53333333333336" y="15" opacity="0.19389925603365502">イ</text><text x="266.53333333333336" y="30" opacity="0.4757131475179118">ア</text><text x="266.53333333333336" y="45" opacity="0.4329460728151494">1</text><text x="266.53333333333336" y="60" opacity="0.5920198588354251">九</text><text x="266.53333333333336" y="75" opacity="0.5527786364006992">イ</text><text x="266.53333333333336" y="90" opacity="0.41998223683034763">0</text><text x="266.53333333333336" y="105" opacity="0.2700689771143643">ア</text><text x="266.53333333333336" y="120" opacity="0.44345810382012196">力</text><text x="286.26666666666665" y="15" opacity="0.2935762775056563">イ</text><text x="286.26666666666665" y="30" opacity="0.3666035085003807">七</text><text x="286.26666666666665" y="45" opacity="0.28478399631481466">イ</text><text x="286.26666666666665" y="60" opacity="0.49329259414670146">ウ</text><text x="286.26666666666665" y="75" opacity="0.5790282415692025">オ</text><text x="286.26666666666665" y="90" opacity="0.2566377884008567">ア</text><text x="286.26666666666665" y="105" opacity="0.288794258280757">0</text><text x="286.26666666666665" y="120" opacity="0.3383364506748403">1</text>
        </g>
        <rect x="5" y="5" width="286" height="331" fill="none" stroke="#00ff00" stroke-width="1" rx="8" ry="8" stroke-opacity="0.3"/>
      
      <!-- Weather Effects (behind pet) -->
      <g class="weather-layer" style="pointer-events: none;">
        
      </g>
      <!-- Evolution Effects (behind pet) -->
      <g class="evolution-layer" style="pointer-events: none;">
        
      <defs>
        <radialGradient id="evolutionAura">
          <stop offset="0%" stop-color="#FFD700" stop-opacity="0.6"/>
          <stop offset="70%" stop-color="#FFD700" stop-opacity="0.2"/>
          <stop offset="100%" stop-color="#FFD700" stop-opacity="0"/>
        </radialGradient>
        <filter id="evolutionGlow">
          <feGaussianBlur stdDeviation="3" result="coloredBlur"/>
          <feMerge>
            <feMergeNode in="coloredBlur"/>
            <feMergeNode in="SourceGraphic"/>
          </feMerge>
        </filter>
      </defs>
      <circle cx="148" cy="148" r="45" fill="url(#evolutionAura)">
        <animate attributeName="r" values="45;53;45" dur="2s" repeatCount="indefinite"/>
        <animate attributeName="opacity" values="0.7;1;0.7" dur="2s" repeatCount="indefinite"/>
      </circle>
    
      </g>
      <g transform="translate(20, 20)" opacity="1">
        <g class="pet">
            <rect x="64" y="16" width="16" height="16" fill="#2d333b" /><rect x="80" y="16" width="16" height="16" fill="#2d333b" /><rect x="96" y="16" width="16" height="16" fill="#2d333b" /><rect x="112" y="16" width="16" height="16" fill="#2d333b" /><rect x="128" y="16" width="16" height="16" fill="#2d333b" /><rect x="144" y="16" width="16" height="16" fill="#2d333b" /><rect x="160" y="16" width="16" height="16" fill="#2d333b" /><rect x="176" y="16" width="16" height="16" fill="#2d333b" /><rect x="32" y="32" width="16" height="16" fill="#2d333b" /><rect x="48" y="32" width="16" height="16" fill="#2d333b" /><rect x="64" y="32" width="16" height="16" fill="#00ADD8" /><rect x="80" y="32" width="16" height="16" fill="#00ADD8" /><rect x="96" y="32" width="16" height="16" fill="#00ADD8" /><rect x="112" y="32" width="16" height="16" fill="#00ADD8" /><rect x="128" y="32" width="16" height="16" fill="#00ADD8" /><rect x="144" y="32" width="16" height="16" fill="#00ADD8" /><rect x="160" y="32" width="16" height="16" fill="#00ADD8" /><rect x="176" y="32" width="16" height="16" fill="#00ADD8" /><rect x="192" y="32" width="16" height="16" fill="#2d333b" /><rect x="208" y="32" width="16" height="16" fill="#2d333b" /><rect x="16" y="48" width="16" height="16" fill="#2d333b" /><rect x="32" y="48" width="16" height="16" fill="#00ADD8" /><rect x="48" y="48" width="16" height="16" fill="#00ADD8" /><rect x="64" y="48" width="16" height="16" fill="#2d333b" /><rect x="80" y="48" width="16" height="16" fill="#2d333b" /><rect x="96" y="48" width="16" height="16" fill="#2d333b" /><rect x="112" y="48" width="16" height="16" fill="#2d333b" /><rect x="128" y="48" width="16" height="16" fill="#2d333b" /><rect x="144" y="48" width="16" height="16" fill="#2d333b" /><rect x="160" y="48" width="16" height="16" fill="#00ADD8" /><rect x="176" y="48" width="16" height="16" fill="#00ADD8" /><rect x="192" y="48" width="16" height="16" fill="#00ADD8" /><rect x="208" y="48" width="16" height="16" fill="#00ADD8" /><rect x="224" y="48" width="16" height="16" fill="#2d333b" /><rect x="16" y="64" width="16" height="16" fill="#2d333b" /><rect x="32" y="64" width="16" height="16" fill="#00ADD8" /><rect x="48" y="64" width="16" height="16" fill="#00ADD8" /><rect x="64" y="64" width="16" height="16" fill="#00ADD8" /><rect x="80" y="64" width="16" height="16" fill="#00ADD8" /><rect x="96" y="64" width="16" height="16" fill="#00ADD8" /><rect x="112" y="64" width="16" height="16" fill="#00ADD8" /><rect x="128" y="64" width="16" height="16" fill="#00ADD8" /><rect x="144" y="64" width="16" height="16" fill="#00ADD8" /><rect x="160" y="64" width="16" height="16" fill="#00ADD8" /><rect x="176" y="64" width="16" height="16" fill="#00ADD8" /><rect x="192" y="64" width="16" height="16" fill="#00ADD8" /><rect x="208" y="64" width="16" height="16" fill="#2d333b" /><rect x="0" y="80" width="16" height="16" fill="#2d333b" /><rect x="16" y="80" width="16" height="16" fill="#00ADD8" /><rect x="32" y="80" width="16" height="16" fill="#00ADD8" /><rect x="48" y="80" width="16" height="16" fill="#00ADD8" /><rect x="64" y="80" width="16" height="16" fill="#00ADD8" /><rect x="80" y="80" width="16" height="16" fill="#00ADD8" /><rect x="96" y="80" width="16" height="16" fill="#00ADD8" /><rect x="112" y="80" width="16" height="16" fill="#00ADD8" /><rect x="128" y="80" width="16" height="16" fill="#00ADD8" /><rect x="144" y="80" width="16" height="16" fill="#00ADD8" /><rect x="160" y="80" width="16" height="16" fill="#00ADD8" /><rect x="176" y="80" width="16" height="16" fill="#00ADD8" /><rect x="192" y="80" width="16" height="16" fill="#00ADD8" /><rect x="208" y="80" width="16" height="16" fill="#00ADD8" /><rect x="224" y="80" width="16" height="16" fill="#2d333b" /><rect x="0" y="96" width="16" height="16" fill="#2d333b" /><rect x="16" y="96" width="16" height="16" fill="#00ADD8" /><rect x="32" y="96" width="16" height="16" fill="#00ADD8" /><rect x="48" y="96" width="16" height="16" fill="#00ADD8" /><rect x="64" y="96" width="16" height="16" fill="#00ADD8" /><rect x="80" y="96" width="16" height="16" fill="#2d333b" /><rect x="96" y="96" width="16" height="16" fill="#00ADD8" /><rect x="112" y="96" width="16" height="16" fill="#00ADD8" /><rect x="128" y="96" width="16" height="16" fill="#00ADD8" /><rect x="144" y="96" width="16" height="16" fill="#00ADD8" /><rect x="160" y="96" width="16" height="16" fill="#00ADD8" /><rect x="176" y="96" width="16" height="16" fill="#00ADD8" /><rect x="192" y="96" width="16" height="16" fill="#00ADD8" /><rect x="208" y="96" width="16" height="16" fill="#00ADD8" /><rect x="224" y="96" width="16" height="16" fill="#2d333b" /><rect x="16" y="112" width="16" height="16" fill="#2d333b" /><rect x="32" y="112" width="16" height="16" fill="#00ADD8" /><rect x="48" y="112" width="16" height="16" fill="#00ADD8" /><rect x="64" y="112" width="16" height="16" fill="#00ADD8" /><rect x="80" y="112" width="16" height="16" fill="#2d333b" /><rect x="96" y="112" width="16" height="16" fill="#00ADD8" /><rect x="112" y="112" width="16" height="16" fill="#00ADD8" /><rect x="128" y="112" width="16" height="16" fill="#00ADD8" /><rect x="144" y="112" width="16" height="16" fill="#00ADD8" /><rect x="160" y="112" width="16" height="16" fill="#00ADD8" /><rect x="176" y="112" width="16" height="16" fill="#00ADD8" /><rect x="192" y="112" width="16" height="16" fill="#2d333b" /><rect x="32" y="128" width="16" height="16" fill="#2d333b" /><rect x="48" y="128" width="16" height="16" fill="#00ADD8" /><rect x="64" y="128" width="16" height="16" fill="#00ADD8" /><rect x="80" y="128" width="16" height="16" fill="#2d333b" /><rect x="96" y="128" width="16" height="16" fill="#00ADD8" /><rect x="112" y="128" width="16" height="16" fill="#00ADD8" /><rect x="128" y="128" width="16" height="16" fill="#00ADD8" /><rect x="144" y="128" width="16" height="16" fill="#00ADD8" /><rect x="160" y="128" width="16" height="16" fill="#00ADD8" /><rect x="176" y="128" width="16" height="16" fill="#2d333b" /><rect x="32" y="144" width="16" height="16" fill="#2d333b" /><rect x="48" y="144" width="16" height="16" fill="#00ADD8" /><rect x="64" y="144" width="16" height="16" fill="#2d333b" /><rect x="80" y="144" width="16" height="16" fill="#00ADD8" /><rect x="96" y="144" width="16" height="16" fill="#00ADD8" /><rect x="112" y="144" width="16" height="16" fill="#00ADD8" /><rect x="128" y="144" width="16" height="16" fill="#00ADD8" /><rect x="144" y="144" width="16" height="16" fill="#00ADD8" /><rect x="160" y="144" width="16" height="16" fill="#00ADD8" /><rect x="176" y="144" width="16" height="16" fill="#2d333b" /><rect x="48" y="160" width="16" height="16" fill="#2d333b" /><rect x="64" y="160" width="16" height="16" fill="#2d333b" /><rect x="80" y="160" width="16" height="16" fill="#00ADD8" /><rect x="96" y="160" width="16" height="16" fill="#00ADD8" /><rect x="112" y="160" width="16" height="16" fill="#00ADD8" /><rect x="128" y="160" width="16" height="16" fill="#00ADD8" /><rect x="144" y="160" width="16" height="16" fill="#00ADD8" /><rect x="160" y="160" width="16" height="16" fill="#2d333b" /><rect x="64" y="176" width="16" height="16" fill="#2d333b" /><rect x="80" y="176" width="16" height="16" fill="#2d333b" /><rect x="96" y="176" width="16" height="16" fill="#2d333b" /><rect x="112" y="176" width="16" height="16" fill="#2d333b" /><rect x="128" y="176" width="16" height="16" fill="#2d333b" /><rect x="144" y="176" width="16" height="16" fill="#2d333b" />
            
        <animateTransform 
            attributeName="transform" 
            type="scale" 
            values="1 1; 1.02 0.98; 1 1" 
            dur="2s" 
            repeatCount="indefinite" 
        />
        </g>
        <!-- Speech Bubble -->
        
    <g transform="translate(226, -25)">
      <!-- Speech bubble -->
      <rect x="0" y="0" width="69" height="24" rx="10" ry="10" 
            fill="#FFFFFF" stroke="#2d333b" stroke-width="1.5"/>
      <!-- Bubble tail -->
      <polygon points="15,24 20,32 25,24" 
               fill="#FFFFFF" stroke="#2d333b" stroke-width="1.5"/>
      <line x1="16" y1="24" x2="24" y2="24" stroke="#FFFFFF" stroke-width="2"/>
      <!-- Text -->
      <text x="34.5" y="16" 
            font-family="'Segoe UI', Arial, sans-serif" font-size="10" 
            fill="#2d333b" text-anchor="middle">*snore*</text>
    </g>
  
        <!-- Seasonal Accessory (z-index: above pet) -->
        <!-- Seasonal: VALENTINE -->

    <g transform="translate(128, -19)">
      <g>
        <!-- Pixel Heart -->
        <rect x="4" y="0" width="8" height="4" fill="#FF6B9D"/>
        <rect x="16" y="0" width="8" height="4" fill="#FF6B9D"/>
        <rect x="0" y="4" width="28" height="4" fill="#FF6B9D"/>
        <rect x="0" y="8" width="28" height="4" fill="#FF8FAB"/>
        <rect x="4" y="12" width="20" height="4" fill="#FF8FAB"/>
        <rect x="8" y="16" width="12" height="4" fill="#FFB3C6"/>
        <rect x="12" y="20" width="4" height="4" fill="#FFB3C6"/>
        <!-- Sparkle -->
        <circle cx="8" cy="6" r="2" fill="#FFFFFF" opacity="0.7"/>
        <!-- Pulse animation -->
        <animateTransform 
          attributeName="transform" 
          type="scale" 
          values="1;1.1;1" 
          dur="1s" 
          repeatCount="indefinite"
          additive="sum"
        />
      </g>
    </g>
  
      </g>
      
      <!-- Level & Mood Text -->
      <text x="20" y="299" font-family="monospace" font-size="11" fill="#00ff00">
        ⭐ Lv.36 Adult
      </text>
      <text x="276" y="299" text-anchor="end" font-family="monospace" font-size="11" fill="#00ff00">
        💤 SLEEPING 🔥4
      </text>
      
      <!-- XP Progress Bar -->
      <rect x="20" y="306" width="256" height="8" rx="4" fill="#e0e0e0" stroke="#0288d1" stroke-width="1"/>
      <rect x="20" y="306" width="222.72" height="8" rx="4" fill="#4fc3f7">
        <animate attributeName="width" from="0" to="222.72" dur="0.5s" fill="freeze"/>
      </rect>
      
      <!-- XP Text -->
      <text x="50%" y="329" text-anchor="middle" font-family="monospace" font-size="9" fill="#00ff00">
        XP: 12870 / 12960 (87%)
      </text>
    
      
      <!-- Achievement Badges -->
      <g transform="translate(15, 311)">
    <g class="achievements">
      
      <g transform="translate(5, 0)">
        <title>Spark: 3 day streak</title>
        <circle cx="10" cy="10" r="10" fill="rgba(255,255,255,0.9)" stroke="#ddd" stroke-width="1"/>
        <text x="10" y="14" text-anchor="middle" font-size="11">⚡</text>
      </g>
    
      <g transform="translate(30, 0)">
        <title>Rising Star: Level 5</title>
        <circle cx="10" cy="10" r="10" fill="rgba(255,255,255,0.9)" stroke="#ddd" stroke-width="1"/>
        <text x="10" y="14" text-anchor="middle" font-size="11">🌟</text>
      </g>
    
      <g transform="translate(55, 0)">
        <title>Shining: Level 10</title>
        <circle cx="10" cy="10" r="10" fill="rgba(255,255,255,0.9)" stroke="#ddd" stroke-width="1"/>
        <text x="10" y="14" text-anchor="middle" font-size="11">✨</text>
      </g>
    
      <g transform="translate(80, 0)">
        <title>Rainbow: Level 25</title>
        <circle cx="10" cy="10" r="10" fill="rgba(255,255,255,0.9)" stroke="#ddd" stroke-width="1"/>
        <text x="10" y="14" text-anchor="middle" font-size="11">🌈</text>
      </g>
    
      
    </g>
  </g>
    </svg>