<svg xmlns="http://www.w3.org/2000/svg" width="296" height="341" viewBox="0 0 296 341">
      <style>
        .pet { transform-origin: center; }
      </style>
      <!-- Theme Background -->
      
        <rect x="0" y="0" width="296" height="341" fill="#0d0d0d" rx="12" ry="12"/>
        <g font-family="monospace" font-size="10" fill="#00ff00" opacity="0.3">
          <text x="10" y="15" opacity="0.4405408193193898">力</text><text x="10" y="30" opacity="0.19279544625644676">力</text><text x="10" y="45" opacity="0.32226903485499947">七</text><text x="10" y="60" opacity="0.1492216730708256">七</text><text x="10" y="75" opacity="0.4216716282958537">1</text><text x="10" y="90" opacity="0.2532641026576462">イ</text><text x="10" y="105" opacity="0.20281861406235605">ウ</text><text x="10" y="120" opacity="0.4752498360991848">0</text><text x="29.733333333333334" y="15" opacity="0.49360690129896256">ウ</text><text x="29.733333333333334" y="30" opacity="0.5254324719422495">七</text><text x="29.733333333333334" y="45" opacity="0.47049875808238084">エ</text><text x="29.733333333333334" y="60" opacity="0.3135658479015586">イ</text><text x="29.733333333333334" y="75" opacity="0.3356268318729114">ア</text><text x="29.733333333333334" y="90" opacity="0.554164245218371">エ</text><text x="29.733333333333334" y="105" opacity="0.4925873438368844">1</text><text x="29.733333333333334" y="120" opacity="0.24278862714367946">ア</text><text x="49.46666666666667" y="15" opacity="0.18974076381163132">九</text><text x="49.46666666666667" y="30" opacity="0.43667942615654953">0</text><text x="49.46666666666667" y="45" opacity="0.5813817365515702">1</text><text x="49.46666666666667" y="60" opacity="0.3097855039132059">イ</text><text x="49.46666666666667" y="75" opacity="0.3367095513153483">エ</text><text x="49.46666666666667" y="90" opacity="0.17980655235937218">0</text><text x="49.46666666666667" y="105" opacity="0.1706880155752837">エ</text><text x="49.46666666666667" y="120" opacity="0.27412584612032986">力</text><text x="69.2" y="15" opacity="0.4095553527587248">力</text><text x="69.2" y="30" opacity="0.2891779471039462">力</text><text x="69.2" y="45" opacity="0.5838290427177452">九</text><text x="69.2" y="60" opacity="0.5602208100066138">イ</text><text x="69.2" y="75" opacity="0.1057051018998291">力</text><text x="69.2" y="90" opacity="0.32945873383114255">七</text><text x="69.2" y="105" opacity="0.13126238267327398">ア</text><text x="69.2" y="120" opacity="0.3933284481972329">1</text><text x="88.93333333333334" y="15" opacity="0.2839964991899854">七</text><text x="88.93333333333334" y="30" opacity="0.28830078418241945">1</text><text x="88.93333333333334" y="45" opacity="0.15715396022108644">ウ</text><text x="88.93333333333334" y="60" opacity="0.2502852543486107">ア</text><text x="88.93333333333334" y="75" opacity="0.320810262273145">イ</text><text x="88.93333333333334" y="90" opacity="0.4378214553167653">0</text><text x="88.93333333333334" y="105" opacity="0.16855300375150675">力</text><text x="88.93333333333334" y="120" opacity="0.39452246790313794">ア</text><text x="108.66666666666667" y="15" opacity="0.2758779601796735">オ</text><text x="108.66666666666667" y="30" opacity="0.4917122564162376">0</text><text x="108.66666666666667" y="45" opacity="0.4969348128776204">ア</text><text x="108.66666666666667" y="60" opacity="0.23039724784636964">ア</text><text x="108.66666666666667" y="75" opacity="0.4598875832777124">エ</text><text x="108.66666666666667" y="90" opacity="0.5268555019477323">九</text><text x="108.66666666666667" y="105" opacity="0.573434438342027">力</text><text x="108.66666666666667" y="120" opacity="0.45164561869329345">オ</text><text x="128.4" y="15" opacity="0.5808515853495299">ウ</text><text x="128.4" y="30" opacity="0.594331985348974">九</text><text x="128.4" y="45" opacity="0.29912221452208354">エ</text><text x="128.4" y="60" opacity="0.3847127586145721">1</text><text x="128.4" y="75" opacity="0.10002466136948698">オ</text><text x="128.4" y="90" opacity="0.15396977099583578">ア</text><text x="128.4" y="105" opacity="0.13553457929565296">九</text><text x="128.4" y="120" opacity="0.47764061261002044">イ</text><text x="148.13333333333333" y="15" opacity="0.2641129108035509">ウ</text><text x="148.13333333333333" y="30" opacity="0.507645935733981">0</text><text x="148.13333333333333" y="45" opacity="0.5439758806654292">1</text><text x="148.13333333333333" y="60" opacity="0.45516424736594996">ウ</text><text x="148.13333333333333" y="75" opacity="0.1120710007401893">力</text><text x="148.13333333333333" y="90" opacity="0.11412610797612902">オ</text><text x="148.13333333333333" y="105" opacity="0.47724872576057664">ウ</text><text x="148.13333333333333" y="120" opacity="0.5532421424483858">オ</text><text x="167.86666666666667" y="15" opacity="0.10644789914006983">ア</text><text x="167.86666666666667" y="30" opacity="0.32031702204642554">九</text><text x="167.86666666666667" y="45" opacity="0.32996413584716777">イ</text><text x="167.86666666666667" y="60" opacity="0.3774756920952209">0</text><text x="167.86666666666667" y="75" opacity="0.43212603169956443">九</text><text x="167.86666666666667" y="90" opacity="0.5929800447300656">力</text><text x="167.86666666666667" y="105" opacity="0.2848550502799171">エ</text><text x="167.86666666666667" y="120" opacity="0.2505986161588414">エ</text><text x="187.60000000000002" y="15" opacity="0.551629409263088">イ</text><text x="187.60000000000002" y="30" opacity="0.3350583670377165">ウ</text><text x="187.60000000000002" y="45" opacity="0.4303502598038502">オ</text><text x="187.60000000000002" y="60" opacity="0.26566398083487364">0</text><text x="187.60000000000002" y="75" opacity="0.39851083731007386">力</text><text x="187.60000000000002" y="90" opacity="0.11282275641721243">0</text><text x="187.60000000000002" y="105" opacity="0.25316029067480184">1</text><text x="187.60000000000002" y="120" opacity="0.4490415715895374">九</text><text x="207.33333333333334" y="15" opacity="0.2578804918853067">ア</text><text x="207.33333333333334" y="30" opacity="0.48627187167665054">力</text><text x="207.33333333333334" y="45" opacity="0.5395342424483893">イ</text><text x="207.33333333333334" y="60" opacity="0.4977619646215259">1</text><text x="207.33333333333334" y="75" opacity="0.2441815886856125">ア</text><text x="207.33333333333334" y="90" opacity="0.33474481506391307">ウ</text><text x="207.33333333333334" y="105" opacity="0.10033980644151178">イ</text><text x="207.33333333333334" y="120" opacity="0.3896096074923999">1</text><text x="227.06666666666666" y="15" opacity="0.1257013752050076">1</text><text x="227.06666666666666" y="30" opacity="0.5003422809808542">0</text><text x="227.06666666666666" y="45" opacity="0.25279677989711713">0</text><text x="227.06666666666666" y="60" opacity="0.3588838225600578">オ</text><text x="227.06666666666666" y="75" opacity="0.2896633068433142">九</text><text x="227.06666666666666" y="90" opacity="0.17003591881021332">七</text><text x="227.06666666666666" y="105" opacity="0.5465077584893934">力</text><text x="227.06666666666666" y="120" opacity="0.18659142316421687">ウ</text><text x="246.8" y="15" opacity="0.1391778072124357">力</text><text x="246.8" y="30" opacity="0.397181862768224">0</text><text x="246.8" y="45" opacity="0.3113754128882984">1</text><text x="246.8" y="60" opacity="0.4446635562612513">ウ</text><text x="246.8" y="75" opacity="0.12770905697124726">ア</text><text x="246.8" y="90" opacity="0.5357733065469819">九</text><text x="246.8" y="105" opacity="0.2739618466098752">オ</text><text x="246.8" y="120" opacity="0.13156315241251196">ウ</text><text x="266.53333333333336" y="15" opacity="0.23900584781903092">イ</text><text x="266.53333333333336" y="30" opacity="0.41686541473882865">力</text><text x="266.53333333333336" y="45" opacity="0.24642938125415073">ウ</text><text x="266.53333333333336" y="60" opacity="0.2634003217848261">0</text><text x="266.53333333333336" y="75" opacity="0.4814578992609476">力</text><text x="266.53333333333336" y="90" opacity="0.4846708996845508">イ</text><text x="266.53333333333336" y="105" opacity="0.5815971483608895">九</text><text x="266.53333333333336" y="120" opacity="0.3006420137997169">力</text><text x="286.26666666666665" y="15" opacity="0.43447039289077416">九</text><text x="286.26666666666665" y="30" opacity="0.4058695068828947">0</text><text x="286.26666666666665" y="45" opacity="0.15216315480094714">ア</text><text x="286.26666666666665" y="60" opacity="0.2960644847978475">力</text><text x="286.26666666666665" y="75" opacity="0.5618398076005259">オ</text><text x="286.26666666666665" y="90" opacity="0.4091571782986838">エ</text><text x="286.26666666666665" y="105" opacity="0.37465555188203403">1</text><text x="286.26666666666665" y="120" opacity="0.5459586912591535">エ</text>
        </g>
        <rect x="5" y="5" width="286" height="331" fill="none" stroke="#00ff00" stroke-width="1" rx="8" ry="8" stroke-opacity="0.3"/>
      
      <!-- Weather Effects (behind pet) -->
      <g class="weather-layer" style="pointer-events: none;">
        
      </g>
      <!-- Evolution Effects (behind pet) -->
      <g class="evolution-layer" style="pointer-events: none;">
        
      <defs>
        <radialGradient id="evolutionAura">
          <stop offset="0%" stop-color="#FFD700" stop-opacity="0.6"/>
          <stop offset="70%" stop-color="#FFD700" stop-opacity="0.2"/>
          <stop offset="100%" stop-color="#FFD700" stop-opacity="0"/>
        </radialGradient>
        <filter id="evolutionGlow">
          <feGaussianBlur stdDeviation="3" result="coloredBlur"/>
          <feMerge>
            <feMergeNode in="coloredBlur"/>
            <feMergeNode in="SourceGraphic"/>
          </feMerge>
        </filter>
      </defs>
      <circle cx="148" cy="148" r="45" fill="url(#evolutionAura)">
        <animate attributeName="r" values="45;53;45" dur="2s" repeatCount="indefinite"/>
        <animate attributeName="opacity" values="0.7;1;0.7" dur="2s" repeatCount="indefinite"/>
      </circle>
    
      </g>
      <g transform="translate(20, 20)" opacity="1">
        <g class="pet">
            <rect x="64" y="16" width="16" height="16" fill="#2d333b" /><rect x="80" y="16" width="16" height="16" fill="#2d333b" /><rect x="96" y="16" width="16" height="16" fill="#2d333b" /><rect x="112" y="16" width="16" height="16" fill="#2d333b" /><rect x="128" y="16" width="16" height="16" fill="#2d333b" /><rect x="144" y="16" width="16" height="16" fill="#2d333b" /><rect x="160" y="16" width="16" height="16" fill="#2d333b" /><rect x="176" y="16" width="16" height="16" fill="#2d333b" /><rect x="32" y="32" width="16" height="16" fill="#2d333b" /><rect x="48" y="32" width="16" height="16" fill="#2d333b" /><rect x="64" y="32" width="16" height="16" fill="#00ADD8" /><rect x="80" y="32" width="16" height="16" fill="#00ADD8" /><rect x="96" y="32" width="16" height="16" fill="#00ADD8" /><rect x="112" y="32" width="16" height="16" fill="#00ADD8" /><rect x="128" y="32" width="16" height="16" fill="#00ADD8" /><rect x="144" y="32" width="16" height="16" fill="#00ADD8" /><rect x="160" y="32" width="16" height="16" fill="#00ADD8" /><rect x="176" y="32" width="16" height="16" fill="#00ADD8" /><rect x="192" y="32" width="16" height="16" fill="#2d333b" /><rect x="208" y="32" width="16" height="16" fill="#2d333b" /><rect x="16" y="48" width="16" height="16" fill="#2d333b" /><rect x="32" y="48" width="16" height="16" fill="#00ADD8" /><rect x="48" y="48" width="16" height="16" fill="#00ADD8" /><rect x="64" y="48" width="16" height="16" fill="#2d333b" /><rect x="80" y="48" width="16" height="16" fill="#2d333b" /><rect x="96" y="48" width="16" height="16" fill="#2d333b" /><rect x="112" y="48" width="16" height="16" fill="#2d333b" /><rect x="128" y="48" width="16" height="16" fill="#2d333b" /><rect x="144" y="48" width="16" height="16" fill="#2d333b" /><rect x="160" y="48" width="16" height="16" fill="#00ADD8" /><rect x="176" y="48" width="16" height="16" fill="#00ADD8" /><rect x="192" y="48" width="16" height="16" fill="#00ADD8" /><rect x="208" y="48" width="16" height="16" fill="#00ADD8" /><rect x="224" y="48" width="16" height="16" fill="#2d333b" /><rect x="16" y="64" width="16" height="16" fill="#2d333b" /><rect x="32" y="64" width="16" height="16" fill="#00ADD8" /><rect x="48" y="64" width="16" height="16" fill="#00ADD8" /><rect x="64" y="64" width="16" height="16" fill="#00ADD8" /><rect x="80" y="64" width="16" height="16" fill="#00ADD8" /><rect x="96" y="64" width="16" height="16" fill="#00ADD8" /><rect x="112" y="64" width="16" height="16" fill="#00ADD8" /><rect x="128" y="64" width="16" height="16" fill="#00ADD8" /><rect x="144" y="64" width="16" height="16" fill="#00ADD8" /><rect x="160" y="64" width="16" height="16" fill="#00ADD8" /><rect x="176" y="64" width="16" height="16" fill="#00ADD8" /><rect x="192" y="64" width="16" height="16" fill="#00ADD8" /><rect x="208" y="64" width="16" height="16" fill="#2d333b" /><rect x="0" y="80" width="16" height="16" fill="#2d333b" /><rect x="16" y="80" width="16" height="16" fill="#00ADD8" /><rect x="32" y="80" width="16" height="16" fill="#00ADD8" /><rect x="48" y="80" width="16" height="16" fill="#00ADD8" /><rect x="64" y="80" width="16" height="16" fill="#00ADD8" /><rect x="80" y="80" width="16" height="16" fill="#00ADD8" /><rect x="96" y="80" width="16" height="16" fill="#00ADD8" /><rect x="112" y="80" width="16" height="16" fill="#00ADD8" /><rect x="128" y="80" width="16" height="16" fill="#00ADD8" /><rect x="144" y="80" width="16" height="16" fill="#00ADD8" /><rect x="160" y="80" width="16" height="16" fill="#00ADD8" /><rect x="176" y="80" width="16" height="16" fill="#00ADD8" /><rect x="192" y="80" width="16" height="16" fill="#00ADD8" /><rect x="208" y="80" width="16" height="16" fill="#00ADD8" /><rect x="224" y="80" width="16" height="16" fill="#2d333b" /><rect x="0" y="96" width="16" height="16" fill="#2d333b" /><rect x="16" y="96" width="16" height="16" fill="#00ADD8" /><rect x="32" y="96" width="16" height="16" fill="#00ADD8" /><rect x="48" y="96" width="16" height="16" fill="#00ADD8" /><rect x="64" y="96" width="16" height="16" fill="#00ADD8" /><rect x="80" y="96" width="16" height="16" fill="#2d333b" /><rect x="96" y="96" width="16" height="16" fill="#00ADD8" /><rect x="112" y="96" width="16" height="16" fill="#00ADD8" /><rect x="128" y="96" width="16" height="16" fill="#00ADD8" /><rect x="144" y="96" width="16" height="16" fill="#00ADD8" /><rect x="160" y="96" width="16" height="16" fill="#00ADD8" /><rect x="176" y="96" width="16" height="16" fill="#00ADD8" /><rect x="192" y="96" width="16" height="16" fill="#00ADD8" /><rect x="208" y="96" width="16" height="16" fill="#00ADD8" /><rect x="224" y="96" width="16" height="16" fill="#2d333b" /><rect x="16" y="112" width="16" height="16" fill="#2d333b" /><rect x="32" y="112" width="16" height="16" fill="#00ADD8" /><rect x="48" y="112" width="16" height="16" fill="#00ADD8" /><rect x="64" y="112" width="16" height="16" fill="#00ADD8" /><rect x="80" y="112" width="16" height="16" fill="#2d333b" /><rect x="96" y="112" width="16" height="16" fill="#00ADD8" /><rect x="112" y="112" width="16" height="16" fill="#00ADD8" /><rect x="128" y="112" width="16" height="16" fill="#00ADD8" /><rect x="144" y="112" width="16" height="16" fill="#00ADD8" /><rect x="160" y="112" width="16" height="16" fill="#00ADD8" /><rect x="176" y="112" width="16" height="16" fill="#00ADD8" /><rect x="192" y="112" width="16" height="16" fill="#2d333b" /><rect x="32" y="128" width="16" height="16" fill="#2d333b" /><rect x="48" y="128" width="16" height="16" fill="#00ADD8" /><rect x="64" y="128" width="16" height="16" fill="#00ADD8" /><rect x="80" y="128" width="16" height="16" fill="#2d333b" /><rect x="96" y="128" width="16" height="16" fill="#00ADD8" /><rect x="112" y="128" width="16" height="16" fill="#00ADD8" /><rect x="128" y="128" width="16" height="16" fill="#00ADD8" /><rect x="144" y="128" width="16" height="16" fill="#00ADD8" /><rect x="160" y="128" width="16" height="16" fill="#00ADD8" /><rect x="176" y="128" width="16" height="16" fill="#2d333b" /><rect x="32" y="144" width="16" height="16" fill="#2d333b" /><rect x="48" y="144" width="16" height="16" fill="#00ADD8" /><rect x="64" y="144" width="16" height="16" fill="#2d333b" /><rect x="80" y="144" width="16" height="16" fill="#00ADD8" /><rect x="96" y="144" width="16" height="16" fill="#00ADD8" /><rect x="112" y="144" width="16" height="16" fill="#00ADD8" /><rect x="128" y="144" width="16" height="16" fill="#00ADD8" /><rect x="144" y="144" width="16" height="16" fill="#00ADD8" /><rect x="160" y="144" width="16" height="16" fill="#00ADD8" /><rect x="176" y="144" width="16" height="16" fill="#2d333b" /><rect x="48" y="160" width="16" height="16" fill="#2d333b" /><rect x="64" y="160" width="16" height="16" fill="#2d333b" /><rect x="80" y="160" width="16" height="16" fill="#00ADD8" /><rect x="96" y="160" width="16" height="16" fill="#00ADD8" /><rect x="112" y="160" width="16" height="16" fill="#00ADD8" /><rect x="128" y="160" width="16" height="16" fill="#00ADD8" /><rect x="144" y="160" width="16" height="16" fill="#00ADD8" /><rect x="160" y="160" width="16" height="16" fill="#2d333b" /><rect x="64" y="176" width="16" height="16" fill="#2d333b" /><rect x="80" y="176" width="16" height="16" fill="#2d333b" /><rect x="96" y="176" width="16" height="16" fill="#2d333b" /><rect x="112" y="176" width="16" height="16" fill="#2d333b" /><rect x="128" y="176" width="16" height="16" fill="#2d333b" /><rect x="144" y="176" width="16" height="16" fill="#2d333b" />
            
        <animateTransform 
            attributeName="transform" 
            type="scale" 
            values="1 1; 1.02 0.98; 1 1" 
            dur="2s" 
            repeatCount="indefinite" 
        />
        </g>
        <!-- Speech Bubble -->
        
    <g transform="translate(226, -25)">
      <!-- Speech bubble -->
      <rect x="0" y="0" width="111" height="24" rx="10" ry="10" 
            fill="#FFFFFF" stroke="#2d333b" stroke-width="1.5"/>
      <!-- Bubble tail -->
      <polygon points="15,24 20,32 25,24" 
               fill="#FFFFFF" stroke="#2d333b" stroke-width="1.5"/>
      <line x1="16" y1="24" x2="24" y2="24" stroke="#FFFFFF" stroke-width="2"/>
      <!-- Text -->
      <text x="55.5" y="16" 
            font-family="'Segoe UI', Arial, sans-serif" font-size="10" 
            fill="#2d333b" text-anchor="middle">Recharging...</text>
    </g>
  
        <!-- Seasonal Accessory (z-index: above pet) -->
        
      </g>
      
      <!-- Level & Mood Text -->
      <text x="20" y="299" font-family="monospace" font-size="11" fill="#00ff00">
        ⭐ Lv.34 Adult
      </text>
      <text x="276" y="299" text-anchor="end" font-family="monospace" font-size="11" fill="#00ff00">
        💤 SLEEPING 🔥9
      </text>
      
      <!-- XP Progress Bar -->
      <rect x="20" y="306" width="256" height="8" rx="4" fill="#e0e0e0" stroke="#0288d1" stroke-width="1"/>
      <rect x="20" y="306" width="40.96" height="8" rx="4" fill="#4fc3f7">
        <animate attributeName="width" from="0" to="40.96" dur="0.5s" fill="freeze"/>
      </rect>
      
      <!-- XP Text -->
      <text x="50%" y="329" text-anchor="middle" font-family="monospace" font-size="9" fill="#00ff00">
        XP: 11000 / 11560 (16%)
      </text>
    
      
      <!-- Achievement Badges -->
      <g transform="translate(15, 311)">
    <g class="achievements">
      
      <g transform="translate(5, 0)">
        <title>Spark: 3 day streak</title>
        <circle cx="10" cy="10" r="10" fill="rgba(255,255,255,0.9)" stroke="#ddd" stroke-width="1"/>
        <text x="10" y="14" text-anchor="middle" font-size="11">⚡</text>
      </g>
    
      <g transform="translate(30, 0)">
        <title>Weekly Warrior: 7 day streak</title>
        <circle cx="10" cy="10" r="10" fill="rgba(255,255,255,0.9)" stroke="#ddd" stroke-width="1"/>
        <text x="10" y="14" text-anchor="middle" font-size="11">🔥</text>
      </g>
    
      <g transform="translate(55, 0)">
        <title>Rising Star: Level 5</title>
        <circle cx="10" cy="10" r="10" fill="rgba(255,255,255,0.9)" stroke="#ddd" stroke-width="1"/>
        <text x="10" y="14" text-anchor="middle" font-size="11">🌟</text>
      </g>
    
      <g transform="translate(80, 0)">
        <title>Shining: Level 10</title>
        <circle cx="10" cy="10" r="10" fill="rgba(255,255,255,0.9)" stroke="#ddd" stroke-width="1"/>
        <text x="10" y="14" text-anchor="middle" font-size="11">✨</text>
      </g>
    
      <g transform="translate(105, 0)">
        <title>Rainbow: Level 25</title>
        <circle cx="10" cy="10" r="10" fill="rgba(255,255,255,0.9)" stroke="#ddd" stroke-width="1"/>
        <text x="10" y="14" text-anchor="middle" font-size="11">🌈</text>
      </g>
    
      
    </g>
  </g>
    </svg>