<svg xmlns="http://www.w3.org/2000/svg" width="296" height="341" viewBox="0 0 296 341">
      <style>
        .pet { transform-origin: center; }
      </style>
      <!-- Theme Background -->
      
        <rect x="0" y="0" width="296" height="341" fill="#0d0d0d" rx="12" ry="12"/>
        <g font-family="monospace" font-size="10" fill="#00ff00" opacity="0.3">
          <text x="10" y="15" opacity="0.4145913306150901">九</text><text x="10" y="30" opacity="0.44843581423043954">1</text><text x="10" y="45" opacity="0.541662866318295">1</text><text x="10" y="60" opacity="0.5296932844948068">七</text><text x="10" y="75" opacity="0.385760198882784">オ</text><text x="10" y="90" opacity="0.13950238869346834">ウ</text><text x="10" y="105" opacity="0.4716533042563228">イ</text><text x="10" y="120" opacity="0.3941361937536849">1</text><text x="29.733333333333334" y="15" opacity="0.37510053025042456">0</text><text x="29.733333333333334" y="30" opacity="0.1515860671366133">オ</text><text x="29.733333333333334" y="45" opacity="0.3029723428587482">オ</text><text x="29.733333333333334" y="60" opacity="0.10793640432407839">ウ</text><text x="29.733333333333334" y="75" opacity="0.18845754655410643">七</text><text x="29.733333333333334" y="90" opacity="0.13087495349053993">1</text><text x="29.733333333333334" y="105" opacity="0.4452939751412318">オ</text><text x="29.733333333333334" y="120" opacity="0.21040438259428654">九</text><text x="49.46666666666667" y="15" opacity="0.49619589151595744">力</text><text x="49.46666666666667" y="30" opacity="0.11864716178153037">ウ</text><text x="49.46666666666667" y="45" opacity="0.12802022842341834">ウ</text><text x="49.46666666666667" y="60" opacity="0.5299615447241619">オ</text><text x="49.46666666666667" y="75" opacity="0.2819943882086472">ア</text><text x="49.46666666666667" y="90" opacity="0.20750264952460143">九</text><text x="49.46666666666667" y="105" opacity="0.500407375254556">イ</text><text x="49.46666666666667" y="120" opacity="0.27317836131552187">七</text><text x="69.2" y="15" opacity="0.24772199359553151">九</text><text x="69.2" y="30" opacity="0.3254192683305329">0</text><text x="69.2" y="45" opacity="0.4664263934251325">エ</text><text x="69.2" y="60" opacity="0.22671914504824367">七</text><text x="69.2" y="75" opacity="0.2814575066366801">イ</text><text x="69.2" y="90" opacity="0.5632304255712515">オ</text><text x="69.2" y="105" opacity="0.597590634519088">ウ</text><text x="69.2" y="120" opacity="0.4821338028860359">0</text><text x="88.93333333333334" y="15" opacity="0.24424647928527002">オ</text><text x="88.93333333333334" y="30" opacity="0.48311661167128894">0</text><text x="88.93333333333334" y="45" opacity="0.4116488051304493">オ</text><text x="88.93333333333334" y="60" opacity="0.2664307363208849">イ</text><text x="88.93333333333334" y="75" opacity="0.571574122466123">ア</text><text x="88.93333333333334" y="90" opacity="0.568028685780314">力</text><text x="88.93333333333334" y="105" opacity="0.49557424568568287">イ</text><text x="88.93333333333334" y="120" opacity="0.434934426571154">オ</text><text x="108.66666666666667" y="15" opacity="0.34482664315578426">オ</text><text x="108.66666666666667" y="30" opacity="0.5251767535085423">1</text><text x="108.66666666666667" y="45" opacity="0.21021660518713495">0</text><text x="108.66666666666667" y="60" opacity="0.4527792403254717">イ</text><text x="108.66666666666667" y="75" opacity="0.5234709291938295">力</text><text x="108.66666666666667" y="90" opacity="0.41718223083933115">力</text><text x="108.66666666666667" y="105" opacity="0.30066377417448853">イ</text><text x="108.66666666666667" y="120" opacity="0.21701132320005714">力</text><text x="128.4" y="15" opacity="0.5117151101900254">オ</text><text x="128.4" y="30" opacity="0.5269696229727079">力</text><text x="128.4" y="45" opacity="0.30284015091189687">ア</text><text x="128.4" y="60" opacity="0.5935426620912673">力</text><text x="128.4" y="75" opacity="0.17852091922597016">1</text><text x="128.4" y="90" opacity="0.18300430261682946">七</text><text x="128.4" y="105" opacity="0.24047722314134182">オ</text><text x="128.4" y="120" opacity="0.12435934060547651">九</text><text x="148.13333333333333" y="15" opacity="0.4146552635911994">ウ</text><text x="148.13333333333333" y="30" opacity="0.18536850967346633">0</text><text x="148.13333333333333" y="45" opacity="0.5797832873093747">エ</text><text x="148.13333333333333" y="60" opacity="0.43334623804030903">エ</text><text x="148.13333333333333" y="75" opacity="0.4224628870774434">0</text><text x="148.13333333333333" y="90" opacity="0.4478095596188295">ウ</text><text x="148.13333333333333" y="105" opacity="0.19027373354515978">1</text><text x="148.13333333333333" y="120" opacity="0.4027159382410508">エ</text><text x="167.86666666666667" y="15" opacity="0.37241141618404927">イ</text><text x="167.86666666666667" y="30" opacity="0.19255188428427264">イ</text><text x="167.86666666666667" y="45" opacity="0.33004973009125527">エ</text><text x="167.86666666666667" y="60" opacity="0.36977309178850015">イ</text><text x="167.86666666666667" y="75" opacity="0.4872044688291405">七</text><text x="167.86666666666667" y="90" opacity="0.17708729387238234">1</text><text x="167.86666666666667" y="105" opacity="0.31751167339199426">力</text><text x="167.86666666666667" y="120" opacity="0.22022512727224522">イ</text><text x="187.60000000000002" y="15" opacity="0.32049463739058126">0</text><text x="187.60000000000002" y="30" opacity="0.1831568445814115">七</text><text x="187.60000000000002" y="45" opacity="0.17810675720226657">力</text><text x="187.60000000000002" y="60" opacity="0.2837467390248368">0</text><text x="187.60000000000002" y="75" opacity="0.2530345752306794">ウ</text><text x="187.60000000000002" y="90" opacity="0.46502197696814607">九</text><text x="187.60000000000002" y="105" opacity="0.33373414404735624">1</text><text x="187.60000000000002" y="120" opacity="0.43068197560412624">イ</text><text x="207.33333333333334" y="15" opacity="0.5963616162944902">エ</text><text x="207.33333333333334" y="30" opacity="0.3071009332701512">エ</text><text x="207.33333333333334" y="45" opacity="0.34824669994069624">エ</text><text x="207.33333333333334" y="60" opacity="0.11152342490165548">1</text><text x="207.33333333333334" y="75" opacity="0.2143569987693992">九</text><text x="207.33333333333334" y="90" opacity="0.22823859329932997">0</text><text x="207.33333333333334" y="105" opacity="0.1321265055084148">エ</text><text x="207.33333333333334" y="120" opacity="0.22711649170478923">1</text><text x="227.06666666666666" y="15" opacity="0.10510426613674731">ウ</text><text x="227.06666666666666" y="30" opacity="0.16514855338636983">エ</text><text x="227.06666666666666" y="45" opacity="0.33662476785253137">オ</text><text x="227.06666666666666" y="60" opacity="0.2659312675201716">オ</text><text x="227.06666666666666" y="75" opacity="0.37698446904850547">エ</text><text x="227.06666666666666" y="90" opacity="0.17526618992942425">1</text><text x="227.06666666666666" y="105" opacity="0.1117050421368149">0</text><text x="227.06666666666666" y="120" opacity="0.2148737758377877">1</text><text x="246.8" y="15" opacity="0.18767823938659126">ウ</text><text x="246.8" y="30" opacity="0.1412934625653556">七</text><text x="246.8" y="45" opacity="0.20061734645331844">ウ</text><text x="246.8" y="60" opacity="0.13323479368949134">ア</text><text x="246.8" y="75" opacity="0.44772006226997785">エ</text><text x="246.8" y="90" opacity="0.5880593316195797">九</text><text x="246.8" y="105" opacity="0.4759963369493708">1</text><text x="246.8" y="120" opacity="0.1995192431275247">1</text><text x="266.53333333333336" y="15" opacity="0.4856065197892814">1</text><text x="266.53333333333336" y="30" opacity="0.19210251280053683">ア</text><text x="266.53333333333336" y="45" opacity="0.13457945748211111">ア</text><text x="266.53333333333336" y="60" opacity="0.5854953685422628">0</text><text x="266.53333333333336" y="75" opacity="0.22077151732447023">1</text><text x="266.53333333333336" y="90" opacity="0.1595721035906346">ア</text><text x="266.53333333333336" y="105" opacity="0.5840096139849797">七</text><text x="266.53333333333336" y="120" opacity="0.5005473762745388">イ</text><text x="286.26666666666665" y="15" opacity="0.19778193665974655">0</text><text x="286.26666666666665" y="30" opacity="0.143942462818104">九</text><text x="286.26666666666665" y="45" opacity="0.4767815344181554">ウ</text><text x="286.26666666666665" y="60" opacity="0.29574181922384557">1</text><text x="286.26666666666665" y="75" opacity="0.5185822313972398">力</text><text x="286.26666666666665" y="90" opacity="0.1601698432068234">0</text><text x="286.26666666666665" y="105" opacity="0.21734224154014695">九</text><text x="286.26666666666665" y="120" opacity="0.3441614658021126">九</text>
        </g>
        <rect x="5" y="5" width="286" height="331" fill="none" stroke="#00ff00" stroke-width="1" rx="8" ry="8" stroke-opacity="0.3"/>
      
      <!-- Weather Effects (behind pet) -->
      <g class="weather-layer" style="pointer-events: none;">
        
      </g>
      <!-- Evolution Effects (behind pet) -->
      <g class="evolution-layer" style="pointer-events: none;">
        
      <defs>
        <radialGradient id="evolutionAura">
          <stop offset="0%" stop-color="#FFD700" stop-opacity="0.6"/>
          <stop offset="70%" stop-color="#FFD700" stop-opacity="0.2"/>
          <stop offset="100%" stop-color="#FFD700" stop-opacity="0"/>
        </radialGradient>
        <filter id="evolutionGlow">
          <feGaussianBlur stdDeviation="3" result="coloredBlur"/>
          <feMerge>
            <feMergeNode in="coloredBlur"/>
            <feMergeNode in="SourceGraphic"/>
          </feMerge>
        </filter>
      </defs>
      <circle cx="148" cy="148" r="45" fill="url(#evolutionAura)">
        <animate attributeName="r" values="45;53;45" dur="2s" repeatCount="indefinite"/>
        <animate attributeName="opacity" values="0.7;1;0.7" dur="2s" repeatCount="indefinite"/>
      </circle>
    
      </g>
      <g transform="translate(20, 20)" opacity="1">
        <g class="pet">
            <rect x="64" y="16" width="16" height="16" fill="#2d333b" /><rect x="80" y="16" width="16" height="16" fill="#2d333b" /><rect x="96" y="16" width="16" height="16" fill="#2d333b" /><rect x="112" y="16" width="16" height="16" fill="#2d333b" /><rect x="128" y="16" width="16" height="16" fill="#2d333b" /><rect x="144" y="16" width="16" height="16" fill="#2d333b" /><rect x="160" y="16" width="16" height="16" fill="#2d333b" /><rect x="176" y="16" width="16" height="16" fill="#2d333b" /><rect x="32" y="32" width="16" height="16" fill="#2d333b" /><rect x="48" y="32" width="16" height="16" fill="#2d333b" /><rect x="64" y="32" width="16" height="16" fill="#00ADD8" /><rect x="80" y="32" width="16" height="16" fill="#00ADD8" /><rect x="96" y="32" width="16" height="16" fill="#00ADD8" /><rect x="112" y="32" width="16" height="16" fill="#00ADD8" /><rect x="128" y="32" width="16" height="16" fill="#00ADD8" /><rect x="144" y="32" width="16" height="16" fill="#00ADD8" /><rect x="160" y="32" width="16" height="16" fill="#00ADD8" /><rect x="176" y="32" width="16" height="16" fill="#00ADD8" /><rect x="192" y="32" width="16" height="16" fill="#2d333b" /><rect x="208" y="32" width="16" height="16" fill="#2d333b" /><rect x="16" y="48" width="16" height="16" fill="#2d333b" /><rect x="32" y="48" width="16" height="16" fill="#00ADD8" /><rect x="48" y="48" width="16" height="16" fill="#00ADD8" /><rect x="64" y="48" width="16" height="16" fill="#2d333b" /><rect x="80" y="48" width="16" height="16" fill="#2d333b" /><rect x="96" y="48" width="16" height="16" fill="#2d333b" /><rect x="112" y="48" width="16" height="16" fill="#2d333b" /><rect x="128" y="48" width="16" height="16" fill="#2d333b" /><rect x="144" y="48" width="16" height="16" fill="#2d333b" /><rect x="160" y="48" width="16" height="16" fill="#00ADD8" /><rect x="176" y="48" width="16" height="16" fill="#00ADD8" /><rect x="192" y="48" width="16" height="16" fill="#00ADD8" /><rect x="208" y="48" width="16" height="16" fill="#00ADD8" /><rect x="224" y="48" width="16" height="16" fill="#2d333b" /><rect x="16" y="64" width="16" height="16" fill="#2d333b" /><rect x="32" y="64" width="16" height="16" fill="#00ADD8" /><rect x="48" y="64" width="16" height="16" fill="#00ADD8" /><rect x="64" y="64" width="16" height="16" fill="#00ADD8" /><rect x="80" y="64" width="16" height="16" fill="#00ADD8" /><rect x="96" y="64" width="16" height="16" fill="#00ADD8" /><rect x="112" y="64" width="16" height="16" fill="#00ADD8" /><rect x="128" y="64" width="16" height="16" fill="#00ADD8" /><rect x="144" y="64" width="16" height="16" fill="#00ADD8" /><rect x="160" y="64" width="16" height="16" fill="#00ADD8" /><rect x="176" y="64" width="16" height="16" fill="#00ADD8" /><rect x="192" y="64" width="16" height="16" fill="#00ADD8" /><rect x="208" y="64" width="16" height="16" fill="#2d333b" /><rect x="0" y="80" width="16" height="16" fill="#2d333b" /><rect x="16" y="80" width="16" height="16" fill="#00ADD8" /><rect x="32" y="80" width="16" height="16" fill="#00ADD8" /><rect x="48" y="80" width="16" height="16" fill="#00ADD8" /><rect x="64" y="80" width="16" height="16" fill="#00ADD8" /><rect x="80" y="80" width="16" height="16" fill="#00ADD8" /><rect x="96" y="80" width="16" height="16" fill="#00ADD8" /><rect x="112" y="80" width="16" height="16" fill="#00ADD8" /><rect x="128" y="80" width="16" height="16" fill="#00ADD8" /><rect x="144" y="80" width="16" height="16" fill="#00ADD8" /><rect x="160" y="80" width="16" height="16" fill="#00ADD8" /><rect x="176" y="80" width="16" height="16" fill="#00ADD8" /><rect x="192" y="80" width="16" height="16" fill="#00ADD8" /><rect x="208" y="80" width="16" height="16" fill="#00ADD8" /><rect x="224" y="80" width="16" height="16" fill="#2d333b" /><rect x="0" y="96" width="16" height="16" fill="#2d333b" /><rect x="16" y="96" width="16" height="16" fill="#00ADD8" /><rect x="32" y="96" width="16" height="16" fill="#00ADD8" /><rect x="48" y="96" width="16" height="16" fill="#00ADD8" /><rect x="64" y="96" width="16" height="16" fill="#00ADD8" /><rect x="80" y="96" width="16" height="16" fill="#2d333b" /><rect x="96" y="96" width="16" height="16" fill="#00ADD8" /><rect x="112" y="96" width="16" height="16" fill="#00ADD8" /><rect x="128" y="96" width="16" height="16" fill="#00ADD8" /><rect x="144" y="96" width="16" height="16" fill="#00ADD8" /><rect x="160" y="96" width="16" height="16" fill="#00ADD8" /><rect x="176" y="96" width="16" height="16" fill="#00ADD8" /><rect x="192" y="96" width="16" height="16" fill="#00ADD8" /><rect x="208" y="96" width="16" height="16" fill="#00ADD8" /><rect x="224" y="96" width="16" height="16" fill="#2d333b" /><rect x="16" y="112" width="16" height="16" fill="#2d333b" /><rect x="32" y="112" width="16" height="16" fill="#00ADD8" /><rect x="48" y="112" width="16" height="16" fill="#00ADD8" /><rect x="64" y="112" width="16" height="16" fill="#00ADD8" /><rect x="80" y="112" width="16" height="16" fill="#2d333b" /><rect x="96" y="112" width="16" height="16" fill="#00ADD8" /><rect x="112" y="112" width="16" height="16" fill="#00ADD8" /><rect x="128" y="112" width="16" height="16" fill="#00ADD8" /><rect x="144" y="112" width="16" height="16" fill="#00ADD8" /><rect x="160" y="112" width="16" height="16" fill="#00ADD8" /><rect x="176" y="112" width="16" height="16" fill="#00ADD8" /><rect x="192" y="112" width="16" height="16" fill="#2d333b" /><rect x="32" y="128" width="16" height="16" fill="#2d333b" /><rect x="48" y="128" width="16" height="16" fill="#00ADD8" /><rect x="64" y="128" width="16" height="16" fill="#00ADD8" /><rect x="80" y="128" width="16" height="16" fill="#2d333b" /><rect x="96" y="128" width="16" height="16" fill="#00ADD8" /><rect x="112" y="128" width="16" height="16" fill="#00ADD8" /><rect x="128" y="128" width="16" height="16" fill="#00ADD8" /><rect x="144" y="128" width="16" height="16" fill="#00ADD8" /><rect x="160" y="128" width="16" height="16" fill="#00ADD8" /><rect x="176" y="128" width="16" height="16" fill="#2d333b" /><rect x="32" y="144" width="16" height="16" fill="#2d333b" /><rect x="48" y="144" width="16" height="16" fill="#00ADD8" /><rect x="64" y="144" width="16" height="16" fill="#2d333b" /><rect x="80" y="144" width="16" height="16" fill="#00ADD8" /><rect x="96" y="144" width="16" height="16" fill="#00ADD8" /><rect x="112" y="144" width="16" height="16" fill="#00ADD8" /><rect x="128" y="144" width="16" height="16" fill="#00ADD8" /><rect x="144" y="144" width="16" height="16" fill="#00ADD8" /><rect x="160" y="144" width="16" height="16" fill="#00ADD8" /><rect x="176" y="144" width="16" height="16" fill="#2d333b" /><rect x="48" y="160" width="16" height="16" fill="#2d333b" /><rect x="64" y="160" width="16" height="16" fill="#2d333b" /><rect x="80" y="160" width="16" height="16" fill="#00ADD8" /><rect x="96" y="160" width="16" height="16" fill="#00ADD8" /><rect x="112" y="160" width="16" height="16" fill="#00ADD8" /><rect x="128" y="160" width="16" height="16" fill="#00ADD8" /><rect x="144" y="160" width="16" height="16" fill="#00ADD8" /><rect x="160" y="160" width="16" height="16" fill="#2d333b" /><rect x="64" y="176" width="16" height="16" fill="#2d333b" /><rect x="80" y="176" width="16" height="16" fill="#2d333b" /><rect x="96" y="176" width="16" height="16" fill="#2d333b" /><rect x="112" y="176" width="16" height="16" fill="#2d333b" /><rect x="128" y="176" width="16" height="16" fill="#2d333b" /><rect x="144" y="176" width="16" height="16" fill="#2d333b" />
            
        <animateTransform 
            attributeName="transform" 
            type="scale" 
            values="1 1; 1.02 0.98; 1 1" 
            dur="2s" 
            repeatCount="indefinite" 
        />
        </g>
        <!-- Speech Bubble -->
        
    <g transform="translate(226, -25)">
      <!-- Speech bubble -->
      <rect x="0" y="0" width="139" height="24" rx="10" ry="10" 
            fill="#FFFFFF" stroke="#2d333b" stroke-width="1.5"/>
      <!-- Bubble tail -->
      <polygon points="15,24 20,32 25,24" 
               fill="#FFFFFF" stroke="#2d333b" stroke-width="1.5"/>
      <line x1="16" y1="24" x2="24" y2="24" stroke="#FFFFFF" stroke-width="2"/>
      <!-- Text -->
      <text x="69.5" y="16" 
            font-family="'Segoe UI', Arial, sans-serif" font-size="10" 
            fill="#2d333b" text-anchor="middle">Do not disturb...</text>
    </g>
  
        <!-- Seasonal Accessory (z-index: above pet) -->
        
      </g>
      
      <!-- Level & Mood Text -->
      <text x="20" y="299" font-family="monospace" font-size="11" fill="#00ff00">
        ⭐ Lv.34 Adult
      </text>
      <text x="276" y="299" text-anchor="end" font-family="monospace" font-size="11" fill="#00ff00">
        💤 SLEEPING 🔥12
      </text>
      
      <!-- XP Progress Bar -->
      <rect x="20" y="306" width="256" height="8" rx="4" fill="#e0e0e0" stroke="#0288d1" stroke-width="1"/>
      <rect x="20" y="306" width="140.8" height="8" rx="4" fill="#4fc3f7">
        <animate attributeName="width" from="0" to="140.8" dur="0.5s" fill="freeze"/>
      </rect>
      
      <!-- XP Text -->
      <text x="50%" y="329" text-anchor="middle" font-family="monospace" font-size="9" fill="#00ff00">
        XP: 11260 / 11560 (55%)
      </text>
    
      
      <!-- Achievement Badges -->
      <g transform="translate(15, 311)">
    <g class="achievements">
      
      <g transform="translate(5, 0)">
        <title>Spark: 3 day streak</title>
        <circle cx="10" cy="10" r="10" fill="rgba(255,255,255,0.9)" stroke="#ddd" stroke-width="1"/>
        <text x="10" y="14" text-anchor="middle" font-size="11">⚡</text>
      </g>
    
      <g transform="translate(30, 0)">
        <title>Weekly Warrior: 7 day streak</title>
        <circle cx="10" cy="10" r="10" fill="rgba(255,255,255,0.9)" stroke="#ddd" stroke-width="1"/>
        <text x="10" y="14" text-anchor="middle" font-size="11">🔥</text>
      </g>
    
      <g transform="translate(55, 0)">
        <title>Rising Star: Level 5</title>
        <circle cx="10" cy="10" r="10" fill="rgba(255,255,255,0.9)" stroke="#ddd" stroke-width="1"/>
        <text x="10" y="14" text-anchor="middle" font-size="11">🌟</text>
      </g>
    
      <g transform="translate(80, 0)">
        <title>Shining: Level 10</title>
        <circle cx="10" cy="10" r="10" fill="rgba(255,255,255,0.9)" stroke="#ddd" stroke-width="1"/>
        <text x="10" y="14" text-anchor="middle" font-size="11">✨</text>
      </g>
    
      <g transform="translate(105, 0)">
        <title>Rainbow: Level 25</title>
        <circle cx="10" cy="10" r="10" fill="rgba(255,255,255,0.9)" stroke="#ddd" stroke-width="1"/>
        <text x="10" y="14" text-anchor="middle" font-size="11">🌈</text>
      </g>
    
      <g transform="translate(130, 0)">
        <title>Weekend Warrior: Weekend commit</title>
        <circle cx="10" cy="10" r="10" fill="rgba(255,255,255,0.9)" stroke="#ddd" stroke-width="1"/>
        <text x="10" y="14" text-anchor="middle" font-size="11">🏖️</text>
      </g>
    
      
    </g>
  </g>
    </svg>