<svg xmlns="http://www.w3.org/2000/svg" width="296" height="341" viewBox="0 0 296 341">
      <style>
        .pet { transform-origin: center; }
      </style>
      <!-- Theme Background -->
      
        <rect x="0" y="0" width="296" height="341" fill="#0d0d0d" rx="12" ry="12"/>
        <g font-family="monospace" font-size="10" fill="#00ff00" opacity="0.3">
          <text x="10" y="15" opacity="0.46361640398849957">オ</text><text x="10" y="30" opacity="0.49848654980317086">イ</text><text x="10" y="45" opacity="0.3562483064756675">ア</text><text x="10" y="60" opacity="0.1634441713112416">オ</text><text x="10" y="75" opacity="0.528052445224359">0</text><text x="10" y="90" opacity="0.2663517109565504">ウ</text><text x="10" y="105" opacity="0.2580609969223643">ア</text><text x="10" y="120" opacity="0.1724516070798974">九</text><text x="29.733333333333334" y="15" opacity="0.46972227139934386">1</text><text x="29.733333333333334" y="30" opacity="0.3704590026282877">ア</text><text x="29.733333333333334" y="45" opacity="0.5580008006993693">1</text><text x="29.733333333333334" y="60" opacity="0.485064792247466">エ</text><text x="29.733333333333334" y="75" opacity="0.461692786201354">ア</text><text x="29.733333333333334" y="90" opacity="0.35221755971037494">ウ</text><text x="29.733333333333334" y="105" opacity="0.5457020235983016">ウ</text><text x="29.733333333333334" y="120" opacity="0.47294800374805446">オ</text><text x="49.46666666666667" y="15" opacity="0.49481406046931775">九</text><text x="49.46666666666667" y="30" opacity="0.2137091553231715">1</text><text x="49.46666666666667" y="45" opacity="0.12263266298395761">七</text><text x="49.46666666666667" y="60" opacity="0.43128145031980947">エ</text><text x="49.46666666666667" y="75" opacity="0.11989002318462208">九</text><text x="49.46666666666667" y="90" opacity="0.12021699557240853">ア</text><text x="49.46666666666667" y="105" opacity="0.4662045901634838">エ</text><text x="49.46666666666667" y="120" opacity="0.16983036093528073">力</text><text x="69.2" y="15" opacity="0.3181424466876406">ア</text><text x="69.2" y="30" opacity="0.28912203263907177">1</text><text x="69.2" y="45" opacity="0.2159506710968753">力</text><text x="69.2" y="60" opacity="0.18644913782581343">力</text><text x="69.2" y="75" opacity="0.3399552409970973">ア</text><text x="69.2" y="90" opacity="0.410643412818711">イ</text><text x="69.2" y="105" opacity="0.1811622127465127">ア</text><text x="69.2" y="120" opacity="0.26972257281131473">0</text><text x="88.93333333333334" y="15" opacity="0.29379936302070087">九</text><text x="88.93333333333334" y="30" opacity="0.5595028421897403">イ</text><text x="88.93333333333334" y="45" opacity="0.42913494880769376">ウ</text><text x="88.93333333333334" y="60" opacity="0.5830607877272913">0</text><text x="88.93333333333334" y="75" opacity="0.1960404146138587">ア</text><text x="88.93333333333334" y="90" opacity="0.1697583071502661">七</text><text x="88.93333333333334" y="105" opacity="0.24260731483698197">0</text><text x="88.93333333333334" y="120" opacity="0.2847482924304978">1</text><text x="108.66666666666667" y="15" opacity="0.5786513211870373">オ</text><text x="108.66666666666667" y="30" opacity="0.34993283042097434">オ</text><text x="108.66666666666667" y="45" opacity="0.5076858180258024">七</text><text x="108.66666666666667" y="60" opacity="0.15236894485937616">ウ</text><text x="108.66666666666667" y="75" opacity="0.5997243617372319">イ</text><text x="108.66666666666667" y="90" opacity="0.32945373482312457">ア</text><text x="108.66666666666667" y="105" opacity="0.5222228878080821">九</text><text x="108.66666666666667" y="120" opacity="0.30240684219756">0</text><text x="128.4" y="15" opacity="0.3379229726349916">ウ</text><text x="128.4" y="30" opacity="0.2854945631287811">エ</text><text x="128.4" y="45" opacity="0.3202744292980798">0</text><text x="128.4" y="60" opacity="0.15617716292602193">1</text><text x="128.4" y="75" opacity="0.478413424144835">ウ</text><text x="128.4" y="90" opacity="0.43187109357059317">1</text><text x="128.4" y="105" opacity="0.153650598128973">オ</text><text x="128.4" y="120" opacity="0.2605330611160599">0</text><text x="148.13333333333333" y="15" opacity="0.27606824968959265">イ</text><text x="148.13333333333333" y="30" opacity="0.21580677087813419">ウ</text><text x="148.13333333333333" y="45" opacity="0.44983187882246856">ア</text><text x="148.13333333333333" y="60" opacity="0.26677909320519455">ウ</text><text x="148.13333333333333" y="75" opacity="0.4324693201185764">七</text><text x="148.13333333333333" y="90" opacity="0.4893219052274852">エ</text><text x="148.13333333333333" y="105" opacity="0.3466743696801301">九</text><text x="148.13333333333333" y="120" opacity="0.1871891815100796">イ</text><text x="167.86666666666667" y="15" opacity="0.5846172376105307">ア</text><text x="167.86666666666667" y="30" opacity="0.4890950963085432">力</text><text x="167.86666666666667" y="45" opacity="0.4678613187341486">ウ</text><text x="167.86666666666667" y="60" opacity="0.2813879334345598">七</text><text x="167.86666666666667" y="75" opacity="0.23875399690050306">七</text><text x="167.86666666666667" y="90" opacity="0.3561404790759345">力</text><text x="167.86666666666667" y="105" opacity="0.5751881778877385">ウ</text><text x="167.86666666666667" y="120" opacity="0.5496779142334244">力</text><text x="187.60000000000002" y="15" opacity="0.4850868871488806">オ</text><text x="187.60000000000002" y="30" opacity="0.5187802408264421">力</text><text x="187.60000000000002" y="45" opacity="0.5124374800451846">ア</text><text x="187.60000000000002" y="60" opacity="0.5302528630640496">イ</text><text x="187.60000000000002" y="75" opacity="0.18729402243148488">ア</text><text x="187.60000000000002" y="90" opacity="0.5783592151943912">イ</text><text x="187.60000000000002" y="105" opacity="0.1784213984690012">ウ</text><text x="187.60000000000002" y="120" opacity="0.37228330294474177">ウ</text><text x="207.33333333333334" y="15" opacity="0.5375586569622607">ウ</text><text x="207.33333333333334" y="30" opacity="0.2749634638614348">ウ</text><text x="207.33333333333334" y="45" opacity="0.4139193975964336">オ</text><text x="207.33333333333334" y="60" opacity="0.29172652738654403">エ</text><text x="207.33333333333334" y="75" opacity="0.45897876931196113">イ</text><text x="207.33333333333334" y="90" opacity="0.3395829930231974">オ</text><text x="207.33333333333334" y="105" opacity="0.5056651033593181">七</text><text x="207.33333333333334" y="120" opacity="0.3925606702891269">0</text><text x="227.06666666666666" y="15" opacity="0.305741940571975">オ</text><text x="227.06666666666666" y="30" opacity="0.4006363666494539">七</text><text x="227.06666666666666" y="45" opacity="0.3960347423895644">イ</text><text x="227.06666666666666" y="60" opacity="0.5595964025918251">ア</text><text x="227.06666666666666" y="75" opacity="0.21371753210035663">0</text><text x="227.06666666666666" y="90" opacity="0.24055683972784372">オ</text><text x="227.06666666666666" y="105" opacity="0.48969559073805846">エ</text><text x="227.06666666666666" y="120" opacity="0.14369922402997573">力</text><text x="246.8" y="15" opacity="0.2110265264011492">イ</text><text x="246.8" y="30" opacity="0.4697349323260216">七</text><text x="246.8" y="45" opacity="0.4131727567328194">オ</text><text x="246.8" y="60" opacity="0.2045487657303511">エ</text><text x="246.8" y="75" opacity="0.1363349729750062">ウ</text><text x="246.8" y="90" opacity="0.5104132453763601">ア</text><text x="246.8" y="105" opacity="0.4812231016013193">七</text><text x="246.8" y="120" opacity="0.20098123924502168">ア</text><text x="266.53333333333336" y="15" opacity="0.13158498414392997">エ</text><text x="266.53333333333336" y="30" opacity="0.3506748495280074">力</text><text x="266.53333333333336" y="45" opacity="0.3972231403210783">力</text><text x="266.53333333333336" y="60" opacity="0.24433396348908923">ア</text><text x="266.53333333333336" y="75" opacity="0.559184623335197">七</text><text x="266.53333333333336" y="90" opacity="0.5310523173825075">エ</text><text x="266.53333333333336" y="105" opacity="0.5486737083745401">力</text><text x="266.53333333333336" y="120" opacity="0.5114287223642818">オ</text><text x="286.26666666666665" y="15" opacity="0.31878738608691126">1</text><text x="286.26666666666665" y="30" opacity="0.5645257904473093">1</text><text x="286.26666666666665" y="45" opacity="0.41015261590217733">ア</text><text x="286.26666666666665" y="60" opacity="0.34538915404293047">九</text><text x="286.26666666666665" y="75" opacity="0.2454548706785207">エ</text><text x="286.26666666666665" y="90" opacity="0.3883841020471598">ウ</text><text x="286.26666666666665" y="105" opacity="0.37615597396742817">ア</text><text x="286.26666666666665" y="120" opacity="0.19624245826577627">オ</text>
        </g>
        <rect x="5" y="5" width="286" height="331" fill="none" stroke="#00ff00" stroke-width="1" rx="8" ry="8" stroke-opacity="0.3"/>
      
      <!-- Weather Effects (behind pet) -->
      <g class="weather-layer" style="pointer-events: none;">
        
      </g>
      <!-- Evolution Effects (behind pet) -->
      <g class="evolution-layer" style="pointer-events: none;">
        
      <defs>
        <radialGradient id="evolutionAura">
          <stop offset="0%" stop-color="#FFD700" stop-opacity="0.6"/>
          <stop offset="70%" stop-color="#FFD700" stop-opacity="0.2"/>
          <stop offset="100%" stop-color="#FFD700" stop-opacity="0"/>
        </radialGradient>
        <filter id="evolutionGlow">
          <feGaussianBlur stdDeviation="3" result="coloredBlur"/>
          <feMerge>
            <feMergeNode in="coloredBlur"/>
            <feMergeNode in="SourceGraphic"/>
          </feMerge>
        </filter>
      </defs>
      <circle cx="148" cy="148" r="45" fill="url(#evolutionAura)">
        <animate attributeName="r" values="45;53;45" dur="2s" repeatCount="indefinite"/>
        <animate attributeName="opacity" values="0.7;1;0.7" dur="2s" repeatCount="indefinite"/>
      </circle>
    
      </g>
      <g transform="translate(20, 20)" opacity="1">
        <g class="pet">
            <rect x="64" y="16" width="16" height="16" fill="#2d333b" /><rect x="80" y="16" width="16" height="16" fill="#2d333b" /><rect x="96" y="16" width="16" height="16" fill="#2d333b" /><rect x="112" y="16" width="16" height="16" fill="#2d333b" /><rect x="128" y="16" width="16" height="16" fill="#2d333b" /><rect x="144" y="16" width="16" height="16" fill="#2d333b" /><rect x="160" y="16" width="16" height="16" fill="#2d333b" /><rect x="176" y="16" width="16" height="16" fill="#2d333b" /><rect x="32" y="32" width="16" height="16" fill="#2d333b" /><rect x="48" y="32" width="16" height="16" fill="#2d333b" /><rect x="64" y="32" width="16" height="16" fill="#00ADD8" /><rect x="80" y="32" width="16" height="16" fill="#00ADD8" /><rect x="96" y="32" width="16" height="16" fill="#00ADD8" /><rect x="112" y="32" width="16" height="16" fill="#00ADD8" /><rect x="128" y="32" width="16" height="16" fill="#00ADD8" /><rect x="144" y="32" width="16" height="16" fill="#00ADD8" /><rect x="160" y="32" width="16" height="16" fill="#00ADD8" /><rect x="176" y="32" width="16" height="16" fill="#00ADD8" /><rect x="192" y="32" width="16" height="16" fill="#2d333b" /><rect x="208" y="32" width="16" height="16" fill="#2d333b" /><rect x="16" y="48" width="16" height="16" fill="#2d333b" /><rect x="32" y="48" width="16" height="16" fill="#00ADD8" /><rect x="48" y="48" width="16" height="16" fill="#00ADD8" /><rect x="64" y="48" width="16" height="16" fill="#2d333b" /><rect x="80" y="48" width="16" height="16" fill="#2d333b" /><rect x="96" y="48" width="16" height="16" fill="#2d333b" /><rect x="112" y="48" width="16" height="16" fill="#2d333b" /><rect x="128" y="48" width="16" height="16" fill="#2d333b" /><rect x="144" y="48" width="16" height="16" fill="#2d333b" /><rect x="160" y="48" width="16" height="16" fill="#00ADD8" /><rect x="176" y="48" width="16" height="16" fill="#00ADD8" /><rect x="192" y="48" width="16" height="16" fill="#00ADD8" /><rect x="208" y="48" width="16" height="16" fill="#00ADD8" /><rect x="224" y="48" width="16" height="16" fill="#2d333b" /><rect x="16" y="64" width="16" height="16" fill="#2d333b" /><rect x="32" y="64" width="16" height="16" fill="#00ADD8" /><rect x="48" y="64" width="16" height="16" fill="#00ADD8" /><rect x="64" y="64" width="16" height="16" fill="#00ADD8" /><rect x="80" y="64" width="16" height="16" fill="#00ADD8" /><rect x="96" y="64" width="16" height="16" fill="#00ADD8" /><rect x="112" y="64" width="16" height="16" fill="#00ADD8" /><rect x="128" y="64" width="16" height="16" fill="#00ADD8" /><rect x="144" y="64" width="16" height="16" fill="#00ADD8" /><rect x="160" y="64" width="16" height="16" fill="#00ADD8" /><rect x="176" y="64" width="16" height="16" fill="#00ADD8" /><rect x="192" y="64" width="16" height="16" fill="#00ADD8" /><rect x="208" y="64" width="16" height="16" fill="#2d333b" /><rect x="0" y="80" width="16" height="16" fill="#2d333b" /><rect x="16" y="80" width="16" height="16" fill="#00ADD8" /><rect x="32" y="80" width="16" height="16" fill="#00ADD8" /><rect x="48" y="80" width="16" height="16" fill="#00ADD8" /><rect x="64" y="80" width="16" height="16" fill="#00ADD8" /><rect x="80" y="80" width="16" height="16" fill="#00ADD8" /><rect x="96" y="80" width="16" height="16" fill="#00ADD8" /><rect x="112" y="80" width="16" height="16" fill="#00ADD8" /><rect x="128" y="80" width="16" height="16" fill="#00ADD8" /><rect x="144" y="80" width="16" height="16" fill="#00ADD8" /><rect x="160" y="80" width="16" height="16" fill="#00ADD8" /><rect x="176" y="80" width="16" height="16" fill="#00ADD8" /><rect x="192" y="80" width="16" height="16" fill="#00ADD8" /><rect x="208" y="80" width="16" height="16" fill="#00ADD8" /><rect x="224" y="80" width="16" height="16" fill="#2d333b" /><rect x="0" y="96" width="16" height="16" fill="#2d333b" /><rect x="16" y="96" width="16" height="16" fill="#00ADD8" /><rect x="32" y="96" width="16" height="16" fill="#00ADD8" /><rect x="48" y="96" width="16" height="16" fill="#00ADD8" /><rect x="64" y="96" width="16" height="16" fill="#00ADD8" /><rect x="80" y="96" width="16" height="16" fill="#2d333b" /><rect x="96" y="96" width="16" height="16" fill="#00ADD8" /><rect x="112" y="96" width="16" height="16" fill="#00ADD8" /><rect x="128" y="96" width="16" height="16" fill="#00ADD8" /><rect x="144" y="96" width="16" height="16" fill="#00ADD8" /><rect x="160" y="96" width="16" height="16" fill="#00ADD8" /><rect x="176" y="96" width="16" height="16" fill="#00ADD8" /><rect x="192" y="96" width="16" height="16" fill="#00ADD8" /><rect x="208" y="96" width="16" height="16" fill="#00ADD8" /><rect x="224" y="96" width="16" height="16" fill="#2d333b" /><rect x="16" y="112" width="16" height="16" fill="#2d333b" /><rect x="32" y="112" width="16" height="16" fill="#00ADD8" /><rect x="48" y="112" width="16" height="16" fill="#00ADD8" /><rect x="64" y="112" width="16" height="16" fill="#00ADD8" /><rect x="80" y="112" width="16" height="16" fill="#2d333b" /><rect x="96" y="112" width="16" height="16" fill="#00ADD8" /><rect x="112" y="112" width="16" height="16" fill="#00ADD8" /><rect x="128" y="112" width="16" height="16" fill="#00ADD8" /><rect x="144" y="112" width="16" height="16" fill="#00ADD8" /><rect x="160" y="112" width="16" height="16" fill="#00ADD8" /><rect x="176" y="112" width="16" height="16" fill="#00ADD8" /><rect x="192" y="112" width="16" height="16" fill="#2d333b" /><rect x="32" y="128" width="16" height="16" fill="#2d333b" /><rect x="48" y="128" width="16" height="16" fill="#00ADD8" /><rect x="64" y="128" width="16" height="16" fill="#00ADD8" /><rect x="80" y="128" width="16" height="16" fill="#2d333b" /><rect x="96" y="128" width="16" height="16" fill="#00ADD8" /><rect x="112" y="128" width="16" height="16" fill="#00ADD8" /><rect x="128" y="128" width="16" height="16" fill="#00ADD8" /><rect x="144" y="128" width="16" height="16" fill="#00ADD8" /><rect x="160" y="128" width="16" height="16" fill="#00ADD8" /><rect x="176" y="128" width="16" height="16" fill="#2d333b" /><rect x="32" y="144" width="16" height="16" fill="#2d333b" /><rect x="48" y="144" width="16" height="16" fill="#00ADD8" /><rect x="64" y="144" width="16" height="16" fill="#2d333b" /><rect x="80" y="144" width="16" height="16" fill="#00ADD8" /><rect x="96" y="144" width="16" height="16" fill="#00ADD8" /><rect x="112" y="144" width="16" height="16" fill="#00ADD8" /><rect x="128" y="144" width="16" height="16" fill="#00ADD8" /><rect x="144" y="144" width="16" height="16" fill="#00ADD8" /><rect x="160" y="144" width="16" height="16" fill="#00ADD8" /><rect x="176" y="144" width="16" height="16" fill="#2d333b" /><rect x="48" y="160" width="16" height="16" fill="#2d333b" /><rect x="64" y="160" width="16" height="16" fill="#2d333b" /><rect x="80" y="160" width="16" height="16" fill="#00ADD8" /><rect x="96" y="160" width="16" height="16" fill="#00ADD8" /><rect x="112" y="160" width="16" height="16" fill="#00ADD8" /><rect x="128" y="160" width="16" height="16" fill="#00ADD8" /><rect x="144" y="160" width="16" height="16" fill="#00ADD8" /><rect x="160" y="160" width="16" height="16" fill="#2d333b" /><rect x="64" y="176" width="16" height="16" fill="#2d333b" /><rect x="80" y="176" width="16" height="16" fill="#2d333b" /><rect x="96" y="176" width="16" height="16" fill="#2d333b" /><rect x="112" y="176" width="16" height="16" fill="#2d333b" /><rect x="128" y="176" width="16" height="16" fill="#2d333b" /><rect x="144" y="176" width="16" height="16" fill="#2d333b" />
            
        <animateTransform 
            attributeName="transform" 
            type="scale" 
            values="1 1; 1.02 0.98; 1 1" 
            dur="2s" 
            repeatCount="indefinite" 
        />
        </g>
        <!-- Speech Bubble -->
        
    <g transform="translate(226, -25)">
      <!-- Speech bubble -->
      <rect x="0" y="0" width="62" height="24" rx="10" ry="10" 
            fill="#FFFFFF" stroke="#2d333b" stroke-width="1.5"/>
      <!-- Bubble tail -->
      <polygon points="15,24 20,32 25,24" 
               fill="#FFFFFF" stroke="#2d333b" stroke-width="1.5"/>
      <line x1="16" y1="24" x2="24" y2="24" stroke="#FFFFFF" stroke-width="2"/>
      <!-- Text -->
      <text x="31" y="16" 
            font-family="'Segoe UI', Arial, sans-serif" font-size="10" 
            fill="#2d333b" text-anchor="middle">zzZ...</text>
    </g>
  
        <!-- Seasonal Accessory (z-index: above pet) -->
        
      </g>
      
      <!-- Level & Mood Text -->
      <text x="20" y="299" font-family="monospace" font-size="11" fill="#00ff00">
        ⭐ Lv.34 Adult
      </text>
      <text x="276" y="299" text-anchor="end" font-family="monospace" font-size="11" fill="#00ff00">
        💤 SLEEPING ⚡1
      </text>
      
      <!-- XP Progress Bar -->
      <rect x="20" y="306" width="256" height="8" rx="4" fill="#e0e0e0" stroke="#0288d1" stroke-width="1"/>
      <rect x="20" y="306" width="151.04" height="8" rx="4" fill="#4fc3f7">
        <animate attributeName="width" from="0" to="151.04" dur="0.5s" fill="freeze"/>
      </rect>
      
      <!-- XP Text -->
      <text x="50%" y="329" text-anchor="middle" font-family="monospace" font-size="9" fill="#00ff00">
        XP: 11290 / 11560 (59%)
      </text>
    
      
      <!-- Achievement Badges -->
      <g transform="translate(15, 311)">
    <g class="achievements">
      
      <g transform="translate(5, 0)">
        <title>Rising Star: Level 5</title>
        <circle cx="10" cy="10" r="10" fill="rgba(255,255,255,0.9)" stroke="#ddd" stroke-width="1"/>
        <text x="10" y="14" text-anchor="middle" font-size="11">🌟</text>
      </g>
    
      <g transform="translate(30, 0)">
        <title>Shining: Level 10</title>
        <circle cx="10" cy="10" r="10" fill="rgba(255,255,255,0.9)" stroke="#ddd" stroke-width="1"/>
        <text x="10" y="14" text-anchor="middle" font-size="11">✨</text>
      </g>
    
      <g transform="translate(55, 0)">
        <title>Rainbow: Level 25</title>
        <circle cx="10" cy="10" r="10" fill="rgba(255,255,255,0.9)" stroke="#ddd" stroke-width="1"/>
        <text x="10" y="14" text-anchor="middle" font-size="11">🌈</text>
      </g>
    
      
    </g>
  </g>
    </svg>