<svg xmlns="http://www.w3.org/2000/svg" width="296" height="341" viewBox="0 0 296 341">
      <style>
        .pet { transform-origin: center; }
      </style>
      <!-- Theme Background -->
      
        <rect x="0" y="0" width="296" height="341" fill="#0d0d0d" rx="12" ry="12"/>
        <g font-family="monospace" font-size="10" fill="#00ff00" opacity="0.3">
          <text x="10" y="15" opacity="0.18855784523087607">エ</text><text x="10" y="30" opacity="0.1980481247265138">イ</text><text x="10" y="45" opacity="0.25909237830271237">ア</text><text x="10" y="60" opacity="0.10497033553122528">七</text><text x="10" y="75" opacity="0.20776608727283344">力</text><text x="10" y="90" opacity="0.5364339316271634">九</text><text x="10" y="105" opacity="0.14235632594424844">1</text><text x="10" y="120" opacity="0.43838543541931596">九</text><text x="29.733333333333334" y="15" opacity="0.5218139982359498">オ</text><text x="29.733333333333334" y="30" opacity="0.24750069459736249">イ</text><text x="29.733333333333334" y="45" opacity="0.4438231156751036">オ</text><text x="29.733333333333334" y="60" opacity="0.4153956949439932">オ</text><text x="29.733333333333334" y="75" opacity="0.5584892938663992">ウ</text><text x="29.733333333333334" y="90" opacity="0.5029547740404812">エ</text><text x="29.733333333333334" y="105" opacity="0.21198064108227313">オ</text><text x="29.733333333333334" y="120" opacity="0.12846673764728903">ア</text><text x="49.46666666666667" y="15" opacity="0.23299777786121248">七</text><text x="49.46666666666667" y="30" opacity="0.19947637672445998">七</text><text x="49.46666666666667" y="45" opacity="0.5453114896935535">九</text><text x="49.46666666666667" y="60" opacity="0.12741987008148828">0</text><text x="49.46666666666667" y="75" opacity="0.28114139559332973">ウ</text><text x="49.46666666666667" y="90" opacity="0.1214935031041369">力</text><text x="49.46666666666667" y="105" opacity="0.11858059922770861">1</text><text x="49.46666666666667" y="120" opacity="0.5848880131973438">力</text><text x="69.2" y="15" opacity="0.35564752379843234">0</text><text x="69.2" y="30" opacity="0.3057950458112543">イ</text><text x="69.2" y="45" opacity="0.5829140898018548">ア</text><text x="69.2" y="60" opacity="0.26652093077773187">ウ</text><text x="69.2" y="75" opacity="0.3455300845885757">イ</text><text x="69.2" y="90" opacity="0.3094963996321286">イ</text><text x="69.2" y="105" opacity="0.550245068236047">九</text><text x="69.2" y="120" opacity="0.49080690260470294">エ</text><text x="88.93333333333334" y="15" opacity="0.24174722292770626">エ</text><text x="88.93333333333334" y="30" opacity="0.38468861249500963">エ</text><text x="88.93333333333334" y="45" opacity="0.16771905370191778">ア</text><text x="88.93333333333334" y="60" opacity="0.13588863872824056">力</text><text x="88.93333333333334" y="75" opacity="0.30886586761212087">ア</text><text x="88.93333333333334" y="90" opacity="0.13071440189679798">0</text><text x="88.93333333333334" y="105" opacity="0.35486258265345993">七</text><text x="88.93333333333334" y="120" opacity="0.5402302935364548">1</text><text x="108.66666666666667" y="15" opacity="0.5545635625443962">1</text><text x="108.66666666666667" y="30" opacity="0.32802601544334">エ</text><text x="108.66666666666667" y="45" opacity="0.5554911864528281">ウ</text><text x="108.66666666666667" y="60" opacity="0.40981487359242164">0</text><text x="108.66666666666667" y="75" opacity="0.4444565680928618">エ</text><text x="108.66666666666667" y="90" opacity="0.16903618990501093">七</text><text x="108.66666666666667" y="105" opacity="0.12382748985071626">七</text><text x="108.66666666666667" y="120" opacity="0.3602408725614382">1</text><text x="128.4" y="15" opacity="0.3628543476009287">ウ</text><text x="128.4" y="30" opacity="0.36663633538016804">オ</text><text x="128.4" y="45" opacity="0.5208367917619173">エ</text><text x="128.4" y="60" opacity="0.18357319202716296">七</text><text x="128.4" y="75" opacity="0.4888181592472747">0</text><text x="128.4" y="90" opacity="0.2934116901648558">ア</text><text x="128.4" y="105" opacity="0.2203364798895067">ウ</text><text x="128.4" y="120" opacity="0.49436099674038925">九</text><text x="148.13333333333333" y="15" opacity="0.27220112030935817">イ</text><text x="148.13333333333333" y="30" opacity="0.39199651602848906">イ</text><text x="148.13333333333333" y="45" opacity="0.4888789440026228">0</text><text x="148.13333333333333" y="60" opacity="0.5493172278365587">エ</text><text x="148.13333333333333" y="75" opacity="0.4885261197430423">0</text><text x="148.13333333333333" y="90" opacity="0.23416096752822915">エ</text><text x="148.13333333333333" y="105" opacity="0.4828789019799199">九</text><text x="148.13333333333333" y="120" opacity="0.4547764143816396">エ</text><text x="167.86666666666667" y="15" opacity="0.5553382681924658">九</text><text x="167.86666666666667" y="30" opacity="0.30578709144864247">イ</text><text x="167.86666666666667" y="45" opacity="0.17103139245678392">0</text><text x="167.86666666666667" y="60" opacity="0.49699374917693606">0</text><text x="167.86666666666667" y="75" opacity="0.19633886806691106">九</text><text x="167.86666666666667" y="90" opacity="0.42826956673657335">ウ</text><text x="167.86666666666667" y="105" opacity="0.13917382952129356">0</text><text x="167.86666666666667" y="120" opacity="0.2856067393893764">0</text><text x="187.60000000000002" y="15" opacity="0.41753599524515117">力</text><text x="187.60000000000002" y="30" opacity="0.5233875113675418">九</text><text x="187.60000000000002" y="45" opacity="0.26251000179764405">0</text><text x="187.60000000000002" y="60" opacity="0.208647671078002">ア</text><text x="187.60000000000002" y="75" opacity="0.36445284734522954">0</text><text x="187.60000000000002" y="90" opacity="0.23374846085129833">エ</text><text x="187.60000000000002" y="105" opacity="0.3729353531597691">エ</text><text x="187.60000000000002" y="120" opacity="0.11688063273962548">七</text><text x="207.33333333333334" y="15" opacity="0.2810868206445942">1</text><text x="207.33333333333334" y="30" opacity="0.5648324650900773">エ</text><text x="207.33333333333334" y="45" opacity="0.5514605133897302">ア</text><text x="207.33333333333334" y="60" opacity="0.38096385776462116">0</text><text x="207.33333333333334" y="75" opacity="0.30626550388548435">七</text><text x="207.33333333333334" y="90" opacity="0.1862304933514645">エ</text><text x="207.33333333333334" y="105" opacity="0.16993207629974075">イ</text><text x="207.33333333333334" y="120" opacity="0.21232014238667044">0</text><text x="227.06666666666666" y="15" opacity="0.11278776847194785">ウ</text><text x="227.06666666666666" y="30" opacity="0.48007144187959394">力</text><text x="227.06666666666666" y="45" opacity="0.5053189569754126">0</text><text x="227.06666666666666" y="60" opacity="0.3122263123945739">オ</text><text x="227.06666666666666" y="75" opacity="0.38477575428379607">九</text><text x="227.06666666666666" y="90" opacity="0.42861159989203423">ウ</text><text x="227.06666666666666" y="105" opacity="0.47094613801994667">オ</text><text x="227.06666666666666" y="120" opacity="0.2810596148388895">七</text><text x="246.8" y="15" opacity="0.5587569149194686">イ</text><text x="246.8" y="30" opacity="0.3732979171050079">九</text><text x="246.8" y="45" opacity="0.2716121527374754">九</text><text x="246.8" y="60" opacity="0.46666578239179457">1</text><text x="246.8" y="75" opacity="0.31222132215711396">ア</text><text x="246.8" y="90" opacity="0.4003351576618823">ウ</text><text x="246.8" y="105" opacity="0.21835586258204345">ア</text><text x="246.8" y="120" opacity="0.3703777256047739">イ</text><text x="266.53333333333336" y="15" opacity="0.19307354449432437">オ</text><text x="266.53333333333336" y="30" opacity="0.24286195110087097">九</text><text x="266.53333333333336" y="45" opacity="0.16288490061927866">ア</text><text x="266.53333333333336" y="60" opacity="0.282173445057737">力</text><text x="266.53333333333336" y="75" opacity="0.5828699283269826">0</text><text x="266.53333333333336" y="90" opacity="0.22823848185696752">1</text><text x="266.53333333333336" y="105" opacity="0.32253233758806843">力</text><text x="266.53333333333336" y="120" opacity="0.5028421066978828">七</text><text x="286.26666666666665" y="15" opacity="0.31857777026773226">力</text><text x="286.26666666666665" y="30" opacity="0.4887016820291985">エ</text><text x="286.26666666666665" y="45" opacity="0.4619592763460971">エ</text><text x="286.26666666666665" y="60" opacity="0.48424521365696105">イ</text><text x="286.26666666666665" y="75" opacity="0.3205516058944542">力</text><text x="286.26666666666665" y="90" opacity="0.553147968848653">ア</text><text x="286.26666666666665" y="105" opacity="0.31354715222851504">オ</text><text x="286.26666666666665" y="120" opacity="0.48134437894985915">ウ</text>
        </g>
        <rect x="5" y="5" width="286" height="331" fill="none" stroke="#00ff00" stroke-width="1" rx="8" ry="8" stroke-opacity="0.3"/>
      
      <!-- Weather Effects (behind pet) -->
      <g class="weather-layer" style="pointer-events: none;">
        
      </g>
      <!-- Evolution Effects (behind pet) -->
      <g class="evolution-layer" style="pointer-events: none;">
        
      <defs>
        <radialGradient id="evolutionAura">
          <stop offset="0%" stop-color="#FFD700" stop-opacity="0.6"/>
          <stop offset="70%" stop-color="#FFD700" stop-opacity="0.2"/>
          <stop offset="100%" stop-color="#FFD700" stop-opacity="0"/>
        </radialGradient>
        <filter id="evolutionGlow">
          <feGaussianBlur stdDeviation="3" result="coloredBlur"/>
          <feMerge>
            <feMergeNode in="coloredBlur"/>
            <feMergeNode in="SourceGraphic"/>
          </feMerge>
        </filter>
      </defs>
      <circle cx="148" cy="148" r="45" fill="url(#evolutionAura)">
        <animate attributeName="r" values="45;53;45" dur="2s" repeatCount="indefinite"/>
        <animate attributeName="opacity" values="0.7;1;0.7" dur="2s" repeatCount="indefinite"/>
      </circle>
    
      </g>
      <g transform="translate(20, 20)" opacity="1">
        <g class="pet">
            <rect x="64" y="16" width="16" height="16" fill="#2d333b" /><rect x="80" y="16" width="16" height="16" fill="#2d333b" /><rect x="96" y="16" width="16" height="16" fill="#2d333b" /><rect x="112" y="16" width="16" height="16" fill="#2d333b" /><rect x="128" y="16" width="16" height="16" fill="#2d333b" /><rect x="144" y="16" width="16" height="16" fill="#2d333b" /><rect x="160" y="16" width="16" height="16" fill="#2d333b" /><rect x="176" y="16" width="16" height="16" fill="#2d333b" /><rect x="32" y="32" width="16" height="16" fill="#2d333b" /><rect x="48" y="32" width="16" height="16" fill="#2d333b" /><rect x="64" y="32" width="16" height="16" fill="#00ADD8" /><rect x="80" y="32" width="16" height="16" fill="#00ADD8" /><rect x="96" y="32" width="16" height="16" fill="#00ADD8" /><rect x="112" y="32" width="16" height="16" fill="#00ADD8" /><rect x="128" y="32" width="16" height="16" fill="#00ADD8" /><rect x="144" y="32" width="16" height="16" fill="#00ADD8" /><rect x="160" y="32" width="16" height="16" fill="#00ADD8" /><rect x="176" y="32" width="16" height="16" fill="#00ADD8" /><rect x="192" y="32" width="16" height="16" fill="#2d333b" /><rect x="208" y="32" width="16" height="16" fill="#2d333b" /><rect x="16" y="48" width="16" height="16" fill="#2d333b" /><rect x="32" y="48" width="16" height="16" fill="#00ADD8" /><rect x="48" y="48" width="16" height="16" fill="#00ADD8" /><rect x="64" y="48" width="16" height="16" fill="#2d333b" /><rect x="80" y="48" width="16" height="16" fill="#2d333b" /><rect x="96" y="48" width="16" height="16" fill="#2d333b" /><rect x="112" y="48" width="16" height="16" fill="#2d333b" /><rect x="128" y="48" width="16" height="16" fill="#2d333b" /><rect x="144" y="48" width="16" height="16" fill="#2d333b" /><rect x="160" y="48" width="16" height="16" fill="#00ADD8" /><rect x="176" y="48" width="16" height="16" fill="#00ADD8" /><rect x="192" y="48" width="16" height="16" fill="#00ADD8" /><rect x="208" y="48" width="16" height="16" fill="#00ADD8" /><rect x="224" y="48" width="16" height="16" fill="#2d333b" /><rect x="16" y="64" width="16" height="16" fill="#2d333b" /><rect x="32" y="64" width="16" height="16" fill="#00ADD8" /><rect x="48" y="64" width="16" height="16" fill="#00ADD8" /><rect x="64" y="64" width="16" height="16" fill="#00ADD8" /><rect x="80" y="64" width="16" height="16" fill="#00ADD8" /><rect x="96" y="64" width="16" height="16" fill="#00ADD8" /><rect x="112" y="64" width="16" height="16" fill="#00ADD8" /><rect x="128" y="64" width="16" height="16" fill="#00ADD8" /><rect x="144" y="64" width="16" height="16" fill="#00ADD8" /><rect x="160" y="64" width="16" height="16" fill="#00ADD8" /><rect x="176" y="64" width="16" height="16" fill="#00ADD8" /><rect x="192" y="64" width="16" height="16" fill="#00ADD8" /><rect x="208" y="64" width="16" height="16" fill="#2d333b" /><rect x="0" y="80" width="16" height="16" fill="#2d333b" /><rect x="16" y="80" width="16" height="16" fill="#00ADD8" /><rect x="32" y="80" width="16" height="16" fill="#00ADD8" /><rect x="48" y="80" width="16" height="16" fill="#00ADD8" /><rect x="64" y="80" width="16" height="16" fill="#00ADD8" /><rect x="80" y="80" width="16" height="16" fill="#00ADD8" /><rect x="96" y="80" width="16" height="16" fill="#00ADD8" /><rect x="112" y="80" width="16" height="16" fill="#00ADD8" /><rect x="128" y="80" width="16" height="16" fill="#00ADD8" /><rect x="144" y="80" width="16" height="16" fill="#00ADD8" /><rect x="160" y="80" width="16" height="16" fill="#00ADD8" /><rect x="176" y="80" width="16" height="16" fill="#00ADD8" /><rect x="192" y="80" width="16" height="16" fill="#00ADD8" /><rect x="208" y="80" width="16" height="16" fill="#00ADD8" /><rect x="224" y="80" width="16" height="16" fill="#2d333b" /><rect x="0" y="96" width="16" height="16" fill="#2d333b" /><rect x="16" y="96" width="16" height="16" fill="#00ADD8" /><rect x="32" y="96" width="16" height="16" fill="#00ADD8" /><rect x="48" y="96" width="16" height="16" fill="#00ADD8" /><rect x="64" y="96" width="16" height="16" fill="#00ADD8" /><rect x="80" y="96" width="16" height="16" fill="#2d333b" /><rect x="96" y="96" width="16" height="16" fill="#00ADD8" /><rect x="112" y="96" width="16" height="16" fill="#00ADD8" /><rect x="128" y="96" width="16" height="16" fill="#00ADD8" /><rect x="144" y="96" width="16" height="16" fill="#00ADD8" /><rect x="160" y="96" width="16" height="16" fill="#00ADD8" /><rect x="176" y="96" width="16" height="16" fill="#00ADD8" /><rect x="192" y="96" width="16" height="16" fill="#00ADD8" /><rect x="208" y="96" width="16" height="16" fill="#00ADD8" /><rect x="224" y="96" width="16" height="16" fill="#2d333b" /><rect x="16" y="112" width="16" height="16" fill="#2d333b" /><rect x="32" y="112" width="16" height="16" fill="#00ADD8" /><rect x="48" y="112" width="16" height="16" fill="#00ADD8" /><rect x="64" y="112" width="16" height="16" fill="#00ADD8" /><rect x="80" y="112" width="16" height="16" fill="#2d333b" /><rect x="96" y="112" width="16" height="16" fill="#00ADD8" /><rect x="112" y="112" width="16" height="16" fill="#00ADD8" /><rect x="128" y="112" width="16" height="16" fill="#00ADD8" /><rect x="144" y="112" width="16" height="16" fill="#00ADD8" /><rect x="160" y="112" width="16" height="16" fill="#00ADD8" /><rect x="176" y="112" width="16" height="16" fill="#00ADD8" /><rect x="192" y="112" width="16" height="16" fill="#2d333b" /><rect x="32" y="128" width="16" height="16" fill="#2d333b" /><rect x="48" y="128" width="16" height="16" fill="#00ADD8" /><rect x="64" y="128" width="16" height="16" fill="#00ADD8" /><rect x="80" y="128" width="16" height="16" fill="#2d333b" /><rect x="96" y="128" width="16" height="16" fill="#00ADD8" /><rect x="112" y="128" width="16" height="16" fill="#00ADD8" /><rect x="128" y="128" width="16" height="16" fill="#00ADD8" /><rect x="144" y="128" width="16" height="16" fill="#00ADD8" /><rect x="160" y="128" width="16" height="16" fill="#00ADD8" /><rect x="176" y="128" width="16" height="16" fill="#2d333b" /><rect x="32" y="144" width="16" height="16" fill="#2d333b" /><rect x="48" y="144" width="16" height="16" fill="#00ADD8" /><rect x="64" y="144" width="16" height="16" fill="#2d333b" /><rect x="80" y="144" width="16" height="16" fill="#00ADD8" /><rect x="96" y="144" width="16" height="16" fill="#00ADD8" /><rect x="112" y="144" width="16" height="16" fill="#00ADD8" /><rect x="128" y="144" width="16" height="16" fill="#00ADD8" /><rect x="144" y="144" width="16" height="16" fill="#00ADD8" /><rect x="160" y="144" width="16" height="16" fill="#00ADD8" /><rect x="176" y="144" width="16" height="16" fill="#2d333b" /><rect x="48" y="160" width="16" height="16" fill="#2d333b" /><rect x="64" y="160" width="16" height="16" fill="#2d333b" /><rect x="80" y="160" width="16" height="16" fill="#00ADD8" /><rect x="96" y="160" width="16" height="16" fill="#00ADD8" /><rect x="112" y="160" width="16" height="16" fill="#00ADD8" /><rect x="128" y="160" width="16" height="16" fill="#00ADD8" /><rect x="144" y="160" width="16" height="16" fill="#00ADD8" /><rect x="160" y="160" width="16" height="16" fill="#2d333b" /><rect x="64" y="176" width="16" height="16" fill="#2d333b" /><rect x="80" y="176" width="16" height="16" fill="#2d333b" /><rect x="96" y="176" width="16" height="16" fill="#2d333b" /><rect x="112" y="176" width="16" height="16" fill="#2d333b" /><rect x="128" y="176" width="16" height="16" fill="#2d333b" /><rect x="144" y="176" width="16" height="16" fill="#2d333b" />
            
        <animateTransform 
            attributeName="transform" 
            type="scale" 
            values="1 1; 1.02 0.98; 1 1" 
            dur="2s" 
            repeatCount="indefinite" 
        />
        </g>
        <!-- Speech Bubble -->
        
    <g transform="translate(226, -25)">
      <!-- Speech bubble -->
      <rect x="0" y="0" width="139" height="24" rx="10" ry="10" 
            fill="#FFFFFF" stroke="#2d333b" stroke-width="1.5"/>
      <!-- Bubble tail -->
      <polygon points="15,24 20,32 25,24" 
               fill="#FFFFFF" stroke="#2d333b" stroke-width="1.5"/>
      <line x1="16" y1="24" x2="24" y2="24" stroke="#FFFFFF" stroke-width="2"/>
      <!-- Text -->
      <text x="69.5" y="16" 
            font-family="'Segoe UI', Arial, sans-serif" font-size="10" 
            fill="#2d333b" text-anchor="middle">Do not disturb...</text>
    </g>
  
        <!-- Seasonal Accessory (z-index: above pet) -->
        
      </g>
      
      <!-- Level & Mood Text -->
      <text x="20" y="299" font-family="monospace" font-size="11" fill="#00ff00">
        ⭐ Lv.33 Adult
      </text>
      <text x="276" y="299" text-anchor="end" font-family="monospace" font-size="11" fill="#00ff00">
        💤 SLEEPING 🔥6
      </text>
      
      <!-- XP Progress Bar -->
      <rect x="20" y="306" width="256" height="8" rx="4" fill="#e0e0e0" stroke="#0288d1" stroke-width="1"/>
      <rect x="20" y="306" width="176.64" height="8" rx="4" fill="#4fc3f7">
        <animate attributeName="width" from="0" to="176.64" dur="0.5s" fill="freeze"/>
      </rect>
      
      <!-- XP Text -->
      <text x="50%" y="329" text-anchor="middle" font-family="monospace" font-size="9" fill="#00ff00">
        XP: 10690 / 10890 (69%)
      </text>
    
      
      <!-- Achievement Badges -->
      <g transform="translate(15, 311)">
    <g class="achievements">
      
      <g transform="translate(5, 0)">
        <title>Spark: 3 day streak</title>
        <circle cx="10" cy="10" r="10" fill="rgba(255,255,255,0.9)" stroke="#ddd" stroke-width="1"/>
        <text x="10" y="14" text-anchor="middle" font-size="11">⚡</text>
      </g>
    
      <g transform="translate(30, 0)">
        <title>Rising Star: Level 5</title>
        <circle cx="10" cy="10" r="10" fill="rgba(255,255,255,0.9)" stroke="#ddd" stroke-width="1"/>
        <text x="10" y="14" text-anchor="middle" font-size="11">🌟</text>
      </g>
    
      <g transform="translate(55, 0)">
        <title>Shining: Level 10</title>
        <circle cx="10" cy="10" r="10" fill="rgba(255,255,255,0.9)" stroke="#ddd" stroke-width="1"/>
        <text x="10" y="14" text-anchor="middle" font-size="11">✨</text>
      </g>
    
      <g transform="translate(80, 0)">
        <title>Rainbow: Level 25</title>
        <circle cx="10" cy="10" r="10" fill="rgba(255,255,255,0.9)" stroke="#ddd" stroke-width="1"/>
        <text x="10" y="14" text-anchor="middle" font-size="11">🌈</text>
      </g>
    
      <g transform="translate(105, 0)">
        <title>Weekend Warrior: Weekend commit</title>
        <circle cx="10" cy="10" r="10" fill="rgba(255,255,255,0.9)" stroke="#ddd" stroke-width="1"/>
        <text x="10" y="14" text-anchor="middle" font-size="11">🏖️</text>
      </g>
    
      
    </g>
  </g>
    </svg>