<svg xmlns="http://www.w3.org/2000/svg" width="296" height="341" viewBox="0 0 296 341">
      <style>
        .pet { transform-origin: center; }
      </style>
      <!-- Theme Background -->
      
        <rect x="0" y="0" width="296" height="341" fill="#0d0d0d" rx="12" ry="12"/>
        <g font-family="monospace" font-size="10" fill="#00ff00" opacity="0.3">
          <text x="10" y="15" opacity="0.27681108258218723">0</text><text x="10" y="30" opacity="0.45308783663850916">1</text><text x="10" y="45" opacity="0.13005991139809173">イ</text><text x="10" y="60" opacity="0.5385283913037533">九</text><text x="10" y="75" opacity="0.3816459849293833">七</text><text x="10" y="90" opacity="0.3740389599260264">七</text><text x="10" y="105" opacity="0.3446851770102498">オ</text><text x="10" y="120" opacity="0.538179089009895">七</text><text x="29.733333333333334" y="15" opacity="0.26709943503994826">1</text><text x="29.733333333333334" y="30" opacity="0.25391851815008637">0</text><text x="29.733333333333334" y="45" opacity="0.23999122406705978">0</text><text x="29.733333333333334" y="60" opacity="0.39899006190196584">0</text><text x="29.733333333333334" y="75" opacity="0.2740287451450085">七</text><text x="29.733333333333334" y="90" opacity="0.3081429292860023">力</text><text x="29.733333333333334" y="105" opacity="0.4069028999986781">九</text><text x="29.733333333333334" y="120" opacity="0.5531264670660935">オ</text><text x="49.46666666666667" y="15" opacity="0.35786845481083895">0</text><text x="49.46666666666667" y="30" opacity="0.20793612740999126">オ</text><text x="49.46666666666667" y="45" opacity="0.23025932993502055">七</text><text x="49.46666666666667" y="60" opacity="0.43717525247591915">1</text><text x="49.46666666666667" y="75" opacity="0.5149424073329542">0</text><text x="49.46666666666667" y="90" opacity="0.36392163580247294">ウ</text><text x="49.46666666666667" y="105" opacity="0.5529521507756427">オ</text><text x="49.46666666666667" y="120" opacity="0.18107563477380909">七</text><text x="69.2" y="15" opacity="0.3874191638022675">イ</text><text x="69.2" y="30" opacity="0.19743630745798638">0</text><text x="69.2" y="45" opacity="0.18316892663442">七</text><text x="69.2" y="60" opacity="0.14235821516512517">力</text><text x="69.2" y="75" opacity="0.18975437621642502">ア</text><text x="69.2" y="90" opacity="0.21573567213259684">オ</text><text x="69.2" y="105" opacity="0.11856807437638531">七</text><text x="69.2" y="120" opacity="0.2690188357129626">1</text><text x="88.93333333333334" y="15" opacity="0.5886946299809301">エ</text><text x="88.93333333333334" y="30" opacity="0.542868863811844">力</text><text x="88.93333333333334" y="45" opacity="0.47507591321963916">オ</text><text x="88.93333333333334" y="60" opacity="0.4713617261860962">七</text><text x="88.93333333333334" y="75" opacity="0.4714231753117397">ウ</text><text x="88.93333333333334" y="90" opacity="0.4991375582918979">1</text><text x="88.93333333333334" y="105" opacity="0.4147020510997773">七</text><text x="88.93333333333334" y="120" opacity="0.18750268363084713">1</text><text x="108.66666666666667" y="15" opacity="0.5023508890381871">七</text><text x="108.66666666666667" y="30" opacity="0.5961622295654837">ウ</text><text x="108.66666666666667" y="45" opacity="0.4185412417441903">ア</text><text x="108.66666666666667" y="60" opacity="0.5176938701922804">ウ</text><text x="108.66666666666667" y="75" opacity="0.4827312237587963">力</text><text x="108.66666666666667" y="90" opacity="0.42549998944664347">イ</text><text x="108.66666666666667" y="105" opacity="0.5288588259660054">力</text><text x="108.66666666666667" y="120" opacity="0.3285147944782657">七</text><text x="128.4" y="15" opacity="0.4162728677463672">力</text><text x="128.4" y="30" opacity="0.3476682290578015">0</text><text x="128.4" y="45" opacity="0.529366093696632">ア</text><text x="128.4" y="60" opacity="0.5195907242369565">ウ</text><text x="128.4" y="75" opacity="0.2880400047202061">オ</text><text x="128.4" y="90" opacity="0.15957304787293827">七</text><text x="128.4" y="105" opacity="0.49124149728914634">ウ</text><text x="128.4" y="120" opacity="0.4250308091848882">エ</text><text x="148.13333333333333" y="15" opacity="0.20162443089940976">ウ</text><text x="148.13333333333333" y="30" opacity="0.33787809746120434">1</text><text x="148.13333333333333" y="45" opacity="0.20337617620624485">オ</text><text x="148.13333333333333" y="60" opacity="0.4381057527394665">力</text><text x="148.13333333333333" y="75" opacity="0.4463499357663385">ア</text><text x="148.13333333333333" y="90" opacity="0.470173530474844">ア</text><text x="148.13333333333333" y="105" opacity="0.34970185641672236">1</text><text x="148.13333333333333" y="120" opacity="0.24014232943162664">オ</text><text x="167.86666666666667" y="15" opacity="0.2704426194403381">0</text><text x="167.86666666666667" y="30" opacity="0.4350031327433972">ウ</text><text x="167.86666666666667" y="45" opacity="0.4957081474593138">九</text><text x="167.86666666666667" y="60" opacity="0.3266082955944716">ア</text><text x="167.86666666666667" y="75" opacity="0.3572329485196899">ア</text><text x="167.86666666666667" y="90" opacity="0.30519559563562215">オ</text><text x="167.86666666666667" y="105" opacity="0.528943400046677">ア</text><text x="167.86666666666667" y="120" opacity="0.5226595923578091">イ</text><text x="187.60000000000002" y="15" opacity="0.35186354281879206">0</text><text x="187.60000000000002" y="30" opacity="0.2836884519053461">0</text><text x="187.60000000000002" y="45" opacity="0.21553695563199773">オ</text><text x="187.60000000000002" y="60" opacity="0.15890725371506223">七</text><text x="187.60000000000002" y="75" opacity="0.2845044256652559">九</text><text x="187.60000000000002" y="90" opacity="0.4374488373771306">イ</text><text x="187.60000000000002" y="105" opacity="0.2920517424745205">エ</text><text x="187.60000000000002" y="120" opacity="0.31521005167157135">ウ</text><text x="207.33333333333334" y="15" opacity="0.1843339090806533">ア</text><text x="207.33333333333334" y="30" opacity="0.35257882999576984">イ</text><text x="207.33333333333334" y="45" opacity="0.2258364675950131">九</text><text x="207.33333333333334" y="60" opacity="0.5306012645044973">力</text><text x="207.33333333333334" y="75" opacity="0.2579334315435632">力</text><text x="207.33333333333334" y="90" opacity="0.35453657336365896">ウ</text><text x="207.33333333333334" y="105" opacity="0.450968437367517">エ</text><text x="207.33333333333334" y="120" opacity="0.43082441022018436">七</text><text x="227.06666666666666" y="15" opacity="0.12094443182429584">九</text><text x="227.06666666666666" y="30" opacity="0.40240955478752605">力</text><text x="227.06666666666666" y="45" opacity="0.1356667217465999">ウ</text><text x="227.06666666666666" y="60" opacity="0.2962934151805441">七</text><text x="227.06666666666666" y="75" opacity="0.5183806408732895">イ</text><text x="227.06666666666666" y="90" opacity="0.14700348357652174">0</text><text x="227.06666666666666" y="105" opacity="0.5195648303367647">力</text><text x="227.06666666666666" y="120" opacity="0.35792399582580503">1</text><text x="246.8" y="15" opacity="0.45683876878977225">オ</text><text x="246.8" y="30" opacity="0.1031437315911227">0</text><text x="246.8" y="45" opacity="0.4312366454456681">イ</text><text x="246.8" y="60" opacity="0.38080478068652124">ウ</text><text x="246.8" y="75" opacity="0.5150388331940189">オ</text><text x="246.8" y="90" opacity="0.23128586113217178">1</text><text x="246.8" y="105" opacity="0.4945370666729336">エ</text><text x="246.8" y="120" opacity="0.25043646575767653">七</text><text x="266.53333333333336" y="15" opacity="0.17544932665033988">ア</text><text x="266.53333333333336" y="30" opacity="0.5269876950700079">0</text><text x="266.53333333333336" y="45" opacity="0.4622704402340869">イ</text><text x="266.53333333333336" y="60" opacity="0.5702578795694729">1</text><text x="266.53333333333336" y="75" opacity="0.23767019318659913">力</text><text x="266.53333333333336" y="90" opacity="0.453784871084845">オ</text><text x="266.53333333333336" y="105" opacity="0.5366639220281013">0</text><text x="266.53333333333336" y="120" opacity="0.26653987955713765">力</text><text x="286.26666666666665" y="15" opacity="0.5141256962734675">ウ</text><text x="286.26666666666665" y="30" opacity="0.43981073157712325">ア</text><text x="286.26666666666665" y="45" opacity="0.5047578065265541">ア</text><text x="286.26666666666665" y="60" opacity="0.5379678614572521">エ</text><text x="286.26666666666665" y="75" opacity="0.5673560034325247">九</text><text x="286.26666666666665" y="90" opacity="0.5968078115330012">イ</text><text x="286.26666666666665" y="105" opacity="0.3137396200550534">七</text><text x="286.26666666666665" y="120" opacity="0.48223340975017226">七</text>
        </g>
        <rect x="5" y="5" width="286" height="331" fill="none" stroke="#00ff00" stroke-width="1" rx="8" ry="8" stroke-opacity="0.3"/>
      
      <!-- Weather Effects (behind pet) -->
      <g class="weather-layer" style="pointer-events: none;">
        
        <g opacity="0.6">
          <line x1="10" y1="-10" x2="5" y2="10" stroke="#4FC3F7" stroke-width="2" stroke-linecap="round">
          <animate attributeName="y1" values="-10;351" dur="0.7s" begin="0s" repeatCount="indefinite"/>
          <animate attributeName="y2" values="10;371" dur="0.7s" begin="0s" repeatCount="indefinite"/>
        </line><line x1="24.8" y1="-10" x2="19.8" y2="10" stroke="#4FC3F7" stroke-width="2" stroke-linecap="round">
          <animate attributeName="y1" values="-10;351" dur="0.7s" begin="0.1s" repeatCount="indefinite"/>
          <animate attributeName="y2" values="10;371" dur="0.7s" begin="0.1s" repeatCount="indefinite"/>
        </line><line x1="39.6" y1="-10" x2="34.6" y2="10" stroke="#4FC3F7" stroke-width="2" stroke-linecap="round">
          <animate attributeName="y1" values="-10;351" dur="0.7s" begin="0.2s" repeatCount="indefinite"/>
          <animate attributeName="y2" values="10;371" dur="0.7s" begin="0.2s" repeatCount="indefinite"/>
        </line><line x1="54.400000000000006" y1="-10" x2="49.400000000000006" y2="10" stroke="#4FC3F7" stroke-width="2" stroke-linecap="round">
          <animate attributeName="y1" values="-10;351" dur="0.7s" begin="0.30000000000000004s" repeatCount="indefinite"/>
          <animate attributeName="y2" values="10;371" dur="0.7s" begin="0.30000000000000004s" repeatCount="indefinite"/>
        </line><line x1="69.2" y1="-10" x2="64.2" y2="10" stroke="#4FC3F7" stroke-width="2" stroke-linecap="round">
          <animate attributeName="y1" values="-10;351" dur="0.7s" begin="0.4s" repeatCount="indefinite"/>
          <animate attributeName="y2" values="10;371" dur="0.7s" begin="0.4s" repeatCount="indefinite"/>
        </line><line x1="84" y1="-10" x2="79" y2="10" stroke="#4FC3F7" stroke-width="2" stroke-linecap="round">
          <animate attributeName="y1" values="-10;351" dur="0.7s" begin="0.5s" repeatCount="indefinite"/>
          <animate attributeName="y2" values="10;371" dur="0.7s" begin="0.5s" repeatCount="indefinite"/>
        </line><line x1="98.80000000000001" y1="-10" x2="93.80000000000001" y2="10" stroke="#4FC3F7" stroke-width="2" stroke-linecap="round">
          <animate attributeName="y1" values="-10;351" dur="0.7s" begin="0.6000000000000001s" repeatCount="indefinite"/>
          <animate attributeName="y2" values="10;371" dur="0.7s" begin="0.6000000000000001s" repeatCount="indefinite"/>
        </line><line x1="113.60000000000001" y1="-10" x2="108.60000000000001" y2="10" stroke="#4FC3F7" stroke-width="2" stroke-linecap="round">
          <animate attributeName="y1" values="-10;351" dur="0.7s" begin="0.7000000000000001s" repeatCount="indefinite"/>
          <animate attributeName="y2" values="10;371" dur="0.7s" begin="0.7000000000000001s" repeatCount="indefinite"/>
        </line><line x1="128.4" y1="-10" x2="123.4" y2="10" stroke="#4FC3F7" stroke-width="2" stroke-linecap="round">
          <animate attributeName="y1" values="-10;351" dur="0.7s" begin="0.8s" repeatCount="indefinite"/>
          <animate attributeName="y2" values="10;371" dur="0.7s" begin="0.8s" repeatCount="indefinite"/>
        </line><line x1="143.20000000000002" y1="-10" x2="138.20000000000002" y2="10" stroke="#4FC3F7" stroke-width="2" stroke-linecap="round">
          <animate attributeName="y1" values="-10;351" dur="0.7s" begin="0.9s" repeatCount="indefinite"/>
          <animate attributeName="y2" values="10;371" dur="0.7s" begin="0.9s" repeatCount="indefinite"/>
        </line><line x1="158" y1="-10" x2="153" y2="10" stroke="#4FC3F7" stroke-width="2" stroke-linecap="round">
          <animate attributeName="y1" values="-10;351" dur="0.7s" begin="0s" repeatCount="indefinite"/>
          <animate attributeName="y2" values="10;371" dur="0.7s" begin="0s" repeatCount="indefinite"/>
        </line><line x1="172.8" y1="-10" x2="167.8" y2="10" stroke="#4FC3F7" stroke-width="2" stroke-linecap="round">
          <animate attributeName="y1" values="-10;351" dur="0.7s" begin="0.10000000000000009s" repeatCount="indefinite"/>
          <animate attributeName="y2" values="10;371" dur="0.7s" begin="0.10000000000000009s" repeatCount="indefinite"/>
        </line><line x1="187.60000000000002" y1="-10" x2="182.60000000000002" y2="10" stroke="#4FC3F7" stroke-width="2" stroke-linecap="round">
          <animate attributeName="y1" values="-10;351" dur="0.7s" begin="0.20000000000000018s" repeatCount="indefinite"/>
          <animate attributeName="y2" values="10;371" dur="0.7s" begin="0.20000000000000018s" repeatCount="indefinite"/>
        </line><line x1="202.4" y1="-10" x2="197.4" y2="10" stroke="#4FC3F7" stroke-width="2" stroke-linecap="round">
          <animate attributeName="y1" values="-10;351" dur="0.7s" begin="0.30000000000000004s" repeatCount="indefinite"/>
          <animate attributeName="y2" values="10;371" dur="0.7s" begin="0.30000000000000004s" repeatCount="indefinite"/>
        </line><line x1="217.20000000000002" y1="-10" x2="212.20000000000002" y2="10" stroke="#4FC3F7" stroke-width="2" stroke-linecap="round">
          <animate attributeName="y1" values="-10;351" dur="0.7s" begin="0.40000000000000013s" repeatCount="indefinite"/>
          <animate attributeName="y2" values="10;371" dur="0.7s" begin="0.40000000000000013s" repeatCount="indefinite"/>
        </line><line x1="232" y1="-10" x2="227" y2="10" stroke="#4FC3F7" stroke-width="2" stroke-linecap="round">
          <animate attributeName="y1" values="-10;351" dur="0.7s" begin="0.5s" repeatCount="indefinite"/>
          <animate attributeName="y2" values="10;371" dur="0.7s" begin="0.5s" repeatCount="indefinite"/>
        </line><line x1="246.8" y1="-10" x2="241.8" y2="10" stroke="#4FC3F7" stroke-width="2" stroke-linecap="round">
          <animate attributeName="y1" values="-10;351" dur="0.7s" begin="0.6000000000000001s" repeatCount="indefinite"/>
          <animate attributeName="y2" values="10;371" dur="0.7s" begin="0.6000000000000001s" repeatCount="indefinite"/>
        </line><line x1="261.6" y1="-10" x2="256.6" y2="10" stroke="#4FC3F7" stroke-width="2" stroke-linecap="round">
          <animate attributeName="y1" values="-10;351" dur="0.7s" begin="0.7000000000000002s" repeatCount="indefinite"/>
          <animate attributeName="y2" values="10;371" dur="0.7s" begin="0.7000000000000002s" repeatCount="indefinite"/>
        </line><line x1="276.40000000000003" y1="-10" x2="271.40000000000003" y2="10" stroke="#4FC3F7" stroke-width="2" stroke-linecap="round">
          <animate attributeName="y1" values="-10;351" dur="0.7s" begin="0.8s" repeatCount="indefinite"/>
          <animate attributeName="y2" values="10;371" dur="0.7s" begin="0.8s" repeatCount="indefinite"/>
        </line><line x1="291.2" y1="-10" x2="286.2" y2="10" stroke="#4FC3F7" stroke-width="2" stroke-linecap="round">
          <animate attributeName="y1" values="-10;351" dur="0.7s" begin="0.9000000000000001s" repeatCount="indefinite"/>
          <animate attributeName="y2" values="10;371" dur="0.7s" begin="0.9000000000000001s" repeatCount="indefinite"/>
        </line>
        </g>
      
      </g>
      <!-- Evolution Effects (behind pet) -->
      <g class="evolution-layer" style="pointer-events: none;">
        
      <defs>
        <radialGradient id="evolutionAura">
          <stop offset="0%" stop-color="#FFD700" stop-opacity="0.6"/>
          <stop offset="70%" stop-color="#FFD700" stop-opacity="0.2"/>
          <stop offset="100%" stop-color="#FFD700" stop-opacity="0"/>
        </radialGradient>
        <filter id="evolutionGlow">
          <feGaussianBlur stdDeviation="3" result="coloredBlur"/>
          <feMerge>
            <feMergeNode in="coloredBlur"/>
            <feMergeNode in="SourceGraphic"/>
          </feMerge>
        </filter>
      </defs>
      <circle cx="148" cy="148" r="45" fill="url(#evolutionAura)">
        <animate attributeName="r" values="45;53;45" dur="2s" repeatCount="indefinite"/>
        <animate attributeName="opacity" values="0.7;1;0.7" dur="2s" repeatCount="indefinite"/>
      </circle>
    
      </g>
      <g transform="translate(20, 20)" opacity="1">
        <g class="pet">
            <rect x="64" y="16" width="16" height="16" fill="#2d333b" /><rect x="80" y="16" width="16" height="16" fill="#2d333b" /><rect x="96" y="16" width="16" height="16" fill="#2d333b" /><rect x="112" y="16" width="16" height="16" fill="#2d333b" /><rect x="128" y="16" width="16" height="16" fill="#2d333b" /><rect x="144" y="16" width="16" height="16" fill="#2d333b" /><rect x="160" y="16" width="16" height="16" fill="#2d333b" /><rect x="176" y="16" width="16" height="16" fill="#2d333b" /><rect x="32" y="32" width="16" height="16" fill="#2d333b" /><rect x="48" y="32" width="16" height="16" fill="#2d333b" /><rect x="64" y="32" width="16" height="16" fill="#00ADD8" /><rect x="80" y="32" width="16" height="16" fill="#00ADD8" /><rect x="96" y="32" width="16" height="16" fill="#00ADD8" /><rect x="112" y="32" width="16" height="16" fill="#00ADD8" /><rect x="128" y="32" width="16" height="16" fill="#00ADD8" /><rect x="144" y="32" width="16" height="16" fill="#00ADD8" /><rect x="160" y="32" width="16" height="16" fill="#00ADD8" /><rect x="176" y="32" width="16" height="16" fill="#00ADD8" /><rect x="192" y="32" width="16" height="16" fill="#2d333b" /><rect x="208" y="32" width="16" height="16" fill="#2d333b" /><rect x="16" y="48" width="16" height="16" fill="#2d333b" /><rect x="32" y="48" width="16" height="16" fill="#00ADD8" /><rect x="48" y="48" width="16" height="16" fill="#00ADD8" /><rect x="64" y="48" width="16" height="16" fill="#2d333b" /><rect x="80" y="48" width="16" height="16" fill="#2d333b" /><rect x="96" y="48" width="16" height="16" fill="#2d333b" /><rect x="112" y="48" width="16" height="16" fill="#2d333b" /><rect x="128" y="48" width="16" height="16" fill="#2d333b" /><rect x="144" y="48" width="16" height="16" fill="#2d333b" /><rect x="160" y="48" width="16" height="16" fill="#00ADD8" /><rect x="176" y="48" width="16" height="16" fill="#00ADD8" /><rect x="192" y="48" width="16" height="16" fill="#00ADD8" /><rect x="208" y="48" width="16" height="16" fill="#00ADD8" /><rect x="224" y="48" width="16" height="16" fill="#2d333b" /><rect x="16" y="64" width="16" height="16" fill="#2d333b" /><rect x="32" y="64" width="16" height="16" fill="#00ADD8" /><rect x="48" y="64" width="16" height="16" fill="#00ADD8" /><rect x="64" y="64" width="16" height="16" fill="#00ADD8" /><rect x="80" y="64" width="16" height="16" fill="#00ADD8" /><rect x="96" y="64" width="16" height="16" fill="#00ADD8" /><rect x="112" y="64" width="16" height="16" fill="#00ADD8" /><rect x="128" y="64" width="16" height="16" fill="#00ADD8" /><rect x="144" y="64" width="16" height="16" fill="#00ADD8" /><rect x="160" y="64" width="16" height="16" fill="#00ADD8" /><rect x="176" y="64" width="16" height="16" fill="#00ADD8" /><rect x="192" y="64" width="16" height="16" fill="#00ADD8" /><rect x="208" y="64" width="16" height="16" fill="#2d333b" /><rect x="0" y="80" width="16" height="16" fill="#2d333b" /><rect x="16" y="80" width="16" height="16" fill="#00ADD8" /><rect x="32" y="80" width="16" height="16" fill="#00ADD8" /><rect x="48" y="80" width="16" height="16" fill="#00ADD8" /><rect x="64" y="80" width="16" height="16" fill="#00ADD8" /><rect x="80" y="80" width="16" height="16" fill="#00ADD8" /><rect x="96" y="80" width="16" height="16" fill="#00ADD8" /><rect x="112" y="80" width="16" height="16" fill="#00ADD8" /><rect x="128" y="80" width="16" height="16" fill="#00ADD8" /><rect x="144" y="80" width="16" height="16" fill="#00ADD8" /><rect x="160" y="80" width="16" height="16" fill="#00ADD8" /><rect x="176" y="80" width="16" height="16" fill="#00ADD8" /><rect x="192" y="80" width="16" height="16" fill="#00ADD8" /><rect x="208" y="80" width="16" height="16" fill="#00ADD8" /><rect x="224" y="80" width="16" height="16" fill="#2d333b" /><rect x="0" y="96" width="16" height="16" fill="#2d333b" /><rect x="16" y="96" width="16" height="16" fill="#00ADD8" /><rect x="32" y="96" width="16" height="16" fill="#00ADD8" /><rect x="48" y="96" width="16" height="16" fill="#00ADD8" /><rect x="64" y="96" width="16" height="16" fill="#00ADD8" /><rect x="80" y="96" width="16" height="16" fill="#2d333b" /><rect x="96" y="96" width="16" height="16" fill="#00ADD8" /><rect x="112" y="96" width="16" height="16" fill="#00ADD8" /><rect x="128" y="96" width="16" height="16" fill="#00ADD8" /><rect x="144" y="96" width="16" height="16" fill="#00ADD8" /><rect x="160" y="96" width="16" height="16" fill="#00ADD8" /><rect x="176" y="96" width="16" height="16" fill="#00ADD8" /><rect x="192" y="96" width="16" height="16" fill="#00ADD8" /><rect x="208" y="96" width="16" height="16" fill="#00ADD8" /><rect x="224" y="96" width="16" height="16" fill="#2d333b" /><rect x="16" y="112" width="16" height="16" fill="#2d333b" /><rect x="32" y="112" width="16" height="16" fill="#00ADD8" /><rect x="48" y="112" width="16" height="16" fill="#00ADD8" /><rect x="64" y="112" width="16" height="16" fill="#00ADD8" /><rect x="80" y="112" width="16" height="16" fill="#2d333b" /><rect x="96" y="112" width="16" height="16" fill="#00ADD8" /><rect x="112" y="112" width="16" height="16" fill="#00ADD8" /><rect x="128" y="112" width="16" height="16" fill="#00ADD8" /><rect x="144" y="112" width="16" height="16" fill="#00ADD8" /><rect x="160" y="112" width="16" height="16" fill="#00ADD8" /><rect x="176" y="112" width="16" height="16" fill="#00ADD8" /><rect x="192" y="112" width="16" height="16" fill="#2d333b" /><rect x="32" y="128" width="16" height="16" fill="#2d333b" /><rect x="48" y="128" width="16" height="16" fill="#00ADD8" /><rect x="64" y="128" width="16" height="16" fill="#00ADD8" /><rect x="80" y="128" width="16" height="16" fill="#2d333b" /><rect x="96" y="128" width="16" height="16" fill="#00ADD8" /><rect x="112" y="128" width="16" height="16" fill="#00ADD8" /><rect x="128" y="128" width="16" height="16" fill="#00ADD8" /><rect x="144" y="128" width="16" height="16" fill="#00ADD8" /><rect x="160" y="128" width="16" height="16" fill="#00ADD8" /><rect x="176" y="128" width="16" height="16" fill="#2d333b" /><rect x="32" y="144" width="16" height="16" fill="#2d333b" /><rect x="48" y="144" width="16" height="16" fill="#00ADD8" /><rect x="64" y="144" width="16" height="16" fill="#2d333b" /><rect x="80" y="144" width="16" height="16" fill="#00ADD8" /><rect x="96" y="144" width="16" height="16" fill="#00ADD8" /><rect x="112" y="144" width="16" height="16" fill="#00ADD8" /><rect x="128" y="144" width="16" height="16" fill="#00ADD8" /><rect x="144" y="144" width="16" height="16" fill="#00ADD8" /><rect x="160" y="144" width="16" height="16" fill="#00ADD8" /><rect x="176" y="144" width="16" height="16" fill="#2d333b" /><rect x="48" y="160" width="16" height="16" fill="#2d333b" /><rect x="64" y="160" width="16" height="16" fill="#2d333b" /><rect x="80" y="160" width="16" height="16" fill="#00ADD8" /><rect x="96" y="160" width="16" height="16" fill="#00ADD8" /><rect x="112" y="160" width="16" height="16" fill="#00ADD8" /><rect x="128" y="160" width="16" height="16" fill="#00ADD8" /><rect x="144" y="160" width="16" height="16" fill="#00ADD8" /><rect x="160" y="160" width="16" height="16" fill="#2d333b" /><rect x="64" y="176" width="16" height="16" fill="#2d333b" /><rect x="80" y="176" width="16" height="16" fill="#2d333b" /><rect x="96" y="176" width="16" height="16" fill="#2d333b" /><rect x="112" y="176" width="16" height="16" fill="#2d333b" /><rect x="128" y="176" width="16" height="16" fill="#2d333b" /><rect x="144" y="176" width="16" height="16" fill="#2d333b" />
            
        <animateTransform 
            attributeName="transform" 
            type="scale" 
            values="1 1; 1.02 0.98; 1 1" 
            dur="2s" 
            repeatCount="indefinite" 
        />
        </g>
        <!-- Speech Bubble -->
        
    <g transform="translate(226, -25)">
      <!-- Speech bubble -->
      <rect x="0" y="0" width="139" height="24" rx="10" ry="10" 
            fill="#FFFFFF" stroke="#2d333b" stroke-width="1.5"/>
      <!-- Bubble tail -->
      <polygon points="15,24 20,32 25,24" 
               fill="#FFFFFF" stroke="#2d333b" stroke-width="1.5"/>
      <line x1="16" y1="24" x2="24" y2="24" stroke="#FFFFFF" stroke-width="2"/>
      <!-- Text -->
      <text x="69.5" y="16" 
            font-family="'Segoe UI', Arial, sans-serif" font-size="10" 
            fill="#2d333b" text-anchor="middle">💤 BRB napping...</text>
    </g>
  
        <!-- Seasonal Accessory (z-index: above pet) -->
        
      </g>
      
      <!-- Level & Mood Text -->
      <text x="20" y="299" font-family="monospace" font-size="11" fill="#00ff00">
        ⭐ Lv.34 Adult
      </text>
      <text x="276" y="299" text-anchor="end" font-family="monospace" font-size="11" fill="#00ff00">
        💤 SLEEPING 🔥11
      </text>
      
      <!-- XP Progress Bar -->
      <rect x="20" y="306" width="256" height="8" rx="4" fill="#e0e0e0" stroke="#0288d1" stroke-width="1"/>
      <rect x="20" y="306" width="66.56" height="8" rx="4" fill="#4fc3f7">
        <animate attributeName="width" from="0" to="66.56" dur="0.5s" fill="freeze"/>
      </rect>
      
      <!-- XP Text -->
      <text x="50%" y="329" text-anchor="middle" font-family="monospace" font-size="9" fill="#00ff00">
        XP: 11070 / 11560 (26%)
      </text>
    
      
      <!-- Achievement Badges -->
      <g transform="translate(15, 311)">
    <g class="achievements">
      
      <g transform="translate(5, 0)">
        <title>Spark: 3 day streak</title>
        <circle cx="10" cy="10" r="10" fill="rgba(255,255,255,0.9)" stroke="#ddd" stroke-width="1"/>
        <text x="10" y="14" text-anchor="middle" font-size="11">⚡</text>
      </g>
    
      <g transform="translate(30, 0)">
        <title>Weekly Warrior: 7 day streak</title>
        <circle cx="10" cy="10" r="10" fill="rgba(255,255,255,0.9)" stroke="#ddd" stroke-width="1"/>
        <text x="10" y="14" text-anchor="middle" font-size="11">🔥</text>
      </g>
    
      <g transform="translate(55, 0)">
        <title>Rising Star: Level 5</title>
        <circle cx="10" cy="10" r="10" fill="rgba(255,255,255,0.9)" stroke="#ddd" stroke-width="1"/>
        <text x="10" y="14" text-anchor="middle" font-size="11">🌟</text>
      </g>
    
      <g transform="translate(80, 0)">
        <title>Shining: Level 10</title>
        <circle cx="10" cy="10" r="10" fill="rgba(255,255,255,0.9)" stroke="#ddd" stroke-width="1"/>
        <text x="10" y="14" text-anchor="middle" font-size="11">✨</text>
      </g>
    
      <g transform="translate(105, 0)">
        <title>Rainbow: Level 25</title>
        <circle cx="10" cy="10" r="10" fill="rgba(255,255,255,0.9)" stroke="#ddd" stroke-width="1"/>
        <text x="10" y="14" text-anchor="middle" font-size="11">🌈</text>
      </g>
    
      
    </g>
  </g>
    </svg>