<svg xmlns="http://www.w3.org/2000/svg" width="296" height="341" viewBox="0 0 296 341">
      <style>
        .pet { transform-origin: center; }
      </style>
      <!-- Theme Background -->
      
        <rect x="0" y="0" width="296" height="341" fill="#0d0d0d" rx="12" ry="12"/>
        <g font-family="monospace" font-size="10" fill="#00ff00" opacity="0.3">
          <text x="10" y="15" opacity="0.344375518310985">九</text><text x="10" y="30" opacity="0.18191464340425126">0</text><text x="10" y="45" opacity="0.105575074451034">1</text><text x="10" y="60" opacity="0.2518866664396747">七</text><text x="10" y="75" opacity="0.44361673639744537">力</text><text x="10" y="90" opacity="0.4895397686522297">ウ</text><text x="10" y="105" opacity="0.5901734763511718">ウ</text><text x="10" y="120" opacity="0.17691178591014503">1</text><text x="29.733333333333334" y="15" opacity="0.5331077225987945">ウ</text><text x="29.733333333333334" y="30" opacity="0.2097330812530052">七</text><text x="29.733333333333334" y="45" opacity="0.2033620689885776">ウ</text><text x="29.733333333333334" y="60" opacity="0.22833619718113">エ</text><text x="29.733333333333334" y="75" opacity="0.15779438077295252">イ</text><text x="29.733333333333334" y="90" opacity="0.2714478235094907">エ</text><text x="29.733333333333334" y="105" opacity="0.2613217342030463">1</text><text x="29.733333333333334" y="120" opacity="0.34428874327251957">九</text><text x="49.46666666666667" y="15" opacity="0.3742481834619077">0</text><text x="49.46666666666667" y="30" opacity="0.2977544958708098">ウ</text><text x="49.46666666666667" y="45" opacity="0.43011077048524027">ア</text><text x="49.46666666666667" y="60" opacity="0.3280844396137078">0</text><text x="49.46666666666667" y="75" opacity="0.11248058012310061">1</text><text x="49.46666666666667" y="90" opacity="0.5427611112148576">ウ</text><text x="49.46666666666667" y="105" opacity="0.37011591912984476">力</text><text x="49.46666666666667" y="120" opacity="0.16238932354435578">ウ</text><text x="69.2" y="15" opacity="0.5415645939602047">0</text><text x="69.2" y="30" opacity="0.5524840755481095">ア</text><text x="69.2" y="45" opacity="0.1694299925765386">ウ</text><text x="69.2" y="60" opacity="0.16347885255876052">イ</text><text x="69.2" y="75" opacity="0.20698516848010431">九</text><text x="69.2" y="90" opacity="0.1845523445026929">イ</text><text x="69.2" y="105" opacity="0.19069331758554423">九</text><text x="69.2" y="120" opacity="0.21575281182741815">イ</text><text x="88.93333333333334" y="15" opacity="0.1106905968999641">力</text><text x="88.93333333333334" y="30" opacity="0.3820212434473028">ア</text><text x="88.93333333333334" y="45" opacity="0.47545516472825977">1</text><text x="88.93333333333334" y="60" opacity="0.16414638585744182">0</text><text x="88.93333333333334" y="75" opacity="0.20649699544603886">ア</text><text x="88.93333333333334" y="90" opacity="0.4421208747226064">エ</text><text x="88.93333333333334" y="105" opacity="0.11004488056036901">ア</text><text x="88.93333333333334" y="120" opacity="0.4036785044170915">エ</text><text x="108.66666666666667" y="15" opacity="0.1073553374314348">ウ</text><text x="108.66666666666667" y="30" opacity="0.5962342706158806">0</text><text x="108.66666666666667" y="45" opacity="0.44751184575722613">力</text><text x="108.66666666666667" y="60" opacity="0.24647527367274305">オ</text><text x="108.66666666666667" y="75" opacity="0.5619596734135277">1</text><text x="108.66666666666667" y="90" opacity="0.15172126448970694">1</text><text x="108.66666666666667" y="105" opacity="0.5209914702051793">ウ</text><text x="108.66666666666667" y="120" opacity="0.14882697247237367">エ</text><text x="128.4" y="15" opacity="0.21580048274145383">1</text><text x="128.4" y="30" opacity="0.21369444028868348">七</text><text x="128.4" y="45" opacity="0.26763082430504415">イ</text><text x="128.4" y="60" opacity="0.15194020648877163">ア</text><text x="128.4" y="75" opacity="0.1827403925981749">力</text><text x="128.4" y="90" opacity="0.36895781975162845">イ</text><text x="128.4" y="105" opacity="0.5747520145206793">七</text><text x="128.4" y="120" opacity="0.46640933710775967">力</text><text x="148.13333333333333" y="15" opacity="0.5830790494279628">ア</text><text x="148.13333333333333" y="30" opacity="0.49766508556135103">力</text><text x="148.13333333333333" y="45" opacity="0.293924910423338">ウ</text><text x="148.13333333333333" y="60" opacity="0.5564781771397268">九</text><text x="148.13333333333333" y="75" opacity="0.5379945340183847">イ</text><text x="148.13333333333333" y="90" opacity="0.49456382182531466">イ</text><text x="148.13333333333333" y="105" opacity="0.30808683461462394">ア</text><text x="148.13333333333333" y="120" opacity="0.10165380142755367">オ</text><text x="167.86666666666667" y="15" opacity="0.12377264978379213">0</text><text x="167.86666666666667" y="30" opacity="0.39985079210037366">イ</text><text x="167.86666666666667" y="45" opacity="0.23444772486585577">オ</text><text x="167.86666666666667" y="60" opacity="0.40141714198544687">七</text><text x="167.86666666666667" y="75" opacity="0.2765993913409258">1</text><text x="167.86666666666667" y="90" opacity="0.14659941272679403">オ</text><text x="167.86666666666667" y="105" opacity="0.21957112559027883">ア</text><text x="167.86666666666667" y="120" opacity="0.5174387232919992">ウ</text><text x="187.60000000000002" y="15" opacity="0.13608510841422886">オ</text><text x="187.60000000000002" y="30" opacity="0.500668530537051">イ</text><text x="187.60000000000002" y="45" opacity="0.3146538944307813">エ</text><text x="187.60000000000002" y="60" opacity="0.1579696227790103">ウ</text><text x="187.60000000000002" y="75" opacity="0.3955844980225861">ア</text><text x="187.60000000000002" y="90" opacity="0.44851724589372366">力</text><text x="187.60000000000002" y="105" opacity="0.1497492004144765">オ</text><text x="187.60000000000002" y="120" opacity="0.5753678598891638">イ</text><text x="207.33333333333334" y="15" opacity="0.3432618091059534">エ</text><text x="207.33333333333334" y="30" opacity="0.13212791267836302">オ</text><text x="207.33333333333334" y="45" opacity="0.45031886257847153">七</text><text x="207.33333333333334" y="60" opacity="0.5008382368129214">ウ</text><text x="207.33333333333334" y="75" opacity="0.40388028528022746">九</text><text x="207.33333333333334" y="90" opacity="0.15629995354572282">ウ</text><text x="207.33333333333334" y="105" opacity="0.4327042314381564">ア</text><text x="207.33333333333334" y="120" opacity="0.471150324671732">九</text><text x="227.06666666666666" y="15" opacity="0.3053188175773537">0</text><text x="227.06666666666666" y="30" opacity="0.4376794941336506">オ</text><text x="227.06666666666666" y="45" opacity="0.49284192364837587">力</text><text x="227.06666666666666" y="60" opacity="0.20850645430281603">イ</text><text x="227.06666666666666" y="75" opacity="0.4927381409562448">ウ</text><text x="227.06666666666666" y="90" opacity="0.3691794768295379">ア</text><text x="227.06666666666666" y="105" opacity="0.23174873291703948">七</text><text x="227.06666666666666" y="120" opacity="0.17733188326644192">イ</text><text x="246.8" y="15" opacity="0.5314396715962043">イ</text><text x="246.8" y="30" opacity="0.10012752575393705">力</text><text x="246.8" y="45" opacity="0.49410186173384874">イ</text><text x="246.8" y="60" opacity="0.21899344162373482">0</text><text x="246.8" y="75" opacity="0.15947138019200993">0</text><text x="246.8" y="90" opacity="0.4544136097558308">九</text><text x="246.8" y="105" opacity="0.22939638225883166">0</text><text x="246.8" y="120" opacity="0.5098176727050827">ア</text><text x="266.53333333333336" y="15" opacity="0.3663889769176534">力</text><text x="266.53333333333336" y="30" opacity="0.43546326253298584">九</text><text x="266.53333333333336" y="45" opacity="0.4278000891055368">ア</text><text x="266.53333333333336" y="60" opacity="0.43628244949859063">ア</text><text x="266.53333333333336" y="75" opacity="0.1911204070060414">ア</text><text x="266.53333333333336" y="90" opacity="0.44066776947164055">エ</text><text x="266.53333333333336" y="105" opacity="0.4662054882580826">0</text><text x="266.53333333333336" y="120" opacity="0.3597044817068429">1</text><text x="286.26666666666665" y="15" opacity="0.47317526987930936">1</text><text x="286.26666666666665" y="30" opacity="0.2432425894528705">力</text><text x="286.26666666666665" y="45" opacity="0.47325413302664165">イ</text><text x="286.26666666666665" y="60" opacity="0.37012147425257336">力</text><text x="286.26666666666665" y="75" opacity="0.2903003654939509">七</text><text x="286.26666666666665" y="90" opacity="0.3324710456734198">ア</text><text x="286.26666666666665" y="105" opacity="0.41107060100239756">ア</text><text x="286.26666666666665" y="120" opacity="0.2747354264522188">ウ</text>
        </g>
        <rect x="5" y="5" width="286" height="331" fill="none" stroke="#00ff00" stroke-width="1" rx="8" ry="8" stroke-opacity="0.3"/>
      
      <!-- Weather Effects (behind pet) -->
      <g class="weather-layer" style="pointer-events: none;">
        
      </g>
      <!-- Evolution Effects (behind pet) -->
      <g class="evolution-layer" style="pointer-events: none;">
        
      <defs>
        <radialGradient id="evolutionAura">
          <stop offset="0%" stop-color="#FFD700" stop-opacity="0.6"/>
          <stop offset="70%" stop-color="#FFD700" stop-opacity="0.2"/>
          <stop offset="100%" stop-color="#FFD700" stop-opacity="0"/>
        </radialGradient>
        <filter id="evolutionGlow">
          <feGaussianBlur stdDeviation="3" result="coloredBlur"/>
          <feMerge>
            <feMergeNode in="coloredBlur"/>
            <feMergeNode in="SourceGraphic"/>
          </feMerge>
        </filter>
      </defs>
      <circle cx="148" cy="148" r="45" fill="url(#evolutionAura)">
        <animate attributeName="r" values="45;53;45" dur="2s" repeatCount="indefinite"/>
        <animate attributeName="opacity" values="0.7;1;0.7" dur="2s" repeatCount="indefinite"/>
      </circle>
    
      </g>
      <g transform="translate(20, 20)" opacity="1">
        <g class="pet">
            <rect x="64" y="16" width="16" height="16" fill="#2d333b" /><rect x="80" y="16" width="16" height="16" fill="#2d333b" /><rect x="96" y="16" width="16" height="16" fill="#2d333b" /><rect x="112" y="16" width="16" height="16" fill="#2d333b" /><rect x="128" y="16" width="16" height="16" fill="#2d333b" /><rect x="144" y="16" width="16" height="16" fill="#2d333b" /><rect x="160" y="16" width="16" height="16" fill="#2d333b" /><rect x="176" y="16" width="16" height="16" fill="#2d333b" /><rect x="32" y="32" width="16" height="16" fill="#2d333b" /><rect x="48" y="32" width="16" height="16" fill="#2d333b" /><rect x="64" y="32" width="16" height="16" fill="#00ADD8" /><rect x="80" y="32" width="16" height="16" fill="#00ADD8" /><rect x="96" y="32" width="16" height="16" fill="#00ADD8" /><rect x="112" y="32" width="16" height="16" fill="#00ADD8" /><rect x="128" y="32" width="16" height="16" fill="#00ADD8" /><rect x="144" y="32" width="16" height="16" fill="#00ADD8" /><rect x="160" y="32" width="16" height="16" fill="#00ADD8" /><rect x="176" y="32" width="16" height="16" fill="#00ADD8" /><rect x="192" y="32" width="16" height="16" fill="#2d333b" /><rect x="208" y="32" width="16" height="16" fill="#2d333b" /><rect x="16" y="48" width="16" height="16" fill="#2d333b" /><rect x="32" y="48" width="16" height="16" fill="#00ADD8" /><rect x="48" y="48" width="16" height="16" fill="#00ADD8" /><rect x="64" y="48" width="16" height="16" fill="#2d333b" /><rect x="80" y="48" width="16" height="16" fill="#2d333b" /><rect x="96" y="48" width="16" height="16" fill="#2d333b" /><rect x="112" y="48" width="16" height="16" fill="#2d333b" /><rect x="128" y="48" width="16" height="16" fill="#2d333b" /><rect x="144" y="48" width="16" height="16" fill="#2d333b" /><rect x="160" y="48" width="16" height="16" fill="#00ADD8" /><rect x="176" y="48" width="16" height="16" fill="#00ADD8" /><rect x="192" y="48" width="16" height="16" fill="#00ADD8" /><rect x="208" y="48" width="16" height="16" fill="#00ADD8" /><rect x="224" y="48" width="16" height="16" fill="#2d333b" /><rect x="16" y="64" width="16" height="16" fill="#2d333b" /><rect x="32" y="64" width="16" height="16" fill="#00ADD8" /><rect x="48" y="64" width="16" height="16" fill="#00ADD8" /><rect x="64" y="64" width="16" height="16" fill="#00ADD8" /><rect x="80" y="64" width="16" height="16" fill="#00ADD8" /><rect x="96" y="64" width="16" height="16" fill="#00ADD8" /><rect x="112" y="64" width="16" height="16" fill="#00ADD8" /><rect x="128" y="64" width="16" height="16" fill="#00ADD8" /><rect x="144" y="64" width="16" height="16" fill="#00ADD8" /><rect x="160" y="64" width="16" height="16" fill="#00ADD8" /><rect x="176" y="64" width="16" height="16" fill="#00ADD8" /><rect x="192" y="64" width="16" height="16" fill="#00ADD8" /><rect x="208" y="64" width="16" height="16" fill="#2d333b" /><rect x="0" y="80" width="16" height="16" fill="#2d333b" /><rect x="16" y="80" width="16" height="16" fill="#00ADD8" /><rect x="32" y="80" width="16" height="16" fill="#00ADD8" /><rect x="48" y="80" width="16" height="16" fill="#00ADD8" /><rect x="64" y="80" width="16" height="16" fill="#00ADD8" /><rect x="80" y="80" width="16" height="16" fill="#00ADD8" /><rect x="96" y="80" width="16" height="16" fill="#00ADD8" /><rect x="112" y="80" width="16" height="16" fill="#00ADD8" /><rect x="128" y="80" width="16" height="16" fill="#00ADD8" /><rect x="144" y="80" width="16" height="16" fill="#00ADD8" /><rect x="160" y="80" width="16" height="16" fill="#00ADD8" /><rect x="176" y="80" width="16" height="16" fill="#00ADD8" /><rect x="192" y="80" width="16" height="16" fill="#00ADD8" /><rect x="208" y="80" width="16" height="16" fill="#00ADD8" /><rect x="224" y="80" width="16" height="16" fill="#2d333b" /><rect x="0" y="96" width="16" height="16" fill="#2d333b" /><rect x="16" y="96" width="16" height="16" fill="#00ADD8" /><rect x="32" y="96" width="16" height="16" fill="#00ADD8" /><rect x="48" y="96" width="16" height="16" fill="#00ADD8" /><rect x="64" y="96" width="16" height="16" fill="#00ADD8" /><rect x="80" y="96" width="16" height="16" fill="#2d333b" /><rect x="96" y="96" width="16" height="16" fill="#00ADD8" /><rect x="112" y="96" width="16" height="16" fill="#00ADD8" /><rect x="128" y="96" width="16" height="16" fill="#00ADD8" /><rect x="144" y="96" width="16" height="16" fill="#00ADD8" /><rect x="160" y="96" width="16" height="16" fill="#00ADD8" /><rect x="176" y="96" width="16" height="16" fill="#00ADD8" /><rect x="192" y="96" width="16" height="16" fill="#00ADD8" /><rect x="208" y="96" width="16" height="16" fill="#00ADD8" /><rect x="224" y="96" width="16" height="16" fill="#2d333b" /><rect x="16" y="112" width="16" height="16" fill="#2d333b" /><rect x="32" y="112" width="16" height="16" fill="#00ADD8" /><rect x="48" y="112" width="16" height="16" fill="#00ADD8" /><rect x="64" y="112" width="16" height="16" fill="#00ADD8" /><rect x="80" y="112" width="16" height="16" fill="#2d333b" /><rect x="96" y="112" width="16" height="16" fill="#00ADD8" /><rect x="112" y="112" width="16" height="16" fill="#00ADD8" /><rect x="128" y="112" width="16" height="16" fill="#00ADD8" /><rect x="144" y="112" width="16" height="16" fill="#00ADD8" /><rect x="160" y="112" width="16" height="16" fill="#00ADD8" /><rect x="176" y="112" width="16" height="16" fill="#00ADD8" /><rect x="192" y="112" width="16" height="16" fill="#2d333b" /><rect x="32" y="128" width="16" height="16" fill="#2d333b" /><rect x="48" y="128" width="16" height="16" fill="#00ADD8" /><rect x="64" y="128" width="16" height="16" fill="#00ADD8" /><rect x="80" y="128" width="16" height="16" fill="#2d333b" /><rect x="96" y="128" width="16" height="16" fill="#00ADD8" /><rect x="112" y="128" width="16" height="16" fill="#00ADD8" /><rect x="128" y="128" width="16" height="16" fill="#00ADD8" /><rect x="144" y="128" width="16" height="16" fill="#00ADD8" /><rect x="160" y="128" width="16" height="16" fill="#00ADD8" /><rect x="176" y="128" width="16" height="16" fill="#2d333b" /><rect x="32" y="144" width="16" height="16" fill="#2d333b" /><rect x="48" y="144" width="16" height="16" fill="#00ADD8" /><rect x="64" y="144" width="16" height="16" fill="#2d333b" /><rect x="80" y="144" width="16" height="16" fill="#00ADD8" /><rect x="96" y="144" width="16" height="16" fill="#00ADD8" /><rect x="112" y="144" width="16" height="16" fill="#00ADD8" /><rect x="128" y="144" width="16" height="16" fill="#00ADD8" /><rect x="144" y="144" width="16" height="16" fill="#00ADD8" /><rect x="160" y="144" width="16" height="16" fill="#00ADD8" /><rect x="176" y="144" width="16" height="16" fill="#2d333b" /><rect x="48" y="160" width="16" height="16" fill="#2d333b" /><rect x="64" y="160" width="16" height="16" fill="#2d333b" /><rect x="80" y="160" width="16" height="16" fill="#00ADD8" /><rect x="96" y="160" width="16" height="16" fill="#00ADD8" /><rect x="112" y="160" width="16" height="16" fill="#00ADD8" /><rect x="128" y="160" width="16" height="16" fill="#00ADD8" /><rect x="144" y="160" width="16" height="16" fill="#00ADD8" /><rect x="160" y="160" width="16" height="16" fill="#2d333b" /><rect x="64" y="176" width="16" height="16" fill="#2d333b" /><rect x="80" y="176" width="16" height="16" fill="#2d333b" /><rect x="96" y="176" width="16" height="16" fill="#2d333b" /><rect x="112" y="176" width="16" height="16" fill="#2d333b" /><rect x="128" y="176" width="16" height="16" fill="#2d333b" /><rect x="144" y="176" width="16" height="16" fill="#2d333b" />
            
        <animateTransform 
            attributeName="transform" 
            type="scale" 
            values="1 1; 1.02 0.98; 1 1" 
            dur="2s" 
            repeatCount="indefinite" 
        />
        </g>
        <!-- Speech Bubble -->
        
    <g transform="translate(226, -25)">
      <!-- Speech bubble -->
      <rect x="0" y="0" width="111" height="24" rx="10" ry="10" 
            fill="#FFFFFF" stroke="#2d333b" stroke-width="1.5"/>
      <!-- Bubble tail -->
      <polygon points="15,24 20,32 25,24" 
               fill="#FFFFFF" stroke="#2d333b" stroke-width="1.5"/>
      <line x1="16" y1="24" x2="24" y2="24" stroke="#FFFFFF" stroke-width="2"/>
      <!-- Text -->
      <text x="55.5" y="16" 
            font-family="'Segoe UI', Arial, sans-serif" font-size="10" 
            fill="#2d333b" text-anchor="middle">Recharging...</text>
    </g>
  
        <!-- Seasonal Accessory (z-index: above pet) -->
        
      </g>
      
      <!-- Level & Mood Text -->
      <text x="20" y="299" font-family="monospace" font-size="11" fill="#00ff00">
        ⭐ Lv.34 Adult
      </text>
      <text x="276" y="299" text-anchor="end" font-family="monospace" font-size="11" fill="#00ff00">
        💤 SLEEPING 
      </text>
      
      <!-- XP Progress Bar -->
      <rect x="20" y="306" width="256" height="8" rx="4" fill="#e0e0e0" stroke="#0288d1" stroke-width="1"/>
      <rect x="20" y="306" width="140.8" height="8" rx="4" fill="#4fc3f7">
        <animate attributeName="width" from="0" to="140.8" dur="0.5s" fill="freeze"/>
      </rect>
      
      <!-- XP Text -->
      <text x="50%" y="329" text-anchor="middle" font-family="monospace" font-size="9" fill="#00ff00">
        XP: 11260 / 11560 (55%)
      </text>
    
      
      <!-- Achievement Badges -->
      <g transform="translate(15, 311)">
    <g class="achievements">
      
      <g transform="translate(5, 0)">
        <title>Rising Star: Level 5</title>
        <circle cx="10" cy="10" r="10" fill="rgba(255,255,255,0.9)" stroke="#ddd" stroke-width="1"/>
        <text x="10" y="14" text-anchor="middle" font-size="11">🌟</text>
      </g>
    
      <g transform="translate(30, 0)">
        <title>Shining: Level 10</title>
        <circle cx="10" cy="10" r="10" fill="rgba(255,255,255,0.9)" stroke="#ddd" stroke-width="1"/>
        <text x="10" y="14" text-anchor="middle" font-size="11">✨</text>
      </g>
    
      <g transform="translate(55, 0)">
        <title>Rainbow: Level 25</title>
        <circle cx="10" cy="10" r="10" fill="rgba(255,255,255,0.9)" stroke="#ddd" stroke-width="1"/>
        <text x="10" y="14" text-anchor="middle" font-size="11">🌈</text>
      </g>
    
      
    </g>
  </g>
    </svg>