<svg xmlns="http://www.w3.org/2000/svg" width="296" height="341" viewBox="0 0 296 341">
      <style>
        .pet { transform-origin: center; }
      </style>
      <!-- Theme Background -->
      
        <rect x="0" y="0" width="296" height="341" fill="#0d0d0d" rx="12" ry="12"/>
        <g font-family="monospace" font-size="10" fill="#00ff00" opacity="0.3">
          <text x="10" y="15" opacity="0.18397441331708433">力</text><text x="10" y="30" opacity="0.3728724124447519">エ</text><text x="10" y="45" opacity="0.48356100565463955">オ</text><text x="10" y="60" opacity="0.31224612255706063">エ</text><text x="10" y="75" opacity="0.3462248531837525">力</text><text x="10" y="90" opacity="0.3049320860041741">オ</text><text x="10" y="105" opacity="0.3516725871776264">力</text><text x="10" y="120" opacity="0.3619194243649084">力</text><text x="29.733333333333334" y="15" opacity="0.15976278464031127">オ</text><text x="29.733333333333334" y="30" opacity="0.14063603688790308">0</text><text x="29.733333333333334" y="45" opacity="0.3646069235118693">ウ</text><text x="29.733333333333334" y="60" opacity="0.5777379655764715">エ</text><text x="29.733333333333334" y="75" opacity="0.16801106501115606">オ</text><text x="29.733333333333334" y="90" opacity="0.5710512425591495">ウ</text><text x="29.733333333333334" y="105" opacity="0.4635723735601345">七</text><text x="29.733333333333334" y="120" opacity="0.5679767208592942">イ</text><text x="49.46666666666667" y="15" opacity="0.37966023582479">力</text><text x="49.46666666666667" y="30" opacity="0.2351728465960751">七</text><text x="49.46666666666667" y="45" opacity="0.5474686081339174">0</text><text x="49.46666666666667" y="60" opacity="0.15947822287803917">力</text><text x="49.46666666666667" y="75" opacity="0.13544227479487272">ウ</text><text x="49.46666666666667" y="90" opacity="0.38921078926258257">0</text><text x="49.46666666666667" y="105" opacity="0.2698295350711779">力</text><text x="49.46666666666667" y="120" opacity="0.21392698733543472">オ</text><text x="69.2" y="15" opacity="0.22881159221041628">ア</text><text x="69.2" y="30" opacity="0.20720117735916735">力</text><text x="69.2" y="45" opacity="0.17795212682710962">オ</text><text x="69.2" y="60" opacity="0.5080762456114942">七</text><text x="69.2" y="75" opacity="0.5542704759742643">オ</text><text x="69.2" y="90" opacity="0.1994994341542841">オ</text><text x="69.2" y="105" opacity="0.40689609336861443">1</text><text x="69.2" y="120" opacity="0.40666435951605406">1</text><text x="88.93333333333334" y="15" opacity="0.5627240760267137">力</text><text x="88.93333333333334" y="30" opacity="0.5329048955683042">1</text><text x="88.93333333333334" y="45" opacity="0.5162797428760054">ア</text><text x="88.93333333333334" y="60" opacity="0.515835811608305">オ</text><text x="88.93333333333334" y="75" opacity="0.39017715978678236">イ</text><text x="88.93333333333334" y="90" opacity="0.5965595137176262">イ</text><text x="88.93333333333334" y="105" opacity="0.5319601212153863">エ</text><text x="88.93333333333334" y="120" opacity="0.37016799309662507">0</text><text x="108.66666666666667" y="15" opacity="0.22136242633207584">イ</text><text x="108.66666666666667" y="30" opacity="0.5224156582721083">ア</text><text x="108.66666666666667" y="45" opacity="0.5525131269788554">オ</text><text x="108.66666666666667" y="60" opacity="0.26645783793169286">ア</text><text x="108.66666666666667" y="75" opacity="0.5865261856642533">1</text><text x="108.66666666666667" y="90" opacity="0.17673996411827722">1</text><text x="108.66666666666667" y="105" opacity="0.313432995735344">ウ</text><text x="108.66666666666667" y="120" opacity="0.2685315524643871">ウ</text><text x="128.4" y="15" opacity="0.26936960443426006">0</text><text x="128.4" y="30" opacity="0.5989384812574883">力</text><text x="128.4" y="45" opacity="0.38144620891939496">力</text><text x="128.4" y="60" opacity="0.5850688477535229">ア</text><text x="128.4" y="75" opacity="0.279021649570404">オ</text><text x="128.4" y="90" opacity="0.1956079928884468">イ</text><text x="128.4" y="105" opacity="0.17463617748019802">ウ</text><text x="128.4" y="120" opacity="0.27893082552033455">九</text><text x="148.13333333333333" y="15" opacity="0.138502974981242">エ</text><text x="148.13333333333333" y="30" opacity="0.40963576580510175">エ</text><text x="148.13333333333333" y="45" opacity="0.41772713150658747">力</text><text x="148.13333333333333" y="60" opacity="0.5745631159605767">九</text><text x="148.13333333333333" y="75" opacity="0.5525779434518836">ウ</text><text x="148.13333333333333" y="90" opacity="0.20853377964013545">イ</text><text x="148.13333333333333" y="105" opacity="0.4050960780822377">エ</text><text x="148.13333333333333" y="120" opacity="0.11331818543343877">九</text><text x="167.86666666666667" y="15" opacity="0.2143840673860661">イ</text><text x="167.86666666666667" y="30" opacity="0.4980027825453467">力</text><text x="167.86666666666667" y="45" opacity="0.3621134252895539">力</text><text x="167.86666666666667" y="60" opacity="0.3183185420758229">1</text><text x="167.86666666666667" y="75" opacity="0.5736580098482562">ウ</text><text x="167.86666666666667" y="90" opacity="0.35679594920707525">力</text><text x="167.86666666666667" y="105" opacity="0.14036696758419245">1</text><text x="167.86666666666667" y="120" opacity="0.40873177496252877">ウ</text><text x="187.60000000000002" y="15" opacity="0.38024288876116086">七</text><text x="187.60000000000002" y="30" opacity="0.23507748046795787">ウ</text><text x="187.60000000000002" y="45" opacity="0.3142745464704674">1</text><text x="187.60000000000002" y="60" opacity="0.2654415792081942">七</text><text x="187.60000000000002" y="75" opacity="0.18539930611586988">七</text><text x="187.60000000000002" y="90" opacity="0.31344253834171776">オ</text><text x="187.60000000000002" y="105" opacity="0.2955417792467707">ウ</text><text x="187.60000000000002" y="120" opacity="0.19124989553806096">0</text><text x="207.33333333333334" y="15" opacity="0.37220974616101965">0</text><text x="207.33333333333334" y="30" opacity="0.27228352041415826">0</text><text x="207.33333333333334" y="45" opacity="0.49689473056058386">九</text><text x="207.33333333333334" y="60" opacity="0.446546087700035">エ</text><text x="207.33333333333334" y="75" opacity="0.5298357949788368">0</text><text x="207.33333333333334" y="90" opacity="0.10765203126797032">ウ</text><text x="207.33333333333334" y="105" opacity="0.5282352109095247">0</text><text x="207.33333333333334" y="120" opacity="0.382162921812926">0</text><text x="227.06666666666666" y="15" opacity="0.3722714596002812">七</text><text x="227.06666666666666" y="30" opacity="0.29617493255262706">ア</text><text x="227.06666666666666" y="45" opacity="0.17372000582857042">ウ</text><text x="227.06666666666666" y="60" opacity="0.5371475283279553">力</text><text x="227.06666666666666" y="75" opacity="0.42893596599466166">イ</text><text x="227.06666666666666" y="90" opacity="0.27270294672997153">ウ</text><text x="227.06666666666666" y="105" opacity="0.5990365428933797">1</text><text x="227.06666666666666" y="120" opacity="0.5252934478872094">九</text><text x="246.8" y="15" opacity="0.5331865846771714">1</text><text x="246.8" y="30" opacity="0.20667376501066373">オ</text><text x="246.8" y="45" opacity="0.45866761915317533">七</text><text x="246.8" y="60" opacity="0.5471911514949903">1</text><text x="246.8" y="75" opacity="0.30883766779365096">イ</text><text x="246.8" y="90" opacity="0.5571449675331227">1</text><text x="246.8" y="105" opacity="0.347256908195288">0</text><text x="246.8" y="120" opacity="0.13481312910551038">1</text><text x="266.53333333333336" y="15" opacity="0.4638282245947921">七</text><text x="266.53333333333336" y="30" opacity="0.3725990358986212">ア</text><text x="266.53333333333336" y="45" opacity="0.42815760952662496">1</text><text x="266.53333333333336" y="60" opacity="0.4288097447667334">ア</text><text x="266.53333333333336" y="75" opacity="0.5239958647286012">0</text><text x="266.53333333333336" y="90" opacity="0.12833245745925206">0</text><text x="266.53333333333336" y="105" opacity="0.47477783144053765">0</text><text x="266.53333333333336" y="120" opacity="0.36571030198681775">ア</text><text x="286.26666666666665" y="15" opacity="0.16081538322407743">七</text><text x="286.26666666666665" y="30" opacity="0.41808265350926543">イ</text><text x="286.26666666666665" y="45" opacity="0.30572654066199567">イ</text><text x="286.26666666666665" y="60" opacity="0.4111257960994411">ア</text><text x="286.26666666666665" y="75" opacity="0.4120118528089962">ア</text><text x="286.26666666666665" y="90" opacity="0.33401591938967423">1</text><text x="286.26666666666665" y="105" opacity="0.24020854930243">九</text><text x="286.26666666666665" y="120" opacity="0.2704881142654839">ウ</text>
        </g>
        <rect x="5" y="5" width="286" height="331" fill="none" stroke="#00ff00" stroke-width="1" rx="8" ry="8" stroke-opacity="0.3"/>
      
      <!-- Weather Effects (behind pet) -->
      <g class="weather-layer" style="pointer-events: none;">
        
      </g>
      <!-- Evolution Effects (behind pet) -->
      <g class="evolution-layer" style="pointer-events: none;">
        
      <defs>
        <radialGradient id="evolutionAura">
          <stop offset="0%" stop-color="#FFD700" stop-opacity="0.6"/>
          <stop offset="70%" stop-color="#FFD700" stop-opacity="0.2"/>
          <stop offset="100%" stop-color="#FFD700" stop-opacity="0"/>
        </radialGradient>
        <filter id="evolutionGlow">
          <feGaussianBlur stdDeviation="3" result="coloredBlur"/>
          <feMerge>
            <feMergeNode in="coloredBlur"/>
            <feMergeNode in="SourceGraphic"/>
          </feMerge>
        </filter>
      </defs>
      <circle cx="148" cy="148" r="45" fill="url(#evolutionAura)">
        <animate attributeName="r" values="45;53;45" dur="2s" repeatCount="indefinite"/>
        <animate attributeName="opacity" values="0.7;1;0.7" dur="2s" repeatCount="indefinite"/>
      </circle>
    
      </g>
      <g transform="translate(20, 20)" opacity="1">
        <g class="pet">
            <rect x="64" y="16" width="16" height="16" fill="#2d333b" /><rect x="80" y="16" width="16" height="16" fill="#2d333b" /><rect x="96" y="16" width="16" height="16" fill="#2d333b" /><rect x="112" y="16" width="16" height="16" fill="#2d333b" /><rect x="128" y="16" width="16" height="16" fill="#2d333b" /><rect x="144" y="16" width="16" height="16" fill="#2d333b" /><rect x="160" y="16" width="16" height="16" fill="#2d333b" /><rect x="176" y="16" width="16" height="16" fill="#2d333b" /><rect x="32" y="32" width="16" height="16" fill="#2d333b" /><rect x="48" y="32" width="16" height="16" fill="#2d333b" /><rect x="64" y="32" width="16" height="16" fill="#00ADD8" /><rect x="80" y="32" width="16" height="16" fill="#00ADD8" /><rect x="96" y="32" width="16" height="16" fill="#00ADD8" /><rect x="112" y="32" width="16" height="16" fill="#00ADD8" /><rect x="128" y="32" width="16" height="16" fill="#00ADD8" /><rect x="144" y="32" width="16" height="16" fill="#00ADD8" /><rect x="160" y="32" width="16" height="16" fill="#00ADD8" /><rect x="176" y="32" width="16" height="16" fill="#00ADD8" /><rect x="192" y="32" width="16" height="16" fill="#2d333b" /><rect x="208" y="32" width="16" height="16" fill="#2d333b" /><rect x="16" y="48" width="16" height="16" fill="#2d333b" /><rect x="32" y="48" width="16" height="16" fill="#00ADD8" /><rect x="48" y="48" width="16" height="16" fill="#00ADD8" /><rect x="64" y="48" width="16" height="16" fill="#2d333b" /><rect x="80" y="48" width="16" height="16" fill="#2d333b" /><rect x="96" y="48" width="16" height="16" fill="#2d333b" /><rect x="112" y="48" width="16" height="16" fill="#2d333b" /><rect x="128" y="48" width="16" height="16" fill="#2d333b" /><rect x="144" y="48" width="16" height="16" fill="#2d333b" /><rect x="160" y="48" width="16" height="16" fill="#00ADD8" /><rect x="176" y="48" width="16" height="16" fill="#00ADD8" /><rect x="192" y="48" width="16" height="16" fill="#00ADD8" /><rect x="208" y="48" width="16" height="16" fill="#00ADD8" /><rect x="224" y="48" width="16" height="16" fill="#2d333b" /><rect x="16" y="64" width="16" height="16" fill="#2d333b" /><rect x="32" y="64" width="16" height="16" fill="#00ADD8" /><rect x="48" y="64" width="16" height="16" fill="#00ADD8" /><rect x="64" y="64" width="16" height="16" fill="#00ADD8" /><rect x="80" y="64" width="16" height="16" fill="#00ADD8" /><rect x="96" y="64" width="16" height="16" fill="#00ADD8" /><rect x="112" y="64" width="16" height="16" fill="#00ADD8" /><rect x="128" y="64" width="16" height="16" fill="#00ADD8" /><rect x="144" y="64" width="16" height="16" fill="#00ADD8" /><rect x="160" y="64" width="16" height="16" fill="#00ADD8" /><rect x="176" y="64" width="16" height="16" fill="#00ADD8" /><rect x="192" y="64" width="16" height="16" fill="#00ADD8" /><rect x="208" y="64" width="16" height="16" fill="#2d333b" /><rect x="0" y="80" width="16" height="16" fill="#2d333b" /><rect x="16" y="80" width="16" height="16" fill="#00ADD8" /><rect x="32" y="80" width="16" height="16" fill="#00ADD8" /><rect x="48" y="80" width="16" height="16" fill="#00ADD8" /><rect x="64" y="80" width="16" height="16" fill="#00ADD8" /><rect x="80" y="80" width="16" height="16" fill="#00ADD8" /><rect x="96" y="80" width="16" height="16" fill="#00ADD8" /><rect x="112" y="80" width="16" height="16" fill="#00ADD8" /><rect x="128" y="80" width="16" height="16" fill="#00ADD8" /><rect x="144" y="80" width="16" height="16" fill="#00ADD8" /><rect x="160" y="80" width="16" height="16" fill="#00ADD8" /><rect x="176" y="80" width="16" height="16" fill="#00ADD8" /><rect x="192" y="80" width="16" height="16" fill="#00ADD8" /><rect x="208" y="80" width="16" height="16" fill="#00ADD8" /><rect x="224" y="80" width="16" height="16" fill="#2d333b" /><rect x="0" y="96" width="16" height="16" fill="#2d333b" /><rect x="16" y="96" width="16" height="16" fill="#00ADD8" /><rect x="32" y="96" width="16" height="16" fill="#00ADD8" /><rect x="48" y="96" width="16" height="16" fill="#00ADD8" /><rect x="64" y="96" width="16" height="16" fill="#00ADD8" /><rect x="80" y="96" width="16" height="16" fill="#2d333b" /><rect x="96" y="96" width="16" height="16" fill="#00ADD8" /><rect x="112" y="96" width="16" height="16" fill="#00ADD8" /><rect x="128" y="96" width="16" height="16" fill="#00ADD8" /><rect x="144" y="96" width="16" height="16" fill="#00ADD8" /><rect x="160" y="96" width="16" height="16" fill="#00ADD8" /><rect x="176" y="96" width="16" height="16" fill="#00ADD8" /><rect x="192" y="96" width="16" height="16" fill="#00ADD8" /><rect x="208" y="96" width="16" height="16" fill="#00ADD8" /><rect x="224" y="96" width="16" height="16" fill="#2d333b" /><rect x="16" y="112" width="16" height="16" fill="#2d333b" /><rect x="32" y="112" width="16" height="16" fill="#00ADD8" /><rect x="48" y="112" width="16" height="16" fill="#00ADD8" /><rect x="64" y="112" width="16" height="16" fill="#00ADD8" /><rect x="80" y="112" width="16" height="16" fill="#2d333b" /><rect x="96" y="112" width="16" height="16" fill="#00ADD8" /><rect x="112" y="112" width="16" height="16" fill="#00ADD8" /><rect x="128" y="112" width="16" height="16" fill="#00ADD8" /><rect x="144" y="112" width="16" height="16" fill="#00ADD8" /><rect x="160" y="112" width="16" height="16" fill="#00ADD8" /><rect x="176" y="112" width="16" height="16" fill="#00ADD8" /><rect x="192" y="112" width="16" height="16" fill="#2d333b" /><rect x="32" y="128" width="16" height="16" fill="#2d333b" /><rect x="48" y="128" width="16" height="16" fill="#00ADD8" /><rect x="64" y="128" width="16" height="16" fill="#00ADD8" /><rect x="80" y="128" width="16" height="16" fill="#2d333b" /><rect x="96" y="128" width="16" height="16" fill="#00ADD8" /><rect x="112" y="128" width="16" height="16" fill="#00ADD8" /><rect x="128" y="128" width="16" height="16" fill="#00ADD8" /><rect x="144" y="128" width="16" height="16" fill="#00ADD8" /><rect x="160" y="128" width="16" height="16" fill="#00ADD8" /><rect x="176" y="128" width="16" height="16" fill="#2d333b" /><rect x="32" y="144" width="16" height="16" fill="#2d333b" /><rect x="48" y="144" width="16" height="16" fill="#00ADD8" /><rect x="64" y="144" width="16" height="16" fill="#2d333b" /><rect x="80" y="144" width="16" height="16" fill="#00ADD8" /><rect x="96" y="144" width="16" height="16" fill="#00ADD8" /><rect x="112" y="144" width="16" height="16" fill="#00ADD8" /><rect x="128" y="144" width="16" height="16" fill="#00ADD8" /><rect x="144" y="144" width="16" height="16" fill="#00ADD8" /><rect x="160" y="144" width="16" height="16" fill="#00ADD8" /><rect x="176" y="144" width="16" height="16" fill="#2d333b" /><rect x="48" y="160" width="16" height="16" fill="#2d333b" /><rect x="64" y="160" width="16" height="16" fill="#2d333b" /><rect x="80" y="160" width="16" height="16" fill="#00ADD8" /><rect x="96" y="160" width="16" height="16" fill="#00ADD8" /><rect x="112" y="160" width="16" height="16" fill="#00ADD8" /><rect x="128" y="160" width="16" height="16" fill="#00ADD8" /><rect x="144" y="160" width="16" height="16" fill="#00ADD8" /><rect x="160" y="160" width="16" height="16" fill="#2d333b" /><rect x="64" y="176" width="16" height="16" fill="#2d333b" /><rect x="80" y="176" width="16" height="16" fill="#2d333b" /><rect x="96" y="176" width="16" height="16" fill="#2d333b" /><rect x="112" y="176" width="16" height="16" fill="#2d333b" /><rect x="128" y="176" width="16" height="16" fill="#2d333b" /><rect x="144" y="176" width="16" height="16" fill="#2d333b" />
            
        <animateTransform 
            attributeName="transform" 
            type="scale" 
            values="1 1; 1.02 0.98; 1 1" 
            dur="2s" 
            repeatCount="indefinite" 
        />
        </g>
        <!-- Speech Bubble -->
        
    <g transform="translate(226, -25)">
      <!-- Speech bubble -->
      <rect x="0" y="0" width="167" height="24" rx="10" ry="10" 
            fill="#FFFFFF" stroke="#2d333b" stroke-width="1.5"/>
      <!-- Bubble tail -->
      <polygon points="15,24 20,32 25,24" 
               fill="#FFFFFF" stroke="#2d333b" stroke-width="1.5"/>
      <line x1="16" y1="24" x2="24" y2="24" stroke="#FFFFFF" stroke-width="2"/>
      <!-- Text -->
      <text x="83.5" y="16" 
            font-family="'Segoe UI', Arial, sans-serif" font-size="10" 
            fill="#2d333b" text-anchor="middle">Chúc Mừng Năm Mới! 🧧</text>
    </g>
  
        <!-- Seasonal Accessory (z-index: above pet) -->
        <!-- Seasonal: LUNAR_NEW_YEAR -->

    <g transform="translate(148, 16)">
      <!-- Envelope Body -->
      <rect x="0" y="0" width="35" height="50" rx="3" fill="#D32F2F"/>
      <rect x="2" y="2" width="31" height="46" rx="2" fill="#E53935"/>
      <!-- Gold Decorative Border -->
      <rect x="5" y="5" width="25" height="40" rx="1" stroke="#FFD700" stroke-width="2" fill="none"/>
      <!-- Coin Symbol with shine -->
      <circle cx="17.5" cy="25" r="10" fill="#FFD700"/>
      <circle cx="17.5" cy="25" r="7" fill="#FFC107"/>
      <!-- Chinese Character 福 (Fortune) stylized -->
      <rect x="14" y="20" width="7" height="2" fill="#D32F2F"/>
      <rect x="16" y="22" width="3" height="6" fill="#D32F2F"/>
      <rect x="14" y="25" width="7" height="2" fill="#D32F2F"/>
      <!-- Animated Sparkles -->
      <circle cx="10" cy="10" r="2" fill="#FFD700">
        <animate attributeName="opacity" values="0.3;1;0.3" dur="1s" repeatCount="indefinite"/>
        <animate attributeName="r" values="1.5;2.5;1.5" dur="1s" repeatCount="indefinite"/>
      </circle>
      <circle cx="28" cy="8" r="1.5" fill="#FFFFFF">
        <animate attributeName="opacity" values="0.5;1;0.5" dur="1.5s" repeatCount="indefinite"/>
      </circle>
      <circle cx="28" cy="40" r="1.5" fill="#FFD700">
        <animate attributeName="opacity" values="0.5;1;0.5" dur="1.2s" repeatCount="indefinite"/>
        <animate attributeName="r" values="1;2;1" dur="1.2s" repeatCount="indefinite"/>
      </circle>
    </g>
  
      </g>
      
      <!-- Level & Mood Text -->
      <text x="20" y="299" font-family="monospace" font-size="11" fill="#00ff00">
        ⭐ Lv.37 Adult
      </text>
      <text x="276" y="299" text-anchor="end" font-family="monospace" font-size="11" fill="#00ff00">
        💤 SLEEPING 🔥7
      </text>
      
      <!-- XP Progress Bar -->
      <rect x="20" y="306" width="256" height="8" rx="4" fill="#e0e0e0" stroke="#0288d1" stroke-width="1"/>
      <rect x="20" y="306" width="61.44" height="8" rx="4" fill="#4fc3f7">
        <animate attributeName="width" from="0" to="61.44" dur="0.5s" fill="freeze"/>
      </rect>
      
      <!-- XP Text -->
      <text x="50%" y="329" text-anchor="middle" font-family="monospace" font-size="9" fill="#00ff00">
        XP: 13140 / 13690 (24%)
      </text>
    
      
      <!-- Achievement Badges -->
      <g transform="translate(15, 311)">
    <g class="achievements">
      
      <g transform="translate(5, 0)">
        <title>Spark: 3 day streak</title>
        <circle cx="10" cy="10" r="10" fill="rgba(255,255,255,0.9)" stroke="#ddd" stroke-width="1"/>
        <text x="10" y="14" text-anchor="middle" font-size="11">⚡</text>
      </g>
    
      <g transform="translate(30, 0)">
        <title>Weekly Warrior: 7 day streak</title>
        <circle cx="10" cy="10" r="10" fill="rgba(255,255,255,0.9)" stroke="#ddd" stroke-width="1"/>
        <text x="10" y="14" text-anchor="middle" font-size="11">🔥</text>
      </g>
    
      <g transform="translate(55, 0)">
        <title>Rising Star: Level 5</title>
        <circle cx="10" cy="10" r="10" fill="rgba(255,255,255,0.9)" stroke="#ddd" stroke-width="1"/>
        <text x="10" y="14" text-anchor="middle" font-size="11">🌟</text>
      </g>
    
      <g transform="translate(80, 0)">
        <title>Shining: Level 10</title>
        <circle cx="10" cy="10" r="10" fill="rgba(255,255,255,0.9)" stroke="#ddd" stroke-width="1"/>
        <text x="10" y="14" text-anchor="middle" font-size="11">✨</text>
      </g>
    
      <g transform="translate(105, 0)">
        <title>Rainbow: Level 25</title>
        <circle cx="10" cy="10" r="10" fill="rgba(255,255,255,0.9)" stroke="#ddd" stroke-width="1"/>
        <text x="10" y="14" text-anchor="middle" font-size="11">🌈</text>
      </g>
    
      
    </g>
  </g>
    </svg>