<svg xmlns="http://www.w3.org/2000/svg" width="296" height="341" viewBox="0 0 296 341">
      <style>
        .pet { transform-origin: center; }
      </style>
      <!-- Theme Background -->
      
        <rect x="0" y="0" width="296" height="341" fill="#0d0d0d" rx="12" ry="12"/>
        <g font-family="monospace" font-size="10" fill="#00ff00" opacity="0.3">
          <text x="10" y="15" opacity="0.5357276890340458">ア</text><text x="10" y="30" opacity="0.23136778289443596">エ</text><text x="10" y="45" opacity="0.15213724564431755">力</text><text x="10" y="60" opacity="0.4807717623655875">ウ</text><text x="10" y="75" opacity="0.5926078476941438">0</text><text x="10" y="90" opacity="0.14441815553431506">イ</text><text x="10" y="105" opacity="0.3051124692244891">ア</text><text x="10" y="120" opacity="0.4553558934078934">ウ</text><text x="29.733333333333334" y="15" opacity="0.3150916262572492">九</text><text x="29.733333333333334" y="30" opacity="0.22146447486084167">ア</text><text x="29.733333333333334" y="45" opacity="0.18208855206267474">力</text><text x="29.733333333333334" y="60" opacity="0.2934548015821855">ア</text><text x="29.733333333333334" y="75" opacity="0.38201107822779823">イ</text><text x="29.733333333333334" y="90" opacity="0.21356305427045222">ウ</text><text x="29.733333333333334" y="105" opacity="0.14410561068603714">1</text><text x="29.733333333333334" y="120" opacity="0.25053918917650353">九</text><text x="49.46666666666667" y="15" opacity="0.4130401373837296">1</text><text x="49.46666666666667" y="30" opacity="0.3356961830917413">0</text><text x="49.46666666666667" y="45" opacity="0.21738832464810534">オ</text><text x="49.46666666666667" y="60" opacity="0.36449341169522886">ウ</text><text x="49.46666666666667" y="75" opacity="0.43602341197392147">0</text><text x="49.46666666666667" y="90" opacity="0.45272330494329227">0</text><text x="49.46666666666667" y="105" opacity="0.18842269331190944">エ</text><text x="49.46666666666667" y="120" opacity="0.2079677674838917">イ</text><text x="69.2" y="15" opacity="0.15541977091687">0</text><text x="69.2" y="30" opacity="0.4167847229780509">イ</text><text x="69.2" y="45" opacity="0.20050998753169472">1</text><text x="69.2" y="60" opacity="0.2658300448212144">九</text><text x="69.2" y="75" opacity="0.12457473583845616">ウ</text><text x="69.2" y="90" opacity="0.42321660690906826">九</text><text x="69.2" y="105" opacity="0.20661538718351982">九</text><text x="69.2" y="120" opacity="0.20021233557081344">オ</text><text x="88.93333333333334" y="15" opacity="0.24594489861792004">九</text><text x="88.93333333333334" y="30" opacity="0.5172644269587143">オ</text><text x="88.93333333333334" y="45" opacity="0.19606065382416296">エ</text><text x="88.93333333333334" y="60" opacity="0.3600942343538621">オ</text><text x="88.93333333333334" y="75" opacity="0.11331747671148287">イ</text><text x="88.93333333333334" y="90" opacity="0.1721023939077724">ウ</text><text x="88.93333333333334" y="105" opacity="0.15882467708948725">ア</text><text x="88.93333333333334" y="120" opacity="0.4908132089655123">1</text><text x="108.66666666666667" y="15" opacity="0.5601019169728625">力</text><text x="108.66666666666667" y="30" opacity="0.2655919562014408">七</text><text x="108.66666666666667" y="45" opacity="0.496707564420783">エ</text><text x="108.66666666666667" y="60" opacity="0.45947334509901927">0</text><text x="108.66666666666667" y="75" opacity="0.1075593400927978">七</text><text x="108.66666666666667" y="90" opacity="0.5798383169672716">オ</text><text x="108.66666666666667" y="105" opacity="0.22317642460786116">0</text><text x="108.66666666666667" y="120" opacity="0.3878602577579394">力</text><text x="128.4" y="15" opacity="0.24149632420931946">七</text><text x="128.4" y="30" opacity="0.45040642095050754">七</text><text x="128.4" y="45" opacity="0.3957823724572087">エ</text><text x="128.4" y="60" opacity="0.10887095942968741">1</text><text x="128.4" y="75" opacity="0.29307763882361204">九</text><text x="128.4" y="90" opacity="0.46553020472868367">ウ</text><text x="128.4" y="105" opacity="0.49060748097064366">イ</text><text x="128.4" y="120" opacity="0.2888416984738794">エ</text><text x="148.13333333333333" y="15" opacity="0.36314642382240914">エ</text><text x="148.13333333333333" y="30" opacity="0.4956556796427415">ア</text><text x="148.13333333333333" y="45" opacity="0.36888158730190046">九</text><text x="148.13333333333333" y="60" opacity="0.32514075429372447">七</text><text x="148.13333333333333" y="75" opacity="0.3503893414027679">九</text><text x="148.13333333333333" y="90" opacity="0.5861145361521407">ア</text><text x="148.13333333333333" y="105" opacity="0.5438014731316859">ア</text><text x="148.13333333333333" y="120" opacity="0.30767443230814784">ア</text><text x="167.86666666666667" y="15" opacity="0.40866067709705023">イ</text><text x="167.86666666666667" y="30" opacity="0.3950020640534968">九</text><text x="167.86666666666667" y="45" opacity="0.546823333576297">オ</text><text x="167.86666666666667" y="60" opacity="0.26055363886232985">ア</text><text x="167.86666666666667" y="75" opacity="0.1115026301059783">0</text><text x="167.86666666666667" y="90" opacity="0.15409241443088398">1</text><text x="167.86666666666667" y="105" opacity="0.2199708124643768">エ</text><text x="167.86666666666667" y="120" opacity="0.32324560781663614">1</text><text x="187.60000000000002" y="15" opacity="0.3151844617093045">ウ</text><text x="187.60000000000002" y="30" opacity="0.20120380803998786">0</text><text x="187.60000000000002" y="45" opacity="0.36561109535485725">0</text><text x="187.60000000000002" y="60" opacity="0.3859611567265554">ア</text><text x="187.60000000000002" y="75" opacity="0.578495320361168">ウ</text><text x="187.60000000000002" y="90" opacity="0.25922640563996546">オ</text><text x="187.60000000000002" y="105" opacity="0.1110540956094104">力</text><text x="187.60000000000002" y="120" opacity="0.43004620220356127">ウ</text><text x="207.33333333333334" y="15" opacity="0.33505745285915134">ア</text><text x="207.33333333333334" y="30" opacity="0.264097035222997">ウ</text><text x="207.33333333333334" y="45" opacity="0.26600915226467614">エ</text><text x="207.33333333333334" y="60" opacity="0.1572930438208631">エ</text><text x="207.33333333333334" y="75" opacity="0.1974698504393311">ウ</text><text x="207.33333333333334" y="90" opacity="0.19615578963714922">1</text><text x="207.33333333333334" y="105" opacity="0.3300296661181439">力</text><text x="207.33333333333334" y="120" opacity="0.4343398199966294">九</text><text x="227.06666666666666" y="15" opacity="0.2815174294033219">0</text><text x="227.06666666666666" y="30" opacity="0.1818330906899807">イ</text><text x="227.06666666666666" y="45" opacity="0.18190824625404914">ウ</text><text x="227.06666666666666" y="60" opacity="0.4201154996237969">力</text><text x="227.06666666666666" y="75" opacity="0.13675925955178883">イ</text><text x="227.06666666666666" y="90" opacity="0.1370049713569456">ア</text><text x="227.06666666666666" y="105" opacity="0.5764829783036304">ウ</text><text x="227.06666666666666" y="120" opacity="0.4168236701596265">九</text><text x="246.8" y="15" opacity="0.21013316683913633">ウ</text><text x="246.8" y="30" opacity="0.2663365960265289">力</text><text x="246.8" y="45" opacity="0.5220880390179164">力</text><text x="246.8" y="60" opacity="0.5544014069687123">七</text><text x="246.8" y="75" opacity="0.3870225135809311">エ</text><text x="246.8" y="90" opacity="0.557007228609049">ア</text><text x="246.8" y="105" opacity="0.5803873974679545">七</text><text x="246.8" y="120" opacity="0.578921045251703">ア</text><text x="266.53333333333336" y="15" opacity="0.42221415219529257">1</text><text x="266.53333333333336" y="30" opacity="0.5660708568581945">七</text><text x="266.53333333333336" y="45" opacity="0.38953633584533787">力</text><text x="266.53333333333336" y="60" opacity="0.49177023806804454">イ</text><text x="266.53333333333336" y="75" opacity="0.38764301854136995">1</text><text x="266.53333333333336" y="90" opacity="0.5745349450495437">九</text><text x="266.53333333333336" y="105" opacity="0.5503985573875347">九</text><text x="266.53333333333336" y="120" opacity="0.40869159391302534">イ</text><text x="286.26666666666665" y="15" opacity="0.5734019773619287">七</text><text x="286.26666666666665" y="30" opacity="0.4505258321753607">力</text><text x="286.26666666666665" y="45" opacity="0.2818084821655361">オ</text><text x="286.26666666666665" y="60" opacity="0.46359115477197776">1</text><text x="286.26666666666665" y="75" opacity="0.594132241415962">オ</text><text x="286.26666666666665" y="90" opacity="0.3057564400233669">力</text><text x="286.26666666666665" y="105" opacity="0.5798007210026558">エ</text><text x="286.26666666666665" y="120" opacity="0.20951884443963756">ウ</text>
        </g>
        <rect x="5" y="5" width="286" height="331" fill="none" stroke="#00ff00" stroke-width="1" rx="8" ry="8" stroke-opacity="0.3"/>
      
      <!-- Weather Effects (behind pet) -->
      <g class="weather-layer" style="pointer-events: none;">
        
      </g>
      <!-- Evolution Effects (behind pet) -->
      <g class="evolution-layer" style="pointer-events: none;">
        
      <defs>
        <radialGradient id="evolutionAura">
          <stop offset="0%" stop-color="#FFD700" stop-opacity="0.6"/>
          <stop offset="70%" stop-color="#FFD700" stop-opacity="0.2"/>
          <stop offset="100%" stop-color="#FFD700" stop-opacity="0"/>
        </radialGradient>
        <filter id="evolutionGlow">
          <feGaussianBlur stdDeviation="3" result="coloredBlur"/>
          <feMerge>
            <feMergeNode in="coloredBlur"/>
            <feMergeNode in="SourceGraphic"/>
          </feMerge>
        </filter>
      </defs>
      <circle cx="148" cy="148" r="45" fill="url(#evolutionAura)">
        <animate attributeName="r" values="45;53;45" dur="2s" repeatCount="indefinite"/>
        <animate attributeName="opacity" values="0.7;1;0.7" dur="2s" repeatCount="indefinite"/>
      </circle>
    
      </g>
      <g transform="translate(20, 20)" opacity="1">
        <g class="pet">
            <rect x="80" y="0" width="16" height="16" fill="#2d333b" /><rect x="96" y="0" width="16" height="16" fill="#2d333b" /><rect x="112" y="0" width="16" height="16" fill="#2d333b" /><rect x="128" y="0" width="16" height="16" fill="#2d333b" /><rect x="144" y="0" width="16" height="16" fill="#2d333b" /><rect x="48" y="16" width="16" height="16" fill="#2d333b" /><rect x="64" y="16" width="16" height="16" fill="#2d333b" /><rect x="80" y="16" width="16" height="16" fill="#00ADD8" /><rect x="96" y="16" width="16" height="16" fill="#00ADD8" /><rect x="112" y="16" width="16" height="16" fill="#00ADD8" /><rect x="128" y="16" width="16" height="16" fill="#00ADD8" /><rect x="144" y="16" width="16" height="16" fill="#00ADD8" /><rect x="160" y="16" width="16" height="16" fill="#2d333b" /><rect x="176" y="16" width="16" height="16" fill="#2d333b" /><rect x="32" y="32" width="16" height="16" fill="#2d333b" /><rect x="48" y="32" width="16" height="16" fill="#00ADD8" /><rect x="64" y="32" width="16" height="16" fill="#00ADD8" /><rect x="80" y="32" width="16" height="16" fill="#00ADD8" /><rect x="96" y="32" width="16" height="16" fill="#00ADD8" /><rect x="112" y="32" width="16" height="16" fill="#00ADD8" /><rect x="128" y="32" width="16" height="16" fill="#00ADD8" /><rect x="144" y="32" width="16" height="16" fill="#00ADD8" /><rect x="160" y="32" width="16" height="16" fill="#00ADD8" /><rect x="176" y="32" width="16" height="16" fill="#2d333b" /><rect x="16" y="48" width="16" height="16" fill="#2d333b" /><rect x="32" y="48" width="16" height="16" fill="#00ADD8" /><rect x="48" y="48" width="16" height="16" fill="#00ADD8" /><rect x="64" y="48" width="16" height="16" fill="#ffffff" /><rect x="80" y="48" width="16" height="16" fill="#2d333b" /><rect x="96" y="48" width="16" height="16" fill="#2d333b" /><rect x="112" y="48" width="16" height="16" fill="#ffffff" /><rect x="128" y="48" width="16" height="16" fill="#00ADD8" /><rect x="144" y="48" width="16" height="16" fill="#00ADD8" /><rect x="160" y="48" width="16" height="16" fill="#00ADD8" /><rect x="176" y="48" width="16" height="16" fill="#2d333b" /><rect x="16" y="64" width="16" height="16" fill="#2d333b" /><rect x="32" y="64" width="16" height="16" fill="#00ADD8" /><rect x="48" y="64" width="16" height="16" fill="#00ADD8" /><rect x="64" y="64" width="16" height="16" fill="#2d333b" /><rect x="80" y="64" width="16" height="16" fill="#2d333b" /><rect x="96" y="64" width="16" height="16" fill="#2d333b" /><rect x="112" y="64" width="16" height="16" fill="#2d333b" /><rect x="128" y="64" width="16" height="16" fill="#00ADD8" /><rect x="144" y="64" width="16" height="16" fill="#00ADD8" /><rect x="160" y="64" width="16" height="16" fill="#00ADD8" /><rect x="176" y="64" width="16" height="16" fill="#2d333b" /><rect x="208" y="64" width="16" height="16" fill="#2d333b" /><rect x="0" y="80" width="16" height="16" fill="#2d333b" /><rect x="16" y="80" width="16" height="16" fill="#00ADD8" /><rect x="32" y="80" width="16" height="16" fill="#00ADD8" /><rect x="48" y="80" width="16" height="16" fill="#00ADD8" /><rect x="64" y="80" width="16" height="16" fill="#00ADD8" /><rect x="80" y="80" width="16" height="16" fill="#00ADD8" /><rect x="96" y="80" width="16" height="16" fill="#00ADD8" /><rect x="112" y="80" width="16" height="16" fill="#00ADD8" /><rect x="128" y="80" width="16" height="16" fill="#00ADD8" /><rect x="144" y="80" width="16" height="16" fill="#00ADD8" /><rect x="160" y="80" width="16" height="16" fill="#2d333b" /><rect x="192" y="80" width="16" height="16" fill="#2d333b" /><rect x="208" y="80" width="16" height="16" fill="#00ADD8" /><rect x="224" y="80" width="16" height="16" fill="#2d333b" /><rect x="0" y="96" width="16" height="16" fill="#2d333b" /><rect x="16" y="96" width="16" height="16" fill="#00ADD8" /><rect x="32" y="96" width="16" height="16" fill="#00ADD8" /><rect x="48" y="96" width="16" height="16" fill="#00ADD8" /><rect x="64" y="96" width="16" height="16" fill="#00ADD8" /><rect x="80" y="96" width="16" height="16" fill="#2d333b" /><rect x="96" y="96" width="16" height="16" fill="#00ADD8" /><rect x="112" y="96" width="16" height="16" fill="#00ADD8" /><rect x="128" y="96" width="16" height="16" fill="#00ADD8" /><rect x="144" y="96" width="16" height="16" fill="#00ADD8" /><rect x="160" y="96" width="16" height="16" fill="#2d333b" /><rect x="176" y="96" width="16" height="16" fill="#2d333b" /><rect x="192" y="96" width="16" height="16" fill="#00ADD8" /><rect x="208" y="96" width="16" height="16" fill="#00ADD8" /><rect x="224" y="96" width="16" height="16" fill="#2d333b" /><rect x="16" y="112" width="16" height="16" fill="#2d333b" /><rect x="32" y="112" width="16" height="16" fill="#00ADD8" /><rect x="48" y="112" width="16" height="16" fill="#00ADD8" /><rect x="64" y="112" width="16" height="16" fill="#00ADD8" /><rect x="80" y="112" width="16" height="16" fill="#2d333b" /><rect x="96" y="112" width="16" height="16" fill="#00ADD8" /><rect x="112" y="112" width="16" height="16" fill="#00ADD8" /><rect x="128" y="112" width="16" height="16" fill="#00ADD8" /><rect x="144" y="112" width="16" height="16" fill="#00ADD8" /><rect x="160" y="112" width="16" height="16" fill="#2d333b" /><rect x="176" y="112" width="16" height="16" fill="#00ADD8" /><rect x="192" y="112" width="16" height="16" fill="#00ADD8" /><rect x="208" y="112" width="16" height="16" fill="#00ADD8" /><rect x="224" y="112" width="16" height="16" fill="#2d333b" /><rect x="32" y="128" width="16" height="16" fill="#2d333b" /><rect x="48" y="128" width="16" height="16" fill="#00ADD8" /><rect x="64" y="128" width="16" height="16" fill="#00ADD8" /><rect x="80" y="128" width="16" height="16" fill="#2d333b" /><rect x="96" y="128" width="16" height="16" fill="#00ADD8" /><rect x="112" y="128" width="16" height="16" fill="#00ADD8" /><rect x="128" y="128" width="16" height="16" fill="#00ADD8" /><rect x="144" y="128" width="16" height="16" fill="#2d333b" /><rect x="160" y="128" width="16" height="16" fill="#00ADD8" /><rect x="176" y="128" width="16" height="16" fill="#00ADD8" /><rect x="192" y="128" width="16" height="16" fill="#00ADD8" /><rect x="208" y="128" width="16" height="16" fill="#00ADD8" /><rect x="224" y="128" width="16" height="16" fill="#2d333b" /><rect x="32" y="144" width="16" height="16" fill="#2d333b" /><rect x="48" y="144" width="16" height="16" fill="#00ADD8" /><rect x="64" y="144" width="16" height="16" fill="#2d333b" /><rect x="80" y="144" width="16" height="16" fill="#00ADD8" /><rect x="96" y="144" width="16" height="16" fill="#00ADD8" /><rect x="112" y="144" width="16" height="16" fill="#00ADD8" /><rect x="128" y="144" width="16" height="16" fill="#00ADD8" /><rect x="144" y="144" width="16" height="16" fill="#2d333b" /><rect x="160" y="144" width="16" height="16" fill="#00ADD8" /><rect x="176" y="144" width="16" height="16" fill="#00ADD8" /><rect x="192" y="144" width="16" height="16" fill="#00ADD8" /><rect x="208" y="144" width="16" height="16" fill="#00ADD8" /><rect x="224" y="144" width="16" height="16" fill="#2d333b" /><rect x="16" y="160" width="16" height="16" fill="#2d333b" /><rect x="32" y="160" width="16" height="16" fill="#00ADD8" /><rect x="48" y="160" width="16" height="16" fill="#2d333b" /><rect x="64" y="160" width="16" height="16" fill="#00ADD8" /><rect x="80" y="160" width="16" height="16" fill="#00ADD8" /><rect x="96" y="160" width="16" height="16" fill="#00ADD8" /><rect x="112" y="160" width="16" height="16" fill="#00ADD8" /><rect x="128" y="160" width="16" height="16" fill="#00ADD8" /><rect x="144" y="160" width="16" height="16" fill="#2d333b" /><rect x="160" y="160" width="16" height="16" fill="#00ADD8" /><rect x="176" y="160" width="16" height="16" fill="#00ADD8" /><rect x="192" y="160" width="16" height="16" fill="#00ADD8" /><rect x="208" y="160" width="16" height="16" fill="#2d333b" /><rect x="0" y="176" width="16" height="16" fill="#2d333b" /><rect x="16" y="176" width="16" height="16" fill="#00ADD8" /><rect x="32" y="176" width="16" height="16" fill="#2d333b" /><rect x="48" y="176" width="16" height="16" fill="#00ADD8" /><rect x="64" y="176" width="16" height="16" fill="#00ADD8" /><rect x="80" y="176" width="16" height="16" fill="#00ADD8" /><rect x="96" y="176" width="16" height="16" fill="#00ADD8" /><rect x="112" y="176" width="16" height="16" fill="#00ADD8" /><rect x="128" y="176" width="16" height="16" fill="#00ADD8" /><rect x="144" y="176" width="16" height="16" fill="#2d333b" /><rect x="160" y="176" width="16" height="16" fill="#00ADD8" /><rect x="176" y="176" width="16" height="16" fill="#00ADD8" /><rect x="192" y="176" width="16" height="16" fill="#2d333b" /><rect x="16" y="192" width="16" height="16" fill="#2d333b" /><rect x="32" y="192" width="16" height="16" fill="#2d333b" /><rect x="48" y="192" width="16" height="16" fill="#00ADD8" /><rect x="64" y="192" width="16" height="16" fill="#00ADD8" /><rect x="80" y="192" width="16" height="16" fill="#00ADD8" /><rect x="96" y="192" width="16" height="16" fill="#00ADD8" /><rect x="112" y="192" width="16" height="16" fill="#00ADD8" /><rect x="128" y="192" width="16" height="16" fill="#00ADD8" /><rect x="144" y="192" width="16" height="16" fill="#00ADD8" /><rect x="160" y="192" width="16" height="16" fill="#2d333b" /><rect x="176" y="192" width="16" height="16" fill="#2d333b" /><rect x="32" y="208" width="16" height="16" fill="#2d333b" /><rect x="48" y="208" width="16" height="16" fill="#2d333b" /><rect x="64" y="208" width="16" height="16" fill="#2d333b" /><rect x="80" y="208" width="16" height="16" fill="#2d333b" /><rect x="96" y="208" width="16" height="16" fill="#2d333b" /><rect x="112" y="208" width="16" height="16" fill="#2d333b" /><rect x="128" y="208" width="16" height="16" fill="#2d333b" /><rect x="144" y="208" width="16" height="16" fill="#2d333b" /><rect x="160" y="208" width="16" height="16" fill="#2d333b" /><rect x="176" y="208" width="16" height="16" fill="#2d333b" />
            
        <animateTransform 
            attributeName="transform" 
            type="translate" 
            values="0 0; 0 -4; 0 0" 
            dur="0.5s" 
            repeatCount="indefinite" 
        />
        </g>
        <!-- Speech Bubble -->
        
    <g transform="translate(226, -25)">
      <!-- Speech bubble -->
      <rect x="0" y="0" width="60" height="24" rx="10" ry="10" 
            fill="#FFFFFF" stroke="#2d333b" stroke-width="1.5"/>
      <!-- Bubble tail -->
      <polygon points="15,24 20,32 25,24" 
               fill="#FFFFFF" stroke="#2d333b" stroke-width="1.5"/>
      <line x1="16" y1="24" x2="24" y2="24" stroke="#FFFFFF" stroke-width="2"/>
      <!-- Text -->
      <text x="30" y="16" 
            font-family="'Segoe UI', Arial, sans-serif" font-size="10" 
            fill="#2d333b" text-anchor="middle">LGTM!</text>
    </g>
  
        <!-- Seasonal Accessory (z-index: above pet) -->
        
      </g>
      
      <!-- Level & Mood Text -->
      <text x="20" y="299" font-family="monospace" font-size="11" fill="#00ff00">
        ⭐ Lv.36 Adult
      </text>
      <text x="276" y="299" text-anchor="end" font-family="monospace" font-size="11" fill="#00ff00">
        ⚡ HAPPY 🔥3
      </text>
      
      <!-- XP Progress Bar -->
      <rect x="20" y="306" width="256" height="8" rx="4" fill="#e0e0e0" stroke="#0288d1" stroke-width="1"/>
      <rect x="20" y="306" width="133.12" height="8" rx="4" fill="#4fc3f7">
        <animate attributeName="width" from="0" to="133.12" dur="0.5s" fill="freeze"/>
      </rect>
      
      <!-- XP Text -->
      <text x="50%" y="329" text-anchor="middle" font-family="monospace" font-size="9" fill="#00ff00">
        XP: 12620 / 12960 (52%)
      </text>
    
      
      <!-- Achievement Badges -->
      <g transform="translate(15, 311)">
    <g class="achievements">
      
      <g transform="translate(5, 0)">
        <title>Spark: 3 day streak</title>
        <circle cx="10" cy="10" r="10" fill="rgba(255,255,255,0.9)" stroke="#ddd" stroke-width="1"/>
        <text x="10" y="14" text-anchor="middle" font-size="11">⚡</text>
      </g>
    
      <g transform="translate(30, 0)">
        <title>Rising Star: Level 5</title>
        <circle cx="10" cy="10" r="10" fill="rgba(255,255,255,0.9)" stroke="#ddd" stroke-width="1"/>
        <text x="10" y="14" text-anchor="middle" font-size="11">🌟</text>
      </g>
    
      <g transform="translate(55, 0)">
        <title>Shining: Level 10</title>
        <circle cx="10" cy="10" r="10" fill="rgba(255,255,255,0.9)" stroke="#ddd" stroke-width="1"/>
        <text x="10" y="14" text-anchor="middle" font-size="11">✨</text>
      </g>
    
      <g transform="translate(80, 0)">
        <title>Rainbow: Level 25</title>
        <circle cx="10" cy="10" r="10" fill="rgba(255,255,255,0.9)" stroke="#ddd" stroke-width="1"/>
        <text x="10" y="14" text-anchor="middle" font-size="11">🌈</text>
      </g>
    
      
    </g>
  </g>
    </svg>