<svg xmlns="http://www.w3.org/2000/svg" width="296" height="341" viewBox="0 0 296 341">
      <style>
        .pet { transform-origin: center; }
      </style>
      <!-- Theme Background -->
      
        <rect x="0" y="0" width="296" height="341" fill="#0d0d0d" rx="12" ry="12"/>
        <g font-family="monospace" font-size="10" fill="#00ff00" opacity="0.3">
          <text x="10" y="15" opacity="0.4279801532827239">力</text><text x="10" y="30" opacity="0.39884621571679413">1</text><text x="10" y="45" opacity="0.5487443193607229">オ</text><text x="10" y="60" opacity="0.4828285670392365">1</text><text x="10" y="75" opacity="0.32364316341187704">イ</text><text x="10" y="90" opacity="0.4539529202181798">エ</text><text x="10" y="105" opacity="0.14437268671020423">オ</text><text x="10" y="120" opacity="0.11822344519025643">オ</text><text x="29.733333333333334" y="15" opacity="0.3899308316108492">0</text><text x="29.733333333333334" y="30" opacity="0.47622018782302844">オ</text><text x="29.733333333333334" y="45" opacity="0.5927372706618088">七</text><text x="29.733333333333334" y="60" opacity="0.55227347513638">力</text><text x="29.733333333333334" y="75" opacity="0.5572170203341414">オ</text><text x="29.733333333333334" y="90" opacity="0.43072554320523215">イ</text><text x="29.733333333333334" y="105" opacity="0.3562020109364662">九</text><text x="29.733333333333334" y="120" opacity="0.5523793781630556">イ</text><text x="49.46666666666667" y="15" opacity="0.10545249857663844">ウ</text><text x="49.46666666666667" y="30" opacity="0.13727736463685894">オ</text><text x="49.46666666666667" y="45" opacity="0.36998877593142177">九</text><text x="49.46666666666667" y="60" opacity="0.4757357986385983">九</text><text x="49.46666666666667" y="75" opacity="0.337065987612315">オ</text><text x="49.46666666666667" y="90" opacity="0.46124905191652876">0</text><text x="49.46666666666667" y="105" opacity="0.3173361642621363">ウ</text><text x="49.46666666666667" y="120" opacity="0.2845503600327032">ア</text><text x="69.2" y="15" opacity="0.10030708741284014">オ</text><text x="69.2" y="30" opacity="0.11672224251909638">1</text><text x="69.2" y="45" opacity="0.3773404497929843">七</text><text x="69.2" y="60" opacity="0.49829555750286103">七</text><text x="69.2" y="75" opacity="0.47177357957169486">ア</text><text x="69.2" y="90" opacity="0.26612874697498135">0</text><text x="69.2" y="105" opacity="0.2780720357999995">0</text><text x="69.2" y="120" opacity="0.27650163363540925">七</text><text x="88.93333333333334" y="15" opacity="0.20811253258001908">1</text><text x="88.93333333333334" y="30" opacity="0.3909114799562107">ア</text><text x="88.93333333333334" y="45" opacity="0.17695403943539914">九</text><text x="88.93333333333334" y="60" opacity="0.4869369656723026">ア</text><text x="88.93333333333334" y="75" opacity="0.24762066504642047">エ</text><text x="88.93333333333334" y="90" opacity="0.5948550009866779">七</text><text x="88.93333333333334" y="105" opacity="0.44115980229674945">1</text><text x="88.93333333333334" y="120" opacity="0.21233328076023086">九</text><text x="108.66666666666667" y="15" opacity="0.1962340775386259">ア</text><text x="108.66666666666667" y="30" opacity="0.258951719735949">力</text><text x="108.66666666666667" y="45" opacity="0.5726556769526785">ウ</text><text x="108.66666666666667" y="60" opacity="0.37649152774119354">0</text><text x="108.66666666666667" y="75" opacity="0.5600145445485802">ア</text><text x="108.66666666666667" y="90" opacity="0.1538906337722549">オ</text><text x="108.66666666666667" y="105" opacity="0.1758466455762764">イ</text><text x="108.66666666666667" y="120" opacity="0.48309083589756985">1</text><text x="128.4" y="15" opacity="0.31370396077918805">オ</text><text x="128.4" y="30" opacity="0.3549470334404743">0</text><text x="128.4" y="45" opacity="0.3453609080928205">イ</text><text x="128.4" y="60" opacity="0.34400170489826754">九</text><text x="128.4" y="75" opacity="0.1762734227612606">1</text><text x="128.4" y="90" opacity="0.441078855394173">イ</text><text x="128.4" y="105" opacity="0.20128997373788718">ウ</text><text x="128.4" y="120" opacity="0.5158121673720135">0</text><text x="148.13333333333333" y="15" opacity="0.47864435195911237">ア</text><text x="148.13333333333333" y="30" opacity="0.4031572743582482">エ</text><text x="148.13333333333333" y="45" opacity="0.17288027708721224">九</text><text x="148.13333333333333" y="60" opacity="0.2443236184123139">エ</text><text x="148.13333333333333" y="75" opacity="0.5587861991982326">九</text><text x="148.13333333333333" y="90" opacity="0.4686122110943145">イ</text><text x="148.13333333333333" y="105" opacity="0.5019145460010117">九</text><text x="148.13333333333333" y="120" opacity="0.35555287262980495">力</text><text x="167.86666666666667" y="15" opacity="0.26224273410549814">九</text><text x="167.86666666666667" y="30" opacity="0.5905312853010809">0</text><text x="167.86666666666667" y="45" opacity="0.5073331437033822">1</text><text x="167.86666666666667" y="60" opacity="0.20227535975907177">七</text><text x="167.86666666666667" y="75" opacity="0.2825776513573104">ウ</text><text x="167.86666666666667" y="90" opacity="0.5083275172204126">ア</text><text x="167.86666666666667" y="105" opacity="0.31759000555918304">0</text><text x="167.86666666666667" y="120" opacity="0.23060761584843928">ア</text><text x="187.60000000000002" y="15" opacity="0.27148990527877026">1</text><text x="187.60000000000002" y="30" opacity="0.356616233111817">0</text><text x="187.60000000000002" y="45" opacity="0.16564895671368077">エ</text><text x="187.60000000000002" y="60" opacity="0.5690547747231269">ウ</text><text x="187.60000000000002" y="75" opacity="0.31935927408320786">七</text><text x="187.60000000000002" y="90" opacity="0.4578459045186324">0</text><text x="187.60000000000002" y="105" opacity="0.4152814553825235">1</text><text x="187.60000000000002" y="120" opacity="0.21384544894355542">九</text><text x="207.33333333333334" y="15" opacity="0.24220151390164715">イ</text><text x="207.33333333333334" y="30" opacity="0.33553088299989464">七</text><text x="207.33333333333334" y="45" opacity="0.3302706187979674">ウ</text><text x="207.33333333333334" y="60" opacity="0.40321220067089336">ウ</text><text x="207.33333333333334" y="75" opacity="0.34365452386028106">九</text><text x="207.33333333333334" y="90" opacity="0.2699313444189545">ア</text><text x="207.33333333333334" y="105" opacity="0.5081280050677401">九</text><text x="207.33333333333334" y="120" opacity="0.4532434429832194">1</text><text x="227.06666666666666" y="15" opacity="0.3841758278561178">1</text><text x="227.06666666666666" y="30" opacity="0.18288071278093512">九</text><text x="227.06666666666666" y="45" opacity="0.5213999538148949">ア</text><text x="227.06666666666666" y="60" opacity="0.40896795007062126">イ</text><text x="227.06666666666666" y="75" opacity="0.27720941615897376">0</text><text x="227.06666666666666" y="90" opacity="0.14459365052352205">エ</text><text x="227.06666666666666" y="105" opacity="0.3987391953838273">九</text><text x="227.06666666666666" y="120" opacity="0.5757784378242684">エ</text><text x="246.8" y="15" opacity="0.3883189199419299">1</text><text x="246.8" y="30" opacity="0.34691408658397727">エ</text><text x="246.8" y="45" opacity="0.37056327151203505">九</text><text x="246.8" y="60" opacity="0.38585201251084145">ア</text><text x="246.8" y="75" opacity="0.448978405428181">九</text><text x="246.8" y="90" opacity="0.5581399344232554">力</text><text x="246.8" y="105" opacity="0.446864495535389">力</text><text x="246.8" y="120" opacity="0.17541365504563858">オ</text><text x="266.53333333333336" y="15" opacity="0.4861348205887276">ウ</text><text x="266.53333333333336" y="30" opacity="0.16879523867927196">オ</text><text x="266.53333333333336" y="45" opacity="0.4798597022240042">イ</text><text x="266.53333333333336" y="60" opacity="0.5415245219678496">0</text><text x="266.53333333333336" y="75" opacity="0.18051531632033616">1</text><text x="266.53333333333336" y="90" opacity="0.19953552626494933">1</text><text x="266.53333333333336" y="105" opacity="0.42407115282716945">0</text><text x="266.53333333333336" y="120" opacity="0.31067332017392524">0</text><text x="286.26666666666665" y="15" opacity="0.16421013509594976">エ</text><text x="286.26666666666665" y="30" opacity="0.27472398165746914">力</text><text x="286.26666666666665" y="45" opacity="0.11295200703464439">ア</text><text x="286.26666666666665" y="60" opacity="0.42577388767739355">イ</text><text x="286.26666666666665" y="75" opacity="0.5546622144859145">オ</text><text x="286.26666666666665" y="90" opacity="0.3962195774606634">七</text><text x="286.26666666666665" y="105" opacity="0.5876121696062054">ア</text><text x="286.26666666666665" y="120" opacity="0.20559886426191956">九</text>
        </g>
        <rect x="5" y="5" width="286" height="331" fill="none" stroke="#00ff00" stroke-width="1" rx="8" ry="8" stroke-opacity="0.3"/>
      
      <!-- Weather Effects (behind pet) -->
      <g class="weather-layer" style="pointer-events: none;">
        
      </g>
      <!-- Evolution Effects (behind pet) -->
      <g class="evolution-layer" style="pointer-events: none;">
        
      <defs>
        <radialGradient id="evolutionAura">
          <stop offset="0%" stop-color="#FFD700" stop-opacity="0.6"/>
          <stop offset="70%" stop-color="#FFD700" stop-opacity="0.2"/>
          <stop offset="100%" stop-color="#FFD700" stop-opacity="0"/>
        </radialGradient>
        <filter id="evolutionGlow">
          <feGaussianBlur stdDeviation="3" result="coloredBlur"/>
          <feMerge>
            <feMergeNode in="coloredBlur"/>
            <feMergeNode in="SourceGraphic"/>
          </feMerge>
        </filter>
      </defs>
      <circle cx="148" cy="148" r="45" fill="url(#evolutionAura)">
        <animate attributeName="r" values="45;53;45" dur="2s" repeatCount="indefinite"/>
        <animate attributeName="opacity" values="0.7;1;0.7" dur="2s" repeatCount="indefinite"/>
      </circle>
    
      </g>
      <g transform="translate(20, 20)" opacity="1">
        <g class="pet">
            <rect x="64" y="16" width="16" height="16" fill="#2d333b" /><rect x="80" y="16" width="16" height="16" fill="#2d333b" /><rect x="96" y="16" width="16" height="16" fill="#2d333b" /><rect x="112" y="16" width="16" height="16" fill="#2d333b" /><rect x="128" y="16" width="16" height="16" fill="#2d333b" /><rect x="144" y="16" width="16" height="16" fill="#2d333b" /><rect x="160" y="16" width="16" height="16" fill="#2d333b" /><rect x="176" y="16" width="16" height="16" fill="#2d333b" /><rect x="32" y="32" width="16" height="16" fill="#2d333b" /><rect x="48" y="32" width="16" height="16" fill="#2d333b" /><rect x="64" y="32" width="16" height="16" fill="#00ADD8" /><rect x="80" y="32" width="16" height="16" fill="#00ADD8" /><rect x="96" y="32" width="16" height="16" fill="#00ADD8" /><rect x="112" y="32" width="16" height="16" fill="#00ADD8" /><rect x="128" y="32" width="16" height="16" fill="#00ADD8" /><rect x="144" y="32" width="16" height="16" fill="#00ADD8" /><rect x="160" y="32" width="16" height="16" fill="#00ADD8" /><rect x="176" y="32" width="16" height="16" fill="#00ADD8" /><rect x="192" y="32" width="16" height="16" fill="#2d333b" /><rect x="208" y="32" width="16" height="16" fill="#2d333b" /><rect x="16" y="48" width="16" height="16" fill="#2d333b" /><rect x="32" y="48" width="16" height="16" fill="#00ADD8" /><rect x="48" y="48" width="16" height="16" fill="#00ADD8" /><rect x="64" y="48" width="16" height="16" fill="#2d333b" /><rect x="80" y="48" width="16" height="16" fill="#2d333b" /><rect x="96" y="48" width="16" height="16" fill="#2d333b" /><rect x="112" y="48" width="16" height="16" fill="#2d333b" /><rect x="128" y="48" width="16" height="16" fill="#2d333b" /><rect x="144" y="48" width="16" height="16" fill="#2d333b" /><rect x="160" y="48" width="16" height="16" fill="#00ADD8" /><rect x="176" y="48" width="16" height="16" fill="#00ADD8" /><rect x="192" y="48" width="16" height="16" fill="#00ADD8" /><rect x="208" y="48" width="16" height="16" fill="#00ADD8" /><rect x="224" y="48" width="16" height="16" fill="#2d333b" /><rect x="16" y="64" width="16" height="16" fill="#2d333b" /><rect x="32" y="64" width="16" height="16" fill="#00ADD8" /><rect x="48" y="64" width="16" height="16" fill="#00ADD8" /><rect x="64" y="64" width="16" height="16" fill="#00ADD8" /><rect x="80" y="64" width="16" height="16" fill="#00ADD8" /><rect x="96" y="64" width="16" height="16" fill="#00ADD8" /><rect x="112" y="64" width="16" height="16" fill="#00ADD8" /><rect x="128" y="64" width="16" height="16" fill="#00ADD8" /><rect x="144" y="64" width="16" height="16" fill="#00ADD8" /><rect x="160" y="64" width="16" height="16" fill="#00ADD8" /><rect x="176" y="64" width="16" height="16" fill="#00ADD8" /><rect x="192" y="64" width="16" height="16" fill="#00ADD8" /><rect x="208" y="64" width="16" height="16" fill="#2d333b" /><rect x="0" y="80" width="16" height="16" fill="#2d333b" /><rect x="16" y="80" width="16" height="16" fill="#00ADD8" /><rect x="32" y="80" width="16" height="16" fill="#00ADD8" /><rect x="48" y="80" width="16" height="16" fill="#00ADD8" /><rect x="64" y="80" width="16" height="16" fill="#00ADD8" /><rect x="80" y="80" width="16" height="16" fill="#00ADD8" /><rect x="96" y="80" width="16" height="16" fill="#00ADD8" /><rect x="112" y="80" width="16" height="16" fill="#00ADD8" /><rect x="128" y="80" width="16" height="16" fill="#00ADD8" /><rect x="144" y="80" width="16" height="16" fill="#00ADD8" /><rect x="160" y="80" width="16" height="16" fill="#00ADD8" /><rect x="176" y="80" width="16" height="16" fill="#00ADD8" /><rect x="192" y="80" width="16" height="16" fill="#00ADD8" /><rect x="208" y="80" width="16" height="16" fill="#00ADD8" /><rect x="224" y="80" width="16" height="16" fill="#2d333b" /><rect x="0" y="96" width="16" height="16" fill="#2d333b" /><rect x="16" y="96" width="16" height="16" fill="#00ADD8" /><rect x="32" y="96" width="16" height="16" fill="#00ADD8" /><rect x="48" y="96" width="16" height="16" fill="#00ADD8" /><rect x="64" y="96" width="16" height="16" fill="#00ADD8" /><rect x="80" y="96" width="16" height="16" fill="#2d333b" /><rect x="96" y="96" width="16" height="16" fill="#00ADD8" /><rect x="112" y="96" width="16" height="16" fill="#00ADD8" /><rect x="128" y="96" width="16" height="16" fill="#00ADD8" /><rect x="144" y="96" width="16" height="16" fill="#00ADD8" /><rect x="160" y="96" width="16" height="16" fill="#00ADD8" /><rect x="176" y="96" width="16" height="16" fill="#00ADD8" /><rect x="192" y="96" width="16" height="16" fill="#00ADD8" /><rect x="208" y="96" width="16" height="16" fill="#00ADD8" /><rect x="224" y="96" width="16" height="16" fill="#2d333b" /><rect x="16" y="112" width="16" height="16" fill="#2d333b" /><rect x="32" y="112" width="16" height="16" fill="#00ADD8" /><rect x="48" y="112" width="16" height="16" fill="#00ADD8" /><rect x="64" y="112" width="16" height="16" fill="#00ADD8" /><rect x="80" y="112" width="16" height="16" fill="#2d333b" /><rect x="96" y="112" width="16" height="16" fill="#00ADD8" /><rect x="112" y="112" width="16" height="16" fill="#00ADD8" /><rect x="128" y="112" width="16" height="16" fill="#00ADD8" /><rect x="144" y="112" width="16" height="16" fill="#00ADD8" /><rect x="160" y="112" width="16" height="16" fill="#00ADD8" /><rect x="176" y="112" width="16" height="16" fill="#00ADD8" /><rect x="192" y="112" width="16" height="16" fill="#2d333b" /><rect x="32" y="128" width="16" height="16" fill="#2d333b" /><rect x="48" y="128" width="16" height="16" fill="#00ADD8" /><rect x="64" y="128" width="16" height="16" fill="#00ADD8" /><rect x="80" y="128" width="16" height="16" fill="#2d333b" /><rect x="96" y="128" width="16" height="16" fill="#00ADD8" /><rect x="112" y="128" width="16" height="16" fill="#00ADD8" /><rect x="128" y="128" width="16" height="16" fill="#00ADD8" /><rect x="144" y="128" width="16" height="16" fill="#00ADD8" /><rect x="160" y="128" width="16" height="16" fill="#00ADD8" /><rect x="176" y="128" width="16" height="16" fill="#2d333b" /><rect x="32" y="144" width="16" height="16" fill="#2d333b" /><rect x="48" y="144" width="16" height="16" fill="#00ADD8" /><rect x="64" y="144" width="16" height="16" fill="#2d333b" /><rect x="80" y="144" width="16" height="16" fill="#00ADD8" /><rect x="96" y="144" width="16" height="16" fill="#00ADD8" /><rect x="112" y="144" width="16" height="16" fill="#00ADD8" /><rect x="128" y="144" width="16" height="16" fill="#00ADD8" /><rect x="144" y="144" width="16" height="16" fill="#00ADD8" /><rect x="160" y="144" width="16" height="16" fill="#00ADD8" /><rect x="176" y="144" width="16" height="16" fill="#2d333b" /><rect x="48" y="160" width="16" height="16" fill="#2d333b" /><rect x="64" y="160" width="16" height="16" fill="#2d333b" /><rect x="80" y="160" width="16" height="16" fill="#00ADD8" /><rect x="96" y="160" width="16" height="16" fill="#00ADD8" /><rect x="112" y="160" width="16" height="16" fill="#00ADD8" /><rect x="128" y="160" width="16" height="16" fill="#00ADD8" /><rect x="144" y="160" width="16" height="16" fill="#00ADD8" /><rect x="160" y="160" width="16" height="16" fill="#2d333b" /><rect x="64" y="176" width="16" height="16" fill="#2d333b" /><rect x="80" y="176" width="16" height="16" fill="#2d333b" /><rect x="96" y="176" width="16" height="16" fill="#2d333b" /><rect x="112" y="176" width="16" height="16" fill="#2d333b" /><rect x="128" y="176" width="16" height="16" fill="#2d333b" /><rect x="144" y="176" width="16" height="16" fill="#2d333b" />
            
        <animateTransform 
            attributeName="transform" 
            type="scale" 
            values="1 1; 1.02 0.98; 1 1" 
            dur="2s" 
            repeatCount="indefinite" 
        />
        </g>
        <!-- Speech Bubble -->
        
    <g transform="translate(226, -25)">
      <!-- Speech bubble -->
      <rect x="0" y="0" width="69" height="24" rx="10" ry="10" 
            fill="#FFFFFF" stroke="#2d333b" stroke-width="1.5"/>
      <!-- Bubble tail -->
      <polygon points="15,24 20,32 25,24" 
               fill="#FFFFFF" stroke="#2d333b" stroke-width="1.5"/>
      <line x1="16" y1="24" x2="24" y2="24" stroke="#FFFFFF" stroke-width="2"/>
      <!-- Text -->
      <text x="34.5" y="16" 
            font-family="'Segoe UI', Arial, sans-serif" font-size="10" 
            fill="#2d333b" text-anchor="middle">*snore*</text>
    </g>
  
        <!-- Seasonal Accessory (z-index: above pet) -->
        
      </g>
      
      <!-- Level & Mood Text -->
      <text x="20" y="299" font-family="monospace" font-size="11" fill="#00ff00">
        ⭐ Lv.33 Adult
      </text>
      <text x="276" y="299" text-anchor="end" font-family="monospace" font-size="11" fill="#00ff00">
        💤 SLEEPING 🔥4
      </text>
      
      <!-- XP Progress Bar -->
      <rect x="20" y="306" width="256" height="8" rx="4" fill="#e0e0e0" stroke="#0288d1" stroke-width="1"/>
      <rect x="20" y="306" width="135.68" height="8" rx="4" fill="#4fc3f7">
        <animate attributeName="width" from="0" to="135.68" dur="0.5s" fill="freeze"/>
      </rect>
      
      <!-- XP Text -->
      <text x="50%" y="329" text-anchor="middle" font-family="monospace" font-size="9" fill="#00ff00">
        XP: 10590 / 10890 (53%)
      </text>
    
      
      <!-- Achievement Badges -->
      <g transform="translate(15, 311)">
    <g class="achievements">
      
      <g transform="translate(5, 0)">
        <title>Spark: 3 day streak</title>
        <circle cx="10" cy="10" r="10" fill="rgba(255,255,255,0.9)" stroke="#ddd" stroke-width="1"/>
        <text x="10" y="14" text-anchor="middle" font-size="11">⚡</text>
      </g>
    
      <g transform="translate(30, 0)">
        <title>Rising Star: Level 5</title>
        <circle cx="10" cy="10" r="10" fill="rgba(255,255,255,0.9)" stroke="#ddd" stroke-width="1"/>
        <text x="10" y="14" text-anchor="middle" font-size="11">🌟</text>
      </g>
    
      <g transform="translate(55, 0)">
        <title>Shining: Level 10</title>
        <circle cx="10" cy="10" r="10" fill="rgba(255,255,255,0.9)" stroke="#ddd" stroke-width="1"/>
        <text x="10" y="14" text-anchor="middle" font-size="11">✨</text>
      </g>
    
      <g transform="translate(80, 0)">
        <title>Rainbow: Level 25</title>
        <circle cx="10" cy="10" r="10" fill="rgba(255,255,255,0.9)" stroke="#ddd" stroke-width="1"/>
        <text x="10" y="14" text-anchor="middle" font-size="11">🌈</text>
      </g>
    
      
    </g>
  </g>
    </svg>